G04 #@! TF.GenerationSoftware,KiCad,Pcbnew,(5.1.0)-1*
G04 #@! TF.CreationDate,2022-11-08T17:01:55+01:00*
G04 #@! TF.ProjectId,USB - UART,55534220-2d20-4554-9152-542e6b696361,rev?*
G04 #@! TF.SameCoordinates,Original*
G04 #@! TF.FileFunction,Copper,L2,Bot*
G04 #@! TF.FilePolarity,Positive*
%FSLAX46Y46*%
G04 Gerber Fmt 4.6, Leading zero omitted, Abs format (unit mm)*
G04 Created by KiCad (PCBNEW (5.1.0)-1) date 2022-11-08 17:01:55*
%MOMM*%
%LPD*%
G04 APERTURE LIST*
%ADD10C,2.500000*%
%ADD11C,0.100000*%
%ADD12C,0.950000*%
%ADD13C,1.150000*%
%ADD14R,2.500000X2.500000*%
%ADD15C,1.524000*%
%ADD16O,4.200000X1.524000*%
%ADD17C,0.800000*%
%ADD18C,0.250000*%
%ADD19C,0.254000*%
G04 APERTURE END LIST*
D10*
X129750000Y-95500000D03*
X133750000Y-95500000D03*
D11*
G36*
X119060779Y-102276144D02*
G01*
X119083834Y-102279563D01*
X119106443Y-102285227D01*
X119128387Y-102293079D01*
X119149457Y-102303044D01*
X119169448Y-102315026D01*
X119188168Y-102328910D01*
X119205438Y-102344562D01*
X119221090Y-102361832D01*
X119234974Y-102380552D01*
X119246956Y-102400543D01*
X119256921Y-102421613D01*
X119264773Y-102443557D01*
X119270437Y-102466166D01*
X119273856Y-102489221D01*
X119275000Y-102512500D01*
X119275000Y-102987500D01*
X119273856Y-103010779D01*
X119270437Y-103033834D01*
X119264773Y-103056443D01*
X119256921Y-103078387D01*
X119246956Y-103099457D01*
X119234974Y-103119448D01*
X119221090Y-103138168D01*
X119205438Y-103155438D01*
X119188168Y-103171090D01*
X119169448Y-103184974D01*
X119149457Y-103196956D01*
X119128387Y-103206921D01*
X119106443Y-103214773D01*
X119083834Y-103220437D01*
X119060779Y-103223856D01*
X119037500Y-103225000D01*
X118462500Y-103225000D01*
X118439221Y-103223856D01*
X118416166Y-103220437D01*
X118393557Y-103214773D01*
X118371613Y-103206921D01*
X118350543Y-103196956D01*
X118330552Y-103184974D01*
X118311832Y-103171090D01*
X118294562Y-103155438D01*
X118278910Y-103138168D01*
X118265026Y-103119448D01*
X118253044Y-103099457D01*
X118243079Y-103078387D01*
X118235227Y-103056443D01*
X118229563Y-103033834D01*
X118226144Y-103010779D01*
X118225000Y-102987500D01*
X118225000Y-102512500D01*
X118226144Y-102489221D01*
X118229563Y-102466166D01*
X118235227Y-102443557D01*
X118243079Y-102421613D01*
X118253044Y-102400543D01*
X118265026Y-102380552D01*
X118278910Y-102361832D01*
X118294562Y-102344562D01*
X118311832Y-102328910D01*
X118330552Y-102315026D01*
X118350543Y-102303044D01*
X118371613Y-102293079D01*
X118393557Y-102285227D01*
X118416166Y-102279563D01*
X118439221Y-102276144D01*
X118462500Y-102275000D01*
X119037500Y-102275000D01*
X119060779Y-102276144D01*
X119060779Y-102276144D01*
G37*
D12*
X118750000Y-102750000D03*
D11*
G36*
X120810779Y-102276144D02*
G01*
X120833834Y-102279563D01*
X120856443Y-102285227D01*
X120878387Y-102293079D01*
X120899457Y-102303044D01*
X120919448Y-102315026D01*
X120938168Y-102328910D01*
X120955438Y-102344562D01*
X120971090Y-102361832D01*
X120984974Y-102380552D01*
X120996956Y-102400543D01*
X121006921Y-102421613D01*
X121014773Y-102443557D01*
X121020437Y-102466166D01*
X121023856Y-102489221D01*
X121025000Y-102512500D01*
X121025000Y-102987500D01*
X121023856Y-103010779D01*
X121020437Y-103033834D01*
X121014773Y-103056443D01*
X121006921Y-103078387D01*
X120996956Y-103099457D01*
X120984974Y-103119448D01*
X120971090Y-103138168D01*
X120955438Y-103155438D01*
X120938168Y-103171090D01*
X120919448Y-103184974D01*
X120899457Y-103196956D01*
X120878387Y-103206921D01*
X120856443Y-103214773D01*
X120833834Y-103220437D01*
X120810779Y-103223856D01*
X120787500Y-103225000D01*
X120212500Y-103225000D01*
X120189221Y-103223856D01*
X120166166Y-103220437D01*
X120143557Y-103214773D01*
X120121613Y-103206921D01*
X120100543Y-103196956D01*
X120080552Y-103184974D01*
X120061832Y-103171090D01*
X120044562Y-103155438D01*
X120028910Y-103138168D01*
X120015026Y-103119448D01*
X120003044Y-103099457D01*
X119993079Y-103078387D01*
X119985227Y-103056443D01*
X119979563Y-103033834D01*
X119976144Y-103010779D01*
X119975000Y-102987500D01*
X119975000Y-102512500D01*
X119976144Y-102489221D01*
X119979563Y-102466166D01*
X119985227Y-102443557D01*
X119993079Y-102421613D01*
X120003044Y-102400543D01*
X120015026Y-102380552D01*
X120028910Y-102361832D01*
X120044562Y-102344562D01*
X120061832Y-102328910D01*
X120080552Y-102315026D01*
X120100543Y-102303044D01*
X120121613Y-102293079D01*
X120143557Y-102285227D01*
X120166166Y-102279563D01*
X120189221Y-102276144D01*
X120212500Y-102275000D01*
X120787500Y-102275000D01*
X120810779Y-102276144D01*
X120810779Y-102276144D01*
G37*
D12*
X120500000Y-102750000D03*
D11*
G36*
X113810779Y-103026144D02*
G01*
X113833834Y-103029563D01*
X113856443Y-103035227D01*
X113878387Y-103043079D01*
X113899457Y-103053044D01*
X113919448Y-103065026D01*
X113938168Y-103078910D01*
X113955438Y-103094562D01*
X113971090Y-103111832D01*
X113984974Y-103130552D01*
X113996956Y-103150543D01*
X114006921Y-103171613D01*
X114014773Y-103193557D01*
X114020437Y-103216166D01*
X114023856Y-103239221D01*
X114025000Y-103262500D01*
X114025000Y-103737500D01*
X114023856Y-103760779D01*
X114020437Y-103783834D01*
X114014773Y-103806443D01*
X114006921Y-103828387D01*
X113996956Y-103849457D01*
X113984974Y-103869448D01*
X113971090Y-103888168D01*
X113955438Y-103905438D01*
X113938168Y-103921090D01*
X113919448Y-103934974D01*
X113899457Y-103946956D01*
X113878387Y-103956921D01*
X113856443Y-103964773D01*
X113833834Y-103970437D01*
X113810779Y-103973856D01*
X113787500Y-103975000D01*
X113212500Y-103975000D01*
X113189221Y-103973856D01*
X113166166Y-103970437D01*
X113143557Y-103964773D01*
X113121613Y-103956921D01*
X113100543Y-103946956D01*
X113080552Y-103934974D01*
X113061832Y-103921090D01*
X113044562Y-103905438D01*
X113028910Y-103888168D01*
X113015026Y-103869448D01*
X113003044Y-103849457D01*
X112993079Y-103828387D01*
X112985227Y-103806443D01*
X112979563Y-103783834D01*
X112976144Y-103760779D01*
X112975000Y-103737500D01*
X112975000Y-103262500D01*
X112976144Y-103239221D01*
X112979563Y-103216166D01*
X112985227Y-103193557D01*
X112993079Y-103171613D01*
X113003044Y-103150543D01*
X113015026Y-103130552D01*
X113028910Y-103111832D01*
X113044562Y-103094562D01*
X113061832Y-103078910D01*
X113080552Y-103065026D01*
X113100543Y-103053044D01*
X113121613Y-103043079D01*
X113143557Y-103035227D01*
X113166166Y-103029563D01*
X113189221Y-103026144D01*
X113212500Y-103025000D01*
X113787500Y-103025000D01*
X113810779Y-103026144D01*
X113810779Y-103026144D01*
G37*
D12*
X113500000Y-103500000D03*
D11*
G36*
X115560779Y-103026144D02*
G01*
X115583834Y-103029563D01*
X115606443Y-103035227D01*
X115628387Y-103043079D01*
X115649457Y-103053044D01*
X115669448Y-103065026D01*
X115688168Y-103078910D01*
X115705438Y-103094562D01*
X115721090Y-103111832D01*
X115734974Y-103130552D01*
X115746956Y-103150543D01*
X115756921Y-103171613D01*
X115764773Y-103193557D01*
X115770437Y-103216166D01*
X115773856Y-103239221D01*
X115775000Y-103262500D01*
X115775000Y-103737500D01*
X115773856Y-103760779D01*
X115770437Y-103783834D01*
X115764773Y-103806443D01*
X115756921Y-103828387D01*
X115746956Y-103849457D01*
X115734974Y-103869448D01*
X115721090Y-103888168D01*
X115705438Y-103905438D01*
X115688168Y-103921090D01*
X115669448Y-103934974D01*
X115649457Y-103946956D01*
X115628387Y-103956921D01*
X115606443Y-103964773D01*
X115583834Y-103970437D01*
X115560779Y-103973856D01*
X115537500Y-103975000D01*
X114962500Y-103975000D01*
X114939221Y-103973856D01*
X114916166Y-103970437D01*
X114893557Y-103964773D01*
X114871613Y-103956921D01*
X114850543Y-103946956D01*
X114830552Y-103934974D01*
X114811832Y-103921090D01*
X114794562Y-103905438D01*
X114778910Y-103888168D01*
X114765026Y-103869448D01*
X114753044Y-103849457D01*
X114743079Y-103828387D01*
X114735227Y-103806443D01*
X114729563Y-103783834D01*
X114726144Y-103760779D01*
X114725000Y-103737500D01*
X114725000Y-103262500D01*
X114726144Y-103239221D01*
X114729563Y-103216166D01*
X114735227Y-103193557D01*
X114743079Y-103171613D01*
X114753044Y-103150543D01*
X114765026Y-103130552D01*
X114778910Y-103111832D01*
X114794562Y-103094562D01*
X114811832Y-103078910D01*
X114830552Y-103065026D01*
X114850543Y-103053044D01*
X114871613Y-103043079D01*
X114893557Y-103035227D01*
X114916166Y-103029563D01*
X114939221Y-103026144D01*
X114962500Y-103025000D01*
X115537500Y-103025000D01*
X115560779Y-103026144D01*
X115560779Y-103026144D01*
G37*
D12*
X115250000Y-103500000D03*
D11*
G36*
X113810779Y-101526144D02*
G01*
X113833834Y-101529563D01*
X113856443Y-101535227D01*
X113878387Y-101543079D01*
X113899457Y-101553044D01*
X113919448Y-101565026D01*
X113938168Y-101578910D01*
X113955438Y-101594562D01*
X113971090Y-101611832D01*
X113984974Y-101630552D01*
X113996956Y-101650543D01*
X114006921Y-101671613D01*
X114014773Y-101693557D01*
X114020437Y-101716166D01*
X114023856Y-101739221D01*
X114025000Y-101762500D01*
X114025000Y-102237500D01*
X114023856Y-102260779D01*
X114020437Y-102283834D01*
X114014773Y-102306443D01*
X114006921Y-102328387D01*
X113996956Y-102349457D01*
X113984974Y-102369448D01*
X113971090Y-102388168D01*
X113955438Y-102405438D01*
X113938168Y-102421090D01*
X113919448Y-102434974D01*
X113899457Y-102446956D01*
X113878387Y-102456921D01*
X113856443Y-102464773D01*
X113833834Y-102470437D01*
X113810779Y-102473856D01*
X113787500Y-102475000D01*
X113212500Y-102475000D01*
X113189221Y-102473856D01*
X113166166Y-102470437D01*
X113143557Y-102464773D01*
X113121613Y-102456921D01*
X113100543Y-102446956D01*
X113080552Y-102434974D01*
X113061832Y-102421090D01*
X113044562Y-102405438D01*
X113028910Y-102388168D01*
X113015026Y-102369448D01*
X113003044Y-102349457D01*
X112993079Y-102328387D01*
X112985227Y-102306443D01*
X112979563Y-102283834D01*
X112976144Y-102260779D01*
X112975000Y-102237500D01*
X112975000Y-101762500D01*
X112976144Y-101739221D01*
X112979563Y-101716166D01*
X112985227Y-101693557D01*
X112993079Y-101671613D01*
X113003044Y-101650543D01*
X113015026Y-101630552D01*
X113028910Y-101611832D01*
X113044562Y-101594562D01*
X113061832Y-101578910D01*
X113080552Y-101565026D01*
X113100543Y-101553044D01*
X113121613Y-101543079D01*
X113143557Y-101535227D01*
X113166166Y-101529563D01*
X113189221Y-101526144D01*
X113212500Y-101525000D01*
X113787500Y-101525000D01*
X113810779Y-101526144D01*
X113810779Y-101526144D01*
G37*
D12*
X113500000Y-102000000D03*
D11*
G36*
X115560779Y-101526144D02*
G01*
X115583834Y-101529563D01*
X115606443Y-101535227D01*
X115628387Y-101543079D01*
X115649457Y-101553044D01*
X115669448Y-101565026D01*
X115688168Y-101578910D01*
X115705438Y-101594562D01*
X115721090Y-101611832D01*
X115734974Y-101630552D01*
X115746956Y-101650543D01*
X115756921Y-101671613D01*
X115764773Y-101693557D01*
X115770437Y-101716166D01*
X115773856Y-101739221D01*
X115775000Y-101762500D01*
X115775000Y-102237500D01*
X115773856Y-102260779D01*
X115770437Y-102283834D01*
X115764773Y-102306443D01*
X115756921Y-102328387D01*
X115746956Y-102349457D01*
X115734974Y-102369448D01*
X115721090Y-102388168D01*
X115705438Y-102405438D01*
X115688168Y-102421090D01*
X115669448Y-102434974D01*
X115649457Y-102446956D01*
X115628387Y-102456921D01*
X115606443Y-102464773D01*
X115583834Y-102470437D01*
X115560779Y-102473856D01*
X115537500Y-102475000D01*
X114962500Y-102475000D01*
X114939221Y-102473856D01*
X114916166Y-102470437D01*
X114893557Y-102464773D01*
X114871613Y-102456921D01*
X114850543Y-102446956D01*
X114830552Y-102434974D01*
X114811832Y-102421090D01*
X114794562Y-102405438D01*
X114778910Y-102388168D01*
X114765026Y-102369448D01*
X114753044Y-102349457D01*
X114743079Y-102328387D01*
X114735227Y-102306443D01*
X114729563Y-102283834D01*
X114726144Y-102260779D01*
X114725000Y-102237500D01*
X114725000Y-101762500D01*
X114726144Y-101739221D01*
X114729563Y-101716166D01*
X114735227Y-101693557D01*
X114743079Y-101671613D01*
X114753044Y-101650543D01*
X114765026Y-101630552D01*
X114778910Y-101611832D01*
X114794562Y-101594562D01*
X114811832Y-101578910D01*
X114830552Y-101565026D01*
X114850543Y-101553044D01*
X114871613Y-101543079D01*
X114893557Y-101535227D01*
X114916166Y-101529563D01*
X114939221Y-101526144D01*
X114962500Y-101525000D01*
X115537500Y-101525000D01*
X115560779Y-101526144D01*
X115560779Y-101526144D01*
G37*
D12*
X115250000Y-102000000D03*
D10*
X137750000Y-95500000D03*
D11*
G36*
X150224505Y-100876204D02*
G01*
X150248773Y-100879804D01*
X150272572Y-100885765D01*
X150295671Y-100894030D01*
X150317850Y-100904520D01*
X150338893Y-100917132D01*
X150358599Y-100931747D01*
X150376777Y-100948223D01*
X150393253Y-100966401D01*
X150407868Y-100986107D01*
X150420480Y-101007150D01*
X150430970Y-101029329D01*
X150439235Y-101052428D01*
X150445196Y-101076227D01*
X150448796Y-101100495D01*
X150450000Y-101124999D01*
X150450000Y-101775001D01*
X150448796Y-101799505D01*
X150445196Y-101823773D01*
X150439235Y-101847572D01*
X150430970Y-101870671D01*
X150420480Y-101892850D01*
X150407868Y-101913893D01*
X150393253Y-101933599D01*
X150376777Y-101951777D01*
X150358599Y-101968253D01*
X150338893Y-101982868D01*
X150317850Y-101995480D01*
X150295671Y-102005970D01*
X150272572Y-102014235D01*
X150248773Y-102020196D01*
X150224505Y-102023796D01*
X150200001Y-102025000D01*
X149299999Y-102025000D01*
X149275495Y-102023796D01*
X149251227Y-102020196D01*
X149227428Y-102014235D01*
X149204329Y-102005970D01*
X149182150Y-101995480D01*
X149161107Y-101982868D01*
X149141401Y-101968253D01*
X149123223Y-101951777D01*
X149106747Y-101933599D01*
X149092132Y-101913893D01*
X149079520Y-101892850D01*
X149069030Y-101870671D01*
X149060765Y-101847572D01*
X149054804Y-101823773D01*
X149051204Y-101799505D01*
X149050000Y-101775001D01*
X149050000Y-101124999D01*
X149051204Y-101100495D01*
X149054804Y-101076227D01*
X149060765Y-101052428D01*
X149069030Y-101029329D01*
X149079520Y-101007150D01*
X149092132Y-100986107D01*
X149106747Y-100966401D01*
X149123223Y-100948223D01*
X149141401Y-100931747D01*
X149161107Y-100917132D01*
X149182150Y-100904520D01*
X149204329Y-100894030D01*
X149227428Y-100885765D01*
X149251227Y-100879804D01*
X149275495Y-100876204D01*
X149299999Y-100875000D01*
X150200001Y-100875000D01*
X150224505Y-100876204D01*
X150224505Y-100876204D01*
G37*
D13*
X149750000Y-101450000D03*
D11*
G36*
X150224505Y-102926204D02*
G01*
X150248773Y-102929804D01*
X150272572Y-102935765D01*
X150295671Y-102944030D01*
X150317850Y-102954520D01*
X150338893Y-102967132D01*
X150358599Y-102981747D01*
X150376777Y-102998223D01*
X150393253Y-103016401D01*
X150407868Y-103036107D01*
X150420480Y-103057150D01*
X150430970Y-103079329D01*
X150439235Y-103102428D01*
X150445196Y-103126227D01*
X150448796Y-103150495D01*
X150450000Y-103174999D01*
X150450000Y-103825001D01*
X150448796Y-103849505D01*
X150445196Y-103873773D01*
X150439235Y-103897572D01*
X150430970Y-103920671D01*
X150420480Y-103942850D01*
X150407868Y-103963893D01*
X150393253Y-103983599D01*
X150376777Y-104001777D01*
X150358599Y-104018253D01*
X150338893Y-104032868D01*
X150317850Y-104045480D01*
X150295671Y-104055970D01*
X150272572Y-104064235D01*
X150248773Y-104070196D01*
X150224505Y-104073796D01*
X150200001Y-104075000D01*
X149299999Y-104075000D01*
X149275495Y-104073796D01*
X149251227Y-104070196D01*
X149227428Y-104064235D01*
X149204329Y-104055970D01*
X149182150Y-104045480D01*
X149161107Y-104032868D01*
X149141401Y-104018253D01*
X149123223Y-104001777D01*
X149106747Y-103983599D01*
X149092132Y-103963893D01*
X149079520Y-103942850D01*
X149069030Y-103920671D01*
X149060765Y-103897572D01*
X149054804Y-103873773D01*
X149051204Y-103849505D01*
X149050000Y-103825001D01*
X149050000Y-103174999D01*
X149051204Y-103150495D01*
X149054804Y-103126227D01*
X149060765Y-103102428D01*
X149069030Y-103079329D01*
X149079520Y-103057150D01*
X149092132Y-103036107D01*
X149106747Y-103016401D01*
X149123223Y-102998223D01*
X149141401Y-102981747D01*
X149161107Y-102967132D01*
X149182150Y-102954520D01*
X149204329Y-102944030D01*
X149227428Y-102935765D01*
X149251227Y-102929804D01*
X149275495Y-102926204D01*
X149299999Y-102925000D01*
X150200001Y-102925000D01*
X150224505Y-102926204D01*
X150224505Y-102926204D01*
G37*
D13*
X149750000Y-103500000D03*
D11*
G36*
X152224505Y-102926204D02*
G01*
X152248773Y-102929804D01*
X152272572Y-102935765D01*
X152295671Y-102944030D01*
X152317850Y-102954520D01*
X152338893Y-102967132D01*
X152358599Y-102981747D01*
X152376777Y-102998223D01*
X152393253Y-103016401D01*
X152407868Y-103036107D01*
X152420480Y-103057150D01*
X152430970Y-103079329D01*
X152439235Y-103102428D01*
X152445196Y-103126227D01*
X152448796Y-103150495D01*
X152450000Y-103174999D01*
X152450000Y-103825001D01*
X152448796Y-103849505D01*
X152445196Y-103873773D01*
X152439235Y-103897572D01*
X152430970Y-103920671D01*
X152420480Y-103942850D01*
X152407868Y-103963893D01*
X152393253Y-103983599D01*
X152376777Y-104001777D01*
X152358599Y-104018253D01*
X152338893Y-104032868D01*
X152317850Y-104045480D01*
X152295671Y-104055970D01*
X152272572Y-104064235D01*
X152248773Y-104070196D01*
X152224505Y-104073796D01*
X152200001Y-104075000D01*
X151299999Y-104075000D01*
X151275495Y-104073796D01*
X151251227Y-104070196D01*
X151227428Y-104064235D01*
X151204329Y-104055970D01*
X151182150Y-104045480D01*
X151161107Y-104032868D01*
X151141401Y-104018253D01*
X151123223Y-104001777D01*
X151106747Y-103983599D01*
X151092132Y-103963893D01*
X151079520Y-103942850D01*
X151069030Y-103920671D01*
X151060765Y-103897572D01*
X151054804Y-103873773D01*
X151051204Y-103849505D01*
X151050000Y-103825001D01*
X151050000Y-103174999D01*
X151051204Y-103150495D01*
X151054804Y-103126227D01*
X151060765Y-103102428D01*
X151069030Y-103079329D01*
X151079520Y-103057150D01*
X151092132Y-103036107D01*
X151106747Y-103016401D01*
X151123223Y-102998223D01*
X151141401Y-102981747D01*
X151161107Y-102967132D01*
X151182150Y-102954520D01*
X151204329Y-102944030D01*
X151227428Y-102935765D01*
X151251227Y-102929804D01*
X151275495Y-102926204D01*
X151299999Y-102925000D01*
X152200001Y-102925000D01*
X152224505Y-102926204D01*
X152224505Y-102926204D01*
G37*
D13*
X151750000Y-103500000D03*
D11*
G36*
X152224505Y-100876204D02*
G01*
X152248773Y-100879804D01*
X152272572Y-100885765D01*
X152295671Y-100894030D01*
X152317850Y-100904520D01*
X152338893Y-100917132D01*
X152358599Y-100931747D01*
X152376777Y-100948223D01*
X152393253Y-100966401D01*
X152407868Y-100986107D01*
X152420480Y-101007150D01*
X152430970Y-101029329D01*
X152439235Y-101052428D01*
X152445196Y-101076227D01*
X152448796Y-101100495D01*
X152450000Y-101124999D01*
X152450000Y-101775001D01*
X152448796Y-101799505D01*
X152445196Y-101823773D01*
X152439235Y-101847572D01*
X152430970Y-101870671D01*
X152420480Y-101892850D01*
X152407868Y-101913893D01*
X152393253Y-101933599D01*
X152376777Y-101951777D01*
X152358599Y-101968253D01*
X152338893Y-101982868D01*
X152317850Y-101995480D01*
X152295671Y-102005970D01*
X152272572Y-102014235D01*
X152248773Y-102020196D01*
X152224505Y-102023796D01*
X152200001Y-102025000D01*
X151299999Y-102025000D01*
X151275495Y-102023796D01*
X151251227Y-102020196D01*
X151227428Y-102014235D01*
X151204329Y-102005970D01*
X151182150Y-101995480D01*
X151161107Y-101982868D01*
X151141401Y-101968253D01*
X151123223Y-101951777D01*
X151106747Y-101933599D01*
X151092132Y-101913893D01*
X151079520Y-101892850D01*
X151069030Y-101870671D01*
X151060765Y-101847572D01*
X151054804Y-101823773D01*
X151051204Y-101799505D01*
X151050000Y-101775001D01*
X151050000Y-101124999D01*
X151051204Y-101100495D01*
X151054804Y-101076227D01*
X151060765Y-101052428D01*
X151069030Y-101029329D01*
X151079520Y-101007150D01*
X151092132Y-100986107D01*
X151106747Y-100966401D01*
X151123223Y-100948223D01*
X151141401Y-100931747D01*
X151161107Y-100917132D01*
X151182150Y-100904520D01*
X151204329Y-100894030D01*
X151227428Y-100885765D01*
X151251227Y-100879804D01*
X151275495Y-100876204D01*
X151299999Y-100875000D01*
X152200001Y-100875000D01*
X152224505Y-100876204D01*
X152224505Y-100876204D01*
G37*
D13*
X151750000Y-101450000D03*
D14*
X137750000Y-109500000D03*
D10*
X121750000Y-109500000D03*
X121750000Y-95500000D03*
X125750000Y-95500000D03*
D11*
G36*
X139149505Y-99051204D02*
G01*
X139173773Y-99054804D01*
X139197572Y-99060765D01*
X139220671Y-99069030D01*
X139242850Y-99079520D01*
X139263893Y-99092132D01*
X139283599Y-99106747D01*
X139301777Y-99123223D01*
X139318253Y-99141401D01*
X139332868Y-99161107D01*
X139345480Y-99182150D01*
X139355970Y-99204329D01*
X139364235Y-99227428D01*
X139370196Y-99251227D01*
X139373796Y-99275495D01*
X139375000Y-99299999D01*
X139375000Y-100200001D01*
X139373796Y-100224505D01*
X139370196Y-100248773D01*
X139364235Y-100272572D01*
X139355970Y-100295671D01*
X139345480Y-100317850D01*
X139332868Y-100338893D01*
X139318253Y-100358599D01*
X139301777Y-100376777D01*
X139283599Y-100393253D01*
X139263893Y-100407868D01*
X139242850Y-100420480D01*
X139220671Y-100430970D01*
X139197572Y-100439235D01*
X139173773Y-100445196D01*
X139149505Y-100448796D01*
X139125001Y-100450000D01*
X138474999Y-100450000D01*
X138450495Y-100448796D01*
X138426227Y-100445196D01*
X138402428Y-100439235D01*
X138379329Y-100430970D01*
X138357150Y-100420480D01*
X138336107Y-100407868D01*
X138316401Y-100393253D01*
X138298223Y-100376777D01*
X138281747Y-100358599D01*
X138267132Y-100338893D01*
X138254520Y-100317850D01*
X138244030Y-100295671D01*
X138235765Y-100272572D01*
X138229804Y-100248773D01*
X138226204Y-100224505D01*
X138225000Y-100200001D01*
X138225000Y-99299999D01*
X138226204Y-99275495D01*
X138229804Y-99251227D01*
X138235765Y-99227428D01*
X138244030Y-99204329D01*
X138254520Y-99182150D01*
X138267132Y-99161107D01*
X138281747Y-99141401D01*
X138298223Y-99123223D01*
X138316401Y-99106747D01*
X138336107Y-99092132D01*
X138357150Y-99079520D01*
X138379329Y-99069030D01*
X138402428Y-99060765D01*
X138426227Y-99054804D01*
X138450495Y-99051204D01*
X138474999Y-99050000D01*
X139125001Y-99050000D01*
X139149505Y-99051204D01*
X139149505Y-99051204D01*
G37*
D13*
X138800000Y-99750000D03*
D11*
G36*
X137099505Y-99051204D02*
G01*
X137123773Y-99054804D01*
X137147572Y-99060765D01*
X137170671Y-99069030D01*
X137192850Y-99079520D01*
X137213893Y-99092132D01*
X137233599Y-99106747D01*
X137251777Y-99123223D01*
X137268253Y-99141401D01*
X137282868Y-99161107D01*
X137295480Y-99182150D01*
X137305970Y-99204329D01*
X137314235Y-99227428D01*
X137320196Y-99251227D01*
X137323796Y-99275495D01*
X137325000Y-99299999D01*
X137325000Y-100200001D01*
X137323796Y-100224505D01*
X137320196Y-100248773D01*
X137314235Y-100272572D01*
X137305970Y-100295671D01*
X137295480Y-100317850D01*
X137282868Y-100338893D01*
X137268253Y-100358599D01*
X137251777Y-100376777D01*
X137233599Y-100393253D01*
X137213893Y-100407868D01*
X137192850Y-100420480D01*
X137170671Y-100430970D01*
X137147572Y-100439235D01*
X137123773Y-100445196D01*
X137099505Y-100448796D01*
X137075001Y-100450000D01*
X136424999Y-100450000D01*
X136400495Y-100448796D01*
X136376227Y-100445196D01*
X136352428Y-100439235D01*
X136329329Y-100430970D01*
X136307150Y-100420480D01*
X136286107Y-100407868D01*
X136266401Y-100393253D01*
X136248223Y-100376777D01*
X136231747Y-100358599D01*
X136217132Y-100338893D01*
X136204520Y-100317850D01*
X136194030Y-100295671D01*
X136185765Y-100272572D01*
X136179804Y-100248773D01*
X136176204Y-100224505D01*
X136175000Y-100200001D01*
X136175000Y-99299999D01*
X136176204Y-99275495D01*
X136179804Y-99251227D01*
X136185765Y-99227428D01*
X136194030Y-99204329D01*
X136204520Y-99182150D01*
X136217132Y-99161107D01*
X136231747Y-99141401D01*
X136248223Y-99123223D01*
X136266401Y-99106747D01*
X136286107Y-99092132D01*
X136307150Y-99079520D01*
X136329329Y-99069030D01*
X136352428Y-99060765D01*
X136376227Y-99054804D01*
X136400495Y-99051204D01*
X136424999Y-99050000D01*
X137075001Y-99050000D01*
X137099505Y-99051204D01*
X137099505Y-99051204D01*
G37*
D13*
X136750000Y-99750000D03*
D11*
G36*
X137049505Y-102051204D02*
G01*
X137073773Y-102054804D01*
X137097572Y-102060765D01*
X137120671Y-102069030D01*
X137142850Y-102079520D01*
X137163893Y-102092132D01*
X137183599Y-102106747D01*
X137201777Y-102123223D01*
X137218253Y-102141401D01*
X137232868Y-102161107D01*
X137245480Y-102182150D01*
X137255970Y-102204329D01*
X137264235Y-102227428D01*
X137270196Y-102251227D01*
X137273796Y-102275495D01*
X137275000Y-102299999D01*
X137275000Y-103200001D01*
X137273796Y-103224505D01*
X137270196Y-103248773D01*
X137264235Y-103272572D01*
X137255970Y-103295671D01*
X137245480Y-103317850D01*
X137232868Y-103338893D01*
X137218253Y-103358599D01*
X137201777Y-103376777D01*
X137183599Y-103393253D01*
X137163893Y-103407868D01*
X137142850Y-103420480D01*
X137120671Y-103430970D01*
X137097572Y-103439235D01*
X137073773Y-103445196D01*
X137049505Y-103448796D01*
X137025001Y-103450000D01*
X136374999Y-103450000D01*
X136350495Y-103448796D01*
X136326227Y-103445196D01*
X136302428Y-103439235D01*
X136279329Y-103430970D01*
X136257150Y-103420480D01*
X136236107Y-103407868D01*
X136216401Y-103393253D01*
X136198223Y-103376777D01*
X136181747Y-103358599D01*
X136167132Y-103338893D01*
X136154520Y-103317850D01*
X136144030Y-103295671D01*
X136135765Y-103272572D01*
X136129804Y-103248773D01*
X136126204Y-103224505D01*
X136125000Y-103200001D01*
X136125000Y-102299999D01*
X136126204Y-102275495D01*
X136129804Y-102251227D01*
X136135765Y-102227428D01*
X136144030Y-102204329D01*
X136154520Y-102182150D01*
X136167132Y-102161107D01*
X136181747Y-102141401D01*
X136198223Y-102123223D01*
X136216401Y-102106747D01*
X136236107Y-102092132D01*
X136257150Y-102079520D01*
X136279329Y-102069030D01*
X136302428Y-102060765D01*
X136326227Y-102054804D01*
X136350495Y-102051204D01*
X136374999Y-102050000D01*
X137025001Y-102050000D01*
X137049505Y-102051204D01*
X137049505Y-102051204D01*
G37*
D13*
X136700000Y-102750000D03*
D11*
G36*
X139099505Y-102051204D02*
G01*
X139123773Y-102054804D01*
X139147572Y-102060765D01*
X139170671Y-102069030D01*
X139192850Y-102079520D01*
X139213893Y-102092132D01*
X139233599Y-102106747D01*
X139251777Y-102123223D01*
X139268253Y-102141401D01*
X139282868Y-102161107D01*
X139295480Y-102182150D01*
X139305970Y-102204329D01*
X139314235Y-102227428D01*
X139320196Y-102251227D01*
X139323796Y-102275495D01*
X139325000Y-102299999D01*
X139325000Y-103200001D01*
X139323796Y-103224505D01*
X139320196Y-103248773D01*
X139314235Y-103272572D01*
X139305970Y-103295671D01*
X139295480Y-103317850D01*
X139282868Y-103338893D01*
X139268253Y-103358599D01*
X139251777Y-103376777D01*
X139233599Y-103393253D01*
X139213893Y-103407868D01*
X139192850Y-103420480D01*
X139170671Y-103430970D01*
X139147572Y-103439235D01*
X139123773Y-103445196D01*
X139099505Y-103448796D01*
X139075001Y-103450000D01*
X138424999Y-103450000D01*
X138400495Y-103448796D01*
X138376227Y-103445196D01*
X138352428Y-103439235D01*
X138329329Y-103430970D01*
X138307150Y-103420480D01*
X138286107Y-103407868D01*
X138266401Y-103393253D01*
X138248223Y-103376777D01*
X138231747Y-103358599D01*
X138217132Y-103338893D01*
X138204520Y-103317850D01*
X138194030Y-103295671D01*
X138185765Y-103272572D01*
X138179804Y-103248773D01*
X138176204Y-103224505D01*
X138175000Y-103200001D01*
X138175000Y-102299999D01*
X138176204Y-102275495D01*
X138179804Y-102251227D01*
X138185765Y-102227428D01*
X138194030Y-102204329D01*
X138204520Y-102182150D01*
X138217132Y-102161107D01*
X138231747Y-102141401D01*
X138248223Y-102123223D01*
X138266401Y-102106747D01*
X138286107Y-102092132D01*
X138307150Y-102079520D01*
X138329329Y-102069030D01*
X138352428Y-102060765D01*
X138376227Y-102054804D01*
X138400495Y-102051204D01*
X138424999Y-102050000D01*
X139075001Y-102050000D01*
X139099505Y-102051204D01*
X139099505Y-102051204D01*
G37*
D13*
X138750000Y-102750000D03*
D11*
G36*
X137099505Y-104551204D02*
G01*
X137123773Y-104554804D01*
X137147572Y-104560765D01*
X137170671Y-104569030D01*
X137192850Y-104579520D01*
X137213893Y-104592132D01*
X137233599Y-104606747D01*
X137251777Y-104623223D01*
X137268253Y-104641401D01*
X137282868Y-104661107D01*
X137295480Y-104682150D01*
X137305970Y-104704329D01*
X137314235Y-104727428D01*
X137320196Y-104751227D01*
X137323796Y-104775495D01*
X137325000Y-104799999D01*
X137325000Y-105700001D01*
X137323796Y-105724505D01*
X137320196Y-105748773D01*
X137314235Y-105772572D01*
X137305970Y-105795671D01*
X137295480Y-105817850D01*
X137282868Y-105838893D01*
X137268253Y-105858599D01*
X137251777Y-105876777D01*
X137233599Y-105893253D01*
X137213893Y-105907868D01*
X137192850Y-105920480D01*
X137170671Y-105930970D01*
X137147572Y-105939235D01*
X137123773Y-105945196D01*
X137099505Y-105948796D01*
X137075001Y-105950000D01*
X136424999Y-105950000D01*
X136400495Y-105948796D01*
X136376227Y-105945196D01*
X136352428Y-105939235D01*
X136329329Y-105930970D01*
X136307150Y-105920480D01*
X136286107Y-105907868D01*
X136266401Y-105893253D01*
X136248223Y-105876777D01*
X136231747Y-105858599D01*
X136217132Y-105838893D01*
X136204520Y-105817850D01*
X136194030Y-105795671D01*
X136185765Y-105772572D01*
X136179804Y-105748773D01*
X136176204Y-105724505D01*
X136175000Y-105700001D01*
X136175000Y-104799999D01*
X136176204Y-104775495D01*
X136179804Y-104751227D01*
X136185765Y-104727428D01*
X136194030Y-104704329D01*
X136204520Y-104682150D01*
X136217132Y-104661107D01*
X136231747Y-104641401D01*
X136248223Y-104623223D01*
X136266401Y-104606747D01*
X136286107Y-104592132D01*
X136307150Y-104579520D01*
X136329329Y-104569030D01*
X136352428Y-104560765D01*
X136376227Y-104554804D01*
X136400495Y-104551204D01*
X136424999Y-104550000D01*
X137075001Y-104550000D01*
X137099505Y-104551204D01*
X137099505Y-104551204D01*
G37*
D13*
X136750000Y-105250000D03*
D11*
G36*
X139149505Y-104551204D02*
G01*
X139173773Y-104554804D01*
X139197572Y-104560765D01*
X139220671Y-104569030D01*
X139242850Y-104579520D01*
X139263893Y-104592132D01*
X139283599Y-104606747D01*
X139301777Y-104623223D01*
X139318253Y-104641401D01*
X139332868Y-104661107D01*
X139345480Y-104682150D01*
X139355970Y-104704329D01*
X139364235Y-104727428D01*
X139370196Y-104751227D01*
X139373796Y-104775495D01*
X139375000Y-104799999D01*
X139375000Y-105700001D01*
X139373796Y-105724505D01*
X139370196Y-105748773D01*
X139364235Y-105772572D01*
X139355970Y-105795671D01*
X139345480Y-105817850D01*
X139332868Y-105838893D01*
X139318253Y-105858599D01*
X139301777Y-105876777D01*
X139283599Y-105893253D01*
X139263893Y-105907868D01*
X139242850Y-105920480D01*
X139220671Y-105930970D01*
X139197572Y-105939235D01*
X139173773Y-105945196D01*
X139149505Y-105948796D01*
X139125001Y-105950000D01*
X138474999Y-105950000D01*
X138450495Y-105948796D01*
X138426227Y-105945196D01*
X138402428Y-105939235D01*
X138379329Y-105930970D01*
X138357150Y-105920480D01*
X138336107Y-105907868D01*
X138316401Y-105893253D01*
X138298223Y-105876777D01*
X138281747Y-105858599D01*
X138267132Y-105838893D01*
X138254520Y-105817850D01*
X138244030Y-105795671D01*
X138235765Y-105772572D01*
X138229804Y-105748773D01*
X138226204Y-105724505D01*
X138225000Y-105700001D01*
X138225000Y-104799999D01*
X138226204Y-104775495D01*
X138229804Y-104751227D01*
X138235765Y-104727428D01*
X138244030Y-104704329D01*
X138254520Y-104682150D01*
X138267132Y-104661107D01*
X138281747Y-104641401D01*
X138298223Y-104623223D01*
X138316401Y-104606747D01*
X138336107Y-104592132D01*
X138357150Y-104579520D01*
X138379329Y-104569030D01*
X138402428Y-104560765D01*
X138426227Y-104554804D01*
X138450495Y-104551204D01*
X138474999Y-104550000D01*
X139125001Y-104550000D01*
X139149505Y-104551204D01*
X139149505Y-104551204D01*
G37*
D13*
X138800000Y-105250000D03*
D11*
G36*
X146399505Y-104301204D02*
G01*
X146423773Y-104304804D01*
X146447572Y-104310765D01*
X146470671Y-104319030D01*
X146492850Y-104329520D01*
X146513893Y-104342132D01*
X146533599Y-104356747D01*
X146551777Y-104373223D01*
X146568253Y-104391401D01*
X146582868Y-104411107D01*
X146595480Y-104432150D01*
X146605970Y-104454329D01*
X146614235Y-104477428D01*
X146620196Y-104501227D01*
X146623796Y-104525495D01*
X146625000Y-104549999D01*
X146625000Y-105450001D01*
X146623796Y-105474505D01*
X146620196Y-105498773D01*
X146614235Y-105522572D01*
X146605970Y-105545671D01*
X146595480Y-105567850D01*
X146582868Y-105588893D01*
X146568253Y-105608599D01*
X146551777Y-105626777D01*
X146533599Y-105643253D01*
X146513893Y-105657868D01*
X146492850Y-105670480D01*
X146470671Y-105680970D01*
X146447572Y-105689235D01*
X146423773Y-105695196D01*
X146399505Y-105698796D01*
X146375001Y-105700000D01*
X145724999Y-105700000D01*
X145700495Y-105698796D01*
X145676227Y-105695196D01*
X145652428Y-105689235D01*
X145629329Y-105680970D01*
X145607150Y-105670480D01*
X145586107Y-105657868D01*
X145566401Y-105643253D01*
X145548223Y-105626777D01*
X145531747Y-105608599D01*
X145517132Y-105588893D01*
X145504520Y-105567850D01*
X145494030Y-105545671D01*
X145485765Y-105522572D01*
X145479804Y-105498773D01*
X145476204Y-105474505D01*
X145475000Y-105450001D01*
X145475000Y-104549999D01*
X145476204Y-104525495D01*
X145479804Y-104501227D01*
X145485765Y-104477428D01*
X145494030Y-104454329D01*
X145504520Y-104432150D01*
X145517132Y-104411107D01*
X145531747Y-104391401D01*
X145548223Y-104373223D01*
X145566401Y-104356747D01*
X145586107Y-104342132D01*
X145607150Y-104329520D01*
X145629329Y-104319030D01*
X145652428Y-104310765D01*
X145676227Y-104304804D01*
X145700495Y-104301204D01*
X145724999Y-104300000D01*
X146375001Y-104300000D01*
X146399505Y-104301204D01*
X146399505Y-104301204D01*
G37*
D13*
X146050000Y-105000000D03*
D11*
G36*
X144349505Y-104301204D02*
G01*
X144373773Y-104304804D01*
X144397572Y-104310765D01*
X144420671Y-104319030D01*
X144442850Y-104329520D01*
X144463893Y-104342132D01*
X144483599Y-104356747D01*
X144501777Y-104373223D01*
X144518253Y-104391401D01*
X144532868Y-104411107D01*
X144545480Y-104432150D01*
X144555970Y-104454329D01*
X144564235Y-104477428D01*
X144570196Y-104501227D01*
X144573796Y-104525495D01*
X144575000Y-104549999D01*
X144575000Y-105450001D01*
X144573796Y-105474505D01*
X144570196Y-105498773D01*
X144564235Y-105522572D01*
X144555970Y-105545671D01*
X144545480Y-105567850D01*
X144532868Y-105588893D01*
X144518253Y-105608599D01*
X144501777Y-105626777D01*
X144483599Y-105643253D01*
X144463893Y-105657868D01*
X144442850Y-105670480D01*
X144420671Y-105680970D01*
X144397572Y-105689235D01*
X144373773Y-105695196D01*
X144349505Y-105698796D01*
X144325001Y-105700000D01*
X143674999Y-105700000D01*
X143650495Y-105698796D01*
X143626227Y-105695196D01*
X143602428Y-105689235D01*
X143579329Y-105680970D01*
X143557150Y-105670480D01*
X143536107Y-105657868D01*
X143516401Y-105643253D01*
X143498223Y-105626777D01*
X143481747Y-105608599D01*
X143467132Y-105588893D01*
X143454520Y-105567850D01*
X143444030Y-105545671D01*
X143435765Y-105522572D01*
X143429804Y-105498773D01*
X143426204Y-105474505D01*
X143425000Y-105450001D01*
X143425000Y-104549999D01*
X143426204Y-104525495D01*
X143429804Y-104501227D01*
X143435765Y-104477428D01*
X143444030Y-104454329D01*
X143454520Y-104432150D01*
X143467132Y-104411107D01*
X143481747Y-104391401D01*
X143498223Y-104373223D01*
X143516401Y-104356747D01*
X143536107Y-104342132D01*
X143557150Y-104329520D01*
X143579329Y-104319030D01*
X143602428Y-104310765D01*
X143626227Y-104304804D01*
X143650495Y-104301204D01*
X143674999Y-104300000D01*
X144325001Y-104300000D01*
X144349505Y-104301204D01*
X144349505Y-104301204D01*
G37*
D13*
X144000000Y-105000000D03*
D11*
G36*
X123599505Y-104051204D02*
G01*
X123623773Y-104054804D01*
X123647572Y-104060765D01*
X123670671Y-104069030D01*
X123692850Y-104079520D01*
X123713893Y-104092132D01*
X123733599Y-104106747D01*
X123751777Y-104123223D01*
X123768253Y-104141401D01*
X123782868Y-104161107D01*
X123795480Y-104182150D01*
X123805970Y-104204329D01*
X123814235Y-104227428D01*
X123820196Y-104251227D01*
X123823796Y-104275495D01*
X123825000Y-104299999D01*
X123825000Y-105200001D01*
X123823796Y-105224505D01*
X123820196Y-105248773D01*
X123814235Y-105272572D01*
X123805970Y-105295671D01*
X123795480Y-105317850D01*
X123782868Y-105338893D01*
X123768253Y-105358599D01*
X123751777Y-105376777D01*
X123733599Y-105393253D01*
X123713893Y-105407868D01*
X123692850Y-105420480D01*
X123670671Y-105430970D01*
X123647572Y-105439235D01*
X123623773Y-105445196D01*
X123599505Y-105448796D01*
X123575001Y-105450000D01*
X122924999Y-105450000D01*
X122900495Y-105448796D01*
X122876227Y-105445196D01*
X122852428Y-105439235D01*
X122829329Y-105430970D01*
X122807150Y-105420480D01*
X122786107Y-105407868D01*
X122766401Y-105393253D01*
X122748223Y-105376777D01*
X122731747Y-105358599D01*
X122717132Y-105338893D01*
X122704520Y-105317850D01*
X122694030Y-105295671D01*
X122685765Y-105272572D01*
X122679804Y-105248773D01*
X122676204Y-105224505D01*
X122675000Y-105200001D01*
X122675000Y-104299999D01*
X122676204Y-104275495D01*
X122679804Y-104251227D01*
X122685765Y-104227428D01*
X122694030Y-104204329D01*
X122704520Y-104182150D01*
X122717132Y-104161107D01*
X122731747Y-104141401D01*
X122748223Y-104123223D01*
X122766401Y-104106747D01*
X122786107Y-104092132D01*
X122807150Y-104079520D01*
X122829329Y-104069030D01*
X122852428Y-104060765D01*
X122876227Y-104054804D01*
X122900495Y-104051204D01*
X122924999Y-104050000D01*
X123575001Y-104050000D01*
X123599505Y-104051204D01*
X123599505Y-104051204D01*
G37*
D13*
X123250000Y-104750000D03*
D11*
G36*
X125649505Y-104051204D02*
G01*
X125673773Y-104054804D01*
X125697572Y-104060765D01*
X125720671Y-104069030D01*
X125742850Y-104079520D01*
X125763893Y-104092132D01*
X125783599Y-104106747D01*
X125801777Y-104123223D01*
X125818253Y-104141401D01*
X125832868Y-104161107D01*
X125845480Y-104182150D01*
X125855970Y-104204329D01*
X125864235Y-104227428D01*
X125870196Y-104251227D01*
X125873796Y-104275495D01*
X125875000Y-104299999D01*
X125875000Y-105200001D01*
X125873796Y-105224505D01*
X125870196Y-105248773D01*
X125864235Y-105272572D01*
X125855970Y-105295671D01*
X125845480Y-105317850D01*
X125832868Y-105338893D01*
X125818253Y-105358599D01*
X125801777Y-105376777D01*
X125783599Y-105393253D01*
X125763893Y-105407868D01*
X125742850Y-105420480D01*
X125720671Y-105430970D01*
X125697572Y-105439235D01*
X125673773Y-105445196D01*
X125649505Y-105448796D01*
X125625001Y-105450000D01*
X124974999Y-105450000D01*
X124950495Y-105448796D01*
X124926227Y-105445196D01*
X124902428Y-105439235D01*
X124879329Y-105430970D01*
X124857150Y-105420480D01*
X124836107Y-105407868D01*
X124816401Y-105393253D01*
X124798223Y-105376777D01*
X124781747Y-105358599D01*
X124767132Y-105338893D01*
X124754520Y-105317850D01*
X124744030Y-105295671D01*
X124735765Y-105272572D01*
X124729804Y-105248773D01*
X124726204Y-105224505D01*
X124725000Y-105200001D01*
X124725000Y-104299999D01*
X124726204Y-104275495D01*
X124729804Y-104251227D01*
X124735765Y-104227428D01*
X124744030Y-104204329D01*
X124754520Y-104182150D01*
X124767132Y-104161107D01*
X124781747Y-104141401D01*
X124798223Y-104123223D01*
X124816401Y-104106747D01*
X124836107Y-104092132D01*
X124857150Y-104079520D01*
X124879329Y-104069030D01*
X124902428Y-104060765D01*
X124926227Y-104054804D01*
X124950495Y-104051204D01*
X124974999Y-104050000D01*
X125625001Y-104050000D01*
X125649505Y-104051204D01*
X125649505Y-104051204D01*
G37*
D13*
X125300000Y-104750000D03*
D11*
G36*
X125624505Y-106051204D02*
G01*
X125648773Y-106054804D01*
X125672572Y-106060765D01*
X125695671Y-106069030D01*
X125717850Y-106079520D01*
X125738893Y-106092132D01*
X125758599Y-106106747D01*
X125776777Y-106123223D01*
X125793253Y-106141401D01*
X125807868Y-106161107D01*
X125820480Y-106182150D01*
X125830970Y-106204329D01*
X125839235Y-106227428D01*
X125845196Y-106251227D01*
X125848796Y-106275495D01*
X125850000Y-106299999D01*
X125850000Y-107200001D01*
X125848796Y-107224505D01*
X125845196Y-107248773D01*
X125839235Y-107272572D01*
X125830970Y-107295671D01*
X125820480Y-107317850D01*
X125807868Y-107338893D01*
X125793253Y-107358599D01*
X125776777Y-107376777D01*
X125758599Y-107393253D01*
X125738893Y-107407868D01*
X125717850Y-107420480D01*
X125695671Y-107430970D01*
X125672572Y-107439235D01*
X125648773Y-107445196D01*
X125624505Y-107448796D01*
X125600001Y-107450000D01*
X124949999Y-107450000D01*
X124925495Y-107448796D01*
X124901227Y-107445196D01*
X124877428Y-107439235D01*
X124854329Y-107430970D01*
X124832150Y-107420480D01*
X124811107Y-107407868D01*
X124791401Y-107393253D01*
X124773223Y-107376777D01*
X124756747Y-107358599D01*
X124742132Y-107338893D01*
X124729520Y-107317850D01*
X124719030Y-107295671D01*
X124710765Y-107272572D01*
X124704804Y-107248773D01*
X124701204Y-107224505D01*
X124700000Y-107200001D01*
X124700000Y-106299999D01*
X124701204Y-106275495D01*
X124704804Y-106251227D01*
X124710765Y-106227428D01*
X124719030Y-106204329D01*
X124729520Y-106182150D01*
X124742132Y-106161107D01*
X124756747Y-106141401D01*
X124773223Y-106123223D01*
X124791401Y-106106747D01*
X124811107Y-106092132D01*
X124832150Y-106079520D01*
X124854329Y-106069030D01*
X124877428Y-106060765D01*
X124901227Y-106054804D01*
X124925495Y-106051204D01*
X124949999Y-106050000D01*
X125600001Y-106050000D01*
X125624505Y-106051204D01*
X125624505Y-106051204D01*
G37*
D13*
X125275000Y-106750000D03*
D11*
G36*
X123574505Y-106051204D02*
G01*
X123598773Y-106054804D01*
X123622572Y-106060765D01*
X123645671Y-106069030D01*
X123667850Y-106079520D01*
X123688893Y-106092132D01*
X123708599Y-106106747D01*
X123726777Y-106123223D01*
X123743253Y-106141401D01*
X123757868Y-106161107D01*
X123770480Y-106182150D01*
X123780970Y-106204329D01*
X123789235Y-106227428D01*
X123795196Y-106251227D01*
X123798796Y-106275495D01*
X123800000Y-106299999D01*
X123800000Y-107200001D01*
X123798796Y-107224505D01*
X123795196Y-107248773D01*
X123789235Y-107272572D01*
X123780970Y-107295671D01*
X123770480Y-107317850D01*
X123757868Y-107338893D01*
X123743253Y-107358599D01*
X123726777Y-107376777D01*
X123708599Y-107393253D01*
X123688893Y-107407868D01*
X123667850Y-107420480D01*
X123645671Y-107430970D01*
X123622572Y-107439235D01*
X123598773Y-107445196D01*
X123574505Y-107448796D01*
X123550001Y-107450000D01*
X122899999Y-107450000D01*
X122875495Y-107448796D01*
X122851227Y-107445196D01*
X122827428Y-107439235D01*
X122804329Y-107430970D01*
X122782150Y-107420480D01*
X122761107Y-107407868D01*
X122741401Y-107393253D01*
X122723223Y-107376777D01*
X122706747Y-107358599D01*
X122692132Y-107338893D01*
X122679520Y-107317850D01*
X122669030Y-107295671D01*
X122660765Y-107272572D01*
X122654804Y-107248773D01*
X122651204Y-107224505D01*
X122650000Y-107200001D01*
X122650000Y-106299999D01*
X122651204Y-106275495D01*
X122654804Y-106251227D01*
X122660765Y-106227428D01*
X122669030Y-106204329D01*
X122679520Y-106182150D01*
X122692132Y-106161107D01*
X122706747Y-106141401D01*
X122723223Y-106123223D01*
X122741401Y-106106747D01*
X122761107Y-106092132D01*
X122782150Y-106079520D01*
X122804329Y-106069030D01*
X122827428Y-106060765D01*
X122851227Y-106054804D01*
X122875495Y-106051204D01*
X122899999Y-106050000D01*
X123550001Y-106050000D01*
X123574505Y-106051204D01*
X123574505Y-106051204D01*
G37*
D13*
X123225000Y-106750000D03*
D11*
G36*
X130099505Y-104051204D02*
G01*
X130123773Y-104054804D01*
X130147572Y-104060765D01*
X130170671Y-104069030D01*
X130192850Y-104079520D01*
X130213893Y-104092132D01*
X130233599Y-104106747D01*
X130251777Y-104123223D01*
X130268253Y-104141401D01*
X130282868Y-104161107D01*
X130295480Y-104182150D01*
X130305970Y-104204329D01*
X130314235Y-104227428D01*
X130320196Y-104251227D01*
X130323796Y-104275495D01*
X130325000Y-104299999D01*
X130325000Y-105200001D01*
X130323796Y-105224505D01*
X130320196Y-105248773D01*
X130314235Y-105272572D01*
X130305970Y-105295671D01*
X130295480Y-105317850D01*
X130282868Y-105338893D01*
X130268253Y-105358599D01*
X130251777Y-105376777D01*
X130233599Y-105393253D01*
X130213893Y-105407868D01*
X130192850Y-105420480D01*
X130170671Y-105430970D01*
X130147572Y-105439235D01*
X130123773Y-105445196D01*
X130099505Y-105448796D01*
X130075001Y-105450000D01*
X129424999Y-105450000D01*
X129400495Y-105448796D01*
X129376227Y-105445196D01*
X129352428Y-105439235D01*
X129329329Y-105430970D01*
X129307150Y-105420480D01*
X129286107Y-105407868D01*
X129266401Y-105393253D01*
X129248223Y-105376777D01*
X129231747Y-105358599D01*
X129217132Y-105338893D01*
X129204520Y-105317850D01*
X129194030Y-105295671D01*
X129185765Y-105272572D01*
X129179804Y-105248773D01*
X129176204Y-105224505D01*
X129175000Y-105200001D01*
X129175000Y-104299999D01*
X129176204Y-104275495D01*
X129179804Y-104251227D01*
X129185765Y-104227428D01*
X129194030Y-104204329D01*
X129204520Y-104182150D01*
X129217132Y-104161107D01*
X129231747Y-104141401D01*
X129248223Y-104123223D01*
X129266401Y-104106747D01*
X129286107Y-104092132D01*
X129307150Y-104079520D01*
X129329329Y-104069030D01*
X129352428Y-104060765D01*
X129376227Y-104054804D01*
X129400495Y-104051204D01*
X129424999Y-104050000D01*
X130075001Y-104050000D01*
X130099505Y-104051204D01*
X130099505Y-104051204D01*
G37*
D13*
X129750000Y-104750000D03*
D11*
G36*
X132149505Y-104051204D02*
G01*
X132173773Y-104054804D01*
X132197572Y-104060765D01*
X132220671Y-104069030D01*
X132242850Y-104079520D01*
X132263893Y-104092132D01*
X132283599Y-104106747D01*
X132301777Y-104123223D01*
X132318253Y-104141401D01*
X132332868Y-104161107D01*
X132345480Y-104182150D01*
X132355970Y-104204329D01*
X132364235Y-104227428D01*
X132370196Y-104251227D01*
X132373796Y-104275495D01*
X132375000Y-104299999D01*
X132375000Y-105200001D01*
X132373796Y-105224505D01*
X132370196Y-105248773D01*
X132364235Y-105272572D01*
X132355970Y-105295671D01*
X132345480Y-105317850D01*
X132332868Y-105338893D01*
X132318253Y-105358599D01*
X132301777Y-105376777D01*
X132283599Y-105393253D01*
X132263893Y-105407868D01*
X132242850Y-105420480D01*
X132220671Y-105430970D01*
X132197572Y-105439235D01*
X132173773Y-105445196D01*
X132149505Y-105448796D01*
X132125001Y-105450000D01*
X131474999Y-105450000D01*
X131450495Y-105448796D01*
X131426227Y-105445196D01*
X131402428Y-105439235D01*
X131379329Y-105430970D01*
X131357150Y-105420480D01*
X131336107Y-105407868D01*
X131316401Y-105393253D01*
X131298223Y-105376777D01*
X131281747Y-105358599D01*
X131267132Y-105338893D01*
X131254520Y-105317850D01*
X131244030Y-105295671D01*
X131235765Y-105272572D01*
X131229804Y-105248773D01*
X131226204Y-105224505D01*
X131225000Y-105200001D01*
X131225000Y-104299999D01*
X131226204Y-104275495D01*
X131229804Y-104251227D01*
X131235765Y-104227428D01*
X131244030Y-104204329D01*
X131254520Y-104182150D01*
X131267132Y-104161107D01*
X131281747Y-104141401D01*
X131298223Y-104123223D01*
X131316401Y-104106747D01*
X131336107Y-104092132D01*
X131357150Y-104079520D01*
X131379329Y-104069030D01*
X131402428Y-104060765D01*
X131426227Y-104054804D01*
X131450495Y-104051204D01*
X131474999Y-104050000D01*
X132125001Y-104050000D01*
X132149505Y-104051204D01*
X132149505Y-104051204D01*
G37*
D13*
X131800000Y-104750000D03*
D11*
G36*
X130049505Y-106051204D02*
G01*
X130073773Y-106054804D01*
X130097572Y-106060765D01*
X130120671Y-106069030D01*
X130142850Y-106079520D01*
X130163893Y-106092132D01*
X130183599Y-106106747D01*
X130201777Y-106123223D01*
X130218253Y-106141401D01*
X130232868Y-106161107D01*
X130245480Y-106182150D01*
X130255970Y-106204329D01*
X130264235Y-106227428D01*
X130270196Y-106251227D01*
X130273796Y-106275495D01*
X130275000Y-106299999D01*
X130275000Y-107200001D01*
X130273796Y-107224505D01*
X130270196Y-107248773D01*
X130264235Y-107272572D01*
X130255970Y-107295671D01*
X130245480Y-107317850D01*
X130232868Y-107338893D01*
X130218253Y-107358599D01*
X130201777Y-107376777D01*
X130183599Y-107393253D01*
X130163893Y-107407868D01*
X130142850Y-107420480D01*
X130120671Y-107430970D01*
X130097572Y-107439235D01*
X130073773Y-107445196D01*
X130049505Y-107448796D01*
X130025001Y-107450000D01*
X129374999Y-107450000D01*
X129350495Y-107448796D01*
X129326227Y-107445196D01*
X129302428Y-107439235D01*
X129279329Y-107430970D01*
X129257150Y-107420480D01*
X129236107Y-107407868D01*
X129216401Y-107393253D01*
X129198223Y-107376777D01*
X129181747Y-107358599D01*
X129167132Y-107338893D01*
X129154520Y-107317850D01*
X129144030Y-107295671D01*
X129135765Y-107272572D01*
X129129804Y-107248773D01*
X129126204Y-107224505D01*
X129125000Y-107200001D01*
X129125000Y-106299999D01*
X129126204Y-106275495D01*
X129129804Y-106251227D01*
X129135765Y-106227428D01*
X129144030Y-106204329D01*
X129154520Y-106182150D01*
X129167132Y-106161107D01*
X129181747Y-106141401D01*
X129198223Y-106123223D01*
X129216401Y-106106747D01*
X129236107Y-106092132D01*
X129257150Y-106079520D01*
X129279329Y-106069030D01*
X129302428Y-106060765D01*
X129326227Y-106054804D01*
X129350495Y-106051204D01*
X129374999Y-106050000D01*
X130025001Y-106050000D01*
X130049505Y-106051204D01*
X130049505Y-106051204D01*
G37*
D13*
X129700000Y-106750000D03*
D11*
G36*
X132099505Y-106051204D02*
G01*
X132123773Y-106054804D01*
X132147572Y-106060765D01*
X132170671Y-106069030D01*
X132192850Y-106079520D01*
X132213893Y-106092132D01*
X132233599Y-106106747D01*
X132251777Y-106123223D01*
X132268253Y-106141401D01*
X132282868Y-106161107D01*
X132295480Y-106182150D01*
X132305970Y-106204329D01*
X132314235Y-106227428D01*
X132320196Y-106251227D01*
X132323796Y-106275495D01*
X132325000Y-106299999D01*
X132325000Y-107200001D01*
X132323796Y-107224505D01*
X132320196Y-107248773D01*
X132314235Y-107272572D01*
X132305970Y-107295671D01*
X132295480Y-107317850D01*
X132282868Y-107338893D01*
X132268253Y-107358599D01*
X132251777Y-107376777D01*
X132233599Y-107393253D01*
X132213893Y-107407868D01*
X132192850Y-107420480D01*
X132170671Y-107430970D01*
X132147572Y-107439235D01*
X132123773Y-107445196D01*
X132099505Y-107448796D01*
X132075001Y-107450000D01*
X131424999Y-107450000D01*
X131400495Y-107448796D01*
X131376227Y-107445196D01*
X131352428Y-107439235D01*
X131329329Y-107430970D01*
X131307150Y-107420480D01*
X131286107Y-107407868D01*
X131266401Y-107393253D01*
X131248223Y-107376777D01*
X131231747Y-107358599D01*
X131217132Y-107338893D01*
X131204520Y-107317850D01*
X131194030Y-107295671D01*
X131185765Y-107272572D01*
X131179804Y-107248773D01*
X131176204Y-107224505D01*
X131175000Y-107200001D01*
X131175000Y-106299999D01*
X131176204Y-106275495D01*
X131179804Y-106251227D01*
X131185765Y-106227428D01*
X131194030Y-106204329D01*
X131204520Y-106182150D01*
X131217132Y-106161107D01*
X131231747Y-106141401D01*
X131248223Y-106123223D01*
X131266401Y-106106747D01*
X131286107Y-106092132D01*
X131307150Y-106079520D01*
X131329329Y-106069030D01*
X131352428Y-106060765D01*
X131376227Y-106054804D01*
X131400495Y-106051204D01*
X131424999Y-106050000D01*
X132075001Y-106050000D01*
X132099505Y-106051204D01*
X132099505Y-106051204D01*
G37*
D13*
X131750000Y-106750000D03*
D11*
G36*
X144349505Y-102301204D02*
G01*
X144373773Y-102304804D01*
X144397572Y-102310765D01*
X144420671Y-102319030D01*
X144442850Y-102329520D01*
X144463893Y-102342132D01*
X144483599Y-102356747D01*
X144501777Y-102373223D01*
X144518253Y-102391401D01*
X144532868Y-102411107D01*
X144545480Y-102432150D01*
X144555970Y-102454329D01*
X144564235Y-102477428D01*
X144570196Y-102501227D01*
X144573796Y-102525495D01*
X144575000Y-102549999D01*
X144575000Y-103450001D01*
X144573796Y-103474505D01*
X144570196Y-103498773D01*
X144564235Y-103522572D01*
X144555970Y-103545671D01*
X144545480Y-103567850D01*
X144532868Y-103588893D01*
X144518253Y-103608599D01*
X144501777Y-103626777D01*
X144483599Y-103643253D01*
X144463893Y-103657868D01*
X144442850Y-103670480D01*
X144420671Y-103680970D01*
X144397572Y-103689235D01*
X144373773Y-103695196D01*
X144349505Y-103698796D01*
X144325001Y-103700000D01*
X143674999Y-103700000D01*
X143650495Y-103698796D01*
X143626227Y-103695196D01*
X143602428Y-103689235D01*
X143579329Y-103680970D01*
X143557150Y-103670480D01*
X143536107Y-103657868D01*
X143516401Y-103643253D01*
X143498223Y-103626777D01*
X143481747Y-103608599D01*
X143467132Y-103588893D01*
X143454520Y-103567850D01*
X143444030Y-103545671D01*
X143435765Y-103522572D01*
X143429804Y-103498773D01*
X143426204Y-103474505D01*
X143425000Y-103450001D01*
X143425000Y-102549999D01*
X143426204Y-102525495D01*
X143429804Y-102501227D01*
X143435765Y-102477428D01*
X143444030Y-102454329D01*
X143454520Y-102432150D01*
X143467132Y-102411107D01*
X143481747Y-102391401D01*
X143498223Y-102373223D01*
X143516401Y-102356747D01*
X143536107Y-102342132D01*
X143557150Y-102329520D01*
X143579329Y-102319030D01*
X143602428Y-102310765D01*
X143626227Y-102304804D01*
X143650495Y-102301204D01*
X143674999Y-102300000D01*
X144325001Y-102300000D01*
X144349505Y-102301204D01*
X144349505Y-102301204D01*
G37*
D13*
X144000000Y-103000000D03*
D11*
G36*
X146399505Y-102301204D02*
G01*
X146423773Y-102304804D01*
X146447572Y-102310765D01*
X146470671Y-102319030D01*
X146492850Y-102329520D01*
X146513893Y-102342132D01*
X146533599Y-102356747D01*
X146551777Y-102373223D01*
X146568253Y-102391401D01*
X146582868Y-102411107D01*
X146595480Y-102432150D01*
X146605970Y-102454329D01*
X146614235Y-102477428D01*
X146620196Y-102501227D01*
X146623796Y-102525495D01*
X146625000Y-102549999D01*
X146625000Y-103450001D01*
X146623796Y-103474505D01*
X146620196Y-103498773D01*
X146614235Y-103522572D01*
X146605970Y-103545671D01*
X146595480Y-103567850D01*
X146582868Y-103588893D01*
X146568253Y-103608599D01*
X146551777Y-103626777D01*
X146533599Y-103643253D01*
X146513893Y-103657868D01*
X146492850Y-103670480D01*
X146470671Y-103680970D01*
X146447572Y-103689235D01*
X146423773Y-103695196D01*
X146399505Y-103698796D01*
X146375001Y-103700000D01*
X145724999Y-103700000D01*
X145700495Y-103698796D01*
X145676227Y-103695196D01*
X145652428Y-103689235D01*
X145629329Y-103680970D01*
X145607150Y-103670480D01*
X145586107Y-103657868D01*
X145566401Y-103643253D01*
X145548223Y-103626777D01*
X145531747Y-103608599D01*
X145517132Y-103588893D01*
X145504520Y-103567850D01*
X145494030Y-103545671D01*
X145485765Y-103522572D01*
X145479804Y-103498773D01*
X145476204Y-103474505D01*
X145475000Y-103450001D01*
X145475000Y-102549999D01*
X145476204Y-102525495D01*
X145479804Y-102501227D01*
X145485765Y-102477428D01*
X145494030Y-102454329D01*
X145504520Y-102432150D01*
X145517132Y-102411107D01*
X145531747Y-102391401D01*
X145548223Y-102373223D01*
X145566401Y-102356747D01*
X145586107Y-102342132D01*
X145607150Y-102329520D01*
X145629329Y-102319030D01*
X145652428Y-102310765D01*
X145676227Y-102304804D01*
X145700495Y-102301204D01*
X145724999Y-102300000D01*
X146375001Y-102300000D01*
X146399505Y-102301204D01*
X146399505Y-102301204D01*
G37*
D13*
X146050000Y-103000000D03*
D11*
G36*
X125599505Y-102051204D02*
G01*
X125623773Y-102054804D01*
X125647572Y-102060765D01*
X125670671Y-102069030D01*
X125692850Y-102079520D01*
X125713893Y-102092132D01*
X125733599Y-102106747D01*
X125751777Y-102123223D01*
X125768253Y-102141401D01*
X125782868Y-102161107D01*
X125795480Y-102182150D01*
X125805970Y-102204329D01*
X125814235Y-102227428D01*
X125820196Y-102251227D01*
X125823796Y-102275495D01*
X125825000Y-102299999D01*
X125825000Y-103200001D01*
X125823796Y-103224505D01*
X125820196Y-103248773D01*
X125814235Y-103272572D01*
X125805970Y-103295671D01*
X125795480Y-103317850D01*
X125782868Y-103338893D01*
X125768253Y-103358599D01*
X125751777Y-103376777D01*
X125733599Y-103393253D01*
X125713893Y-103407868D01*
X125692850Y-103420480D01*
X125670671Y-103430970D01*
X125647572Y-103439235D01*
X125623773Y-103445196D01*
X125599505Y-103448796D01*
X125575001Y-103450000D01*
X124924999Y-103450000D01*
X124900495Y-103448796D01*
X124876227Y-103445196D01*
X124852428Y-103439235D01*
X124829329Y-103430970D01*
X124807150Y-103420480D01*
X124786107Y-103407868D01*
X124766401Y-103393253D01*
X124748223Y-103376777D01*
X124731747Y-103358599D01*
X124717132Y-103338893D01*
X124704520Y-103317850D01*
X124694030Y-103295671D01*
X124685765Y-103272572D01*
X124679804Y-103248773D01*
X124676204Y-103224505D01*
X124675000Y-103200001D01*
X124675000Y-102299999D01*
X124676204Y-102275495D01*
X124679804Y-102251227D01*
X124685765Y-102227428D01*
X124694030Y-102204329D01*
X124704520Y-102182150D01*
X124717132Y-102161107D01*
X124731747Y-102141401D01*
X124748223Y-102123223D01*
X124766401Y-102106747D01*
X124786107Y-102092132D01*
X124807150Y-102079520D01*
X124829329Y-102069030D01*
X124852428Y-102060765D01*
X124876227Y-102054804D01*
X124900495Y-102051204D01*
X124924999Y-102050000D01*
X125575001Y-102050000D01*
X125599505Y-102051204D01*
X125599505Y-102051204D01*
G37*
D13*
X125250000Y-102750000D03*
D11*
G36*
X123549505Y-102051204D02*
G01*
X123573773Y-102054804D01*
X123597572Y-102060765D01*
X123620671Y-102069030D01*
X123642850Y-102079520D01*
X123663893Y-102092132D01*
X123683599Y-102106747D01*
X123701777Y-102123223D01*
X123718253Y-102141401D01*
X123732868Y-102161107D01*
X123745480Y-102182150D01*
X123755970Y-102204329D01*
X123764235Y-102227428D01*
X123770196Y-102251227D01*
X123773796Y-102275495D01*
X123775000Y-102299999D01*
X123775000Y-103200001D01*
X123773796Y-103224505D01*
X123770196Y-103248773D01*
X123764235Y-103272572D01*
X123755970Y-103295671D01*
X123745480Y-103317850D01*
X123732868Y-103338893D01*
X123718253Y-103358599D01*
X123701777Y-103376777D01*
X123683599Y-103393253D01*
X123663893Y-103407868D01*
X123642850Y-103420480D01*
X123620671Y-103430970D01*
X123597572Y-103439235D01*
X123573773Y-103445196D01*
X123549505Y-103448796D01*
X123525001Y-103450000D01*
X122874999Y-103450000D01*
X122850495Y-103448796D01*
X122826227Y-103445196D01*
X122802428Y-103439235D01*
X122779329Y-103430970D01*
X122757150Y-103420480D01*
X122736107Y-103407868D01*
X122716401Y-103393253D01*
X122698223Y-103376777D01*
X122681747Y-103358599D01*
X122667132Y-103338893D01*
X122654520Y-103317850D01*
X122644030Y-103295671D01*
X122635765Y-103272572D01*
X122629804Y-103248773D01*
X122626204Y-103224505D01*
X122625000Y-103200001D01*
X122625000Y-102299999D01*
X122626204Y-102275495D01*
X122629804Y-102251227D01*
X122635765Y-102227428D01*
X122644030Y-102204329D01*
X122654520Y-102182150D01*
X122667132Y-102161107D01*
X122681747Y-102141401D01*
X122698223Y-102123223D01*
X122716401Y-102106747D01*
X122736107Y-102092132D01*
X122757150Y-102079520D01*
X122779329Y-102069030D01*
X122802428Y-102060765D01*
X122826227Y-102054804D01*
X122850495Y-102051204D01*
X122874999Y-102050000D01*
X123525001Y-102050000D01*
X123549505Y-102051204D01*
X123549505Y-102051204D01*
G37*
D13*
X123200000Y-102750000D03*
D11*
G36*
X130099505Y-102051204D02*
G01*
X130123773Y-102054804D01*
X130147572Y-102060765D01*
X130170671Y-102069030D01*
X130192850Y-102079520D01*
X130213893Y-102092132D01*
X130233599Y-102106747D01*
X130251777Y-102123223D01*
X130268253Y-102141401D01*
X130282868Y-102161107D01*
X130295480Y-102182150D01*
X130305970Y-102204329D01*
X130314235Y-102227428D01*
X130320196Y-102251227D01*
X130323796Y-102275495D01*
X130325000Y-102299999D01*
X130325000Y-103200001D01*
X130323796Y-103224505D01*
X130320196Y-103248773D01*
X130314235Y-103272572D01*
X130305970Y-103295671D01*
X130295480Y-103317850D01*
X130282868Y-103338893D01*
X130268253Y-103358599D01*
X130251777Y-103376777D01*
X130233599Y-103393253D01*
X130213893Y-103407868D01*
X130192850Y-103420480D01*
X130170671Y-103430970D01*
X130147572Y-103439235D01*
X130123773Y-103445196D01*
X130099505Y-103448796D01*
X130075001Y-103450000D01*
X129424999Y-103450000D01*
X129400495Y-103448796D01*
X129376227Y-103445196D01*
X129352428Y-103439235D01*
X129329329Y-103430970D01*
X129307150Y-103420480D01*
X129286107Y-103407868D01*
X129266401Y-103393253D01*
X129248223Y-103376777D01*
X129231747Y-103358599D01*
X129217132Y-103338893D01*
X129204520Y-103317850D01*
X129194030Y-103295671D01*
X129185765Y-103272572D01*
X129179804Y-103248773D01*
X129176204Y-103224505D01*
X129175000Y-103200001D01*
X129175000Y-102299999D01*
X129176204Y-102275495D01*
X129179804Y-102251227D01*
X129185765Y-102227428D01*
X129194030Y-102204329D01*
X129204520Y-102182150D01*
X129217132Y-102161107D01*
X129231747Y-102141401D01*
X129248223Y-102123223D01*
X129266401Y-102106747D01*
X129286107Y-102092132D01*
X129307150Y-102079520D01*
X129329329Y-102069030D01*
X129352428Y-102060765D01*
X129376227Y-102054804D01*
X129400495Y-102051204D01*
X129424999Y-102050000D01*
X130075001Y-102050000D01*
X130099505Y-102051204D01*
X130099505Y-102051204D01*
G37*
D13*
X129750000Y-102750000D03*
D11*
G36*
X132149505Y-102051204D02*
G01*
X132173773Y-102054804D01*
X132197572Y-102060765D01*
X132220671Y-102069030D01*
X132242850Y-102079520D01*
X132263893Y-102092132D01*
X132283599Y-102106747D01*
X132301777Y-102123223D01*
X132318253Y-102141401D01*
X132332868Y-102161107D01*
X132345480Y-102182150D01*
X132355970Y-102204329D01*
X132364235Y-102227428D01*
X132370196Y-102251227D01*
X132373796Y-102275495D01*
X132375000Y-102299999D01*
X132375000Y-103200001D01*
X132373796Y-103224505D01*
X132370196Y-103248773D01*
X132364235Y-103272572D01*
X132355970Y-103295671D01*
X132345480Y-103317850D01*
X132332868Y-103338893D01*
X132318253Y-103358599D01*
X132301777Y-103376777D01*
X132283599Y-103393253D01*
X132263893Y-103407868D01*
X132242850Y-103420480D01*
X132220671Y-103430970D01*
X132197572Y-103439235D01*
X132173773Y-103445196D01*
X132149505Y-103448796D01*
X132125001Y-103450000D01*
X131474999Y-103450000D01*
X131450495Y-103448796D01*
X131426227Y-103445196D01*
X131402428Y-103439235D01*
X131379329Y-103430970D01*
X131357150Y-103420480D01*
X131336107Y-103407868D01*
X131316401Y-103393253D01*
X131298223Y-103376777D01*
X131281747Y-103358599D01*
X131267132Y-103338893D01*
X131254520Y-103317850D01*
X131244030Y-103295671D01*
X131235765Y-103272572D01*
X131229804Y-103248773D01*
X131226204Y-103224505D01*
X131225000Y-103200001D01*
X131225000Y-102299999D01*
X131226204Y-102275495D01*
X131229804Y-102251227D01*
X131235765Y-102227428D01*
X131244030Y-102204329D01*
X131254520Y-102182150D01*
X131267132Y-102161107D01*
X131281747Y-102141401D01*
X131298223Y-102123223D01*
X131316401Y-102106747D01*
X131336107Y-102092132D01*
X131357150Y-102079520D01*
X131379329Y-102069030D01*
X131402428Y-102060765D01*
X131426227Y-102054804D01*
X131450495Y-102051204D01*
X131474999Y-102050000D01*
X132125001Y-102050000D01*
X132149505Y-102051204D01*
X132149505Y-102051204D01*
G37*
D13*
X131800000Y-102750000D03*
D10*
X125750000Y-109500000D03*
X133750000Y-109500000D03*
X129750000Y-109500000D03*
D15*
X107500000Y-101500000D03*
X107500000Y-103500000D03*
X107500000Y-99000000D03*
X107500000Y-106000000D03*
X105400000Y-100250000D03*
X105400000Y-104750000D03*
D16*
X105400000Y-108350000D03*
X105400000Y-96650000D03*
D17*
X145000000Y-104000000D03*
X130250000Y-100250000D03*
X134500000Y-100250000D03*
X144000000Y-105000000D03*
X130749848Y-98525153D03*
X141000000Y-100824990D03*
X142250000Y-105000000D03*
X113000000Y-108500000D03*
X112000000Y-98500000D03*
X115250000Y-103500000D03*
X118750000Y-102750000D03*
X123225000Y-106750000D03*
X121000000Y-100750000D03*
X117000000Y-98736998D03*
X127500000Y-100000000D03*
X133750000Y-107000000D03*
X131500000Y-100999990D03*
X120250000Y-102750000D03*
X131800000Y-104750000D03*
X121098998Y-104746754D03*
X129000000Y-97800001D03*
X118541744Y-100791744D03*
X112000000Y-106250000D03*
X120250000Y-101500000D03*
X145000000Y-102000000D03*
X131824149Y-102774149D03*
X132750000Y-98250000D03*
X149750000Y-103500000D03*
X140750000Y-107500000D03*
X119000000Y-97250000D03*
X114250000Y-94500000D03*
X121019249Y-99519249D03*
X119750000Y-111250000D03*
X117250000Y-106025000D03*
X114500000Y-105000000D03*
X114250000Y-100186999D03*
X110750000Y-104750000D03*
X112025000Y-101250000D03*
X128467893Y-102221800D03*
X126500001Y-104144467D03*
X124000000Y-101000000D03*
X127988174Y-107013480D03*
X127225001Y-102668164D03*
X125049154Y-100799154D03*
X124000000Y-99750000D03*
X125250000Y-102750000D03*
X126500000Y-106750000D03*
X128463342Y-104981671D03*
X129750000Y-102699998D03*
X144000000Y-103000000D03*
X118750000Y-104750000D03*
X120121359Y-103878641D03*
X138750000Y-99750000D03*
X139250000Y-102750000D03*
X139250000Y-105250000D03*
D18*
X145000000Y-104000000D02*
X145000000Y-104750000D01*
X145250000Y-105000000D02*
X146050000Y-105000000D01*
X145000000Y-104750000D02*
X145250000Y-105000000D01*
X129750000Y-99750000D02*
X129750000Y-95500000D01*
X130250000Y-100250000D02*
X129750000Y-99750000D01*
X130250000Y-100250000D02*
X134500000Y-100250000D01*
X133750000Y-95525001D02*
X133750000Y-95500000D01*
X130749848Y-98525153D02*
X133750000Y-95525001D01*
X141000000Y-100824990D02*
X141000000Y-103750000D01*
X141000000Y-103750000D02*
X142250000Y-105000000D01*
X115250000Y-102000000D02*
X115250000Y-103500000D01*
X115250000Y-103500000D02*
X115250000Y-106250000D01*
X115250000Y-106250000D02*
X113000000Y-108500000D01*
X107500000Y-99000000D02*
X111500000Y-99000000D01*
X111500000Y-99000000D02*
X112000000Y-98500000D01*
X122550000Y-106750000D02*
X123225000Y-106750000D01*
X121967412Y-106750000D02*
X122550000Y-106750000D01*
X118750000Y-103532588D02*
X121967412Y-106750000D01*
X118750000Y-102750000D02*
X118750000Y-103532588D01*
X121000000Y-100750000D02*
X118986998Y-98736998D01*
X118986998Y-98736998D02*
X117000000Y-98736998D01*
X131750000Y-106750000D02*
X133500000Y-106750000D01*
X133500000Y-106750000D02*
X133750000Y-107000000D01*
X131500000Y-100999990D02*
X135500010Y-100999990D01*
X135500010Y-100999990D02*
X136750000Y-99750000D01*
X149126628Y-100826628D02*
X149750000Y-101450000D01*
X147024990Y-98724990D02*
X149126628Y-100826628D01*
X137775010Y-98724990D02*
X147024990Y-98724990D01*
X136750000Y-99750000D02*
X137775010Y-98724990D01*
X121000000Y-100750000D02*
X122750000Y-99000000D01*
X126450000Y-100000000D02*
X127500000Y-100000000D01*
X125450000Y-99000000D02*
X126450000Y-100000000D01*
X122750000Y-99000000D02*
X125450000Y-99000000D01*
X123246754Y-104746754D02*
X123250000Y-104750000D01*
X121098998Y-104746754D02*
X123246754Y-104746754D01*
X126699999Y-95500000D02*
X125750000Y-95500000D01*
X129000000Y-97800001D02*
X126699999Y-95500000D01*
X119850001Y-102350001D02*
X120250000Y-102750000D01*
X119600010Y-102100010D02*
X119850001Y-102350001D01*
X119600010Y-101850010D02*
X119600010Y-102100010D01*
X118541744Y-100791744D02*
X119600010Y-101850010D01*
X113500000Y-102000000D02*
X113500000Y-103500000D01*
X113500000Y-103500000D02*
X113500000Y-104750000D01*
X113500000Y-104750000D02*
X112000000Y-106250000D01*
X117250000Y-95500000D02*
X121750000Y-95500000D01*
X113500000Y-99250000D02*
X117250000Y-95500000D01*
X113500000Y-99863997D02*
X113500000Y-100000000D01*
X113901999Y-99461998D02*
X113500000Y-99863997D01*
X118777683Y-99461998D02*
X113901999Y-99461998D01*
X120250000Y-101500000D02*
X120250000Y-100934315D01*
X120250000Y-100934315D02*
X118777683Y-99461998D01*
X113500000Y-100000000D02*
X113500000Y-99250000D01*
X113500000Y-102000000D02*
X113500000Y-100000000D01*
X145000000Y-102565685D02*
X145184315Y-102750000D01*
X145000000Y-102000000D02*
X145000000Y-102565685D01*
X145375000Y-103000000D02*
X146050000Y-103000000D01*
X145184315Y-102809315D02*
X145375000Y-103000000D01*
X145184315Y-102750000D02*
X145184315Y-102809315D01*
X131800000Y-102750000D02*
X131824149Y-102774149D01*
X132750000Y-98250000D02*
X133250000Y-97750000D01*
X135500000Y-97750000D02*
X137750000Y-95500000D01*
X133250000Y-97750000D02*
X135500000Y-97750000D01*
X151750000Y-103500000D02*
X149750000Y-103500000D01*
X114676998Y-111250000D02*
X119750000Y-111250000D01*
X110024999Y-106598001D02*
X114676998Y-111250000D01*
X121019249Y-99519249D02*
X123325001Y-97213497D01*
X123325001Y-94743999D02*
X122506001Y-93924999D01*
X122506001Y-93924999D02*
X118188591Y-93924999D01*
X118188591Y-93924999D02*
X110024999Y-102088591D01*
X123325001Y-97213497D02*
X123325001Y-94743999D01*
X110024999Y-102088591D02*
X110024999Y-106598001D01*
X136126628Y-105873372D02*
X136750000Y-105250000D01*
X134075001Y-107924999D02*
X136126628Y-105873372D01*
X122506001Y-107924999D02*
X134075001Y-107924999D01*
X120606002Y-106025000D02*
X122506001Y-107924999D01*
X117250000Y-106025000D02*
X120606002Y-106025000D01*
X114350010Y-100287009D02*
X114250000Y-100186999D01*
X114350010Y-104284325D02*
X114350010Y-100287009D01*
X114500000Y-105000000D02*
X114500000Y-104434315D01*
X114500000Y-104434315D02*
X114350010Y-104284325D01*
X112108219Y-101333219D02*
X112025000Y-101250000D01*
X110750000Y-102525000D02*
X112025000Y-101250000D01*
X110750000Y-104750000D02*
X110750000Y-102525000D01*
X136076628Y-102126628D02*
X136700000Y-102750000D01*
X135674990Y-101724990D02*
X136076628Y-102126628D01*
X128964703Y-101724990D02*
X135674990Y-101724990D01*
X128467893Y-102221800D02*
X128964703Y-101724990D01*
X126500001Y-103578782D02*
X126500001Y-104144467D01*
X126500001Y-102411811D02*
X126500001Y-103578782D01*
X125813180Y-101724990D02*
X126500001Y-102411811D01*
X124724990Y-101724990D02*
X125813180Y-101724990D01*
X124000000Y-101000000D02*
X124724990Y-101724990D01*
X127225001Y-106250307D02*
X127988174Y-107013480D01*
X127225001Y-102668164D02*
X127225001Y-102668164D01*
X127225001Y-102668164D02*
X127225001Y-106250307D01*
X124000000Y-99750000D02*
X125049154Y-100799154D01*
X125300000Y-106725000D02*
X125275000Y-106750000D01*
X125300000Y-104750000D02*
X125300000Y-106725000D01*
X126500000Y-106750000D02*
X125275000Y-106750000D01*
X129750000Y-106700000D02*
X129700000Y-106750000D01*
X129750000Y-104750000D02*
X129750000Y-106700000D01*
X128463342Y-104981671D02*
X128463342Y-106463342D01*
X128750000Y-106750000D02*
X129700000Y-106750000D01*
X128463342Y-106463342D02*
X128750000Y-106750000D01*
X117451998Y-104750000D02*
X118750000Y-104750000D01*
X116524999Y-105676999D02*
X117451998Y-104750000D01*
X116524999Y-106373001D02*
X116524999Y-105676999D01*
X121750000Y-109500000D02*
X119651998Y-109500000D01*
X119651998Y-109500000D02*
X116524999Y-106373001D01*
X122071359Y-103878641D02*
X123200000Y-102750000D01*
X120121359Y-103878641D02*
X122071359Y-103878641D01*
X143376628Y-103623372D02*
X144000000Y-103000000D01*
X143099990Y-103900010D02*
X143376628Y-103623372D01*
X143099990Y-107235012D02*
X143099990Y-103900010D01*
X138585002Y-111750000D02*
X143099990Y-107235012D01*
X124000000Y-111750000D02*
X138585002Y-111750000D01*
X121750000Y-109500000D02*
X124000000Y-111750000D01*
X138750000Y-99750000D02*
X138800000Y-99750000D01*
X139250000Y-102750000D02*
X138750000Y-102750000D01*
X139250000Y-105250000D02*
X138800000Y-105250000D01*
D19*
G36*
X106462463Y-93178169D02*
G01*
X106331675Y-93493919D01*
X106265000Y-93829117D01*
X106265000Y-94170883D01*
X106331675Y-94506081D01*
X106462463Y-94821831D01*
X106652337Y-95105998D01*
X106799339Y-95253000D01*
X105527000Y-95253000D01*
X105527000Y-96523000D01*
X107969720Y-96523000D01*
X108092220Y-96306930D01*
X108077262Y-96232724D01*
X107970122Y-95979465D01*
X107815632Y-95751974D01*
X107790629Y-95727344D01*
X107829117Y-95735000D01*
X108170883Y-95735000D01*
X108506081Y-95668325D01*
X108821831Y-95537537D01*
X109105998Y-95347663D01*
X109347663Y-95105998D01*
X109537537Y-94821831D01*
X109668325Y-94506081D01*
X109735000Y-94170883D01*
X109735000Y-93829117D01*
X109668325Y-93493919D01*
X109537537Y-93178169D01*
X109525397Y-93160000D01*
X148636339Y-93160000D01*
X148402337Y-93394002D01*
X148212463Y-93678169D01*
X148081675Y-93993919D01*
X148015000Y-94329117D01*
X148015000Y-94670883D01*
X148081675Y-95006081D01*
X148212463Y-95321831D01*
X148402337Y-95605998D01*
X148644002Y-95847663D01*
X148928169Y-96037537D01*
X149243919Y-96168325D01*
X149579117Y-96235000D01*
X149920883Y-96235000D01*
X150256081Y-96168325D01*
X150571831Y-96037537D01*
X150855998Y-95847663D01*
X151097663Y-95605998D01*
X151287537Y-95321831D01*
X151418325Y-95006081D01*
X151485000Y-94670883D01*
X151485000Y-94329117D01*
X151418325Y-93993919D01*
X151287537Y-93678169D01*
X151097663Y-93394002D01*
X150863661Y-93160000D01*
X154340000Y-93160000D01*
X154340001Y-111840000D01*
X150863661Y-111840000D01*
X151097663Y-111605998D01*
X151287537Y-111321831D01*
X151418325Y-111006081D01*
X151485000Y-110670883D01*
X151485000Y-110329117D01*
X151418325Y-109993919D01*
X151287537Y-109678169D01*
X151097663Y-109394002D01*
X150855998Y-109152337D01*
X150571831Y-108962463D01*
X150256081Y-108831675D01*
X149920883Y-108765000D01*
X149579117Y-108765000D01*
X149243919Y-108831675D01*
X148928169Y-108962463D01*
X148644002Y-109152337D01*
X148402337Y-109394002D01*
X148212463Y-109678169D01*
X148081675Y-109993919D01*
X148015000Y-110329117D01*
X148015000Y-110670883D01*
X148081675Y-111006081D01*
X148212463Y-111321831D01*
X148402337Y-111605998D01*
X148636339Y-111840000D01*
X139569803Y-111840000D01*
X143610994Y-107798810D01*
X143639991Y-107775013D01*
X143734964Y-107659288D01*
X143805536Y-107527259D01*
X143848993Y-107383998D01*
X143859990Y-107272345D01*
X143859990Y-107272336D01*
X143863666Y-107235013D01*
X143859990Y-107197690D01*
X143859990Y-106338072D01*
X144325001Y-106338072D01*
X144498255Y-106321008D01*
X144664851Y-106270472D01*
X144818387Y-106188405D01*
X144952962Y-106077962D01*
X145025000Y-105990184D01*
X145097038Y-106077962D01*
X145231613Y-106188405D01*
X145385149Y-106270472D01*
X145551745Y-106321008D01*
X145724999Y-106338072D01*
X146375001Y-106338072D01*
X146548255Y-106321008D01*
X146714851Y-106270472D01*
X146868387Y-106188405D01*
X147002962Y-106077962D01*
X147113405Y-105943387D01*
X147195472Y-105789851D01*
X147246008Y-105623255D01*
X147263072Y-105450001D01*
X147263072Y-104549999D01*
X147246008Y-104376745D01*
X147195472Y-104210149D01*
X147113405Y-104056613D01*
X147066944Y-104000000D01*
X147113405Y-103943387D01*
X147195472Y-103789851D01*
X147246008Y-103623255D01*
X147263072Y-103450001D01*
X147263072Y-102549999D01*
X147246008Y-102376745D01*
X147195472Y-102210149D01*
X147113405Y-102056613D01*
X147002962Y-101922038D01*
X146868387Y-101811595D01*
X146714851Y-101729528D01*
X146548255Y-101678992D01*
X146375001Y-101661928D01*
X145980242Y-101661928D01*
X145917205Y-101509744D01*
X145803937Y-101340226D01*
X145659774Y-101196063D01*
X145490256Y-101082795D01*
X145301898Y-101004774D01*
X145101939Y-100965000D01*
X144898061Y-100965000D01*
X144698102Y-101004774D01*
X144509744Y-101082795D01*
X144340226Y-101196063D01*
X144196063Y-101340226D01*
X144082795Y-101509744D01*
X144019758Y-101661928D01*
X143674999Y-101661928D01*
X143501745Y-101678992D01*
X143335149Y-101729528D01*
X143181613Y-101811595D01*
X143047038Y-101922038D01*
X142936595Y-102056613D01*
X142854528Y-102210149D01*
X142803992Y-102376745D01*
X142786928Y-102549999D01*
X142786928Y-103138271D01*
X142588988Y-103336211D01*
X142559990Y-103360009D01*
X142536192Y-103389007D01*
X142536191Y-103389008D01*
X142465016Y-103475734D01*
X142394444Y-103607764D01*
X142372838Y-103678992D01*
X142350988Y-103751024D01*
X142341609Y-103846248D01*
X142336314Y-103900010D01*
X142339991Y-103937342D01*
X142339991Y-103965000D01*
X142289802Y-103965000D01*
X141760000Y-103435199D01*
X141760000Y-101528701D01*
X141803937Y-101484764D01*
X141917205Y-101315246D01*
X141995226Y-101126888D01*
X142035000Y-100926929D01*
X142035000Y-100723051D01*
X141995226Y-100523092D01*
X141917205Y-100334734D01*
X141803937Y-100165216D01*
X141659774Y-100021053D01*
X141490256Y-99907785D01*
X141301898Y-99829764D01*
X141101939Y-99789990D01*
X140898061Y-99789990D01*
X140698102Y-99829764D01*
X140509744Y-99907785D01*
X140340226Y-100021053D01*
X140196063Y-100165216D01*
X140082795Y-100334734D01*
X140004774Y-100523092D01*
X139965000Y-100723051D01*
X139965000Y-100926929D01*
X140004774Y-101126888D01*
X140082795Y-101315246D01*
X140196063Y-101484764D01*
X140240000Y-101528701D01*
X140240001Y-102435487D01*
X140167205Y-102259744D01*
X140053937Y-102090226D01*
X139909774Y-101946063D01*
X139875814Y-101923372D01*
X139813405Y-101806613D01*
X139702962Y-101672038D01*
X139568387Y-101561595D01*
X139414851Y-101479528D01*
X139248255Y-101428992D01*
X139075001Y-101411928D01*
X138424999Y-101411928D01*
X138251745Y-101428992D01*
X138085149Y-101479528D01*
X137931613Y-101561595D01*
X137797038Y-101672038D01*
X137725000Y-101759816D01*
X137652962Y-101672038D01*
X137518387Y-101561595D01*
X137364851Y-101479528D01*
X137198255Y-101428992D01*
X137025001Y-101411928D01*
X136436729Y-101411928D01*
X136299801Y-101275000D01*
X136486729Y-101088072D01*
X137075001Y-101088072D01*
X137248255Y-101071008D01*
X137414851Y-101020472D01*
X137568387Y-100938405D01*
X137702962Y-100827962D01*
X137775000Y-100740184D01*
X137847038Y-100827962D01*
X137981613Y-100938405D01*
X138135149Y-101020472D01*
X138301745Y-101071008D01*
X138474999Y-101088072D01*
X139125001Y-101088072D01*
X139298255Y-101071008D01*
X139464851Y-101020472D01*
X139618387Y-100938405D01*
X139752962Y-100827962D01*
X139863405Y-100693387D01*
X139945472Y-100539851D01*
X139996008Y-100373255D01*
X140013072Y-100200001D01*
X140013072Y-99484990D01*
X146710189Y-99484990D01*
X148411928Y-101186730D01*
X148411928Y-101775001D01*
X148428992Y-101948255D01*
X148479528Y-102114851D01*
X148561595Y-102268387D01*
X148672038Y-102402962D01*
X148759816Y-102475000D01*
X148672038Y-102547038D01*
X148561595Y-102681613D01*
X148479528Y-102835149D01*
X148428992Y-103001745D01*
X148411928Y-103174999D01*
X148411928Y-103825001D01*
X148428992Y-103998255D01*
X148479528Y-104164851D01*
X148561595Y-104318387D01*
X148672038Y-104452962D01*
X148806613Y-104563405D01*
X148960149Y-104645472D01*
X149126745Y-104696008D01*
X149299999Y-104713072D01*
X150200001Y-104713072D01*
X150373255Y-104696008D01*
X150539851Y-104645472D01*
X150693387Y-104563405D01*
X150750000Y-104516944D01*
X150806613Y-104563405D01*
X150960149Y-104645472D01*
X151126745Y-104696008D01*
X151299999Y-104713072D01*
X152200001Y-104713072D01*
X152373255Y-104696008D01*
X152539851Y-104645472D01*
X152693387Y-104563405D01*
X152827962Y-104452962D01*
X152938405Y-104318387D01*
X153020472Y-104164851D01*
X153071008Y-103998255D01*
X153088072Y-103825001D01*
X153088072Y-103174999D01*
X153071008Y-103001745D01*
X153020472Y-102835149D01*
X152938405Y-102681613D01*
X152827962Y-102547038D01*
X152821406Y-102541658D01*
X152901185Y-102476185D01*
X152980537Y-102379494D01*
X153039502Y-102269180D01*
X153075812Y-102149482D01*
X153088072Y-102025000D01*
X153085000Y-101735750D01*
X152926250Y-101577000D01*
X151877000Y-101577000D01*
X151877000Y-101597000D01*
X151623000Y-101597000D01*
X151623000Y-101577000D01*
X151603000Y-101577000D01*
X151603000Y-101323000D01*
X151623000Y-101323000D01*
X151623000Y-100398750D01*
X151877000Y-100398750D01*
X151877000Y-101323000D01*
X152926250Y-101323000D01*
X153085000Y-101164250D01*
X153088072Y-100875000D01*
X153075812Y-100750518D01*
X153039502Y-100630820D01*
X152980537Y-100520506D01*
X152901185Y-100423815D01*
X152804494Y-100344463D01*
X152694180Y-100285498D01*
X152574482Y-100249188D01*
X152450000Y-100236928D01*
X152035750Y-100240000D01*
X151877000Y-100398750D01*
X151623000Y-100398750D01*
X151464250Y-100240000D01*
X151050000Y-100236928D01*
X150925518Y-100249188D01*
X150805820Y-100285498D01*
X150695506Y-100344463D01*
X150663581Y-100370663D01*
X150539851Y-100304528D01*
X150373255Y-100253992D01*
X150200001Y-100236928D01*
X149611730Y-100236928D01*
X147588794Y-98213993D01*
X147564991Y-98184989D01*
X147449266Y-98090016D01*
X147317237Y-98019444D01*
X147173976Y-97975987D01*
X147062323Y-97964990D01*
X147062312Y-97964990D01*
X147024990Y-97961314D01*
X146987668Y-97964990D01*
X137812332Y-97964990D01*
X137775009Y-97961314D01*
X137737686Y-97964990D01*
X137737677Y-97964990D01*
X137626024Y-97975987D01*
X137500212Y-98014151D01*
X137482763Y-98019444D01*
X137350733Y-98090016D01*
X137327035Y-98109465D01*
X137235009Y-98184989D01*
X137211211Y-98213987D01*
X137013270Y-98411928D01*
X136424999Y-98411928D01*
X136251745Y-98428992D01*
X136085149Y-98479528D01*
X135931613Y-98561595D01*
X135797038Y-98672038D01*
X135686595Y-98806613D01*
X135604528Y-98960149D01*
X135553992Y-99126745D01*
X135536928Y-99299999D01*
X135536928Y-99888271D01*
X135489916Y-99935283D01*
X135417205Y-99759744D01*
X135303937Y-99590226D01*
X135159774Y-99446063D01*
X134990256Y-99332795D01*
X134801898Y-99254774D01*
X134601939Y-99215000D01*
X134398061Y-99215000D01*
X134198102Y-99254774D01*
X134009744Y-99332795D01*
X133840226Y-99446063D01*
X133796289Y-99490000D01*
X131125087Y-99490000D01*
X131240104Y-99442358D01*
X131409622Y-99329090D01*
X131553785Y-99184927D01*
X131667053Y-99015409D01*
X131745074Y-98827051D01*
X131784848Y-98627092D01*
X131784848Y-98624503D01*
X131832795Y-98740256D01*
X131946063Y-98909774D01*
X132090226Y-99053937D01*
X132259744Y-99167205D01*
X132448102Y-99245226D01*
X132648061Y-99285000D01*
X132851939Y-99285000D01*
X133051898Y-99245226D01*
X133240256Y-99167205D01*
X133409774Y-99053937D01*
X133553937Y-98909774D01*
X133667205Y-98740256D01*
X133745226Y-98551898D01*
X133753560Y-98510000D01*
X135462678Y-98510000D01*
X135500000Y-98513676D01*
X135537322Y-98510000D01*
X135537333Y-98510000D01*
X135648986Y-98499003D01*
X135792247Y-98455546D01*
X135924276Y-98384974D01*
X136040001Y-98290001D01*
X136063804Y-98260997D01*
X137067283Y-97257519D01*
X137200166Y-97312561D01*
X137564344Y-97385000D01*
X137935656Y-97385000D01*
X138299834Y-97312561D01*
X138642882Y-97170466D01*
X138951618Y-96964175D01*
X139214175Y-96701618D01*
X139420466Y-96392882D01*
X139562561Y-96049834D01*
X139635000Y-95685656D01*
X139635000Y-95314344D01*
X139562561Y-94950166D01*
X139420466Y-94607118D01*
X139214175Y-94298382D01*
X138951618Y-94035825D01*
X138642882Y-93829534D01*
X138299834Y-93687439D01*
X137935656Y-93615000D01*
X137564344Y-93615000D01*
X137200166Y-93687439D01*
X136857118Y-93829534D01*
X136548382Y-94035825D01*
X136285825Y-94298382D01*
X136079534Y-94607118D01*
X135937439Y-94950166D01*
X135865000Y-95314344D01*
X135865000Y-95685656D01*
X135937439Y-96049834D01*
X135992481Y-96182717D01*
X135185199Y-96990000D01*
X134912968Y-96990000D01*
X134951618Y-96964175D01*
X135214175Y-96701618D01*
X135420466Y-96392882D01*
X135562561Y-96049834D01*
X135635000Y-95685656D01*
X135635000Y-95314344D01*
X135562561Y-94950166D01*
X135420466Y-94607118D01*
X135214175Y-94298382D01*
X134951618Y-94035825D01*
X134642882Y-93829534D01*
X134299834Y-93687439D01*
X133935656Y-93615000D01*
X133564344Y-93615000D01*
X133200166Y-93687439D01*
X132857118Y-93829534D01*
X132548382Y-94035825D01*
X132285825Y-94298382D01*
X132079534Y-94607118D01*
X131937439Y-94950166D01*
X131865000Y-95314344D01*
X131865000Y-95685656D01*
X131937439Y-96049834D01*
X131999804Y-96200396D01*
X130710047Y-97490153D01*
X130647909Y-97490153D01*
X130510000Y-97517585D01*
X130510000Y-97225507D01*
X130642882Y-97170466D01*
X130951618Y-96964175D01*
X131214175Y-96701618D01*
X131420466Y-96392882D01*
X131562561Y-96049834D01*
X131635000Y-95685656D01*
X131635000Y-95314344D01*
X131562561Y-94950166D01*
X131420466Y-94607118D01*
X131214175Y-94298382D01*
X130951618Y-94035825D01*
X130642882Y-93829534D01*
X130299834Y-93687439D01*
X129935656Y-93615000D01*
X129564344Y-93615000D01*
X129200166Y-93687439D01*
X128857118Y-93829534D01*
X128548382Y-94035825D01*
X128285825Y-94298382D01*
X128079534Y-94607118D01*
X127937439Y-94950166D01*
X127865000Y-95314344D01*
X127865000Y-95590200D01*
X127635000Y-95360200D01*
X127635000Y-95314344D01*
X127562561Y-94950166D01*
X127420466Y-94607118D01*
X127214175Y-94298382D01*
X126951618Y-94035825D01*
X126642882Y-93829534D01*
X126299834Y-93687439D01*
X125935656Y-93615000D01*
X125564344Y-93615000D01*
X125200166Y-93687439D01*
X124857118Y-93829534D01*
X124548382Y-94035825D01*
X124285825Y-94298382D01*
X124079534Y-94607118D01*
X124076030Y-94615578D01*
X124074004Y-94595013D01*
X124030547Y-94451752D01*
X124022128Y-94436001D01*
X123959975Y-94319722D01*
X123888800Y-94232996D01*
X123865002Y-94203998D01*
X123836003Y-94180200D01*
X123069804Y-93414001D01*
X123046002Y-93384998D01*
X122930277Y-93290025D01*
X122798248Y-93219453D01*
X122654987Y-93175996D01*
X122543334Y-93164999D01*
X122543323Y-93164999D01*
X122506001Y-93161323D01*
X122468679Y-93164999D01*
X118225924Y-93164999D01*
X118188591Y-93161322D01*
X118151258Y-93164999D01*
X118039605Y-93175996D01*
X117896344Y-93219453D01*
X117764315Y-93290025D01*
X117648590Y-93384998D01*
X117624792Y-93413996D01*
X112949962Y-98088826D01*
X112917205Y-98009744D01*
X112803937Y-97840226D01*
X112659774Y-97696063D01*
X112490256Y-97582795D01*
X112301898Y-97504774D01*
X112101939Y-97465000D01*
X111898061Y-97465000D01*
X111698102Y-97504774D01*
X111509744Y-97582795D01*
X111340226Y-97696063D01*
X111196063Y-97840226D01*
X111082795Y-98009744D01*
X111004774Y-98198102D01*
X110996440Y-98240000D01*
X108672341Y-98240000D01*
X108585120Y-98109465D01*
X108390535Y-97914880D01*
X108161727Y-97761995D01*
X107907490Y-97656686D01*
X107739290Y-97623229D01*
X107815632Y-97548026D01*
X107970122Y-97320535D01*
X108077262Y-97067276D01*
X108092220Y-96993070D01*
X107969720Y-96777000D01*
X105527000Y-96777000D01*
X105527000Y-98047000D01*
X106477345Y-98047000D01*
X106414880Y-98109465D01*
X106261995Y-98338273D01*
X106156686Y-98592510D01*
X106103000Y-98862408D01*
X106103000Y-99036830D01*
X105869952Y-98927244D01*
X105602865Y-98860977D01*
X105327983Y-98848090D01*
X105055867Y-98889078D01*
X104796977Y-98982364D01*
X104681020Y-99044344D01*
X104614040Y-99284435D01*
X105400000Y-100070395D01*
X105414143Y-100056253D01*
X105593748Y-100235858D01*
X105579605Y-100250000D01*
X105593748Y-100264143D01*
X105414143Y-100443748D01*
X105400000Y-100429605D01*
X104614040Y-101215565D01*
X104681020Y-101455656D01*
X104930048Y-101572756D01*
X105197135Y-101639023D01*
X105472017Y-101651910D01*
X105744133Y-101610922D01*
X106003023Y-101517636D01*
X106103000Y-101464197D01*
X106103000Y-101637592D01*
X106156686Y-101907490D01*
X106261995Y-102161727D01*
X106414880Y-102390535D01*
X106524345Y-102500000D01*
X106414880Y-102609465D01*
X106261995Y-102838273D01*
X106156686Y-103092510D01*
X106103000Y-103362408D01*
X106103000Y-103536830D01*
X105869952Y-103427244D01*
X105602865Y-103360977D01*
X105327983Y-103348090D01*
X105055867Y-103389078D01*
X104796977Y-103482364D01*
X104681020Y-103544344D01*
X104614040Y-103784435D01*
X105400000Y-104570395D01*
X105414143Y-104556253D01*
X105593748Y-104735858D01*
X105579605Y-104750000D01*
X105593748Y-104764143D01*
X105414143Y-104943748D01*
X105400000Y-104929605D01*
X104614040Y-105715565D01*
X104681020Y-105955656D01*
X104930048Y-106072756D01*
X105197135Y-106139023D01*
X105472017Y-106151910D01*
X105744133Y-106110922D01*
X106003023Y-106017636D01*
X106103000Y-105964197D01*
X106103000Y-106137592D01*
X106156686Y-106407490D01*
X106261995Y-106661727D01*
X106414880Y-106890535D01*
X106477345Y-106953000D01*
X105527000Y-106953000D01*
X105527000Y-108223000D01*
X107969720Y-108223000D01*
X108092220Y-108006930D01*
X108077262Y-107932724D01*
X107970122Y-107679465D01*
X107815632Y-107451974D01*
X107739290Y-107376771D01*
X107907490Y-107343314D01*
X108161727Y-107238005D01*
X108390535Y-107085120D01*
X108585120Y-106890535D01*
X108738005Y-106661727D01*
X108843314Y-106407490D01*
X108897000Y-106137592D01*
X108897000Y-105862408D01*
X108843314Y-105592510D01*
X108738005Y-105338273D01*
X108585120Y-105109465D01*
X108390535Y-104914880D01*
X108161727Y-104761995D01*
X108132769Y-104750000D01*
X108161727Y-104738005D01*
X108390535Y-104585120D01*
X108585120Y-104390535D01*
X108738005Y-104161727D01*
X108843314Y-103907490D01*
X108897000Y-103637592D01*
X108897000Y-103362408D01*
X108843314Y-103092510D01*
X108738005Y-102838273D01*
X108585120Y-102609465D01*
X108475655Y-102500000D01*
X108585120Y-102390535D01*
X108738005Y-102161727D01*
X108843314Y-101907490D01*
X108897000Y-101637592D01*
X108897000Y-101362408D01*
X108843314Y-101092510D01*
X108738005Y-100838273D01*
X108585120Y-100609465D01*
X108390535Y-100414880D01*
X108161727Y-100261995D01*
X108132769Y-100250000D01*
X108161727Y-100238005D01*
X108390535Y-100085120D01*
X108585120Y-99890535D01*
X108672341Y-99760000D01*
X111278789Y-99760000D01*
X109514002Y-101524787D01*
X109484998Y-101548590D01*
X109441216Y-101601939D01*
X109390025Y-101664315D01*
X109330862Y-101775001D01*
X109319453Y-101796345D01*
X109275996Y-101939606D01*
X109264999Y-102051259D01*
X109264999Y-102051269D01*
X109261323Y-102088591D01*
X109264999Y-102125914D01*
X109265000Y-106560669D01*
X109261323Y-106598001D01*
X109265000Y-106635334D01*
X109275997Y-106746987D01*
X109280652Y-106762333D01*
X109319453Y-106890247D01*
X109390025Y-107022277D01*
X109461200Y-107109003D01*
X109484999Y-107138002D01*
X109513997Y-107161800D01*
X114113199Y-111761003D01*
X114136997Y-111790001D01*
X114165995Y-111813799D01*
X114197921Y-111840000D01*
X109525397Y-111840000D01*
X109537537Y-111821831D01*
X109668325Y-111506081D01*
X109735000Y-111170883D01*
X109735000Y-110829117D01*
X109668325Y-110493919D01*
X109537537Y-110178169D01*
X109347663Y-109894002D01*
X109105998Y-109652337D01*
X108821831Y-109462463D01*
X108506081Y-109331675D01*
X108170883Y-109265000D01*
X107829117Y-109265000D01*
X107790629Y-109272656D01*
X107815632Y-109248026D01*
X107970122Y-109020535D01*
X108077262Y-108767276D01*
X108092220Y-108693070D01*
X107969720Y-108477000D01*
X105527000Y-108477000D01*
X105527000Y-109747000D01*
X106799339Y-109747000D01*
X106652337Y-109894002D01*
X106462463Y-110178169D01*
X106331675Y-110493919D01*
X106265000Y-110829117D01*
X106265000Y-111170883D01*
X106331675Y-111506081D01*
X106462463Y-111821831D01*
X106474603Y-111840000D01*
X103160000Y-111840000D01*
X103160000Y-109421037D01*
X103180271Y-109441006D01*
X103410058Y-109592059D01*
X103664899Y-109695381D01*
X103935000Y-109747000D01*
X105273000Y-109747000D01*
X105273000Y-108477000D01*
X105253000Y-108477000D01*
X105253000Y-108223000D01*
X105273000Y-108223000D01*
X105273000Y-106953000D01*
X103935000Y-106953000D01*
X103664899Y-107004619D01*
X103410058Y-107107941D01*
X103180271Y-107258994D01*
X103160000Y-107278963D01*
X103160000Y-104822017D01*
X103998090Y-104822017D01*
X104039078Y-105094133D01*
X104132364Y-105353023D01*
X104194344Y-105468980D01*
X104434435Y-105535960D01*
X105220395Y-104750000D01*
X104434435Y-103964040D01*
X104194344Y-104031020D01*
X104077244Y-104280048D01*
X104010977Y-104547135D01*
X103998090Y-104822017D01*
X103160000Y-104822017D01*
X103160000Y-100322017D01*
X103998090Y-100322017D01*
X104039078Y-100594133D01*
X104132364Y-100853023D01*
X104194344Y-100968980D01*
X104434435Y-101035960D01*
X105220395Y-100250000D01*
X104434435Y-99464040D01*
X104194344Y-99531020D01*
X104077244Y-99780048D01*
X104010977Y-100047135D01*
X103998090Y-100322017D01*
X103160000Y-100322017D01*
X103160000Y-97721037D01*
X103180271Y-97741006D01*
X103410058Y-97892059D01*
X103664899Y-97995381D01*
X103935000Y-98047000D01*
X105273000Y-98047000D01*
X105273000Y-96777000D01*
X105253000Y-96777000D01*
X105253000Y-96523000D01*
X105273000Y-96523000D01*
X105273000Y-95253000D01*
X103935000Y-95253000D01*
X103664899Y-95304619D01*
X103410058Y-95407941D01*
X103180271Y-95558994D01*
X103160000Y-95578963D01*
X103160000Y-93160000D01*
X106474603Y-93160000D01*
X106462463Y-93178169D01*
X106462463Y-93178169D01*
G37*
X106462463Y-93178169D02*
X106331675Y-93493919D01*
X106265000Y-93829117D01*
X106265000Y-94170883D01*
X106331675Y-94506081D01*
X106462463Y-94821831D01*
X106652337Y-95105998D01*
X106799339Y-95253000D01*
X105527000Y-95253000D01*
X105527000Y-96523000D01*
X107969720Y-96523000D01*
X108092220Y-96306930D01*
X108077262Y-96232724D01*
X107970122Y-95979465D01*
X107815632Y-95751974D01*
X107790629Y-95727344D01*
X107829117Y-95735000D01*
X108170883Y-95735000D01*
X108506081Y-95668325D01*
X108821831Y-95537537D01*
X109105998Y-95347663D01*
X109347663Y-95105998D01*
X109537537Y-94821831D01*
X109668325Y-94506081D01*
X109735000Y-94170883D01*
X109735000Y-93829117D01*
X109668325Y-93493919D01*
X109537537Y-93178169D01*
X109525397Y-93160000D01*
X148636339Y-93160000D01*
X148402337Y-93394002D01*
X148212463Y-93678169D01*
X148081675Y-93993919D01*
X148015000Y-94329117D01*
X148015000Y-94670883D01*
X148081675Y-95006081D01*
X148212463Y-95321831D01*
X148402337Y-95605998D01*
X148644002Y-95847663D01*
X148928169Y-96037537D01*
X149243919Y-96168325D01*
X149579117Y-96235000D01*
X149920883Y-96235000D01*
X150256081Y-96168325D01*
X150571831Y-96037537D01*
X150855998Y-95847663D01*
X151097663Y-95605998D01*
X151287537Y-95321831D01*
X151418325Y-95006081D01*
X151485000Y-94670883D01*
X151485000Y-94329117D01*
X151418325Y-93993919D01*
X151287537Y-93678169D01*
X151097663Y-93394002D01*
X150863661Y-93160000D01*
X154340000Y-93160000D01*
X154340001Y-111840000D01*
X150863661Y-111840000D01*
X151097663Y-111605998D01*
X151287537Y-111321831D01*
X151418325Y-111006081D01*
X151485000Y-110670883D01*
X151485000Y-110329117D01*
X151418325Y-109993919D01*
X151287537Y-109678169D01*
X151097663Y-109394002D01*
X150855998Y-109152337D01*
X150571831Y-108962463D01*
X150256081Y-108831675D01*
X149920883Y-108765000D01*
X149579117Y-108765000D01*
X149243919Y-108831675D01*
X148928169Y-108962463D01*
X148644002Y-109152337D01*
X148402337Y-109394002D01*
X148212463Y-109678169D01*
X148081675Y-109993919D01*
X148015000Y-110329117D01*
X148015000Y-110670883D01*
X148081675Y-111006081D01*
X148212463Y-111321831D01*
X148402337Y-111605998D01*
X148636339Y-111840000D01*
X139569803Y-111840000D01*
X143610994Y-107798810D01*
X143639991Y-107775013D01*
X143734964Y-107659288D01*
X143805536Y-107527259D01*
X143848993Y-107383998D01*
X143859990Y-107272345D01*
X143859990Y-107272336D01*
X143863666Y-107235013D01*
X143859990Y-107197690D01*
X143859990Y-106338072D01*
X144325001Y-106338072D01*
X144498255Y-106321008D01*
X144664851Y-106270472D01*
X144818387Y-106188405D01*
X144952962Y-106077962D01*
X145025000Y-105990184D01*
X145097038Y-106077962D01*
X145231613Y-106188405D01*
X145385149Y-106270472D01*
X145551745Y-106321008D01*
X145724999Y-106338072D01*
X146375001Y-106338072D01*
X146548255Y-106321008D01*
X146714851Y-106270472D01*
X146868387Y-106188405D01*
X147002962Y-106077962D01*
X147113405Y-105943387D01*
X147195472Y-105789851D01*
X147246008Y-105623255D01*
X147263072Y-105450001D01*
X147263072Y-104549999D01*
X147246008Y-104376745D01*
X147195472Y-104210149D01*
X147113405Y-104056613D01*
X147066944Y-104000000D01*
X147113405Y-103943387D01*
X147195472Y-103789851D01*
X147246008Y-103623255D01*
X147263072Y-103450001D01*
X147263072Y-102549999D01*
X147246008Y-102376745D01*
X147195472Y-102210149D01*
X147113405Y-102056613D01*
X147002962Y-101922038D01*
X146868387Y-101811595D01*
X146714851Y-101729528D01*
X146548255Y-101678992D01*
X146375001Y-101661928D01*
X145980242Y-101661928D01*
X145917205Y-101509744D01*
X145803937Y-101340226D01*
X145659774Y-101196063D01*
X145490256Y-101082795D01*
X145301898Y-101004774D01*
X145101939Y-100965000D01*
X144898061Y-100965000D01*
X144698102Y-101004774D01*
X144509744Y-101082795D01*
X144340226Y-101196063D01*
X144196063Y-101340226D01*
X144082795Y-101509744D01*
X144019758Y-101661928D01*
X143674999Y-101661928D01*
X143501745Y-101678992D01*
X143335149Y-101729528D01*
X143181613Y-101811595D01*
X143047038Y-101922038D01*
X142936595Y-102056613D01*
X142854528Y-102210149D01*
X142803992Y-102376745D01*
X142786928Y-102549999D01*
X142786928Y-103138271D01*
X142588988Y-103336211D01*
X142559990Y-103360009D01*
X142536192Y-103389007D01*
X142536191Y-103389008D01*
X142465016Y-103475734D01*
X142394444Y-103607764D01*
X142372838Y-103678992D01*
X142350988Y-103751024D01*
X142341609Y-103846248D01*
X142336314Y-103900010D01*
X142339991Y-103937342D01*
X142339991Y-103965000D01*
X142289802Y-103965000D01*
X141760000Y-103435199D01*
X141760000Y-101528701D01*
X141803937Y-101484764D01*
X141917205Y-101315246D01*
X141995226Y-101126888D01*
X142035000Y-100926929D01*
X142035000Y-100723051D01*
X141995226Y-100523092D01*
X141917205Y-100334734D01*
X141803937Y-100165216D01*
X141659774Y-100021053D01*
X141490256Y-99907785D01*
X141301898Y-99829764D01*
X141101939Y-99789990D01*
X140898061Y-99789990D01*
X140698102Y-99829764D01*
X140509744Y-99907785D01*
X140340226Y-100021053D01*
X140196063Y-100165216D01*
X140082795Y-100334734D01*
X140004774Y-100523092D01*
X139965000Y-100723051D01*
X139965000Y-100926929D01*
X140004774Y-101126888D01*
X140082795Y-101315246D01*
X140196063Y-101484764D01*
X140240000Y-101528701D01*
X140240001Y-102435487D01*
X140167205Y-102259744D01*
X140053937Y-102090226D01*
X139909774Y-101946063D01*
X139875814Y-101923372D01*
X139813405Y-101806613D01*
X139702962Y-101672038D01*
X139568387Y-101561595D01*
X139414851Y-101479528D01*
X139248255Y-101428992D01*
X139075001Y-101411928D01*
X138424999Y-101411928D01*
X138251745Y-101428992D01*
X138085149Y-101479528D01*
X137931613Y-101561595D01*
X137797038Y-101672038D01*
X137725000Y-101759816D01*
X137652962Y-101672038D01*
X137518387Y-101561595D01*
X137364851Y-101479528D01*
X137198255Y-101428992D01*
X137025001Y-101411928D01*
X136436729Y-101411928D01*
X136299801Y-101275000D01*
X136486729Y-101088072D01*
X137075001Y-101088072D01*
X137248255Y-101071008D01*
X137414851Y-101020472D01*
X137568387Y-100938405D01*
X137702962Y-100827962D01*
X137775000Y-100740184D01*
X137847038Y-100827962D01*
X137981613Y-100938405D01*
X138135149Y-101020472D01*
X138301745Y-101071008D01*
X138474999Y-101088072D01*
X139125001Y-101088072D01*
X139298255Y-101071008D01*
X139464851Y-101020472D01*
X139618387Y-100938405D01*
X139752962Y-100827962D01*
X139863405Y-100693387D01*
X139945472Y-100539851D01*
X139996008Y-100373255D01*
X140013072Y-100200001D01*
X140013072Y-99484990D01*
X146710189Y-99484990D01*
X148411928Y-101186730D01*
X148411928Y-101775001D01*
X148428992Y-101948255D01*
X148479528Y-102114851D01*
X148561595Y-102268387D01*
X148672038Y-102402962D01*
X148759816Y-102475000D01*
X148672038Y-102547038D01*
X148561595Y-102681613D01*
X148479528Y-102835149D01*
X148428992Y-103001745D01*
X148411928Y-103174999D01*
X148411928Y-103825001D01*
X148428992Y-103998255D01*
X148479528Y-104164851D01*
X148561595Y-104318387D01*
X148672038Y-104452962D01*
X148806613Y-104563405D01*
X148960149Y-104645472D01*
X149126745Y-104696008D01*
X149299999Y-104713072D01*
X150200001Y-104713072D01*
X150373255Y-104696008D01*
X150539851Y-104645472D01*
X150693387Y-104563405D01*
X150750000Y-104516944D01*
X150806613Y-104563405D01*
X150960149Y-104645472D01*
X151126745Y-104696008D01*
X151299999Y-104713072D01*
X152200001Y-104713072D01*
X152373255Y-104696008D01*
X152539851Y-104645472D01*
X152693387Y-104563405D01*
X152827962Y-104452962D01*
X152938405Y-104318387D01*
X153020472Y-104164851D01*
X153071008Y-103998255D01*
X153088072Y-103825001D01*
X153088072Y-103174999D01*
X153071008Y-103001745D01*
X153020472Y-102835149D01*
X152938405Y-102681613D01*
X152827962Y-102547038D01*
X152821406Y-102541658D01*
X152901185Y-102476185D01*
X152980537Y-102379494D01*
X153039502Y-102269180D01*
X153075812Y-102149482D01*
X153088072Y-102025000D01*
X153085000Y-101735750D01*
X152926250Y-101577000D01*
X151877000Y-101577000D01*
X151877000Y-101597000D01*
X151623000Y-101597000D01*
X151623000Y-101577000D01*
X151603000Y-101577000D01*
X151603000Y-101323000D01*
X151623000Y-101323000D01*
X151623000Y-100398750D01*
X151877000Y-100398750D01*
X151877000Y-101323000D01*
X152926250Y-101323000D01*
X153085000Y-101164250D01*
X153088072Y-100875000D01*
X153075812Y-100750518D01*
X153039502Y-100630820D01*
X152980537Y-100520506D01*
X152901185Y-100423815D01*
X152804494Y-100344463D01*
X152694180Y-100285498D01*
X152574482Y-100249188D01*
X152450000Y-100236928D01*
X152035750Y-100240000D01*
X151877000Y-100398750D01*
X151623000Y-100398750D01*
X151464250Y-100240000D01*
X151050000Y-100236928D01*
X150925518Y-100249188D01*
X150805820Y-100285498D01*
X150695506Y-100344463D01*
X150663581Y-100370663D01*
X150539851Y-100304528D01*
X150373255Y-100253992D01*
X150200001Y-100236928D01*
X149611730Y-100236928D01*
X147588794Y-98213993D01*
X147564991Y-98184989D01*
X147449266Y-98090016D01*
X147317237Y-98019444D01*
X147173976Y-97975987D01*
X147062323Y-97964990D01*
X147062312Y-97964990D01*
X147024990Y-97961314D01*
X146987668Y-97964990D01*
X137812332Y-97964990D01*
X137775009Y-97961314D01*
X137737686Y-97964990D01*
X137737677Y-97964990D01*
X137626024Y-97975987D01*
X137500212Y-98014151D01*
X137482763Y-98019444D01*
X137350733Y-98090016D01*
X137327035Y-98109465D01*
X137235009Y-98184989D01*
X137211211Y-98213987D01*
X137013270Y-98411928D01*
X136424999Y-98411928D01*
X136251745Y-98428992D01*
X136085149Y-98479528D01*
X135931613Y-98561595D01*
X135797038Y-98672038D01*
X135686595Y-98806613D01*
X135604528Y-98960149D01*
X135553992Y-99126745D01*
X135536928Y-99299999D01*
X135536928Y-99888271D01*
X135489916Y-99935283D01*
X135417205Y-99759744D01*
X135303937Y-99590226D01*
X135159774Y-99446063D01*
X134990256Y-99332795D01*
X134801898Y-99254774D01*
X134601939Y-99215000D01*
X134398061Y-99215000D01*
X134198102Y-99254774D01*
X134009744Y-99332795D01*
X133840226Y-99446063D01*
X133796289Y-99490000D01*
X131125087Y-99490000D01*
X131240104Y-99442358D01*
X131409622Y-99329090D01*
X131553785Y-99184927D01*
X131667053Y-99015409D01*
X131745074Y-98827051D01*
X131784848Y-98627092D01*
X131784848Y-98624503D01*
X131832795Y-98740256D01*
X131946063Y-98909774D01*
X132090226Y-99053937D01*
X132259744Y-99167205D01*
X132448102Y-99245226D01*
X132648061Y-99285000D01*
X132851939Y-99285000D01*
X133051898Y-99245226D01*
X133240256Y-99167205D01*
X133409774Y-99053937D01*
X133553937Y-98909774D01*
X133667205Y-98740256D01*
X133745226Y-98551898D01*
X133753560Y-98510000D01*
X135462678Y-98510000D01*
X135500000Y-98513676D01*
X135537322Y-98510000D01*
X135537333Y-98510000D01*
X135648986Y-98499003D01*
X135792247Y-98455546D01*
X135924276Y-98384974D01*
X136040001Y-98290001D01*
X136063804Y-98260997D01*
X137067283Y-97257519D01*
X137200166Y-97312561D01*
X137564344Y-97385000D01*
X137935656Y-97385000D01*
X138299834Y-97312561D01*
X138642882Y-97170466D01*
X138951618Y-96964175D01*
X139214175Y-96701618D01*
X139420466Y-96392882D01*
X139562561Y-96049834D01*
X139635000Y-95685656D01*
X139635000Y-95314344D01*
X139562561Y-94950166D01*
X139420466Y-94607118D01*
X139214175Y-94298382D01*
X138951618Y-94035825D01*
X138642882Y-93829534D01*
X138299834Y-93687439D01*
X137935656Y-93615000D01*
X137564344Y-93615000D01*
X137200166Y-93687439D01*
X136857118Y-93829534D01*
X136548382Y-94035825D01*
X136285825Y-94298382D01*
X136079534Y-94607118D01*
X135937439Y-94950166D01*
X135865000Y-95314344D01*
X135865000Y-95685656D01*
X135937439Y-96049834D01*
X135992481Y-96182717D01*
X135185199Y-96990000D01*
X134912968Y-96990000D01*
X134951618Y-96964175D01*
X135214175Y-96701618D01*
X135420466Y-96392882D01*
X135562561Y-96049834D01*
X135635000Y-95685656D01*
X135635000Y-95314344D01*
X135562561Y-94950166D01*
X135420466Y-94607118D01*
X135214175Y-94298382D01*
X134951618Y-94035825D01*
X134642882Y-93829534D01*
X134299834Y-93687439D01*
X133935656Y-93615000D01*
X133564344Y-93615000D01*
X133200166Y-93687439D01*
X132857118Y-93829534D01*
X132548382Y-94035825D01*
X132285825Y-94298382D01*
X132079534Y-94607118D01*
X131937439Y-94950166D01*
X131865000Y-95314344D01*
X131865000Y-95685656D01*
X131937439Y-96049834D01*
X131999804Y-96200396D01*
X130710047Y-97490153D01*
X130647909Y-97490153D01*
X130510000Y-97517585D01*
X130510000Y-97225507D01*
X130642882Y-97170466D01*
X130951618Y-96964175D01*
X131214175Y-96701618D01*
X131420466Y-96392882D01*
X131562561Y-96049834D01*
X131635000Y-95685656D01*
X131635000Y-95314344D01*
X131562561Y-94950166D01*
X131420466Y-94607118D01*
X131214175Y-94298382D01*
X130951618Y-94035825D01*
X130642882Y-93829534D01*
X130299834Y-93687439D01*
X129935656Y-93615000D01*
X129564344Y-93615000D01*
X129200166Y-93687439D01*
X128857118Y-93829534D01*
X128548382Y-94035825D01*
X128285825Y-94298382D01*
X128079534Y-94607118D01*
X127937439Y-94950166D01*
X127865000Y-95314344D01*
X127865000Y-95590200D01*
X127635000Y-95360200D01*
X127635000Y-95314344D01*
X127562561Y-94950166D01*
X127420466Y-94607118D01*
X127214175Y-94298382D01*
X126951618Y-94035825D01*
X126642882Y-93829534D01*
X126299834Y-93687439D01*
X125935656Y-93615000D01*
X125564344Y-93615000D01*
X125200166Y-93687439D01*
X124857118Y-93829534D01*
X124548382Y-94035825D01*
X124285825Y-94298382D01*
X124079534Y-94607118D01*
X124076030Y-94615578D01*
X124074004Y-94595013D01*
X124030547Y-94451752D01*
X124022128Y-94436001D01*
X123959975Y-94319722D01*
X123888800Y-94232996D01*
X123865002Y-94203998D01*
X123836003Y-94180200D01*
X123069804Y-93414001D01*
X123046002Y-93384998D01*
X122930277Y-93290025D01*
X122798248Y-93219453D01*
X122654987Y-93175996D01*
X122543334Y-93164999D01*
X122543323Y-93164999D01*
X122506001Y-93161323D01*
X122468679Y-93164999D01*
X118225924Y-93164999D01*
X118188591Y-93161322D01*
X118151258Y-93164999D01*
X118039605Y-93175996D01*
X117896344Y-93219453D01*
X117764315Y-93290025D01*
X117648590Y-93384998D01*
X117624792Y-93413996D01*
X112949962Y-98088826D01*
X112917205Y-98009744D01*
X112803937Y-97840226D01*
X112659774Y-97696063D01*
X112490256Y-97582795D01*
X112301898Y-97504774D01*
X112101939Y-97465000D01*
X111898061Y-97465000D01*
X111698102Y-97504774D01*
X111509744Y-97582795D01*
X111340226Y-97696063D01*
X111196063Y-97840226D01*
X111082795Y-98009744D01*
X111004774Y-98198102D01*
X110996440Y-98240000D01*
X108672341Y-98240000D01*
X108585120Y-98109465D01*
X108390535Y-97914880D01*
X108161727Y-97761995D01*
X107907490Y-97656686D01*
X107739290Y-97623229D01*
X107815632Y-97548026D01*
X107970122Y-97320535D01*
X108077262Y-97067276D01*
X108092220Y-96993070D01*
X107969720Y-96777000D01*
X105527000Y-96777000D01*
X105527000Y-98047000D01*
X106477345Y-98047000D01*
X106414880Y-98109465D01*
X106261995Y-98338273D01*
X106156686Y-98592510D01*
X106103000Y-98862408D01*
X106103000Y-99036830D01*
X105869952Y-98927244D01*
X105602865Y-98860977D01*
X105327983Y-98848090D01*
X105055867Y-98889078D01*
X104796977Y-98982364D01*
X104681020Y-99044344D01*
X104614040Y-99284435D01*
X105400000Y-100070395D01*
X105414143Y-100056253D01*
X105593748Y-100235858D01*
X105579605Y-100250000D01*
X105593748Y-100264143D01*
X105414143Y-100443748D01*
X105400000Y-100429605D01*
X104614040Y-101215565D01*
X104681020Y-101455656D01*
X104930048Y-101572756D01*
X105197135Y-101639023D01*
X105472017Y-101651910D01*
X105744133Y-101610922D01*
X106003023Y-101517636D01*
X106103000Y-101464197D01*
X106103000Y-101637592D01*
X106156686Y-101907490D01*
X106261995Y-102161727D01*
X106414880Y-102390535D01*
X106524345Y-102500000D01*
X106414880Y-102609465D01*
X106261995Y-102838273D01*
X106156686Y-103092510D01*
X106103000Y-103362408D01*
X106103000Y-103536830D01*
X105869952Y-103427244D01*
X105602865Y-103360977D01*
X105327983Y-103348090D01*
X105055867Y-103389078D01*
X104796977Y-103482364D01*
X104681020Y-103544344D01*
X104614040Y-103784435D01*
X105400000Y-104570395D01*
X105414143Y-104556253D01*
X105593748Y-104735858D01*
X105579605Y-104750000D01*
X105593748Y-104764143D01*
X105414143Y-104943748D01*
X105400000Y-104929605D01*
X104614040Y-105715565D01*
X104681020Y-105955656D01*
X104930048Y-106072756D01*
X105197135Y-106139023D01*
X105472017Y-106151910D01*
X105744133Y-106110922D01*
X106003023Y-106017636D01*
X106103000Y-105964197D01*
X106103000Y-106137592D01*
X106156686Y-106407490D01*
X106261995Y-106661727D01*
X106414880Y-106890535D01*
X106477345Y-106953000D01*
X105527000Y-106953000D01*
X105527000Y-108223000D01*
X107969720Y-108223000D01*
X108092220Y-108006930D01*
X108077262Y-107932724D01*
X107970122Y-107679465D01*
X107815632Y-107451974D01*
X107739290Y-107376771D01*
X107907490Y-107343314D01*
X108161727Y-107238005D01*
X108390535Y-107085120D01*
X108585120Y-106890535D01*
X108738005Y-106661727D01*
X108843314Y-106407490D01*
X108897000Y-106137592D01*
X108897000Y-105862408D01*
X108843314Y-105592510D01*
X108738005Y-105338273D01*
X108585120Y-105109465D01*
X108390535Y-104914880D01*
X108161727Y-104761995D01*
X108132769Y-104750000D01*
X108161727Y-104738005D01*
X108390535Y-104585120D01*
X108585120Y-104390535D01*
X108738005Y-104161727D01*
X108843314Y-103907490D01*
X108897000Y-103637592D01*
X108897000Y-103362408D01*
X108843314Y-103092510D01*
X108738005Y-102838273D01*
X108585120Y-102609465D01*
X108475655Y-102500000D01*
X108585120Y-102390535D01*
X108738005Y-102161727D01*
X108843314Y-101907490D01*
X108897000Y-101637592D01*
X108897000Y-101362408D01*
X108843314Y-101092510D01*
X108738005Y-100838273D01*
X108585120Y-100609465D01*
X108390535Y-100414880D01*
X108161727Y-100261995D01*
X108132769Y-100250000D01*
X108161727Y-100238005D01*
X108390535Y-100085120D01*
X108585120Y-99890535D01*
X108672341Y-99760000D01*
X111278789Y-99760000D01*
X109514002Y-101524787D01*
X109484998Y-101548590D01*
X109441216Y-101601939D01*
X109390025Y-101664315D01*
X109330862Y-101775001D01*
X109319453Y-101796345D01*
X109275996Y-101939606D01*
X109264999Y-102051259D01*
X109264999Y-102051269D01*
X109261323Y-102088591D01*
X109264999Y-102125914D01*
X109265000Y-106560669D01*
X109261323Y-106598001D01*
X109265000Y-106635334D01*
X109275997Y-106746987D01*
X109280652Y-106762333D01*
X109319453Y-106890247D01*
X109390025Y-107022277D01*
X109461200Y-107109003D01*
X109484999Y-107138002D01*
X109513997Y-107161800D01*
X114113199Y-111761003D01*
X114136997Y-111790001D01*
X114165995Y-111813799D01*
X114197921Y-111840000D01*
X109525397Y-111840000D01*
X109537537Y-111821831D01*
X109668325Y-111506081D01*
X109735000Y-111170883D01*
X109735000Y-110829117D01*
X109668325Y-110493919D01*
X109537537Y-110178169D01*
X109347663Y-109894002D01*
X109105998Y-109652337D01*
X108821831Y-109462463D01*
X108506081Y-109331675D01*
X108170883Y-109265000D01*
X107829117Y-109265000D01*
X107790629Y-109272656D01*
X107815632Y-109248026D01*
X107970122Y-109020535D01*
X108077262Y-108767276D01*
X108092220Y-108693070D01*
X107969720Y-108477000D01*
X105527000Y-108477000D01*
X105527000Y-109747000D01*
X106799339Y-109747000D01*
X106652337Y-109894002D01*
X106462463Y-110178169D01*
X106331675Y-110493919D01*
X106265000Y-110829117D01*
X106265000Y-111170883D01*
X106331675Y-111506081D01*
X106462463Y-111821831D01*
X106474603Y-111840000D01*
X103160000Y-111840000D01*
X103160000Y-109421037D01*
X103180271Y-109441006D01*
X103410058Y-109592059D01*
X103664899Y-109695381D01*
X103935000Y-109747000D01*
X105273000Y-109747000D01*
X105273000Y-108477000D01*
X105253000Y-108477000D01*
X105253000Y-108223000D01*
X105273000Y-108223000D01*
X105273000Y-106953000D01*
X103935000Y-106953000D01*
X103664899Y-107004619D01*
X103410058Y-107107941D01*
X103180271Y-107258994D01*
X103160000Y-107278963D01*
X103160000Y-104822017D01*
X103998090Y-104822017D01*
X104039078Y-105094133D01*
X104132364Y-105353023D01*
X104194344Y-105468980D01*
X104434435Y-105535960D01*
X105220395Y-104750000D01*
X104434435Y-103964040D01*
X104194344Y-104031020D01*
X104077244Y-104280048D01*
X104010977Y-104547135D01*
X103998090Y-104822017D01*
X103160000Y-104822017D01*
X103160000Y-100322017D01*
X103998090Y-100322017D01*
X104039078Y-100594133D01*
X104132364Y-100853023D01*
X104194344Y-100968980D01*
X104434435Y-101035960D01*
X105220395Y-100250000D01*
X104434435Y-99464040D01*
X104194344Y-99531020D01*
X104077244Y-99780048D01*
X104010977Y-100047135D01*
X103998090Y-100322017D01*
X103160000Y-100322017D01*
X103160000Y-97721037D01*
X103180271Y-97741006D01*
X103410058Y-97892059D01*
X103664899Y-97995381D01*
X103935000Y-98047000D01*
X105273000Y-98047000D01*
X105273000Y-96777000D01*
X105253000Y-96777000D01*
X105253000Y-96523000D01*
X105273000Y-96523000D01*
X105273000Y-95253000D01*
X103935000Y-95253000D01*
X103664899Y-95304619D01*
X103410058Y-95407941D01*
X103180271Y-95558994D01*
X103160000Y-95578963D01*
X103160000Y-93160000D01*
X106474603Y-93160000D01*
X106462463Y-93178169D01*
G36*
X140240001Y-103712668D02*
G01*
X140236324Y-103750000D01*
X140240001Y-103787333D01*
X140250998Y-103898986D01*
X140258670Y-103924276D01*
X140294454Y-104042246D01*
X140365026Y-104174276D01*
X140426354Y-104249003D01*
X140460000Y-104290001D01*
X140488998Y-104313799D01*
X141215000Y-105039802D01*
X141215000Y-105101939D01*
X141254774Y-105301898D01*
X141332795Y-105490256D01*
X141446063Y-105659774D01*
X141590226Y-105803937D01*
X141759744Y-105917205D01*
X141948102Y-105995226D01*
X142148061Y-106035000D01*
X142339990Y-106035000D01*
X142339990Y-106920210D01*
X139638072Y-109622129D01*
X139638072Y-108250000D01*
X139625812Y-108125518D01*
X139589502Y-108005820D01*
X139530537Y-107895506D01*
X139451185Y-107798815D01*
X139354494Y-107719463D01*
X139244180Y-107660498D01*
X139124482Y-107624188D01*
X139000000Y-107611928D01*
X136500000Y-107611928D01*
X136375518Y-107624188D01*
X136255820Y-107660498D01*
X136145506Y-107719463D01*
X136048815Y-107798815D01*
X135969463Y-107895506D01*
X135910498Y-108005820D01*
X135874188Y-108125518D01*
X135861928Y-108250000D01*
X135861928Y-110750000D01*
X135874188Y-110874482D01*
X135909230Y-110990000D01*
X134912968Y-110990000D01*
X134951618Y-110964175D01*
X135214175Y-110701618D01*
X135420466Y-110392882D01*
X135562561Y-110049834D01*
X135635000Y-109685656D01*
X135635000Y-109314344D01*
X135562561Y-108950166D01*
X135420466Y-108607118D01*
X135214175Y-108298382D01*
X134995297Y-108079504D01*
X136486730Y-106588072D01*
X137075001Y-106588072D01*
X137248255Y-106571008D01*
X137414851Y-106520472D01*
X137568387Y-106438405D01*
X137702962Y-106327962D01*
X137775000Y-106240184D01*
X137847038Y-106327962D01*
X137981613Y-106438405D01*
X138135149Y-106520472D01*
X138301745Y-106571008D01*
X138474999Y-106588072D01*
X139125001Y-106588072D01*
X139298255Y-106571008D01*
X139464851Y-106520472D01*
X139618387Y-106438405D01*
X139752962Y-106327962D01*
X139863405Y-106193387D01*
X139945472Y-106039851D01*
X139954883Y-106008828D01*
X140053937Y-105909774D01*
X140167205Y-105740256D01*
X140245226Y-105551898D01*
X140285000Y-105351939D01*
X140285000Y-105148061D01*
X140245226Y-104948102D01*
X140167205Y-104759744D01*
X140053937Y-104590226D01*
X139954883Y-104491172D01*
X139945472Y-104460149D01*
X139863405Y-104306613D01*
X139752962Y-104172038D01*
X139618387Y-104061595D01*
X139478151Y-103986637D01*
X139568387Y-103938405D01*
X139702962Y-103827962D01*
X139813405Y-103693387D01*
X139875814Y-103576628D01*
X139909774Y-103553937D01*
X140053937Y-103409774D01*
X140167205Y-103240256D01*
X140240001Y-103064513D01*
X140240001Y-103712668D01*
X140240001Y-103712668D01*
G37*
X140240001Y-103712668D02*
X140236324Y-103750000D01*
X140240001Y-103787333D01*
X140250998Y-103898986D01*
X140258670Y-103924276D01*
X140294454Y-104042246D01*
X140365026Y-104174276D01*
X140426354Y-104249003D01*
X140460000Y-104290001D01*
X140488998Y-104313799D01*
X141215000Y-105039802D01*
X141215000Y-105101939D01*
X141254774Y-105301898D01*
X141332795Y-105490256D01*
X141446063Y-105659774D01*
X141590226Y-105803937D01*
X141759744Y-105917205D01*
X141948102Y-105995226D01*
X142148061Y-106035000D01*
X142339990Y-106035000D01*
X142339990Y-106920210D01*
X139638072Y-109622129D01*
X139638072Y-108250000D01*
X139625812Y-108125518D01*
X139589502Y-108005820D01*
X139530537Y-107895506D01*
X139451185Y-107798815D01*
X139354494Y-107719463D01*
X139244180Y-107660498D01*
X139124482Y-107624188D01*
X139000000Y-107611928D01*
X136500000Y-107611928D01*
X136375518Y-107624188D01*
X136255820Y-107660498D01*
X136145506Y-107719463D01*
X136048815Y-107798815D01*
X135969463Y-107895506D01*
X135910498Y-108005820D01*
X135874188Y-108125518D01*
X135861928Y-108250000D01*
X135861928Y-110750000D01*
X135874188Y-110874482D01*
X135909230Y-110990000D01*
X134912968Y-110990000D01*
X134951618Y-110964175D01*
X135214175Y-110701618D01*
X135420466Y-110392882D01*
X135562561Y-110049834D01*
X135635000Y-109685656D01*
X135635000Y-109314344D01*
X135562561Y-108950166D01*
X135420466Y-108607118D01*
X135214175Y-108298382D01*
X134995297Y-108079504D01*
X136486730Y-106588072D01*
X137075001Y-106588072D01*
X137248255Y-106571008D01*
X137414851Y-106520472D01*
X137568387Y-106438405D01*
X137702962Y-106327962D01*
X137775000Y-106240184D01*
X137847038Y-106327962D01*
X137981613Y-106438405D01*
X138135149Y-106520472D01*
X138301745Y-106571008D01*
X138474999Y-106588072D01*
X139125001Y-106588072D01*
X139298255Y-106571008D01*
X139464851Y-106520472D01*
X139618387Y-106438405D01*
X139752962Y-106327962D01*
X139863405Y-106193387D01*
X139945472Y-106039851D01*
X139954883Y-106008828D01*
X140053937Y-105909774D01*
X140167205Y-105740256D01*
X140245226Y-105551898D01*
X140285000Y-105351939D01*
X140285000Y-105148061D01*
X140245226Y-104948102D01*
X140167205Y-104759744D01*
X140053937Y-104590226D01*
X139954883Y-104491172D01*
X139945472Y-104460149D01*
X139863405Y-104306613D01*
X139752962Y-104172038D01*
X139618387Y-104061595D01*
X139478151Y-103986637D01*
X139568387Y-103938405D01*
X139702962Y-103827962D01*
X139813405Y-103693387D01*
X139875814Y-103576628D01*
X139909774Y-103553937D01*
X140053937Y-103409774D01*
X140167205Y-103240256D01*
X140240001Y-103064513D01*
X140240001Y-103712668D01*
G36*
X120079534Y-96392882D02*
G01*
X120285825Y-96701618D01*
X120548382Y-96964175D01*
X120857118Y-97170466D01*
X121200166Y-97312561D01*
X121564344Y-97385000D01*
X121935656Y-97385000D01*
X122114213Y-97349483D01*
X120979448Y-98484249D01*
X120917310Y-98484249D01*
X120717351Y-98524023D01*
X120528993Y-98602044D01*
X120359475Y-98715312D01*
X120215312Y-98859475D01*
X120202881Y-98878080D01*
X119550802Y-98226001D01*
X119526999Y-98196997D01*
X119411274Y-98102024D01*
X119279245Y-98031452D01*
X119135984Y-97987995D01*
X119024331Y-97976998D01*
X119024320Y-97976998D01*
X118986998Y-97973322D01*
X118949676Y-97976998D01*
X117703711Y-97976998D01*
X117659774Y-97933061D01*
X117490256Y-97819793D01*
X117301898Y-97741772D01*
X117101939Y-97701998D01*
X116898061Y-97701998D01*
X116698102Y-97741772D01*
X116509744Y-97819793D01*
X116340226Y-97933061D01*
X116196063Y-98077224D01*
X116082795Y-98246742D01*
X116004774Y-98435100D01*
X115965000Y-98635059D01*
X115965000Y-98701998D01*
X115122803Y-98701998D01*
X117564802Y-96260000D01*
X120024493Y-96260000D01*
X120079534Y-96392882D01*
X120079534Y-96392882D01*
G37*
X120079534Y-96392882D02*
X120285825Y-96701618D01*
X120548382Y-96964175D01*
X120857118Y-97170466D01*
X121200166Y-97312561D01*
X121564344Y-97385000D01*
X121935656Y-97385000D01*
X122114213Y-97349483D01*
X120979448Y-98484249D01*
X120917310Y-98484249D01*
X120717351Y-98524023D01*
X120528993Y-98602044D01*
X120359475Y-98715312D01*
X120215312Y-98859475D01*
X120202881Y-98878080D01*
X119550802Y-98226001D01*
X119526999Y-98196997D01*
X119411274Y-98102024D01*
X119279245Y-98031452D01*
X119135984Y-97987995D01*
X119024331Y-97976998D01*
X119024320Y-97976998D01*
X118986998Y-97973322D01*
X118949676Y-97976998D01*
X117703711Y-97976998D01*
X117659774Y-97933061D01*
X117490256Y-97819793D01*
X117301898Y-97741772D01*
X117101939Y-97701998D01*
X116898061Y-97701998D01*
X116698102Y-97741772D01*
X116509744Y-97819793D01*
X116340226Y-97933061D01*
X116196063Y-98077224D01*
X116082795Y-98246742D01*
X116004774Y-98435100D01*
X115965000Y-98635059D01*
X115965000Y-98701998D01*
X115122803Y-98701998D01*
X117564802Y-96260000D01*
X120024493Y-96260000D01*
X120079534Y-96392882D01*
M02*
