G04 #@! TF.GenerationSoftware,KiCad,Pcbnew,(5.1.0)-1*
G04 #@! TF.CreationDate,2022-11-08T17:01:55+01:00*
G04 #@! TF.ProjectId,USB - UART,55534220-2d20-4554-9152-542e6b696361,rev?*
G04 #@! TF.SameCoordinates,Original*
G04 #@! TF.FileFunction,Legend,Bot*
G04 #@! TF.FilePolarity,Positive*
%FSLAX46Y46*%
G04 Gerber Fmt 4.6, Leading zero omitted, Abs format (unit mm)*
G04 Created by KiCad (PCBNEW (5.1.0)-1) date 2022-11-08 17:01:55*
%MOMM*%
%LPD*%
G04 APERTURE LIST*
%ADD10C,0.150000*%
%ADD11C,0.100000*%
%ADD12C,0.010000*%
%ADD13C,0.120000*%
G04 APERTURE END LIST*
D10*
X150190476Y-97357142D02*
X150238095Y-97404761D01*
X150380952Y-97452380D01*
X150476190Y-97452380D01*
X150619047Y-97404761D01*
X150714285Y-97309523D01*
X150761904Y-97214285D01*
X150809523Y-97023809D01*
X150809523Y-96880952D01*
X150761904Y-96690476D01*
X150714285Y-96595238D01*
X150619047Y-96500000D01*
X150476190Y-96452380D01*
X150380952Y-96452380D01*
X150238095Y-96500000D01*
X150190476Y-96547619D01*
X149761904Y-97357142D02*
X149714285Y-97404761D01*
X149761904Y-97452380D01*
X149809523Y-97404761D01*
X149761904Y-97357142D01*
X149761904Y-97452380D01*
X147952380Y-97357142D02*
X148000000Y-97404761D01*
X148142857Y-97452380D01*
X148238095Y-97452380D01*
X148380952Y-97404761D01*
X148476190Y-97309523D01*
X148523809Y-97214285D01*
X148571428Y-97023809D01*
X148571428Y-96880952D01*
X148523809Y-96690476D01*
X148476190Y-96595238D01*
X148380952Y-96500000D01*
X148238095Y-96452380D01*
X148142857Y-96452380D01*
X148000000Y-96500000D01*
X147952380Y-96547619D01*
X147333333Y-96452380D02*
X147142857Y-96452380D01*
X147047619Y-96500000D01*
X146952380Y-96595238D01*
X146904761Y-96785714D01*
X146904761Y-97119047D01*
X146952380Y-97309523D01*
X147047619Y-97404761D01*
X147142857Y-97452380D01*
X147333333Y-97452380D01*
X147428571Y-97404761D01*
X147523809Y-97309523D01*
X147571428Y-97119047D01*
X147571428Y-96785714D01*
X147523809Y-96595238D01*
X147428571Y-96500000D01*
X147333333Y-96452380D01*
X146476190Y-96452380D02*
X146476190Y-97261904D01*
X146428571Y-97357142D01*
X146380952Y-97404761D01*
X146285714Y-97452380D01*
X146095238Y-97452380D01*
X146000000Y-97404761D01*
X145952380Y-97357142D01*
X145904761Y-97261904D01*
X145904761Y-96452380D01*
X145571428Y-96452380D02*
X145000000Y-96452380D01*
X145285714Y-97452380D02*
X145285714Y-96452380D01*
X144666666Y-96928571D02*
X144333333Y-96928571D01*
X144190476Y-97452380D02*
X144666666Y-97452380D01*
X144666666Y-96452380D01*
X144190476Y-96452380D01*
X143285714Y-97452380D02*
X143761904Y-97452380D01*
X143761904Y-96452380D01*
X142476190Y-97452380D02*
X142952380Y-97452380D01*
X142952380Y-96452380D01*
X142142857Y-97452380D02*
X142142857Y-96452380D01*
X141666666Y-96928571D02*
X141333333Y-96928571D01*
X141190476Y-97452380D02*
X141666666Y-97452380D01*
X141666666Y-96452380D01*
X141190476Y-96452380D01*
X140190476Y-97452380D02*
X140523809Y-96976190D01*
X140761904Y-97452380D02*
X140761904Y-96452380D01*
X140380952Y-96452380D01*
X140285714Y-96500000D01*
X140238095Y-96547619D01*
X140190476Y-96642857D01*
X140190476Y-96785714D01*
X140238095Y-96880952D01*
X140285714Y-96928571D01*
X140380952Y-96976190D01*
X140761904Y-96976190D01*
D11*
X147178571Y-95061904D02*
X147178571Y-95709523D01*
X147140476Y-95785714D01*
X147102380Y-95823809D01*
X147026190Y-95861904D01*
X146873809Y-95861904D01*
X146797619Y-95823809D01*
X146759523Y-95785714D01*
X146721428Y-95709523D01*
X146721428Y-95061904D01*
X146378571Y-95823809D02*
X146264285Y-95861904D01*
X146073809Y-95861904D01*
X145997619Y-95823809D01*
X145959523Y-95785714D01*
X145921428Y-95709523D01*
X145921428Y-95633333D01*
X145959523Y-95557142D01*
X145997619Y-95519047D01*
X146073809Y-95480952D01*
X146226190Y-95442857D01*
X146302380Y-95404761D01*
X146340476Y-95366666D01*
X146378571Y-95290476D01*
X146378571Y-95214285D01*
X146340476Y-95138095D01*
X146302380Y-95100000D01*
X146226190Y-95061904D01*
X146035714Y-95061904D01*
X145921428Y-95100000D01*
X145311904Y-95442857D02*
X145197619Y-95480952D01*
X145159523Y-95519047D01*
X145121428Y-95595238D01*
X145121428Y-95709523D01*
X145159523Y-95785714D01*
X145197619Y-95823809D01*
X145273809Y-95861904D01*
X145578571Y-95861904D01*
X145578571Y-95061904D01*
X145311904Y-95061904D01*
X145235714Y-95100000D01*
X145197619Y-95138095D01*
X145159523Y-95214285D01*
X145159523Y-95290476D01*
X145197619Y-95366666D01*
X145235714Y-95404761D01*
X145311904Y-95442857D01*
X145578571Y-95442857D01*
X144778571Y-95557142D02*
X144169047Y-95557142D01*
X143330952Y-95861904D02*
X143597619Y-95480952D01*
X143788095Y-95861904D02*
X143788095Y-95061904D01*
X143483333Y-95061904D01*
X143407142Y-95100000D01*
X143369047Y-95138095D01*
X143330952Y-95214285D01*
X143330952Y-95328571D01*
X143369047Y-95404761D01*
X143407142Y-95442857D01*
X143483333Y-95480952D01*
X143788095Y-95480952D01*
X143026190Y-95823809D02*
X142911904Y-95861904D01*
X142721428Y-95861904D01*
X142645238Y-95823809D01*
X142607142Y-95785714D01*
X142569047Y-95709523D01*
X142569047Y-95633333D01*
X142607142Y-95557142D01*
X142645238Y-95519047D01*
X142721428Y-95480952D01*
X142873809Y-95442857D01*
X142950000Y-95404761D01*
X142988095Y-95366666D01*
X143026190Y-95290476D01*
X143026190Y-95214285D01*
X142988095Y-95138095D01*
X142950000Y-95100000D01*
X142873809Y-95061904D01*
X142683333Y-95061904D01*
X142569047Y-95100000D01*
X141883333Y-95328571D02*
X141883333Y-95861904D01*
X142073809Y-95023809D02*
X142264285Y-95595238D01*
X141769047Y-95595238D01*
X141350000Y-95404761D02*
X141426190Y-95366666D01*
X141464285Y-95328571D01*
X141502380Y-95252380D01*
X141502380Y-95214285D01*
X141464285Y-95138095D01*
X141426190Y-95100000D01*
X141350000Y-95061904D01*
X141197619Y-95061904D01*
X141121428Y-95100000D01*
X141083333Y-95138095D01*
X141045238Y-95214285D01*
X141045238Y-95252380D01*
X141083333Y-95328571D01*
X141121428Y-95366666D01*
X141197619Y-95404761D01*
X141350000Y-95404761D01*
X141426190Y-95442857D01*
X141464285Y-95480952D01*
X141502380Y-95557142D01*
X141502380Y-95709523D01*
X141464285Y-95785714D01*
X141426190Y-95823809D01*
X141350000Y-95861904D01*
X141197619Y-95861904D01*
X141121428Y-95823809D01*
X141083333Y-95785714D01*
X141045238Y-95709523D01*
X141045238Y-95557142D01*
X141083333Y-95480952D01*
X141121428Y-95442857D01*
X141197619Y-95404761D01*
X140321428Y-95061904D02*
X140702380Y-95061904D01*
X140740476Y-95442857D01*
X140702380Y-95404761D01*
X140626190Y-95366666D01*
X140435714Y-95366666D01*
X140359523Y-95404761D01*
X140321428Y-95442857D01*
X140283333Y-95519047D01*
X140283333Y-95709523D01*
X140321428Y-95785714D01*
X140359523Y-95823809D01*
X140435714Y-95861904D01*
X140626190Y-95861904D01*
X140702380Y-95823809D01*
X140740476Y-95785714D01*
D12*
G36*
X152732570Y-94438907D02*
G01*
X152670524Y-94446925D01*
X152591948Y-94460499D01*
X152536848Y-94471326D01*
X152407131Y-94506911D01*
X152278778Y-94560454D01*
X152152022Y-94631806D01*
X152027096Y-94720818D01*
X151904236Y-94827338D01*
X151783673Y-94951220D01*
X151779636Y-94955714D01*
X151733805Y-95013848D01*
X151687980Y-95084611D01*
X151645103Y-95162729D01*
X151608114Y-95242928D01*
X151584602Y-95305451D01*
X151576056Y-95334135D01*
X151564858Y-95375960D01*
X151551990Y-95426792D01*
X151538433Y-95482495D01*
X151525169Y-95538935D01*
X151513179Y-95591977D01*
X151503446Y-95637487D01*
X151496951Y-95671329D01*
X151495423Y-95681081D01*
X151498724Y-95694311D01*
X151510414Y-95696294D01*
X151525315Y-95687827D01*
X151535607Y-95674884D01*
X151546485Y-95655405D01*
X151562945Y-95625327D01*
X151582033Y-95590057D01*
X151588992Y-95577107D01*
X151637654Y-95487246D01*
X151680229Y-95411068D01*
X151718584Y-95345949D01*
X151754584Y-95289264D01*
X151790095Y-95238388D01*
X151826983Y-95190699D01*
X151867114Y-95143571D01*
X151912355Y-95094381D01*
X151964570Y-95040503D01*
X151985674Y-95019214D01*
X152032636Y-94972474D01*
X152078453Y-94927660D01*
X152120604Y-94887178D01*
X152156571Y-94853434D01*
X152183831Y-94828833D01*
X152194735Y-94819643D01*
X152264865Y-94767203D01*
X152344487Y-94714831D01*
X152435838Y-94661182D01*
X152541155Y-94604913D01*
X152610091Y-94570266D01*
X152664818Y-94542964D01*
X152714399Y-94517603D01*
X152756393Y-94495481D01*
X152767009Y-94489642D01*
X152661257Y-94489642D01*
X152658149Y-94495881D01*
X152639362Y-94508195D01*
X152605260Y-94526841D01*
X152556207Y-94552078D01*
X152555229Y-94552574D01*
X152457743Y-94603318D01*
X152373931Y-94650134D01*
X152300431Y-94695329D01*
X152233881Y-94741210D01*
X152170917Y-94790084D01*
X152108178Y-94844259D01*
X152047728Y-94900800D01*
X151981163Y-94965348D01*
X151926224Y-95019674D01*
X151881105Y-95065750D01*
X151843997Y-95105549D01*
X151813092Y-95141042D01*
X151786583Y-95174199D01*
X151762660Y-95206994D01*
X151750122Y-95225334D01*
X151723013Y-95266859D01*
X151693798Y-95313406D01*
X151664468Y-95361604D01*
X151637014Y-95408081D01*
X151613428Y-95449465D01*
X151595701Y-95482384D01*
X151585826Y-95503467D01*
X151585788Y-95503566D01*
X151578873Y-95518641D01*
X151575734Y-95518023D01*
X151576275Y-95503741D01*
X151580400Y-95477825D01*
X151588012Y-95442307D01*
X151588871Y-95438680D01*
X151619293Y-95328196D01*
X151655677Y-95230057D01*
X151700208Y-95140402D01*
X151755072Y-95055374D01*
X151822455Y-94971115D01*
X151901428Y-94886884D01*
X152008541Y-94786686D01*
X152114433Y-94702987D01*
X152221296Y-94634467D01*
X152331320Y-94579805D01*
X152446696Y-94537681D01*
X152509607Y-94520275D01*
X152572859Y-94504794D01*
X152618976Y-94494356D01*
X152648320Y-94489219D01*
X152661257Y-94489642D01*
X152767009Y-94489642D01*
X152788361Y-94477898D01*
X152807862Y-94466152D01*
X152812516Y-94462506D01*
X152818058Y-94448247D01*
X152806484Y-94439564D01*
X152777939Y-94436452D01*
X152732570Y-94438907D01*
X152732570Y-94438907D01*
G37*
X152732570Y-94438907D02*
X152670524Y-94446925D01*
X152591948Y-94460499D01*
X152536848Y-94471326D01*
X152407131Y-94506911D01*
X152278778Y-94560454D01*
X152152022Y-94631806D01*
X152027096Y-94720818D01*
X151904236Y-94827338D01*
X151783673Y-94951220D01*
X151779636Y-94955714D01*
X151733805Y-95013848D01*
X151687980Y-95084611D01*
X151645103Y-95162729D01*
X151608114Y-95242928D01*
X151584602Y-95305451D01*
X151576056Y-95334135D01*
X151564858Y-95375960D01*
X151551990Y-95426792D01*
X151538433Y-95482495D01*
X151525169Y-95538935D01*
X151513179Y-95591977D01*
X151503446Y-95637487D01*
X151496951Y-95671329D01*
X151495423Y-95681081D01*
X151498724Y-95694311D01*
X151510414Y-95696294D01*
X151525315Y-95687827D01*
X151535607Y-95674884D01*
X151546485Y-95655405D01*
X151562945Y-95625327D01*
X151582033Y-95590057D01*
X151588992Y-95577107D01*
X151637654Y-95487246D01*
X151680229Y-95411068D01*
X151718584Y-95345949D01*
X151754584Y-95289264D01*
X151790095Y-95238388D01*
X151826983Y-95190699D01*
X151867114Y-95143571D01*
X151912355Y-95094381D01*
X151964570Y-95040503D01*
X151985674Y-95019214D01*
X152032636Y-94972474D01*
X152078453Y-94927660D01*
X152120604Y-94887178D01*
X152156571Y-94853434D01*
X152183831Y-94828833D01*
X152194735Y-94819643D01*
X152264865Y-94767203D01*
X152344487Y-94714831D01*
X152435838Y-94661182D01*
X152541155Y-94604913D01*
X152610091Y-94570266D01*
X152664818Y-94542964D01*
X152714399Y-94517603D01*
X152756393Y-94495481D01*
X152767009Y-94489642D01*
X152661257Y-94489642D01*
X152658149Y-94495881D01*
X152639362Y-94508195D01*
X152605260Y-94526841D01*
X152556207Y-94552078D01*
X152555229Y-94552574D01*
X152457743Y-94603318D01*
X152373931Y-94650134D01*
X152300431Y-94695329D01*
X152233881Y-94741210D01*
X152170917Y-94790084D01*
X152108178Y-94844259D01*
X152047728Y-94900800D01*
X151981163Y-94965348D01*
X151926224Y-95019674D01*
X151881105Y-95065750D01*
X151843997Y-95105549D01*
X151813092Y-95141042D01*
X151786583Y-95174199D01*
X151762660Y-95206994D01*
X151750122Y-95225334D01*
X151723013Y-95266859D01*
X151693798Y-95313406D01*
X151664468Y-95361604D01*
X151637014Y-95408081D01*
X151613428Y-95449465D01*
X151595701Y-95482384D01*
X151585826Y-95503467D01*
X151585788Y-95503566D01*
X151578873Y-95518641D01*
X151575734Y-95518023D01*
X151576275Y-95503741D01*
X151580400Y-95477825D01*
X151588012Y-95442307D01*
X151588871Y-95438680D01*
X151619293Y-95328196D01*
X151655677Y-95230057D01*
X151700208Y-95140402D01*
X151755072Y-95055374D01*
X151822455Y-94971115D01*
X151901428Y-94886884D01*
X152008541Y-94786686D01*
X152114433Y-94702987D01*
X152221296Y-94634467D01*
X152331320Y-94579805D01*
X152446696Y-94537681D01*
X152509607Y-94520275D01*
X152572859Y-94504794D01*
X152618976Y-94494356D01*
X152648320Y-94489219D01*
X152661257Y-94489642D01*
X152767009Y-94489642D01*
X152788361Y-94477898D01*
X152807862Y-94466152D01*
X152812516Y-94462506D01*
X152818058Y-94448247D01*
X152806484Y-94439564D01*
X152777939Y-94436452D01*
X152732570Y-94438907D01*
G36*
X151782957Y-95529017D02*
G01*
X151787555Y-95554210D01*
X151793285Y-95588897D01*
X151797756Y-95617928D01*
X151803032Y-95649703D01*
X151811079Y-95693604D01*
X151820838Y-95744023D01*
X151831247Y-95795352D01*
X151832081Y-95799357D01*
X151857661Y-95921821D01*
X151891081Y-95924637D01*
X151912646Y-95924300D01*
X151923990Y-95919923D01*
X151924500Y-95918389D01*
X151923007Y-95906675D01*
X151918894Y-95880463D01*
X151912714Y-95843121D01*
X151905018Y-95798015D01*
X151901012Y-95774967D01*
X151889182Y-95706875D01*
X151880672Y-95655794D01*
X151875633Y-95620869D01*
X151874217Y-95601246D01*
X151876576Y-95596071D01*
X151882860Y-95604490D01*
X151893223Y-95625650D01*
X151907814Y-95658696D01*
X151917611Y-95681428D01*
X151938628Y-95730609D01*
X151959849Y-95780756D01*
X151978803Y-95826003D01*
X151993020Y-95860485D01*
X151993051Y-95860560D01*
X152006779Y-95893484D01*
X152016966Y-95913039D01*
X152026791Y-95922709D01*
X152039431Y-95925979D01*
X152053046Y-95926327D01*
X152086341Y-95926357D01*
X152091391Y-95869661D01*
X152093857Y-95837967D01*
X152096798Y-95794049D01*
X152099838Y-95743808D01*
X152102505Y-95695036D01*
X152104720Y-95653526D01*
X152106843Y-95623774D01*
X152109354Y-95606574D01*
X152112737Y-95602721D01*
X152117475Y-95613012D01*
X152124049Y-95638242D01*
X152132943Y-95679206D01*
X152144639Y-95736699D01*
X152152946Y-95778178D01*
X152182588Y-95926357D01*
X152216830Y-95926357D01*
X152238789Y-95924528D01*
X152250482Y-95919990D01*
X152251071Y-95918549D01*
X152249433Y-95906824D01*
X152245019Y-95881502D01*
X152238579Y-95846783D01*
X152233637Y-95821031D01*
X152224773Y-95774467D01*
X152214273Y-95717870D01*
X152203582Y-95659088D01*
X152195845Y-95615661D01*
X152175486Y-95500000D01*
X152062631Y-95500000D01*
X152057339Y-95538553D01*
X152054965Y-95561837D01*
X152052166Y-95598632D01*
X152049256Y-95644321D01*
X152046547Y-95694287D01*
X152045953Y-95706602D01*
X152043439Y-95752155D01*
X152040642Y-95789930D01*
X152037845Y-95816893D01*
X152035328Y-95830010D01*
X152034439Y-95830677D01*
X152029333Y-95821008D01*
X152018336Y-95797303D01*
X152002642Y-95762231D01*
X151983442Y-95718459D01*
X151961929Y-95668656D01*
X151960318Y-95664897D01*
X151891616Y-95504536D01*
X151834259Y-95501803D01*
X151776903Y-95499070D01*
X151782957Y-95529017D01*
X151782957Y-95529017D01*
G37*
X151782957Y-95529017D02*
X151787555Y-95554210D01*
X151793285Y-95588897D01*
X151797756Y-95617928D01*
X151803032Y-95649703D01*
X151811079Y-95693604D01*
X151820838Y-95744023D01*
X151831247Y-95795352D01*
X151832081Y-95799357D01*
X151857661Y-95921821D01*
X151891081Y-95924637D01*
X151912646Y-95924300D01*
X151923990Y-95919923D01*
X151924500Y-95918389D01*
X151923007Y-95906675D01*
X151918894Y-95880463D01*
X151912714Y-95843121D01*
X151905018Y-95798015D01*
X151901012Y-95774967D01*
X151889182Y-95706875D01*
X151880672Y-95655794D01*
X151875633Y-95620869D01*
X151874217Y-95601246D01*
X151876576Y-95596071D01*
X151882860Y-95604490D01*
X151893223Y-95625650D01*
X151907814Y-95658696D01*
X151917611Y-95681428D01*
X151938628Y-95730609D01*
X151959849Y-95780756D01*
X151978803Y-95826003D01*
X151993020Y-95860485D01*
X151993051Y-95860560D01*
X152006779Y-95893484D01*
X152016966Y-95913039D01*
X152026791Y-95922709D01*
X152039431Y-95925979D01*
X152053046Y-95926327D01*
X152086341Y-95926357D01*
X152091391Y-95869661D01*
X152093857Y-95837967D01*
X152096798Y-95794049D01*
X152099838Y-95743808D01*
X152102505Y-95695036D01*
X152104720Y-95653526D01*
X152106843Y-95623774D01*
X152109354Y-95606574D01*
X152112737Y-95602721D01*
X152117475Y-95613012D01*
X152124049Y-95638242D01*
X152132943Y-95679206D01*
X152144639Y-95736699D01*
X152152946Y-95778178D01*
X152182588Y-95926357D01*
X152216830Y-95926357D01*
X152238789Y-95924528D01*
X152250482Y-95919990D01*
X152251071Y-95918549D01*
X152249433Y-95906824D01*
X152245019Y-95881502D01*
X152238579Y-95846783D01*
X152233637Y-95821031D01*
X152224773Y-95774467D01*
X152214273Y-95717870D01*
X152203582Y-95659088D01*
X152195845Y-95615661D01*
X152175486Y-95500000D01*
X152062631Y-95500000D01*
X152057339Y-95538553D01*
X152054965Y-95561837D01*
X152052166Y-95598632D01*
X152049256Y-95644321D01*
X152046547Y-95694287D01*
X152045953Y-95706602D01*
X152043439Y-95752155D01*
X152040642Y-95789930D01*
X152037845Y-95816893D01*
X152035328Y-95830010D01*
X152034439Y-95830677D01*
X152029333Y-95821008D01*
X152018336Y-95797303D01*
X152002642Y-95762231D01*
X151983442Y-95718459D01*
X151961929Y-95668656D01*
X151960318Y-95664897D01*
X151891616Y-95504536D01*
X151834259Y-95501803D01*
X151776903Y-95499070D01*
X151782957Y-95529017D01*
G36*
X152465490Y-95500014D02*
G01*
X152402449Y-95501186D01*
X152355041Y-95505196D01*
X152320875Y-95512812D01*
X152297560Y-95524799D01*
X152282706Y-95541924D01*
X152274941Y-95561113D01*
X152273105Y-95597406D01*
X152284386Y-95636963D01*
X152306342Y-95673710D01*
X152329320Y-95696521D01*
X152360592Y-95720374D01*
X152340941Y-95741291D01*
X152331333Y-95752668D01*
X152326334Y-95764304D01*
X152325515Y-95780959D01*
X152328446Y-95807391D01*
X152332532Y-95834470D01*
X152337086Y-95869469D01*
X152339144Y-95897881D01*
X152338389Y-95914707D01*
X152337708Y-95916544D01*
X152341375Y-95923157D01*
X152362561Y-95926167D01*
X152373000Y-95926357D01*
X152398415Y-95925427D01*
X152410536Y-95920908D01*
X152414187Y-95910208D01*
X152414357Y-95904125D01*
X152412455Y-95882075D01*
X152407637Y-95851638D01*
X152404658Y-95836666D01*
X152398853Y-95800694D01*
X152401385Y-95776830D01*
X152414619Y-95762686D01*
X152440925Y-95755874D01*
X152482667Y-95754007D01*
X152486604Y-95754000D01*
X152558213Y-95754000D01*
X152568792Y-95806161D01*
X152575908Y-95841379D01*
X152582604Y-95874714D01*
X152585666Y-95890071D01*
X152591699Y-95911102D01*
X152602765Y-95920806D01*
X152625263Y-95924579D01*
X152626743Y-95924703D01*
X152649117Y-95925694D01*
X152658046Y-95921304D01*
X152658124Y-95908106D01*
X152657126Y-95902025D01*
X152653944Y-95884100D01*
X152648205Y-95852300D01*
X152640627Y-95810596D01*
X152631932Y-95762957D01*
X152628632Y-95744928D01*
X152619073Y-95692572D01*
X152615559Y-95673207D01*
X152539856Y-95673207D01*
X152533336Y-95685054D01*
X152515704Y-95689738D01*
X152484088Y-95690535D01*
X152464867Y-95690500D01*
X152427344Y-95690184D01*
X152403423Y-95688401D01*
X152388562Y-95683893D01*
X152378222Y-95675405D01*
X152369617Y-95664153D01*
X152353255Y-95627739D01*
X152352827Y-95589810D01*
X152356363Y-95577849D01*
X152362567Y-95570684D01*
X152376743Y-95566289D01*
X152402305Y-95564087D01*
X152441289Y-95563500D01*
X152520709Y-95563500D01*
X152531033Y-95614906D01*
X152538132Y-95650916D01*
X152539856Y-95673207D01*
X152615559Y-95673207D01*
X152609762Y-95641272D01*
X152601635Y-95596206D01*
X152595629Y-95562551D01*
X152594598Y-95556696D01*
X152584660Y-95500000D01*
X152465490Y-95500014D01*
X152465490Y-95500014D01*
G37*
X152465490Y-95500014D02*
X152402449Y-95501186D01*
X152355041Y-95505196D01*
X152320875Y-95512812D01*
X152297560Y-95524799D01*
X152282706Y-95541924D01*
X152274941Y-95561113D01*
X152273105Y-95597406D01*
X152284386Y-95636963D01*
X152306342Y-95673710D01*
X152329320Y-95696521D01*
X152360592Y-95720374D01*
X152340941Y-95741291D01*
X152331333Y-95752668D01*
X152326334Y-95764304D01*
X152325515Y-95780959D01*
X152328446Y-95807391D01*
X152332532Y-95834470D01*
X152337086Y-95869469D01*
X152339144Y-95897881D01*
X152338389Y-95914707D01*
X152337708Y-95916544D01*
X152341375Y-95923157D01*
X152362561Y-95926167D01*
X152373000Y-95926357D01*
X152398415Y-95925427D01*
X152410536Y-95920908D01*
X152414187Y-95910208D01*
X152414357Y-95904125D01*
X152412455Y-95882075D01*
X152407637Y-95851638D01*
X152404658Y-95836666D01*
X152398853Y-95800694D01*
X152401385Y-95776830D01*
X152414619Y-95762686D01*
X152440925Y-95755874D01*
X152482667Y-95754007D01*
X152486604Y-95754000D01*
X152558213Y-95754000D01*
X152568792Y-95806161D01*
X152575908Y-95841379D01*
X152582604Y-95874714D01*
X152585666Y-95890071D01*
X152591699Y-95911102D01*
X152602765Y-95920806D01*
X152625263Y-95924579D01*
X152626743Y-95924703D01*
X152649117Y-95925694D01*
X152658046Y-95921304D01*
X152658124Y-95908106D01*
X152657126Y-95902025D01*
X152653944Y-95884100D01*
X152648205Y-95852300D01*
X152640627Y-95810596D01*
X152631932Y-95762957D01*
X152628632Y-95744928D01*
X152619073Y-95692572D01*
X152615559Y-95673207D01*
X152539856Y-95673207D01*
X152533336Y-95685054D01*
X152515704Y-95689738D01*
X152484088Y-95690535D01*
X152464867Y-95690500D01*
X152427344Y-95690184D01*
X152403423Y-95688401D01*
X152388562Y-95683893D01*
X152378222Y-95675405D01*
X152369617Y-95664153D01*
X152353255Y-95627739D01*
X152352827Y-95589810D01*
X152356363Y-95577849D01*
X152362567Y-95570684D01*
X152376743Y-95566289D01*
X152402305Y-95564087D01*
X152441289Y-95563500D01*
X152520709Y-95563500D01*
X152531033Y-95614906D01*
X152538132Y-95650916D01*
X152539856Y-95673207D01*
X152615559Y-95673207D01*
X152609762Y-95641272D01*
X152601635Y-95596206D01*
X152595629Y-95562551D01*
X152594598Y-95556696D01*
X152584660Y-95500000D01*
X152465490Y-95500014D01*
G36*
X152901535Y-95500014D02*
G01*
X152843138Y-95501520D01*
X152799254Y-95506740D01*
X152766447Y-95516753D01*
X152741280Y-95532639D01*
X152720315Y-95555478D01*
X152718895Y-95557394D01*
X152708341Y-95575920D01*
X152702679Y-95598795D01*
X152700762Y-95631761D01*
X152700777Y-95648108D01*
X152709832Y-95725071D01*
X152735360Y-95794453D01*
X152777402Y-95856360D01*
X152779433Y-95858689D01*
X152810118Y-95889905D01*
X152840750Y-95911574D01*
X152875629Y-95925281D01*
X152919055Y-95932613D01*
X152975328Y-95935158D01*
X152986907Y-95935229D01*
X153083207Y-95935428D01*
X153076474Y-95901411D01*
X153070113Y-95868662D01*
X153068415Y-95859737D01*
X152994928Y-95859737D01*
X152987000Y-95868536D01*
X152966464Y-95872774D01*
X152938196Y-95872745D01*
X152907070Y-95868741D01*
X152877961Y-95861054D01*
X152857931Y-95851508D01*
X152823925Y-95818946D01*
X152797860Y-95773623D01*
X152781699Y-95719905D01*
X152777214Y-95671954D01*
X152778663Y-95634408D01*
X152783877Y-95608986D01*
X152794156Y-95589840D01*
X152796015Y-95587402D01*
X152808454Y-95574138D01*
X152823019Y-95566927D01*
X152845433Y-95563983D01*
X152872587Y-95563500D01*
X152903301Y-95564736D01*
X152926173Y-95567959D01*
X152935594Y-95571973D01*
X152939084Y-95583360D01*
X152945183Y-95608756D01*
X152953104Y-95644348D01*
X152962062Y-95686321D01*
X152971269Y-95730862D01*
X152979941Y-95774159D01*
X152987290Y-95812396D01*
X152992530Y-95841761D01*
X152994874Y-95858441D01*
X152994928Y-95859737D01*
X153068415Y-95859737D01*
X153061857Y-95825267D01*
X153052386Y-95774898D01*
X153042380Y-95721226D01*
X153032518Y-95667925D01*
X153023481Y-95618668D01*
X153015950Y-95577128D01*
X153010604Y-95546976D01*
X153008433Y-95534018D01*
X153003178Y-95500000D01*
X152901535Y-95500014D01*
X152901535Y-95500014D01*
G37*
X152901535Y-95500014D02*
X152843138Y-95501520D01*
X152799254Y-95506740D01*
X152766447Y-95516753D01*
X152741280Y-95532639D01*
X152720315Y-95555478D01*
X152718895Y-95557394D01*
X152708341Y-95575920D01*
X152702679Y-95598795D01*
X152700762Y-95631761D01*
X152700777Y-95648108D01*
X152709832Y-95725071D01*
X152735360Y-95794453D01*
X152777402Y-95856360D01*
X152779433Y-95858689D01*
X152810118Y-95889905D01*
X152840750Y-95911574D01*
X152875629Y-95925281D01*
X152919055Y-95932613D01*
X152975328Y-95935158D01*
X152986907Y-95935229D01*
X153083207Y-95935428D01*
X153076474Y-95901411D01*
X153070113Y-95868662D01*
X153068415Y-95859737D01*
X152994928Y-95859737D01*
X152987000Y-95868536D01*
X152966464Y-95872774D01*
X152938196Y-95872745D01*
X152907070Y-95868741D01*
X152877961Y-95861054D01*
X152857931Y-95851508D01*
X152823925Y-95818946D01*
X152797860Y-95773623D01*
X152781699Y-95719905D01*
X152777214Y-95671954D01*
X152778663Y-95634408D01*
X152783877Y-95608986D01*
X152794156Y-95589840D01*
X152796015Y-95587402D01*
X152808454Y-95574138D01*
X152823019Y-95566927D01*
X152845433Y-95563983D01*
X152872587Y-95563500D01*
X152903301Y-95564736D01*
X152926173Y-95567959D01*
X152935594Y-95571973D01*
X152939084Y-95583360D01*
X152945183Y-95608756D01*
X152953104Y-95644348D01*
X152962062Y-95686321D01*
X152971269Y-95730862D01*
X152979941Y-95774159D01*
X152987290Y-95812396D01*
X152992530Y-95841761D01*
X152994874Y-95858441D01*
X152994928Y-95859737D01*
X153068415Y-95859737D01*
X153061857Y-95825267D01*
X153052386Y-95774898D01*
X153042380Y-95721226D01*
X153032518Y-95667925D01*
X153023481Y-95618668D01*
X153015950Y-95577128D01*
X153010604Y-95546976D01*
X153008433Y-95534018D01*
X153003178Y-95500000D01*
X152901535Y-95500014D01*
G36*
X153193402Y-95516789D02*
G01*
X153154476Y-95532224D01*
X153127255Y-95557013D01*
X153113875Y-95590166D01*
X153112857Y-95603623D01*
X153113915Y-95624397D01*
X153120579Y-95633628D01*
X153138080Y-95635997D01*
X153149143Y-95636071D01*
X153172960Y-95634502D01*
X153183466Y-95628280D01*
X153185428Y-95618443D01*
X153193778Y-95597152D01*
X153217017Y-95581689D01*
X153252424Y-95573498D01*
X153271607Y-95572571D01*
X153314246Y-95576701D01*
X153341631Y-95589593D01*
X153354789Y-95612003D01*
X153356014Y-95634665D01*
X153353250Y-95667821D01*
X153280678Y-95684372D01*
X153225623Y-95698196D01*
X153186220Y-95711355D01*
X153160065Y-95724950D01*
X153144752Y-95740084D01*
X153140383Y-95748644D01*
X153137224Y-95777283D01*
X153143970Y-95813083D01*
X153158971Y-95849220D01*
X153168378Y-95864346D01*
X153195862Y-95889888D01*
X153235764Y-95910684D01*
X153282633Y-95925115D01*
X153331017Y-95931565D01*
X153375462Y-95928415D01*
X153380464Y-95927267D01*
X153421529Y-95912484D01*
X153448614Y-95891062D01*
X153462875Y-95866954D01*
X153473793Y-95836621D01*
X153474309Y-95818820D01*
X153463234Y-95810456D01*
X153440412Y-95808428D01*
X153416501Y-95810251D01*
X153404556Y-95817907D01*
X153399483Y-95830845D01*
X153387234Y-95853604D01*
X153363213Y-95866734D01*
X153325564Y-95870980D01*
X153301735Y-95870055D01*
X153256240Y-95861779D01*
X153226385Y-95844559D01*
X153211925Y-95818214D01*
X153210375Y-95803214D01*
X153213011Y-95784852D01*
X153222809Y-95771023D01*
X153242602Y-95760060D01*
X153275225Y-95750292D01*
X153314652Y-95741782D01*
X153368260Y-95727412D01*
X153404884Y-95708303D01*
X153425298Y-95683438D01*
X153430275Y-95651800D01*
X153420589Y-95612370D01*
X153417983Y-95605874D01*
X153392032Y-95566646D01*
X153351969Y-95536947D01*
X153300008Y-95518400D01*
X153297830Y-95517937D01*
X153241898Y-95511697D01*
X153193402Y-95516789D01*
X153193402Y-95516789D01*
G37*
X153193402Y-95516789D02*
X153154476Y-95532224D01*
X153127255Y-95557013D01*
X153113875Y-95590166D01*
X153112857Y-95603623D01*
X153113915Y-95624397D01*
X153120579Y-95633628D01*
X153138080Y-95635997D01*
X153149143Y-95636071D01*
X153172960Y-95634502D01*
X153183466Y-95628280D01*
X153185428Y-95618443D01*
X153193778Y-95597152D01*
X153217017Y-95581689D01*
X153252424Y-95573498D01*
X153271607Y-95572571D01*
X153314246Y-95576701D01*
X153341631Y-95589593D01*
X153354789Y-95612003D01*
X153356014Y-95634665D01*
X153353250Y-95667821D01*
X153280678Y-95684372D01*
X153225623Y-95698196D01*
X153186220Y-95711355D01*
X153160065Y-95724950D01*
X153144752Y-95740084D01*
X153140383Y-95748644D01*
X153137224Y-95777283D01*
X153143970Y-95813083D01*
X153158971Y-95849220D01*
X153168378Y-95864346D01*
X153195862Y-95889888D01*
X153235764Y-95910684D01*
X153282633Y-95925115D01*
X153331017Y-95931565D01*
X153375462Y-95928415D01*
X153380464Y-95927267D01*
X153421529Y-95912484D01*
X153448614Y-95891062D01*
X153462875Y-95866954D01*
X153473793Y-95836621D01*
X153474309Y-95818820D01*
X153463234Y-95810456D01*
X153440412Y-95808428D01*
X153416501Y-95810251D01*
X153404556Y-95817907D01*
X153399483Y-95830845D01*
X153387234Y-95853604D01*
X153363213Y-95866734D01*
X153325564Y-95870980D01*
X153301735Y-95870055D01*
X153256240Y-95861779D01*
X153226385Y-95844559D01*
X153211925Y-95818214D01*
X153210375Y-95803214D01*
X153213011Y-95784852D01*
X153222809Y-95771023D01*
X153242602Y-95760060D01*
X153275225Y-95750292D01*
X153314652Y-95741782D01*
X153368260Y-95727412D01*
X153404884Y-95708303D01*
X153425298Y-95683438D01*
X153430275Y-95651800D01*
X153420589Y-95612370D01*
X153417983Y-95605874D01*
X153392032Y-95566646D01*
X153351969Y-95536947D01*
X153300008Y-95518400D01*
X153297830Y-95517937D01*
X153241898Y-95511697D01*
X153193402Y-95516789D01*
G36*
X153679254Y-95510089D02*
G01*
X153669931Y-95515012D01*
X153670000Y-95526649D01*
X153670629Y-95529482D01*
X153676024Y-95553677D01*
X153683588Y-95589014D01*
X153692622Y-95632065D01*
X153702425Y-95679402D01*
X153712296Y-95727597D01*
X153721534Y-95773222D01*
X153729440Y-95812849D01*
X153735312Y-95843048D01*
X153738451Y-95860393D01*
X153738786Y-95863043D01*
X153730168Y-95866926D01*
X153706103Y-95869846D01*
X153669269Y-95871565D01*
X153638029Y-95871928D01*
X153593967Y-95872213D01*
X153565224Y-95873349D01*
X153548981Y-95875762D01*
X153542418Y-95879876D01*
X153542718Y-95886115D01*
X153542779Y-95886277D01*
X153547614Y-95907972D01*
X153548285Y-95918027D01*
X153549336Y-95924722D01*
X153554280Y-95929439D01*
X153565803Y-95932524D01*
X153586594Y-95934320D01*
X153619340Y-95935171D01*
X153666727Y-95935420D01*
X153684357Y-95935428D01*
X153731710Y-95934965D01*
X153771896Y-95933689D01*
X153801779Y-95931769D01*
X153818225Y-95929376D01*
X153820428Y-95928055D01*
X153818710Y-95917399D01*
X153813894Y-95891576D01*
X153806487Y-95853198D01*
X153796996Y-95804879D01*
X153785928Y-95749231D01*
X153779607Y-95717714D01*
X153767937Y-95659570D01*
X153757567Y-95607680D01*
X153749003Y-95564582D01*
X153742745Y-95532815D01*
X153739300Y-95514916D01*
X153738786Y-95511909D01*
X153730725Y-95510135D01*
X153710581Y-95509145D01*
X153702327Y-95509071D01*
X153679254Y-95510089D01*
X153679254Y-95510089D01*
G37*
X153679254Y-95510089D02*
X153669931Y-95515012D01*
X153670000Y-95526649D01*
X153670629Y-95529482D01*
X153676024Y-95553677D01*
X153683588Y-95589014D01*
X153692622Y-95632065D01*
X153702425Y-95679402D01*
X153712296Y-95727597D01*
X153721534Y-95773222D01*
X153729440Y-95812849D01*
X153735312Y-95843048D01*
X153738451Y-95860393D01*
X153738786Y-95863043D01*
X153730168Y-95866926D01*
X153706103Y-95869846D01*
X153669269Y-95871565D01*
X153638029Y-95871928D01*
X153593967Y-95872213D01*
X153565224Y-95873349D01*
X153548981Y-95875762D01*
X153542418Y-95879876D01*
X153542718Y-95886115D01*
X153542779Y-95886277D01*
X153547614Y-95907972D01*
X153548285Y-95918027D01*
X153549336Y-95924722D01*
X153554280Y-95929439D01*
X153565803Y-95932524D01*
X153586594Y-95934320D01*
X153619340Y-95935171D01*
X153666727Y-95935420D01*
X153684357Y-95935428D01*
X153731710Y-95934965D01*
X153771896Y-95933689D01*
X153801779Y-95931769D01*
X153818225Y-95929376D01*
X153820428Y-95928055D01*
X153818710Y-95917399D01*
X153813894Y-95891576D01*
X153806487Y-95853198D01*
X153796996Y-95804879D01*
X153785928Y-95749231D01*
X153779607Y-95717714D01*
X153767937Y-95659570D01*
X153757567Y-95607680D01*
X153749003Y-95564582D01*
X153742745Y-95532815D01*
X153739300Y-95514916D01*
X153738786Y-95511909D01*
X153730725Y-95510135D01*
X153710581Y-95509145D01*
X153702327Y-95509071D01*
X153679254Y-95510089D01*
G36*
X153868209Y-93356783D02*
G01*
X153846255Y-93380909D01*
X153813799Y-93419794D01*
X153809690Y-93424847D01*
X153790773Y-93447913D01*
X153775670Y-93465903D01*
X153770536Y-93471760D01*
X153760740Y-93482924D01*
X153742612Y-93504015D01*
X153719527Y-93531101D01*
X153711571Y-93540477D01*
X153665119Y-93594982D01*
X153627821Y-93638092D01*
X153600660Y-93668675D01*
X153593643Y-93676305D01*
X153581925Y-93689450D01*
X153561799Y-93712581D01*
X153536581Y-93741840D01*
X153509586Y-93773366D01*
X153484131Y-93803301D01*
X153464925Y-93826115D01*
X153447416Y-93846883D01*
X153430474Y-93866761D01*
X153411349Y-93889059D01*
X153452603Y-93910025D01*
X153476021Y-93922556D01*
X153490969Y-93931764D01*
X153493857Y-93934529D01*
X153490163Y-93943410D01*
X153479833Y-93966253D01*
X153463991Y-94000619D01*
X153443764Y-94044072D01*
X153420278Y-94094175D01*
X153411174Y-94113515D01*
X153384758Y-94169660D01*
X153359268Y-94224004D01*
X153336337Y-94273053D01*
X153317597Y-94313315D01*
X153304681Y-94341296D01*
X153303098Y-94344766D01*
X153277704Y-94400568D01*
X153200310Y-94374561D01*
X153084527Y-94340214D01*
X152973185Y-94317300D01*
X152859297Y-94304705D01*
X152741533Y-94301284D01*
X152584427Y-94310575D01*
X152432405Y-94336700D01*
X152286464Y-94378816D01*
X152147601Y-94436081D01*
X152016812Y-94507651D01*
X151895093Y-94592685D01*
X151783442Y-94690339D01*
X151682855Y-94799771D01*
X151594329Y-94920138D01*
X151518860Y-95050598D01*
X151457445Y-95190307D01*
X151411081Y-95338424D01*
X151388334Y-95445387D01*
X151381013Y-95498355D01*
X151375324Y-95560600D01*
X151371420Y-95627430D01*
X151369453Y-95694148D01*
X151369573Y-95756059D01*
X151371935Y-95808469D01*
X151375556Y-95840506D01*
X151392395Y-95934486D01*
X151409849Y-96014790D01*
X151429225Y-96085871D01*
X151451825Y-96152185D01*
X151478956Y-96218184D01*
X151498862Y-96261397D01*
X151565968Y-96388123D01*
X151640587Y-96500953D01*
X151725559Y-96603519D01*
X151823721Y-96699455D01*
X151875504Y-96743519D01*
X151910703Y-96770875D01*
X151951818Y-96800637D01*
X151995262Y-96830445D01*
X152037446Y-96857940D01*
X152074783Y-96880762D01*
X152103683Y-96896553D01*
X152116599Y-96902043D01*
X152129923Y-96912010D01*
X152129692Y-96927337D01*
X152124793Y-96939643D01*
X152112940Y-96966437D01*
X152095001Y-97005841D01*
X152071847Y-97055973D01*
X152044347Y-97114953D01*
X152013370Y-97180903D01*
X151979787Y-97251940D01*
X151970173Y-97272196D01*
X151936311Y-97343575D01*
X151905014Y-97409735D01*
X151877109Y-97468909D01*
X151853428Y-97519328D01*
X151834799Y-97559225D01*
X151822053Y-97586831D01*
X151816020Y-97600379D01*
X151815643Y-97601451D01*
X151823229Y-97606547D01*
X151843094Y-97616891D01*
X151870896Y-97630456D01*
X151902291Y-97645216D01*
X151932940Y-97659142D01*
X151958499Y-97670209D01*
X151974626Y-97676389D01*
X151977564Y-97677040D01*
X151982564Y-97669085D01*
X151994428Y-97646396D01*
X152012326Y-97610670D01*
X152035427Y-97563606D01*
X152062902Y-97506899D01*
X152093921Y-97442247D01*
X152127654Y-97371348D01*
X152146434Y-97331641D01*
X152186662Y-97246589D01*
X152220012Y-97176597D01*
X152247228Y-97120266D01*
X152269055Y-97076192D01*
X152286239Y-97042974D01*
X152299526Y-97019211D01*
X152309660Y-97003500D01*
X152317388Y-96994441D01*
X152323454Y-96990631D01*
X152327862Y-96990473D01*
X152346348Y-96995040D01*
X152375251Y-97002626D01*
X152400750Y-97009524D01*
X152511673Y-97033403D01*
X152632541Y-97047814D01*
X152757678Y-97052521D01*
X152881409Y-97047286D01*
X152986041Y-97034023D01*
X153139884Y-96998526D01*
X153286175Y-96947068D01*
X153423984Y-96880575D01*
X153552386Y-96799975D01*
X153670451Y-96706196D01*
X153777253Y-96600164D01*
X153871864Y-96482809D01*
X153953357Y-96355057D01*
X154020803Y-96217835D01*
X154073275Y-96072072D01*
X154109846Y-95918695D01*
X154111665Y-95908398D01*
X154118987Y-95855431D01*
X154124676Y-95793185D01*
X154128580Y-95726355D01*
X154130038Y-95676893D01*
X154087198Y-95676893D01*
X154087066Y-95743533D01*
X154086160Y-95795928D01*
X154084195Y-95837969D01*
X154080887Y-95873547D01*
X154075952Y-95906554D01*
X154069104Y-95940880D01*
X154067304Y-95949036D01*
X154024219Y-96104271D01*
X153966698Y-96248609D01*
X153894472Y-96382491D01*
X153807268Y-96506358D01*
X153704815Y-96620652D01*
X153592199Y-96721504D01*
X153546335Y-96757449D01*
X153504261Y-96787496D01*
X153461374Y-96814446D01*
X153413070Y-96841096D01*
X153354745Y-96870245D01*
X153321209Y-96886243D01*
X153234612Y-96924511D01*
X153153794Y-96954042D01*
X153070948Y-96977336D01*
X152978267Y-96996895D01*
X152972250Y-96997999D01*
X152906155Y-97006645D01*
X152827869Y-97011452D01*
X152742912Y-97012517D01*
X152656804Y-97009935D01*
X152575064Y-97003806D01*
X152503212Y-96994224D01*
X152477857Y-96989313D01*
X152469018Y-96986893D01*
X152268149Y-96986893D01*
X152170072Y-97193679D01*
X152139276Y-97258602D01*
X152107457Y-97325664D01*
X152076587Y-97390711D01*
X152048638Y-97449590D01*
X152025580Y-97498147D01*
X152017128Y-97515937D01*
X151962261Y-97631410D01*
X151913898Y-97609701D01*
X151888274Y-97596900D01*
X151871383Y-97585950D01*
X151867163Y-97580407D01*
X151871506Y-97569850D01*
X151882623Y-97545297D01*
X151899469Y-97508942D01*
X151920997Y-97462978D01*
X151946163Y-97409598D01*
X151973919Y-97350994D01*
X152003220Y-97289360D01*
X152033021Y-97226889D01*
X152062275Y-97165773D01*
X152089937Y-97108205D01*
X152114960Y-97056379D01*
X152136299Y-97012486D01*
X152152908Y-96978721D01*
X152163742Y-96957276D01*
X152167651Y-96950351D01*
X152178690Y-96950706D01*
X152200643Y-96957467D01*
X152221056Y-96965815D01*
X152268149Y-96986893D01*
X152469018Y-96986893D01*
X152322991Y-96946914D01*
X152177610Y-96889327D01*
X152042383Y-96817224D01*
X151917985Y-96731276D01*
X151805085Y-96632155D01*
X151704357Y-96520532D01*
X151616472Y-96397078D01*
X151542101Y-96262466D01*
X151481917Y-96117366D01*
X151436591Y-95962450D01*
X151432466Y-95944500D01*
X151422163Y-95882880D01*
X151415199Y-95808373D01*
X151411572Y-95725928D01*
X151411280Y-95640490D01*
X151414320Y-95557006D01*
X151420691Y-95480423D01*
X151430390Y-95415687D01*
X151432695Y-95404750D01*
X151475781Y-95249514D01*
X151533301Y-95105176D01*
X151605528Y-94971294D01*
X151692732Y-94847427D01*
X151795185Y-94733134D01*
X151907801Y-94632282D01*
X151954210Y-94595935D01*
X151996892Y-94565515D01*
X152040626Y-94538083D01*
X152090196Y-94510702D01*
X152150383Y-94480430D01*
X152171503Y-94470212D01*
X152298121Y-94416909D01*
X152428736Y-94377452D01*
X152555534Y-94352162D01*
X152634031Y-94343603D01*
X152723066Y-94340121D01*
X152816298Y-94341547D01*
X152907390Y-94347711D01*
X152990000Y-94358446D01*
X153022143Y-94364598D01*
X153058795Y-94373195D01*
X153100830Y-94384141D01*
X153144382Y-94396292D01*
X153185585Y-94408504D01*
X153220571Y-94419634D01*
X153245473Y-94428537D01*
X153256239Y-94433858D01*
X153254107Y-94442892D01*
X153245760Y-94464342D01*
X153232783Y-94494242D01*
X153226841Y-94507270D01*
X153212651Y-94539581D01*
X153202765Y-94565241D01*
X153198692Y-94580192D01*
X153198992Y-94582230D01*
X153208698Y-94587904D01*
X153231004Y-94599371D01*
X153262096Y-94614700D01*
X153282977Y-94624753D01*
X153362321Y-94662636D01*
X153398607Y-94591939D01*
X153434893Y-94521243D01*
X153481711Y-94550841D01*
X153595296Y-94632838D01*
X153701359Y-94729619D01*
X153797985Y-94838716D01*
X153883262Y-94957657D01*
X153955276Y-95083975D01*
X154012112Y-95215199D01*
X154024788Y-95251700D01*
X154046081Y-95319999D01*
X154062075Y-95380963D01*
X154073469Y-95439350D01*
X154080961Y-95499923D01*
X154085251Y-95567443D01*
X154087037Y-95646669D01*
X154087198Y-95676893D01*
X154130038Y-95676893D01*
X154130547Y-95659637D01*
X154130426Y-95597726D01*
X154128065Y-95545316D01*
X154124444Y-95513279D01*
X154107605Y-95419299D01*
X154090150Y-95338996D01*
X154070775Y-95267914D01*
X154048174Y-95201600D01*
X154021043Y-95135601D01*
X154001137Y-95092388D01*
X153932865Y-94963783D01*
X153856671Y-94849213D01*
X153769980Y-94745373D01*
X153670217Y-94648961D01*
X153626931Y-94612433D01*
X153597399Y-94589302D01*
X153562369Y-94563237D01*
X153525941Y-94537132D01*
X153492211Y-94513877D01*
X153465278Y-94496363D01*
X153450827Y-94488168D01*
X153454038Y-94480165D01*
X153463800Y-94458242D01*
X153478952Y-94424902D01*
X153498330Y-94382647D01*
X153520773Y-94333979D01*
X153545117Y-94281401D01*
X153570200Y-94227413D01*
X153594860Y-94174519D01*
X153617933Y-94125220D01*
X153638258Y-94082019D01*
X153654672Y-94047417D01*
X153666012Y-94023917D01*
X153671115Y-94014020D01*
X153671172Y-94013943D01*
X153679783Y-94016091D01*
X153699575Y-94024650D01*
X153718229Y-94033741D01*
X153745454Y-94045775D01*
X153760700Y-94048531D01*
X153763280Y-94045690D01*
X153764853Y-94027953D01*
X153768368Y-93999283D01*
X153772866Y-93966655D01*
X153777386Y-93937045D01*
X153780858Y-93917926D01*
X153786466Y-93891788D01*
X153791443Y-93866179D01*
X153796998Y-93834581D01*
X153802919Y-93799107D01*
X153808621Y-93764579D01*
X153813477Y-93735221D01*
X153816423Y-93717464D01*
X153821087Y-93692620D01*
X153823689Y-93680288D01*
X153827262Y-93660425D01*
X153831668Y-93630907D01*
X153834036Y-93613143D01*
X153838338Y-93581866D01*
X153842528Y-93555527D01*
X153844358Y-93545998D01*
X153850248Y-93518472D01*
X153855256Y-93492237D01*
X153856928Y-93482348D01*
X153821461Y-93482348D01*
X153819893Y-93505608D01*
X153815463Y-93537217D01*
X153814576Y-93542370D01*
X153808153Y-93579165D01*
X153799892Y-93626984D01*
X153790976Y-93678961D01*
X153784413Y-93717464D01*
X153776834Y-93761966D01*
X153770022Y-93801754D01*
X153764741Y-93832375D01*
X153761825Y-93849000D01*
X153758236Y-93869969D01*
X153753089Y-93901332D01*
X153748567Y-93929576D01*
X153743162Y-93960098D01*
X153738068Y-93982788D01*
X153734653Y-93992228D01*
X153724298Y-93991731D01*
X153703751Y-93984918D01*
X153693428Y-93980535D01*
X153670597Y-93971387D01*
X153655631Y-93967530D01*
X153653096Y-93967951D01*
X153648402Y-93976853D01*
X153637051Y-94000089D01*
X153620048Y-94035551D01*
X153598399Y-94081129D01*
X153573110Y-94134712D01*
X153545185Y-94194191D01*
X153539810Y-94205674D01*
X153510654Y-94267877D01*
X153483190Y-94326267D01*
X153458591Y-94378367D01*
X153438029Y-94421697D01*
X153422678Y-94453782D01*
X153413709Y-94472144D01*
X153413221Y-94473106D01*
X153399778Y-94500414D01*
X153383363Y-94535136D01*
X153372483Y-94558839D01*
X153359637Y-94585839D01*
X153349439Y-94604686D01*
X153344478Y-94611000D01*
X153334610Y-94607311D01*
X153313470Y-94597731D01*
X153290777Y-94586837D01*
X153241510Y-94562674D01*
X153265630Y-94511998D01*
X153280312Y-94483000D01*
X153293660Y-94459753D01*
X153301089Y-94449334D01*
X153310980Y-94432402D01*
X153312428Y-94424708D01*
X153316099Y-94414464D01*
X153326343Y-94390306D01*
X153342012Y-94354737D01*
X153361955Y-94310259D01*
X153385024Y-94259376D01*
X153410069Y-94204590D01*
X153435940Y-94148403D01*
X153461488Y-94093320D01*
X153485562Y-94041841D01*
X153507014Y-93996471D01*
X153524695Y-93959712D01*
X153537453Y-93934067D01*
X153540193Y-93928832D01*
X153542267Y-93918249D01*
X153533565Y-93908621D01*
X153511065Y-93896907D01*
X153506416Y-93894828D01*
X153482117Y-93883223D01*
X153471903Y-93874763D01*
X153472908Y-93866122D01*
X153476860Y-93860521D01*
X153493032Y-93841034D01*
X153517089Y-93813114D01*
X153544700Y-93781745D01*
X153563320Y-93760963D01*
X153580835Y-93740854D01*
X153602877Y-93714621D01*
X153613213Y-93702033D01*
X153635861Y-93674887D01*
X153658144Y-93649249D01*
X153666214Y-93640357D01*
X153685476Y-93618702D01*
X153708948Y-93591085D01*
X153720643Y-93576892D01*
X153760008Y-93529440D01*
X153789291Y-93496396D01*
X153808880Y-93477353D01*
X153819161Y-93471900D01*
X153819816Y-93472157D01*
X153821461Y-93482348D01*
X153856928Y-93482348D01*
X153860675Y-93460197D01*
X153865495Y-93429940D01*
X153871200Y-93396362D01*
X153876720Y-93368316D01*
X153880585Y-93352833D01*
X153879655Y-93347422D01*
X153868209Y-93356783D01*
X153868209Y-93356783D01*
G37*
X153868209Y-93356783D02*
X153846255Y-93380909D01*
X153813799Y-93419794D01*
X153809690Y-93424847D01*
X153790773Y-93447913D01*
X153775670Y-93465903D01*
X153770536Y-93471760D01*
X153760740Y-93482924D01*
X153742612Y-93504015D01*
X153719527Y-93531101D01*
X153711571Y-93540477D01*
X153665119Y-93594982D01*
X153627821Y-93638092D01*
X153600660Y-93668675D01*
X153593643Y-93676305D01*
X153581925Y-93689450D01*
X153561799Y-93712581D01*
X153536581Y-93741840D01*
X153509586Y-93773366D01*
X153484131Y-93803301D01*
X153464925Y-93826115D01*
X153447416Y-93846883D01*
X153430474Y-93866761D01*
X153411349Y-93889059D01*
X153452603Y-93910025D01*
X153476021Y-93922556D01*
X153490969Y-93931764D01*
X153493857Y-93934529D01*
X153490163Y-93943410D01*
X153479833Y-93966253D01*
X153463991Y-94000619D01*
X153443764Y-94044072D01*
X153420278Y-94094175D01*
X153411174Y-94113515D01*
X153384758Y-94169660D01*
X153359268Y-94224004D01*
X153336337Y-94273053D01*
X153317597Y-94313315D01*
X153304681Y-94341296D01*
X153303098Y-94344766D01*
X153277704Y-94400568D01*
X153200310Y-94374561D01*
X153084527Y-94340214D01*
X152973185Y-94317300D01*
X152859297Y-94304705D01*
X152741533Y-94301284D01*
X152584427Y-94310575D01*
X152432405Y-94336700D01*
X152286464Y-94378816D01*
X152147601Y-94436081D01*
X152016812Y-94507651D01*
X151895093Y-94592685D01*
X151783442Y-94690339D01*
X151682855Y-94799771D01*
X151594329Y-94920138D01*
X151518860Y-95050598D01*
X151457445Y-95190307D01*
X151411081Y-95338424D01*
X151388334Y-95445387D01*
X151381013Y-95498355D01*
X151375324Y-95560600D01*
X151371420Y-95627430D01*
X151369453Y-95694148D01*
X151369573Y-95756059D01*
X151371935Y-95808469D01*
X151375556Y-95840506D01*
X151392395Y-95934486D01*
X151409849Y-96014790D01*
X151429225Y-96085871D01*
X151451825Y-96152185D01*
X151478956Y-96218184D01*
X151498862Y-96261397D01*
X151565968Y-96388123D01*
X151640587Y-96500953D01*
X151725559Y-96603519D01*
X151823721Y-96699455D01*
X151875504Y-96743519D01*
X151910703Y-96770875D01*
X151951818Y-96800637D01*
X151995262Y-96830445D01*
X152037446Y-96857940D01*
X152074783Y-96880762D01*
X152103683Y-96896553D01*
X152116599Y-96902043D01*
X152129923Y-96912010D01*
X152129692Y-96927337D01*
X152124793Y-96939643D01*
X152112940Y-96966437D01*
X152095001Y-97005841D01*
X152071847Y-97055973D01*
X152044347Y-97114953D01*
X152013370Y-97180903D01*
X151979787Y-97251940D01*
X151970173Y-97272196D01*
X151936311Y-97343575D01*
X151905014Y-97409735D01*
X151877109Y-97468909D01*
X151853428Y-97519328D01*
X151834799Y-97559225D01*
X151822053Y-97586831D01*
X151816020Y-97600379D01*
X151815643Y-97601451D01*
X151823229Y-97606547D01*
X151843094Y-97616891D01*
X151870896Y-97630456D01*
X151902291Y-97645216D01*
X151932940Y-97659142D01*
X151958499Y-97670209D01*
X151974626Y-97676389D01*
X151977564Y-97677040D01*
X151982564Y-97669085D01*
X151994428Y-97646396D01*
X152012326Y-97610670D01*
X152035427Y-97563606D01*
X152062902Y-97506899D01*
X152093921Y-97442247D01*
X152127654Y-97371348D01*
X152146434Y-97331641D01*
X152186662Y-97246589D01*
X152220012Y-97176597D01*
X152247228Y-97120266D01*
X152269055Y-97076192D01*
X152286239Y-97042974D01*
X152299526Y-97019211D01*
X152309660Y-97003500D01*
X152317388Y-96994441D01*
X152323454Y-96990631D01*
X152327862Y-96990473D01*
X152346348Y-96995040D01*
X152375251Y-97002626D01*
X152400750Y-97009524D01*
X152511673Y-97033403D01*
X152632541Y-97047814D01*
X152757678Y-97052521D01*
X152881409Y-97047286D01*
X152986041Y-97034023D01*
X153139884Y-96998526D01*
X153286175Y-96947068D01*
X153423984Y-96880575D01*
X153552386Y-96799975D01*
X153670451Y-96706196D01*
X153777253Y-96600164D01*
X153871864Y-96482809D01*
X153953357Y-96355057D01*
X154020803Y-96217835D01*
X154073275Y-96072072D01*
X154109846Y-95918695D01*
X154111665Y-95908398D01*
X154118987Y-95855431D01*
X154124676Y-95793185D01*
X154128580Y-95726355D01*
X154130038Y-95676893D01*
X154087198Y-95676893D01*
X154087066Y-95743533D01*
X154086160Y-95795928D01*
X154084195Y-95837969D01*
X154080887Y-95873547D01*
X154075952Y-95906554D01*
X154069104Y-95940880D01*
X154067304Y-95949036D01*
X154024219Y-96104271D01*
X153966698Y-96248609D01*
X153894472Y-96382491D01*
X153807268Y-96506358D01*
X153704815Y-96620652D01*
X153592199Y-96721504D01*
X153546335Y-96757449D01*
X153504261Y-96787496D01*
X153461374Y-96814446D01*
X153413070Y-96841096D01*
X153354745Y-96870245D01*
X153321209Y-96886243D01*
X153234612Y-96924511D01*
X153153794Y-96954042D01*
X153070948Y-96977336D01*
X152978267Y-96996895D01*
X152972250Y-96997999D01*
X152906155Y-97006645D01*
X152827869Y-97011452D01*
X152742912Y-97012517D01*
X152656804Y-97009935D01*
X152575064Y-97003806D01*
X152503212Y-96994224D01*
X152477857Y-96989313D01*
X152469018Y-96986893D01*
X152268149Y-96986893D01*
X152170072Y-97193679D01*
X152139276Y-97258602D01*
X152107457Y-97325664D01*
X152076587Y-97390711D01*
X152048638Y-97449590D01*
X152025580Y-97498147D01*
X152017128Y-97515937D01*
X151962261Y-97631410D01*
X151913898Y-97609701D01*
X151888274Y-97596900D01*
X151871383Y-97585950D01*
X151867163Y-97580407D01*
X151871506Y-97569850D01*
X151882623Y-97545297D01*
X151899469Y-97508942D01*
X151920997Y-97462978D01*
X151946163Y-97409598D01*
X151973919Y-97350994D01*
X152003220Y-97289360D01*
X152033021Y-97226889D01*
X152062275Y-97165773D01*
X152089937Y-97108205D01*
X152114960Y-97056379D01*
X152136299Y-97012486D01*
X152152908Y-96978721D01*
X152163742Y-96957276D01*
X152167651Y-96950351D01*
X152178690Y-96950706D01*
X152200643Y-96957467D01*
X152221056Y-96965815D01*
X152268149Y-96986893D01*
X152469018Y-96986893D01*
X152322991Y-96946914D01*
X152177610Y-96889327D01*
X152042383Y-96817224D01*
X151917985Y-96731276D01*
X151805085Y-96632155D01*
X151704357Y-96520532D01*
X151616472Y-96397078D01*
X151542101Y-96262466D01*
X151481917Y-96117366D01*
X151436591Y-95962450D01*
X151432466Y-95944500D01*
X151422163Y-95882880D01*
X151415199Y-95808373D01*
X151411572Y-95725928D01*
X151411280Y-95640490D01*
X151414320Y-95557006D01*
X151420691Y-95480423D01*
X151430390Y-95415687D01*
X151432695Y-95404750D01*
X151475781Y-95249514D01*
X151533301Y-95105176D01*
X151605528Y-94971294D01*
X151692732Y-94847427D01*
X151795185Y-94733134D01*
X151907801Y-94632282D01*
X151954210Y-94595935D01*
X151996892Y-94565515D01*
X152040626Y-94538083D01*
X152090196Y-94510702D01*
X152150383Y-94480430D01*
X152171503Y-94470212D01*
X152298121Y-94416909D01*
X152428736Y-94377452D01*
X152555534Y-94352162D01*
X152634031Y-94343603D01*
X152723066Y-94340121D01*
X152816298Y-94341547D01*
X152907390Y-94347711D01*
X152990000Y-94358446D01*
X153022143Y-94364598D01*
X153058795Y-94373195D01*
X153100830Y-94384141D01*
X153144382Y-94396292D01*
X153185585Y-94408504D01*
X153220571Y-94419634D01*
X153245473Y-94428537D01*
X153256239Y-94433858D01*
X153254107Y-94442892D01*
X153245760Y-94464342D01*
X153232783Y-94494242D01*
X153226841Y-94507270D01*
X153212651Y-94539581D01*
X153202765Y-94565241D01*
X153198692Y-94580192D01*
X153198992Y-94582230D01*
X153208698Y-94587904D01*
X153231004Y-94599371D01*
X153262096Y-94614700D01*
X153282977Y-94624753D01*
X153362321Y-94662636D01*
X153398607Y-94591939D01*
X153434893Y-94521243D01*
X153481711Y-94550841D01*
X153595296Y-94632838D01*
X153701359Y-94729619D01*
X153797985Y-94838716D01*
X153883262Y-94957657D01*
X153955276Y-95083975D01*
X154012112Y-95215199D01*
X154024788Y-95251700D01*
X154046081Y-95319999D01*
X154062075Y-95380963D01*
X154073469Y-95439350D01*
X154080961Y-95499923D01*
X154085251Y-95567443D01*
X154087037Y-95646669D01*
X154087198Y-95676893D01*
X154130038Y-95676893D01*
X154130547Y-95659637D01*
X154130426Y-95597726D01*
X154128065Y-95545316D01*
X154124444Y-95513279D01*
X154107605Y-95419299D01*
X154090150Y-95338996D01*
X154070775Y-95267914D01*
X154048174Y-95201600D01*
X154021043Y-95135601D01*
X154001137Y-95092388D01*
X153932865Y-94963783D01*
X153856671Y-94849213D01*
X153769980Y-94745373D01*
X153670217Y-94648961D01*
X153626931Y-94612433D01*
X153597399Y-94589302D01*
X153562369Y-94563237D01*
X153525941Y-94537132D01*
X153492211Y-94513877D01*
X153465278Y-94496363D01*
X153450827Y-94488168D01*
X153454038Y-94480165D01*
X153463800Y-94458242D01*
X153478952Y-94424902D01*
X153498330Y-94382647D01*
X153520773Y-94333979D01*
X153545117Y-94281401D01*
X153570200Y-94227413D01*
X153594860Y-94174519D01*
X153617933Y-94125220D01*
X153638258Y-94082019D01*
X153654672Y-94047417D01*
X153666012Y-94023917D01*
X153671115Y-94014020D01*
X153671172Y-94013943D01*
X153679783Y-94016091D01*
X153699575Y-94024650D01*
X153718229Y-94033741D01*
X153745454Y-94045775D01*
X153760700Y-94048531D01*
X153763280Y-94045690D01*
X153764853Y-94027953D01*
X153768368Y-93999283D01*
X153772866Y-93966655D01*
X153777386Y-93937045D01*
X153780858Y-93917926D01*
X153786466Y-93891788D01*
X153791443Y-93866179D01*
X153796998Y-93834581D01*
X153802919Y-93799107D01*
X153808621Y-93764579D01*
X153813477Y-93735221D01*
X153816423Y-93717464D01*
X153821087Y-93692620D01*
X153823689Y-93680288D01*
X153827262Y-93660425D01*
X153831668Y-93630907D01*
X153834036Y-93613143D01*
X153838338Y-93581866D01*
X153842528Y-93555527D01*
X153844358Y-93545998D01*
X153850248Y-93518472D01*
X153855256Y-93492237D01*
X153856928Y-93482348D01*
X153821461Y-93482348D01*
X153819893Y-93505608D01*
X153815463Y-93537217D01*
X153814576Y-93542370D01*
X153808153Y-93579165D01*
X153799892Y-93626984D01*
X153790976Y-93678961D01*
X153784413Y-93717464D01*
X153776834Y-93761966D01*
X153770022Y-93801754D01*
X153764741Y-93832375D01*
X153761825Y-93849000D01*
X153758236Y-93869969D01*
X153753089Y-93901332D01*
X153748567Y-93929576D01*
X153743162Y-93960098D01*
X153738068Y-93982788D01*
X153734653Y-93992228D01*
X153724298Y-93991731D01*
X153703751Y-93984918D01*
X153693428Y-93980535D01*
X153670597Y-93971387D01*
X153655631Y-93967530D01*
X153653096Y-93967951D01*
X153648402Y-93976853D01*
X153637051Y-94000089D01*
X153620048Y-94035551D01*
X153598399Y-94081129D01*
X153573110Y-94134712D01*
X153545185Y-94194191D01*
X153539810Y-94205674D01*
X153510654Y-94267877D01*
X153483190Y-94326267D01*
X153458591Y-94378367D01*
X153438029Y-94421697D01*
X153422678Y-94453782D01*
X153413709Y-94472144D01*
X153413221Y-94473106D01*
X153399778Y-94500414D01*
X153383363Y-94535136D01*
X153372483Y-94558839D01*
X153359637Y-94585839D01*
X153349439Y-94604686D01*
X153344478Y-94611000D01*
X153334610Y-94607311D01*
X153313470Y-94597731D01*
X153290777Y-94586837D01*
X153241510Y-94562674D01*
X153265630Y-94511998D01*
X153280312Y-94483000D01*
X153293660Y-94459753D01*
X153301089Y-94449334D01*
X153310980Y-94432402D01*
X153312428Y-94424708D01*
X153316099Y-94414464D01*
X153326343Y-94390306D01*
X153342012Y-94354737D01*
X153361955Y-94310259D01*
X153385024Y-94259376D01*
X153410069Y-94204590D01*
X153435940Y-94148403D01*
X153461488Y-94093320D01*
X153485562Y-94041841D01*
X153507014Y-93996471D01*
X153524695Y-93959712D01*
X153537453Y-93934067D01*
X153540193Y-93928832D01*
X153542267Y-93918249D01*
X153533565Y-93908621D01*
X153511065Y-93896907D01*
X153506416Y-93894828D01*
X153482117Y-93883223D01*
X153471903Y-93874763D01*
X153472908Y-93866122D01*
X153476860Y-93860521D01*
X153493032Y-93841034D01*
X153517089Y-93813114D01*
X153544700Y-93781745D01*
X153563320Y-93760963D01*
X153580835Y-93740854D01*
X153602877Y-93714621D01*
X153613213Y-93702033D01*
X153635861Y-93674887D01*
X153658144Y-93649249D01*
X153666214Y-93640357D01*
X153685476Y-93618702D01*
X153708948Y-93591085D01*
X153720643Y-93576892D01*
X153760008Y-93529440D01*
X153789291Y-93496396D01*
X153808880Y-93477353D01*
X153819161Y-93471900D01*
X153819816Y-93472157D01*
X153821461Y-93482348D01*
X153856928Y-93482348D01*
X153860675Y-93460197D01*
X153865495Y-93429940D01*
X153871200Y-93396362D01*
X153876720Y-93368316D01*
X153880585Y-93352833D01*
X153879655Y-93347422D01*
X153868209Y-93356783D01*
D13*
X119796267Y-103260000D02*
X119453733Y-103260000D01*
X119796267Y-102240000D02*
X119453733Y-102240000D01*
X114203733Y-104010000D02*
X114546267Y-104010000D01*
X114203733Y-102990000D02*
X114546267Y-102990000D01*
X114203733Y-102510000D02*
X114546267Y-102510000D01*
X114203733Y-101490000D02*
X114546267Y-101490000D01*
X149040000Y-102736252D02*
X149040000Y-102213748D01*
X150460000Y-102736252D02*
X150460000Y-102213748D01*
X152460000Y-102736252D02*
X152460000Y-102213748D01*
X151040000Y-102736252D02*
X151040000Y-102213748D01*
X137513748Y-99040000D02*
X138036252Y-99040000D01*
X137513748Y-100460000D02*
X138036252Y-100460000D01*
X137463748Y-103460000D02*
X137986252Y-103460000D01*
X137463748Y-102040000D02*
X137986252Y-102040000D01*
X137513748Y-105960000D02*
X138036252Y-105960000D01*
X137513748Y-104540000D02*
X138036252Y-104540000D01*
X144763748Y-104290000D02*
X145286252Y-104290000D01*
X144763748Y-105710000D02*
X145286252Y-105710000D01*
X124536252Y-105460000D02*
X124013748Y-105460000D01*
X124536252Y-104040000D02*
X124013748Y-104040000D01*
X124511252Y-106040000D02*
X123988748Y-106040000D01*
X124511252Y-107460000D02*
X123988748Y-107460000D01*
X131036252Y-105460000D02*
X130513748Y-105460000D01*
X131036252Y-104040000D02*
X130513748Y-104040000D01*
X130463748Y-107460000D02*
X130986252Y-107460000D01*
X130463748Y-106040000D02*
X130986252Y-106040000D01*
X144763748Y-103710000D02*
X145286252Y-103710000D01*
X144763748Y-102290000D02*
X145286252Y-102290000D01*
X124486252Y-102040000D02*
X123963748Y-102040000D01*
X124486252Y-103460000D02*
X123963748Y-103460000D01*
X131036252Y-103460000D02*
X130513748Y-103460000D01*
X131036252Y-102040000D02*
X130513748Y-102040000D01*
D10*
X119791666Y-101677142D02*
X119839285Y-101724761D01*
X119982142Y-101772380D01*
X120077380Y-101772380D01*
X120220238Y-101724761D01*
X120315476Y-101629523D01*
X120363095Y-101534285D01*
X120410714Y-101343809D01*
X120410714Y-101200952D01*
X120363095Y-101010476D01*
X120315476Y-100915238D01*
X120220238Y-100820000D01*
X120077380Y-100772380D01*
X119982142Y-100772380D01*
X119839285Y-100820000D01*
X119791666Y-100867619D01*
X118839285Y-101772380D02*
X119410714Y-101772380D01*
X119125000Y-101772380D02*
X119125000Y-100772380D01*
X119220238Y-100915238D01*
X119315476Y-101010476D01*
X119410714Y-101058095D01*
X111880952Y-103857142D02*
X111928571Y-103904761D01*
X112071428Y-103952380D01*
X112166666Y-103952380D01*
X112309523Y-103904761D01*
X112404761Y-103809523D01*
X112452380Y-103714285D01*
X112500000Y-103523809D01*
X112500000Y-103380952D01*
X112452380Y-103190476D01*
X112404761Y-103095238D01*
X112309523Y-103000000D01*
X112166666Y-102952380D01*
X112071428Y-102952380D01*
X111928571Y-103000000D01*
X111880952Y-103047619D01*
X111500000Y-103047619D02*
X111452380Y-103000000D01*
X111357142Y-102952380D01*
X111119047Y-102952380D01*
X111023809Y-103000000D01*
X110976190Y-103047619D01*
X110928571Y-103142857D01*
X110928571Y-103238095D01*
X110976190Y-103380952D01*
X111547619Y-103952380D01*
X110928571Y-103952380D01*
X110500000Y-103857142D02*
X110452380Y-103904761D01*
X110500000Y-103952380D01*
X110547619Y-103904761D01*
X110500000Y-103857142D01*
X110500000Y-103952380D01*
X109500000Y-103952380D02*
X110071428Y-103952380D01*
X109785714Y-103952380D02*
X109785714Y-102952380D01*
X109880952Y-103095238D01*
X109976190Y-103190476D01*
X110071428Y-103238095D01*
X111880952Y-102357142D02*
X111928571Y-102404761D01*
X112071428Y-102452380D01*
X112166666Y-102452380D01*
X112309523Y-102404761D01*
X112404761Y-102309523D01*
X112452380Y-102214285D01*
X112500000Y-102023809D01*
X112500000Y-101880952D01*
X112452380Y-101690476D01*
X112404761Y-101595238D01*
X112309523Y-101500000D01*
X112166666Y-101452380D01*
X112071428Y-101452380D01*
X111928571Y-101500000D01*
X111880952Y-101547619D01*
X111500000Y-101547619D02*
X111452380Y-101500000D01*
X111357142Y-101452380D01*
X111119047Y-101452380D01*
X111023809Y-101500000D01*
X110976190Y-101547619D01*
X110928571Y-101642857D01*
X110928571Y-101738095D01*
X110976190Y-101880952D01*
X111547619Y-102452380D01*
X110928571Y-102452380D01*
X110500000Y-102357142D02*
X110452380Y-102404761D01*
X110500000Y-102452380D01*
X110547619Y-102404761D01*
X110500000Y-102357142D01*
X110500000Y-102452380D01*
X109833333Y-101452380D02*
X109738095Y-101452380D01*
X109642857Y-101500000D01*
X109595238Y-101547619D01*
X109547619Y-101642857D01*
X109500000Y-101833333D01*
X109500000Y-102071428D01*
X109547619Y-102261904D01*
X109595238Y-102357142D01*
X109642857Y-102404761D01*
X109738095Y-102452380D01*
X109833333Y-102452380D01*
X109928571Y-102404761D01*
X109976190Y-102357142D01*
X110023809Y-102261904D01*
X110071428Y-102071428D01*
X110071428Y-101833333D01*
X110023809Y-101642857D01*
X109976190Y-101547619D01*
X109928571Y-101500000D01*
X109833333Y-101452380D01*
X149678571Y-104916666D02*
X149678571Y-104583333D01*
X150202380Y-104583333D02*
X149202380Y-104583333D01*
X149202380Y-105059523D01*
X150107142Y-106011904D02*
X150154761Y-105964285D01*
X150202380Y-105821428D01*
X150202380Y-105726190D01*
X150154761Y-105583333D01*
X150059523Y-105488095D01*
X149964285Y-105440476D01*
X149773809Y-105392857D01*
X149630952Y-105392857D01*
X149440476Y-105440476D01*
X149345238Y-105488095D01*
X149250000Y-105583333D01*
X149202380Y-105726190D01*
X149202380Y-105821428D01*
X149250000Y-105964285D01*
X149297619Y-106011904D01*
X149202380Y-106630952D02*
X149202380Y-106726190D01*
X149250000Y-106821428D01*
X149297619Y-106869047D01*
X149392857Y-106916666D01*
X149583333Y-106964285D01*
X149821428Y-106964285D01*
X150011904Y-106916666D01*
X150107142Y-106869047D01*
X150154761Y-106821428D01*
X150202380Y-106726190D01*
X150202380Y-106630952D01*
X150154761Y-106535714D01*
X150107142Y-106488095D01*
X150011904Y-106440476D01*
X149821428Y-106392857D01*
X149583333Y-106392857D01*
X149392857Y-106440476D01*
X149297619Y-106488095D01*
X149250000Y-106535714D01*
X149202380Y-106630952D01*
X151678571Y-104916666D02*
X151678571Y-104583333D01*
X152202380Y-104583333D02*
X151202380Y-104583333D01*
X151202380Y-105059523D01*
X152107142Y-106011904D02*
X152154761Y-105964285D01*
X152202380Y-105821428D01*
X152202380Y-105726190D01*
X152154761Y-105583333D01*
X152059523Y-105488095D01*
X151964285Y-105440476D01*
X151773809Y-105392857D01*
X151630952Y-105392857D01*
X151440476Y-105440476D01*
X151345238Y-105488095D01*
X151250000Y-105583333D01*
X151202380Y-105726190D01*
X151202380Y-105821428D01*
X151250000Y-105964285D01*
X151297619Y-106011904D01*
X152202380Y-106964285D02*
X152202380Y-106392857D01*
X152202380Y-106678571D02*
X151202380Y-106678571D01*
X151345238Y-106583333D01*
X151440476Y-106488095D01*
X151488095Y-106392857D01*
X135166666Y-100202380D02*
X135500000Y-99726190D01*
X135738095Y-100202380D02*
X135738095Y-99202380D01*
X135357142Y-99202380D01*
X135261904Y-99250000D01*
X135214285Y-99297619D01*
X135166666Y-99392857D01*
X135166666Y-99535714D01*
X135214285Y-99630952D01*
X135261904Y-99678571D01*
X135357142Y-99726190D01*
X135738095Y-99726190D01*
X134547619Y-99202380D02*
X134452380Y-99202380D01*
X134357142Y-99250000D01*
X134309523Y-99297619D01*
X134261904Y-99392857D01*
X134214285Y-99583333D01*
X134214285Y-99821428D01*
X134261904Y-100011904D01*
X134309523Y-100107142D01*
X134357142Y-100154761D01*
X134452380Y-100202380D01*
X134547619Y-100202380D01*
X134642857Y-100154761D01*
X134690476Y-100107142D01*
X134738095Y-100011904D01*
X134785714Y-99821428D01*
X134785714Y-99583333D01*
X134738095Y-99392857D01*
X134690476Y-99297619D01*
X134642857Y-99250000D01*
X134547619Y-99202380D01*
X135166666Y-103202380D02*
X135500000Y-102726190D01*
X135738095Y-103202380D02*
X135738095Y-102202380D01*
X135357142Y-102202380D01*
X135261904Y-102250000D01*
X135214285Y-102297619D01*
X135166666Y-102392857D01*
X135166666Y-102535714D01*
X135214285Y-102630952D01*
X135261904Y-102678571D01*
X135357142Y-102726190D01*
X135738095Y-102726190D01*
X134833333Y-102202380D02*
X134214285Y-102202380D01*
X134547619Y-102583333D01*
X134404761Y-102583333D01*
X134309523Y-102630952D01*
X134261904Y-102678571D01*
X134214285Y-102773809D01*
X134214285Y-103011904D01*
X134261904Y-103107142D01*
X134309523Y-103154761D01*
X134404761Y-103202380D01*
X134690476Y-103202380D01*
X134785714Y-103154761D01*
X134833333Y-103107142D01*
X135166666Y-105702380D02*
X135500000Y-105226190D01*
X135738095Y-105702380D02*
X135738095Y-104702380D01*
X135357142Y-104702380D01*
X135261904Y-104750000D01*
X135214285Y-104797619D01*
X135166666Y-104892857D01*
X135166666Y-105035714D01*
X135214285Y-105130952D01*
X135261904Y-105178571D01*
X135357142Y-105226190D01*
X135738095Y-105226190D01*
X134309523Y-105035714D02*
X134309523Y-105702380D01*
X134547619Y-104654761D02*
X134785714Y-105369047D01*
X134166666Y-105369047D01*
X142416666Y-105452380D02*
X142750000Y-104976190D01*
X142988095Y-105452380D02*
X142988095Y-104452380D01*
X142607142Y-104452380D01*
X142511904Y-104500000D01*
X142464285Y-104547619D01*
X142416666Y-104642857D01*
X142416666Y-104785714D01*
X142464285Y-104880952D01*
X142511904Y-104928571D01*
X142607142Y-104976190D01*
X142988095Y-104976190D01*
X141511904Y-104452380D02*
X141988095Y-104452380D01*
X142035714Y-104928571D01*
X141988095Y-104880952D01*
X141892857Y-104833333D01*
X141654761Y-104833333D01*
X141559523Y-104880952D01*
X141511904Y-104928571D01*
X141464285Y-105023809D01*
X141464285Y-105261904D01*
X141511904Y-105357142D01*
X141559523Y-105404761D01*
X141654761Y-105452380D01*
X141892857Y-105452380D01*
X141988095Y-105404761D01*
X142035714Y-105357142D01*
X121666666Y-105202380D02*
X122000000Y-104726190D01*
X122238095Y-105202380D02*
X122238095Y-104202380D01*
X121857142Y-104202380D01*
X121761904Y-104250000D01*
X121714285Y-104297619D01*
X121666666Y-104392857D01*
X121666666Y-104535714D01*
X121714285Y-104630952D01*
X121761904Y-104678571D01*
X121857142Y-104726190D01*
X122238095Y-104726190D01*
X120809523Y-104202380D02*
X121000000Y-104202380D01*
X121095238Y-104250000D01*
X121142857Y-104297619D01*
X121238095Y-104440476D01*
X121285714Y-104630952D01*
X121285714Y-105011904D01*
X121238095Y-105107142D01*
X121190476Y-105154761D01*
X121095238Y-105202380D01*
X120904761Y-105202380D01*
X120809523Y-105154761D01*
X120761904Y-105107142D01*
X120714285Y-105011904D01*
X120714285Y-104773809D01*
X120761904Y-104678571D01*
X120809523Y-104630952D01*
X120904761Y-104583333D01*
X121095238Y-104583333D01*
X121190476Y-104630952D01*
X121238095Y-104678571D01*
X121285714Y-104773809D01*
X121666666Y-107202380D02*
X122000000Y-106726190D01*
X122238095Y-107202380D02*
X122238095Y-106202380D01*
X121857142Y-106202380D01*
X121761904Y-106250000D01*
X121714285Y-106297619D01*
X121666666Y-106392857D01*
X121666666Y-106535714D01*
X121714285Y-106630952D01*
X121761904Y-106678571D01*
X121857142Y-106726190D01*
X122238095Y-106726190D01*
X121333333Y-106202380D02*
X120666666Y-106202380D01*
X121095238Y-107202380D01*
X128166666Y-105202380D02*
X128500000Y-104726190D01*
X128738095Y-105202380D02*
X128738095Y-104202380D01*
X128357142Y-104202380D01*
X128261904Y-104250000D01*
X128214285Y-104297619D01*
X128166666Y-104392857D01*
X128166666Y-104535714D01*
X128214285Y-104630952D01*
X128261904Y-104678571D01*
X128357142Y-104726190D01*
X128738095Y-104726190D01*
X127595238Y-104630952D02*
X127690476Y-104583333D01*
X127738095Y-104535714D01*
X127785714Y-104440476D01*
X127785714Y-104392857D01*
X127738095Y-104297619D01*
X127690476Y-104250000D01*
X127595238Y-104202380D01*
X127404761Y-104202380D01*
X127309523Y-104250000D01*
X127261904Y-104297619D01*
X127214285Y-104392857D01*
X127214285Y-104440476D01*
X127261904Y-104535714D01*
X127309523Y-104583333D01*
X127404761Y-104630952D01*
X127595238Y-104630952D01*
X127690476Y-104678571D01*
X127738095Y-104726190D01*
X127785714Y-104821428D01*
X127785714Y-105011904D01*
X127738095Y-105107142D01*
X127690476Y-105154761D01*
X127595238Y-105202380D01*
X127404761Y-105202380D01*
X127309523Y-105154761D01*
X127261904Y-105107142D01*
X127214285Y-105011904D01*
X127214285Y-104821428D01*
X127261904Y-104726190D01*
X127309523Y-104678571D01*
X127404761Y-104630952D01*
X128166666Y-107202380D02*
X128500000Y-106726190D01*
X128738095Y-107202380D02*
X128738095Y-106202380D01*
X128357142Y-106202380D01*
X128261904Y-106250000D01*
X128214285Y-106297619D01*
X128166666Y-106392857D01*
X128166666Y-106535714D01*
X128214285Y-106630952D01*
X128261904Y-106678571D01*
X128357142Y-106726190D01*
X128738095Y-106726190D01*
X127690476Y-107202380D02*
X127500000Y-107202380D01*
X127404761Y-107154761D01*
X127357142Y-107107142D01*
X127261904Y-106964285D01*
X127214285Y-106773809D01*
X127214285Y-106392857D01*
X127261904Y-106297619D01*
X127309523Y-106250000D01*
X127404761Y-106202380D01*
X127595238Y-106202380D01*
X127690476Y-106250000D01*
X127738095Y-106297619D01*
X127785714Y-106392857D01*
X127785714Y-106630952D01*
X127738095Y-106726190D01*
X127690476Y-106773809D01*
X127595238Y-106821428D01*
X127404761Y-106821428D01*
X127309523Y-106773809D01*
X127261904Y-106726190D01*
X127214285Y-106630952D01*
X142392857Y-103452380D02*
X142726190Y-102976190D01*
X142964285Y-103452380D02*
X142964285Y-102452380D01*
X142583333Y-102452380D01*
X142488095Y-102500000D01*
X142440476Y-102547619D01*
X142392857Y-102642857D01*
X142392857Y-102785714D01*
X142440476Y-102880952D01*
X142488095Y-102928571D01*
X142583333Y-102976190D01*
X142964285Y-102976190D01*
X141440476Y-103452380D02*
X142011904Y-103452380D01*
X141726190Y-103452380D02*
X141726190Y-102452380D01*
X141821428Y-102595238D01*
X141916666Y-102690476D01*
X142011904Y-102738095D01*
X140821428Y-102452380D02*
X140726190Y-102452380D01*
X140630952Y-102500000D01*
X140583333Y-102547619D01*
X140535714Y-102642857D01*
X140488095Y-102833333D01*
X140488095Y-103071428D01*
X140535714Y-103261904D01*
X140583333Y-103357142D01*
X140630952Y-103404761D01*
X140726190Y-103452380D01*
X140821428Y-103452380D01*
X140916666Y-103404761D01*
X140964285Y-103357142D01*
X141011904Y-103261904D01*
X141059523Y-103071428D01*
X141059523Y-102833333D01*
X141011904Y-102642857D01*
X140964285Y-102547619D01*
X140916666Y-102500000D01*
X140821428Y-102452380D01*
X126010714Y-101552380D02*
X126344047Y-101076190D01*
X126582142Y-101552380D02*
X126582142Y-100552380D01*
X126201190Y-100552380D01*
X126105952Y-100600000D01*
X126058333Y-100647619D01*
X126010714Y-100742857D01*
X126010714Y-100885714D01*
X126058333Y-100980952D01*
X126105952Y-101028571D01*
X126201190Y-101076190D01*
X126582142Y-101076190D01*
X125439285Y-101552380D02*
X125534523Y-101504761D01*
X125582142Y-101409523D01*
X125582142Y-100552380D01*
X124915476Y-101552380D02*
X125010714Y-101504761D01*
X125058333Y-101457142D01*
X125105952Y-101361904D01*
X125105952Y-101076190D01*
X125058333Y-100980952D01*
X125010714Y-100933333D01*
X124915476Y-100885714D01*
X124772619Y-100885714D01*
X124677380Y-100933333D01*
X124629761Y-100980952D01*
X124582142Y-101076190D01*
X124582142Y-101361904D01*
X124629761Y-101457142D01*
X124677380Y-101504761D01*
X124772619Y-101552380D01*
X124915476Y-101552380D01*
X123725000Y-101552380D02*
X123725000Y-101028571D01*
X123772619Y-100933333D01*
X123867857Y-100885714D01*
X124058333Y-100885714D01*
X124153571Y-100933333D01*
X123725000Y-101504761D02*
X123820238Y-101552380D01*
X124058333Y-101552380D01*
X124153571Y-101504761D01*
X124201190Y-101409523D01*
X124201190Y-101314285D01*
X124153571Y-101219047D01*
X124058333Y-101171428D01*
X123820238Y-101171428D01*
X123725000Y-101123809D01*
X122820238Y-101552380D02*
X122820238Y-100552380D01*
X122820238Y-101504761D02*
X122915476Y-101552380D01*
X123105952Y-101552380D01*
X123201190Y-101504761D01*
X123248809Y-101457142D01*
X123296428Y-101361904D01*
X123296428Y-101076190D01*
X123248809Y-100980952D01*
X123201190Y-100933333D01*
X123105952Y-100885714D01*
X122915476Y-100885714D01*
X122820238Y-100933333D01*
X122153571Y-100552380D02*
X122058333Y-100552380D01*
X121963095Y-100600000D01*
X121915476Y-100647619D01*
X121867857Y-100742857D01*
X121820238Y-100933333D01*
X121820238Y-101171428D01*
X121867857Y-101361904D01*
X121915476Y-101457142D01*
X121963095Y-101504761D01*
X122058333Y-101552380D01*
X122153571Y-101552380D01*
X122248809Y-101504761D01*
X122296428Y-101457142D01*
X122344047Y-101361904D01*
X122391666Y-101171428D01*
X122391666Y-100933333D01*
X122344047Y-100742857D01*
X122296428Y-100647619D01*
X122248809Y-100600000D01*
X122153571Y-100552380D01*
X132560714Y-101552380D02*
X132894047Y-101076190D01*
X133132142Y-101552380D02*
X133132142Y-100552380D01*
X132751190Y-100552380D01*
X132655952Y-100600000D01*
X132608333Y-100647619D01*
X132560714Y-100742857D01*
X132560714Y-100885714D01*
X132608333Y-100980952D01*
X132655952Y-101028571D01*
X132751190Y-101076190D01*
X133132142Y-101076190D01*
X131989285Y-101552380D02*
X132084523Y-101504761D01*
X132132142Y-101409523D01*
X132132142Y-100552380D01*
X131465476Y-101552380D02*
X131560714Y-101504761D01*
X131608333Y-101457142D01*
X131655952Y-101361904D01*
X131655952Y-101076190D01*
X131608333Y-100980952D01*
X131560714Y-100933333D01*
X131465476Y-100885714D01*
X131322619Y-100885714D01*
X131227380Y-100933333D01*
X131179761Y-100980952D01*
X131132142Y-101076190D01*
X131132142Y-101361904D01*
X131179761Y-101457142D01*
X131227380Y-101504761D01*
X131322619Y-101552380D01*
X131465476Y-101552380D01*
X130275000Y-101552380D02*
X130275000Y-101028571D01*
X130322619Y-100933333D01*
X130417857Y-100885714D01*
X130608333Y-100885714D01*
X130703571Y-100933333D01*
X130275000Y-101504761D02*
X130370238Y-101552380D01*
X130608333Y-101552380D01*
X130703571Y-101504761D01*
X130751190Y-101409523D01*
X130751190Y-101314285D01*
X130703571Y-101219047D01*
X130608333Y-101171428D01*
X130370238Y-101171428D01*
X130275000Y-101123809D01*
X129370238Y-101552380D02*
X129370238Y-100552380D01*
X129370238Y-101504761D02*
X129465476Y-101552380D01*
X129655952Y-101552380D01*
X129751190Y-101504761D01*
X129798809Y-101457142D01*
X129846428Y-101361904D01*
X129846428Y-101076190D01*
X129798809Y-100980952D01*
X129751190Y-100933333D01*
X129655952Y-100885714D01*
X129465476Y-100885714D01*
X129370238Y-100933333D01*
X128370238Y-101552380D02*
X128941666Y-101552380D01*
X128655952Y-101552380D02*
X128655952Y-100552380D01*
X128751190Y-100695238D01*
X128846428Y-100790476D01*
X128941666Y-100838095D01*
M02*
