G04 #@! TF.GenerationSoftware,KiCad,Pcbnew,(5.1.0)-1*
G04 #@! TF.CreationDate,2022-11-08T17:01:55+01:00*
G04 #@! TF.ProjectId,USB - UART,55534220-2d20-4554-9152-542e6b696361,rev?*
G04 #@! TF.SameCoordinates,Original*
G04 #@! TF.FileFunction,Legend,Top*
G04 #@! TF.FilePolarity,Positive*
%FSLAX46Y46*%
G04 Gerber Fmt 4.6, Leading zero omitted, Abs format (unit mm)*
G04 Created by KiCad (PCBNEW (5.1.0)-1) date 2022-11-08 17:01:55*
%MOMM*%
%LPD*%
G04 APERTURE LIST*
%ADD10C,0.010000*%
%ADD11C,0.120000*%
%ADD12C,0.200000*%
%ADD13C,0.250000*%
%ADD14C,0.150000*%
%ADD15C,0.254000*%
G04 APERTURE END LIST*
D10*
G36*
X143829210Y-108785460D02*
G01*
X143841238Y-108799556D01*
X143870178Y-108836491D01*
X143914020Y-108893608D01*
X143970748Y-108968255D01*
X144038351Y-109057776D01*
X144114815Y-109159517D01*
X144198128Y-109270823D01*
X144251224Y-109341978D01*
X144337425Y-109457004D01*
X144417956Y-109563263D01*
X144490833Y-109658222D01*
X144554067Y-109739348D01*
X144605675Y-109804108D01*
X144643669Y-109849969D01*
X144666063Y-109874399D01*
X144671267Y-109877647D01*
X144680146Y-109858641D01*
X144696535Y-109815321D01*
X144718295Y-109753626D01*
X144743288Y-109679489D01*
X144750125Y-109658687D01*
X144775583Y-109582307D01*
X144798329Y-109516844D01*
X144816236Y-109468219D01*
X144827178Y-109442357D01*
X144828635Y-109440074D01*
X144840874Y-109448875D01*
X144870049Y-109479752D01*
X144913617Y-109529710D01*
X144969033Y-109595753D01*
X145033754Y-109674888D01*
X145105234Y-109764118D01*
X145123228Y-109786849D01*
X145406768Y-110145862D01*
X145442093Y-110076900D01*
X145477418Y-110007937D01*
X145431503Y-110002980D01*
X145385589Y-109998022D01*
X145447069Y-109915667D01*
X145486894Y-109858490D01*
X145524352Y-109798451D01*
X145543643Y-109763426D01*
X145578737Y-109693539D01*
X145641979Y-109803113D01*
X145678156Y-109862204D01*
X145714646Y-109915970D01*
X145744132Y-109953690D01*
X145746581Y-109956343D01*
X145787940Y-110000000D01*
X145737345Y-110000000D01*
X145702625Y-110002913D01*
X145686839Y-110009990D01*
X145686749Y-110010622D01*
X145694975Y-110034015D01*
X145716256Y-110075001D01*
X145745496Y-110125119D01*
X145777600Y-110175911D01*
X145807472Y-110218918D01*
X145825805Y-110241468D01*
X145866117Y-110284500D01*
X145806695Y-110268092D01*
X145766729Y-110259556D01*
X145741525Y-110258801D01*
X145738863Y-110260094D01*
X145740260Y-110278508D01*
X145754879Y-110314336D01*
X145778072Y-110358750D01*
X145805190Y-110402919D01*
X145831585Y-110438016D01*
X145833862Y-110440531D01*
X145866909Y-110476249D01*
X145824454Y-110476249D01*
X145789887Y-110482465D01*
X145784624Y-110499900D01*
X145804391Y-110522695D01*
X145819782Y-110528017D01*
X145839085Y-110516449D01*
X145867048Y-110484082D01*
X145891349Y-110451112D01*
X145922248Y-110404557D01*
X145942381Y-110367489D01*
X145947611Y-110347585D01*
X145947396Y-110347160D01*
X145926690Y-110336679D01*
X145898481Y-110333375D01*
X145858085Y-110333375D01*
X145903386Y-110281636D01*
X145932261Y-110243077D01*
X145960887Y-110196020D01*
X145984983Y-110148920D01*
X146000266Y-110110237D01*
X146002455Y-110088427D01*
X146001713Y-110087422D01*
X145983017Y-110086347D01*
X145946982Y-110093527D01*
X145940750Y-110095249D01*
X145898023Y-110105155D01*
X145883062Y-110100679D01*
X145894333Y-110079679D01*
X145913760Y-110057490D01*
X145939621Y-110023914D01*
X145970808Y-109975538D01*
X146002441Y-109921065D01*
X146029636Y-109869199D01*
X146047513Y-109828644D01*
X146051875Y-109811246D01*
X146038300Y-109798004D01*
X146012187Y-109793625D01*
X145982319Y-109791161D01*
X145972500Y-109786448D01*
X145980913Y-109770923D01*
X146003188Y-109736326D01*
X146034874Y-109689524D01*
X146041957Y-109679291D01*
X146081982Y-109619045D01*
X146119702Y-109557857D01*
X146146512Y-109509794D01*
X146181611Y-109440275D01*
X146252742Y-109565356D01*
X146289552Y-109627025D01*
X146325756Y-109682539D01*
X146355199Y-109722613D01*
X146362721Y-109731225D01*
X146388317Y-109765247D01*
X146385690Y-109785402D01*
X146354315Y-109793349D01*
X146342916Y-109793625D01*
X146314339Y-109796691D01*
X146305875Y-109802015D01*
X146313893Y-109826936D01*
X146334789Y-109869968D01*
X146363821Y-109922807D01*
X146396246Y-109977151D01*
X146427323Y-110024697D01*
X146450276Y-110054875D01*
X146479388Y-110090225D01*
X146485131Y-110106901D01*
X146465278Y-110107701D01*
X146417946Y-110095521D01*
X146380463Y-110086738D01*
X146358725Y-110085340D01*
X146357452Y-110086005D01*
X146360066Y-110103148D01*
X146375134Y-110138857D01*
X146398254Y-110184789D01*
X146425024Y-110232605D01*
X146451044Y-110273961D01*
X146469143Y-110297656D01*
X146487692Y-110323817D01*
X146479858Y-110335731D01*
X146443874Y-110335418D01*
X146436843Y-110334560D01*
X146418557Y-110342872D01*
X146417000Y-110349425D01*
X146426809Y-110376440D01*
X146452575Y-110419436D01*
X146488806Y-110470982D01*
X146530009Y-110523651D01*
X146570691Y-110570012D01*
X146602533Y-110600377D01*
X146663062Y-110649810D01*
X146587656Y-110650342D01*
X146543697Y-110652901D01*
X146516551Y-110658814D01*
X146512309Y-110662781D01*
X146523131Y-110692664D01*
X146552159Y-110737853D01*
X146594538Y-110791831D01*
X146645411Y-110848081D01*
X146665256Y-110868011D01*
X146705659Y-110907985D01*
X146734664Y-110937699D01*
X146747107Y-110951836D01*
X146747116Y-110952328D01*
X146730604Y-110948027D01*
X146693438Y-110937204D01*
X146664508Y-110928515D01*
X146602968Y-110911501D01*
X146565802Y-110906164D01*
X146547897Y-110912411D01*
X146544000Y-110926323D01*
X146553013Y-110959615D01*
X146576988Y-111009920D01*
X146611327Y-111069239D01*
X146651432Y-111129576D01*
X146689070Y-111178636D01*
X146752126Y-111253960D01*
X143749552Y-111258011D01*
X143443209Y-111258397D01*
X143145417Y-111258718D01*
X142857726Y-111258975D01*
X142581685Y-111259169D01*
X142318843Y-111259300D01*
X142070748Y-111259369D01*
X141838949Y-111259376D01*
X141624997Y-111259323D01*
X141430439Y-111259209D01*
X141256825Y-111259036D01*
X141105703Y-111258803D01*
X140978624Y-111258512D01*
X140877135Y-111258164D01*
X140802786Y-111257758D01*
X140757126Y-111257296D01*
X140741707Y-111256791D01*
X140748845Y-111243838D01*
X140772955Y-111217027D01*
X140788910Y-111201229D01*
X140834228Y-111149747D01*
X140879616Y-111085068D01*
X140902314Y-111045743D01*
X141849971Y-111045743D01*
X141864611Y-111045321D01*
X141894068Y-111028457D01*
X141929887Y-111000125D01*
X141965885Y-110971387D01*
X141993437Y-110954434D01*
X142000153Y-110952500D01*
X142015174Y-110965904D01*
X142034416Y-110999731D01*
X142042548Y-111018406D01*
X142068919Y-111084313D01*
X142128285Y-111026344D01*
X142163563Y-110993615D01*
X142189601Y-110972596D01*
X142197666Y-110968375D01*
X142214082Y-110978606D01*
X142243260Y-111004262D01*
X142255307Y-111016000D01*
X142297848Y-111051925D01*
X142329562Y-111059839D01*
X142355734Y-111039089D01*
X142376389Y-111001061D01*
X142395053Y-110962817D01*
X142409620Y-110948906D01*
X142428360Y-110954418D01*
X142441297Y-110962542D01*
X142479927Y-110978963D01*
X142509034Y-110981449D01*
X142542986Y-110987730D01*
X142574426Y-111007357D01*
X142592955Y-111023173D01*
X142609050Y-111029231D01*
X142630116Y-111023682D01*
X142663558Y-111004675D01*
X142713216Y-110972676D01*
X142735605Y-110960969D01*
X142751607Y-110965807D01*
X142769171Y-110992098D01*
X142780806Y-111014394D01*
X142802499Y-111053249D01*
X142819678Y-111068613D01*
X142840745Y-111065999D01*
X142852110Y-111061170D01*
X142886199Y-111033826D01*
X142909619Y-110997725D01*
X142930767Y-110956529D01*
X142952699Y-110942975D01*
X142982916Y-110953673D01*
X142993072Y-110960020D01*
X143034517Y-110978222D01*
X143086184Y-110990167D01*
X143092739Y-110990933D01*
X143147842Y-111002901D01*
X143206123Y-111024711D01*
X143217837Y-111030512D01*
X143280986Y-111063891D01*
X143318120Y-110990824D01*
X143340500Y-110948733D01*
X143355567Y-110930761D01*
X143370000Y-110932525D01*
X143386452Y-110945990D01*
X143416257Y-110979077D01*
X143447022Y-111021813D01*
X143449540Y-111025823D01*
X143484817Y-111069653D01*
X143519649Y-111082586D01*
X143557802Y-111065192D01*
X143579119Y-111045491D01*
X143624744Y-111010672D01*
X143677136Y-111000134D01*
X143679127Y-111000125D01*
X143732920Y-110993042D01*
X143781929Y-110976219D01*
X143814745Y-110961547D01*
X143832274Y-110963996D01*
X143844110Y-110980188D01*
X143870400Y-111023831D01*
X143888159Y-111042393D01*
X143903844Y-111038781D01*
X143923778Y-111016075D01*
X143954447Y-110976463D01*
X143999936Y-111020044D01*
X144041940Y-111053407D01*
X144074185Y-111059247D01*
X144102283Y-111036319D01*
X144127888Y-110991656D01*
X144150145Y-110949604D01*
X144167006Y-110931565D01*
X144185017Y-110932136D01*
X144194551Y-110936652D01*
X144234081Y-110944905D01*
X144260008Y-110935550D01*
X144305793Y-110926859D01*
X144350451Y-110948074D01*
X144390788Y-110997418D01*
X144399424Y-111013157D01*
X144426110Y-111055396D01*
X144457575Y-111076887D01*
X144491352Y-111085294D01*
X144534608Y-111088846D01*
X144564919Y-111076982D01*
X144593958Y-111049114D01*
X144630055Y-111014038D01*
X144663792Y-110988161D01*
X144668132Y-110985650D01*
X144691259Y-110978367D01*
X144710585Y-110989894D01*
X144733376Y-111022524D01*
X144756813Y-111056525D01*
X144776756Y-111067919D01*
X144804907Y-111061975D01*
X144813762Y-111058713D01*
X144853132Y-111048921D01*
X144877497Y-111057760D01*
X144879541Y-111059691D01*
X144896949Y-111065987D01*
X144923311Y-111053144D01*
X144959184Y-111023401D01*
X144996134Y-110992100D01*
X145024091Y-110972167D01*
X145032980Y-110968375D01*
X145047228Y-110981344D01*
X145067174Y-111013751D01*
X145073812Y-111026972D01*
X145101756Y-111085570D01*
X145140242Y-111036393D01*
X145176384Y-111001285D01*
X145208505Y-110995012D01*
X145209321Y-110995216D01*
X145244963Y-110989391D01*
X145268422Y-110969920D01*
X145292660Y-110945460D01*
X145307121Y-110936625D01*
X145318192Y-110950076D01*
X145334939Y-110984307D01*
X145344593Y-111008062D01*
X145364362Y-111050498D01*
X145383151Y-111076240D01*
X145396725Y-111080987D01*
X145401000Y-111065323D01*
X145412819Y-111045138D01*
X145441154Y-111041342D01*
X145475318Y-111053947D01*
X145490007Y-111065217D01*
X145526454Y-111099457D01*
X145589450Y-111068289D01*
X145643942Y-111048217D01*
X145677837Y-111051330D01*
X145704407Y-111051478D01*
X145739473Y-111035932D01*
X145771960Y-111011986D01*
X145790794Y-110986932D01*
X145791660Y-110976380D01*
X145780922Y-110959889D01*
X145752978Y-110922163D01*
X145710246Y-110866242D01*
X145655143Y-110795163D01*
X145590086Y-110711967D01*
X145517494Y-110619691D01*
X145439784Y-110521375D01*
X145359373Y-110420057D01*
X145278679Y-110318777D01*
X145200119Y-110220573D01*
X145126110Y-110128484D01*
X145059071Y-110045549D01*
X145001418Y-109974807D01*
X144955569Y-109919296D01*
X144923942Y-109882055D01*
X144908954Y-109866124D01*
X144908140Y-109865774D01*
X144900378Y-109881902D01*
X144884955Y-109922743D01*
X144863853Y-109982760D01*
X144839053Y-110056417D01*
X144829261Y-110086250D01*
X144803550Y-110163079D01*
X144780620Y-110227807D01*
X144762473Y-110275058D01*
X144751113Y-110299460D01*
X144748983Y-110301625D01*
X144737696Y-110289312D01*
X144709408Y-110254073D01*
X144666068Y-110198453D01*
X144609627Y-110125000D01*
X144542033Y-110036262D01*
X144465236Y-109934784D01*
X144381187Y-109823113D01*
X144311924Y-109730676D01*
X144223504Y-109612936D01*
X144140660Y-109503565D01*
X144065358Y-109405091D01*
X143999563Y-109320042D01*
X143945243Y-109250945D01*
X143904363Y-109200327D01*
X143878889Y-109170716D01*
X143870978Y-109163829D01*
X143858587Y-109178048D01*
X143832620Y-109215076D01*
X143795951Y-109270568D01*
X143751455Y-109340179D01*
X143704122Y-109416123D01*
X143654904Y-109495662D01*
X143611064Y-109565841D01*
X143575436Y-109622174D01*
X143550858Y-109660178D01*
X143540322Y-109675218D01*
X143521463Y-109674403D01*
X143487087Y-109659377D01*
X143472187Y-109650750D01*
X143435612Y-109630506D01*
X143411748Y-109621688D01*
X143408063Y-109622270D01*
X143402398Y-109633489D01*
X143389019Y-109664048D01*
X143367382Y-109715268D01*
X143336941Y-109788467D01*
X143297151Y-109884966D01*
X143247467Y-110006086D01*
X143187346Y-110153145D01*
X143116240Y-110327464D01*
X143063607Y-110456669D01*
X143029564Y-110540275D01*
X142965126Y-110480732D01*
X142929368Y-110447095D01*
X142877450Y-110397490D01*
X142815883Y-110338174D01*
X142751182Y-110275402D01*
X142740422Y-110264917D01*
X142580158Y-110108646D01*
X142541985Y-110155962D01*
X142481771Y-110230891D01*
X142413243Y-110316657D01*
X142339056Y-110409890D01*
X142261867Y-110507216D01*
X142184333Y-110605265D01*
X142109111Y-110700663D01*
X142038856Y-110790039D01*
X141976227Y-110870021D01*
X141923878Y-110937237D01*
X141884467Y-110988314D01*
X141860651Y-111019881D01*
X141855039Y-111027906D01*
X141849971Y-111045743D01*
X140902314Y-111045743D01*
X140918198Y-111018225D01*
X140943100Y-110960252D01*
X140946360Y-110948531D01*
X140950100Y-110921147D01*
X140941663Y-110907697D01*
X140915959Y-110907261D01*
X140867902Y-110918920D01*
X140835491Y-110928515D01*
X140790436Y-110941961D01*
X140760069Y-110950606D01*
X140752883Y-110952328D01*
X140761046Y-110942277D01*
X140786892Y-110915495D01*
X140825258Y-110877298D01*
X140834743Y-110868011D01*
X140887515Y-110812561D01*
X140933576Y-110756992D01*
X140968070Y-110707820D01*
X140986140Y-110671561D01*
X140987690Y-110662781D01*
X140984552Y-110661225D01*
X141647504Y-110661225D01*
X141654499Y-110684148D01*
X141657575Y-110690973D01*
X141677839Y-110720635D01*
X141700164Y-110720288D01*
X141727802Y-110689700D01*
X141730483Y-110685723D01*
X141743649Y-110662704D01*
X141737434Y-110653013D01*
X141706221Y-110650896D01*
X141696464Y-110650875D01*
X141659341Y-110652353D01*
X141647504Y-110661225D01*
X140984552Y-110661225D01*
X140973483Y-110655738D01*
X140937274Y-110651191D01*
X140912343Y-110650342D01*
X140836937Y-110649810D01*
X140899254Y-110598942D01*
X140933025Y-110565965D01*
X140972810Y-110519294D01*
X141013153Y-110466435D01*
X141048601Y-110414891D01*
X141073699Y-110372169D01*
X141083000Y-110346092D01*
X141070729Y-110334650D01*
X141063156Y-110334560D01*
X141023279Y-110336352D01*
X141011788Y-110326188D01*
X141026917Y-110302046D01*
X141030856Y-110297656D01*
X141052827Y-110268212D01*
X141079257Y-110225284D01*
X141105744Y-110177212D01*
X141127887Y-110132337D01*
X141141284Y-110099001D01*
X141142547Y-110086005D01*
X141124864Y-110085900D01*
X141089262Y-110093521D01*
X141082053Y-110095521D01*
X141034538Y-110107735D01*
X141014832Y-110106855D01*
X141020709Y-110090084D01*
X141049723Y-110054875D01*
X141075514Y-110020592D01*
X141106932Y-109972017D01*
X141139235Y-109917455D01*
X141167682Y-109865206D01*
X141187530Y-109823575D01*
X141194125Y-109802015D01*
X141180304Y-109796119D01*
X141147015Y-109793625D01*
X141146500Y-109793625D01*
X141110034Y-109790170D01*
X141101596Y-109776976D01*
X141119903Y-109749797D01*
X141129938Y-109738793D01*
X141151664Y-109710818D01*
X141183931Y-109663477D01*
X141221331Y-109604858D01*
X141240189Y-109573971D01*
X141319377Y-109442214D01*
X141353981Y-109510763D01*
X141381084Y-109559252D01*
X141418681Y-109620111D01*
X141458042Y-109679291D01*
X141491077Y-109727713D01*
X141515593Y-109765303D01*
X141527138Y-109785196D01*
X141527500Y-109786448D01*
X141513684Y-109791505D01*
X141480441Y-109793624D01*
X141480215Y-109793625D01*
X141447992Y-109795757D01*
X141441157Y-109808466D01*
X141451850Y-109837281D01*
X141473056Y-109879985D01*
X141502393Y-109931356D01*
X141535200Y-109984186D01*
X141566821Y-110031265D01*
X141592597Y-110065384D01*
X141607869Y-110079336D01*
X141608298Y-110079375D01*
X141622184Y-110091633D01*
X141622750Y-110096319D01*
X141610256Y-110106252D01*
X141591000Y-110104257D01*
X141547161Y-110091820D01*
X141527500Y-110086242D01*
X141501030Y-110086605D01*
X141495750Y-110098384D01*
X141504701Y-110131609D01*
X141527705Y-110179375D01*
X141558982Y-110231424D01*
X141592756Y-110277500D01*
X141603533Y-110289718D01*
X141627870Y-110319969D01*
X141627836Y-110334084D01*
X141621751Y-110335792D01*
X141584251Y-110339612D01*
X141575125Y-110340503D01*
X141558102Y-110349334D01*
X141560086Y-110372976D01*
X141581995Y-110414725D01*
X141605962Y-110451110D01*
X141645986Y-110504055D01*
X141688715Y-110552289D01*
X141728346Y-110590101D01*
X141759072Y-110611775D01*
X141771858Y-110614401D01*
X141792020Y-110597734D01*
X141788215Y-110578848D01*
X141766947Y-110571500D01*
X141742968Y-110569348D01*
X141736769Y-110559238D01*
X141749281Y-110535683D01*
X141779890Y-110495162D01*
X141810594Y-110451070D01*
X141832840Y-110410210D01*
X141837187Y-110398751D01*
X141842332Y-110374643D01*
X141832998Y-110366315D01*
X141801872Y-110369727D01*
X141788964Y-110372103D01*
X141729460Y-110383266D01*
X141784854Y-110318551D01*
X141822960Y-110267174D01*
X141855343Y-110212002D01*
X141865159Y-110190418D01*
X141890070Y-110127000D01*
X141809481Y-110127000D01*
X141848633Y-110075406D01*
X141879056Y-110031660D01*
X141914567Y-109975500D01*
X141935086Y-109940697D01*
X141982387Y-109857581D01*
X142070359Y-109992290D01*
X142109576Y-110053017D01*
X142132899Y-110092105D01*
X142142099Y-110114295D01*
X142138951Y-110124328D01*
X142125226Y-110126947D01*
X142120728Y-110127000D01*
X142091871Y-110129709D01*
X142083125Y-110134512D01*
X142089908Y-110155667D01*
X142106625Y-110191489D01*
X142127830Y-110231764D01*
X142148073Y-110266276D01*
X142161907Y-110284809D01*
X142163779Y-110285750D01*
X142178904Y-110274169D01*
X142204922Y-110244801D01*
X142219470Y-110226218D01*
X142280561Y-110146258D01*
X142342716Y-110066846D01*
X142402735Y-109991865D01*
X142457418Y-109925197D01*
X142503565Y-109870725D01*
X142537975Y-109832331D01*
X142557449Y-109813898D01*
X142560172Y-109812891D01*
X142575519Y-109824998D01*
X142609122Y-109855035D01*
X142656434Y-109898837D01*
X142712912Y-109952238D01*
X142729652Y-109968250D01*
X142790227Y-110026128D01*
X142845083Y-110078166D01*
X142888876Y-110119319D01*
X142916263Y-110144545D01*
X142919419Y-110147338D01*
X142927571Y-110155656D01*
X142934130Y-110162528D01*
X142940395Y-110165335D01*
X142947666Y-110161455D01*
X142957244Y-110148268D01*
X142970429Y-110123152D01*
X142988520Y-110083487D01*
X143012818Y-110026652D01*
X143044623Y-109950026D01*
X143085235Y-109850988D01*
X143135953Y-109726917D01*
X143173617Y-109634875D01*
X143207708Y-109551894D01*
X143240135Y-109473417D01*
X143267747Y-109407044D01*
X143287389Y-109360373D01*
X143290984Y-109351980D01*
X143320574Y-109283398D01*
X143374066Y-109324199D01*
X143410866Y-109349602D01*
X143438315Y-109363870D01*
X143443521Y-109364999D01*
X143459216Y-109352378D01*
X143484921Y-109319314D01*
X143514601Y-109273718D01*
X143595181Y-109140570D01*
X143661038Y-109032501D01*
X143713620Y-108947269D01*
X143754371Y-108882628D01*
X143784739Y-108836333D01*
X143806170Y-108806141D01*
X143820110Y-108789806D01*
X143828005Y-108785085D01*
X143829210Y-108785460D01*
X143829210Y-108785460D01*
G37*
X143829210Y-108785460D02*
X143841238Y-108799556D01*
X143870178Y-108836491D01*
X143914020Y-108893608D01*
X143970748Y-108968255D01*
X144038351Y-109057776D01*
X144114815Y-109159517D01*
X144198128Y-109270823D01*
X144251224Y-109341978D01*
X144337425Y-109457004D01*
X144417956Y-109563263D01*
X144490833Y-109658222D01*
X144554067Y-109739348D01*
X144605675Y-109804108D01*
X144643669Y-109849969D01*
X144666063Y-109874399D01*
X144671267Y-109877647D01*
X144680146Y-109858641D01*
X144696535Y-109815321D01*
X144718295Y-109753626D01*
X144743288Y-109679489D01*
X144750125Y-109658687D01*
X144775583Y-109582307D01*
X144798329Y-109516844D01*
X144816236Y-109468219D01*
X144827178Y-109442357D01*
X144828635Y-109440074D01*
X144840874Y-109448875D01*
X144870049Y-109479752D01*
X144913617Y-109529710D01*
X144969033Y-109595753D01*
X145033754Y-109674888D01*
X145105234Y-109764118D01*
X145123228Y-109786849D01*
X145406768Y-110145862D01*
X145442093Y-110076900D01*
X145477418Y-110007937D01*
X145431503Y-110002980D01*
X145385589Y-109998022D01*
X145447069Y-109915667D01*
X145486894Y-109858490D01*
X145524352Y-109798451D01*
X145543643Y-109763426D01*
X145578737Y-109693539D01*
X145641979Y-109803113D01*
X145678156Y-109862204D01*
X145714646Y-109915970D01*
X145744132Y-109953690D01*
X145746581Y-109956343D01*
X145787940Y-110000000D01*
X145737345Y-110000000D01*
X145702625Y-110002913D01*
X145686839Y-110009990D01*
X145686749Y-110010622D01*
X145694975Y-110034015D01*
X145716256Y-110075001D01*
X145745496Y-110125119D01*
X145777600Y-110175911D01*
X145807472Y-110218918D01*
X145825805Y-110241468D01*
X145866117Y-110284500D01*
X145806695Y-110268092D01*
X145766729Y-110259556D01*
X145741525Y-110258801D01*
X145738863Y-110260094D01*
X145740260Y-110278508D01*
X145754879Y-110314336D01*
X145778072Y-110358750D01*
X145805190Y-110402919D01*
X145831585Y-110438016D01*
X145833862Y-110440531D01*
X145866909Y-110476249D01*
X145824454Y-110476249D01*
X145789887Y-110482465D01*
X145784624Y-110499900D01*
X145804391Y-110522695D01*
X145819782Y-110528017D01*
X145839085Y-110516449D01*
X145867048Y-110484082D01*
X145891349Y-110451112D01*
X145922248Y-110404557D01*
X145942381Y-110367489D01*
X145947611Y-110347585D01*
X145947396Y-110347160D01*
X145926690Y-110336679D01*
X145898481Y-110333375D01*
X145858085Y-110333375D01*
X145903386Y-110281636D01*
X145932261Y-110243077D01*
X145960887Y-110196020D01*
X145984983Y-110148920D01*
X146000266Y-110110237D01*
X146002455Y-110088427D01*
X146001713Y-110087422D01*
X145983017Y-110086347D01*
X145946982Y-110093527D01*
X145940750Y-110095249D01*
X145898023Y-110105155D01*
X145883062Y-110100679D01*
X145894333Y-110079679D01*
X145913760Y-110057490D01*
X145939621Y-110023914D01*
X145970808Y-109975538D01*
X146002441Y-109921065D01*
X146029636Y-109869199D01*
X146047513Y-109828644D01*
X146051875Y-109811246D01*
X146038300Y-109798004D01*
X146012187Y-109793625D01*
X145982319Y-109791161D01*
X145972500Y-109786448D01*
X145980913Y-109770923D01*
X146003188Y-109736326D01*
X146034874Y-109689524D01*
X146041957Y-109679291D01*
X146081982Y-109619045D01*
X146119702Y-109557857D01*
X146146512Y-109509794D01*
X146181611Y-109440275D01*
X146252742Y-109565356D01*
X146289552Y-109627025D01*
X146325756Y-109682539D01*
X146355199Y-109722613D01*
X146362721Y-109731225D01*
X146388317Y-109765247D01*
X146385690Y-109785402D01*
X146354315Y-109793349D01*
X146342916Y-109793625D01*
X146314339Y-109796691D01*
X146305875Y-109802015D01*
X146313893Y-109826936D01*
X146334789Y-109869968D01*
X146363821Y-109922807D01*
X146396246Y-109977151D01*
X146427323Y-110024697D01*
X146450276Y-110054875D01*
X146479388Y-110090225D01*
X146485131Y-110106901D01*
X146465278Y-110107701D01*
X146417946Y-110095521D01*
X146380463Y-110086738D01*
X146358725Y-110085340D01*
X146357452Y-110086005D01*
X146360066Y-110103148D01*
X146375134Y-110138857D01*
X146398254Y-110184789D01*
X146425024Y-110232605D01*
X146451044Y-110273961D01*
X146469143Y-110297656D01*
X146487692Y-110323817D01*
X146479858Y-110335731D01*
X146443874Y-110335418D01*
X146436843Y-110334560D01*
X146418557Y-110342872D01*
X146417000Y-110349425D01*
X146426809Y-110376440D01*
X146452575Y-110419436D01*
X146488806Y-110470982D01*
X146530009Y-110523651D01*
X146570691Y-110570012D01*
X146602533Y-110600377D01*
X146663062Y-110649810D01*
X146587656Y-110650342D01*
X146543697Y-110652901D01*
X146516551Y-110658814D01*
X146512309Y-110662781D01*
X146523131Y-110692664D01*
X146552159Y-110737853D01*
X146594538Y-110791831D01*
X146645411Y-110848081D01*
X146665256Y-110868011D01*
X146705659Y-110907985D01*
X146734664Y-110937699D01*
X146747107Y-110951836D01*
X146747116Y-110952328D01*
X146730604Y-110948027D01*
X146693438Y-110937204D01*
X146664508Y-110928515D01*
X146602968Y-110911501D01*
X146565802Y-110906164D01*
X146547897Y-110912411D01*
X146544000Y-110926323D01*
X146553013Y-110959615D01*
X146576988Y-111009920D01*
X146611327Y-111069239D01*
X146651432Y-111129576D01*
X146689070Y-111178636D01*
X146752126Y-111253960D01*
X143749552Y-111258011D01*
X143443209Y-111258397D01*
X143145417Y-111258718D01*
X142857726Y-111258975D01*
X142581685Y-111259169D01*
X142318843Y-111259300D01*
X142070748Y-111259369D01*
X141838949Y-111259376D01*
X141624997Y-111259323D01*
X141430439Y-111259209D01*
X141256825Y-111259036D01*
X141105703Y-111258803D01*
X140978624Y-111258512D01*
X140877135Y-111258164D01*
X140802786Y-111257758D01*
X140757126Y-111257296D01*
X140741707Y-111256791D01*
X140748845Y-111243838D01*
X140772955Y-111217027D01*
X140788910Y-111201229D01*
X140834228Y-111149747D01*
X140879616Y-111085068D01*
X140902314Y-111045743D01*
X141849971Y-111045743D01*
X141864611Y-111045321D01*
X141894068Y-111028457D01*
X141929887Y-111000125D01*
X141965885Y-110971387D01*
X141993437Y-110954434D01*
X142000153Y-110952500D01*
X142015174Y-110965904D01*
X142034416Y-110999731D01*
X142042548Y-111018406D01*
X142068919Y-111084313D01*
X142128285Y-111026344D01*
X142163563Y-110993615D01*
X142189601Y-110972596D01*
X142197666Y-110968375D01*
X142214082Y-110978606D01*
X142243260Y-111004262D01*
X142255307Y-111016000D01*
X142297848Y-111051925D01*
X142329562Y-111059839D01*
X142355734Y-111039089D01*
X142376389Y-111001061D01*
X142395053Y-110962817D01*
X142409620Y-110948906D01*
X142428360Y-110954418D01*
X142441297Y-110962542D01*
X142479927Y-110978963D01*
X142509034Y-110981449D01*
X142542986Y-110987730D01*
X142574426Y-111007357D01*
X142592955Y-111023173D01*
X142609050Y-111029231D01*
X142630116Y-111023682D01*
X142663558Y-111004675D01*
X142713216Y-110972676D01*
X142735605Y-110960969D01*
X142751607Y-110965807D01*
X142769171Y-110992098D01*
X142780806Y-111014394D01*
X142802499Y-111053249D01*
X142819678Y-111068613D01*
X142840745Y-111065999D01*
X142852110Y-111061170D01*
X142886199Y-111033826D01*
X142909619Y-110997725D01*
X142930767Y-110956529D01*
X142952699Y-110942975D01*
X142982916Y-110953673D01*
X142993072Y-110960020D01*
X143034517Y-110978222D01*
X143086184Y-110990167D01*
X143092739Y-110990933D01*
X143147842Y-111002901D01*
X143206123Y-111024711D01*
X143217837Y-111030512D01*
X143280986Y-111063891D01*
X143318120Y-110990824D01*
X143340500Y-110948733D01*
X143355567Y-110930761D01*
X143370000Y-110932525D01*
X143386452Y-110945990D01*
X143416257Y-110979077D01*
X143447022Y-111021813D01*
X143449540Y-111025823D01*
X143484817Y-111069653D01*
X143519649Y-111082586D01*
X143557802Y-111065192D01*
X143579119Y-111045491D01*
X143624744Y-111010672D01*
X143677136Y-111000134D01*
X143679127Y-111000125D01*
X143732920Y-110993042D01*
X143781929Y-110976219D01*
X143814745Y-110961547D01*
X143832274Y-110963996D01*
X143844110Y-110980188D01*
X143870400Y-111023831D01*
X143888159Y-111042393D01*
X143903844Y-111038781D01*
X143923778Y-111016075D01*
X143954447Y-110976463D01*
X143999936Y-111020044D01*
X144041940Y-111053407D01*
X144074185Y-111059247D01*
X144102283Y-111036319D01*
X144127888Y-110991656D01*
X144150145Y-110949604D01*
X144167006Y-110931565D01*
X144185017Y-110932136D01*
X144194551Y-110936652D01*
X144234081Y-110944905D01*
X144260008Y-110935550D01*
X144305793Y-110926859D01*
X144350451Y-110948074D01*
X144390788Y-110997418D01*
X144399424Y-111013157D01*
X144426110Y-111055396D01*
X144457575Y-111076887D01*
X144491352Y-111085294D01*
X144534608Y-111088846D01*
X144564919Y-111076982D01*
X144593958Y-111049114D01*
X144630055Y-111014038D01*
X144663792Y-110988161D01*
X144668132Y-110985650D01*
X144691259Y-110978367D01*
X144710585Y-110989894D01*
X144733376Y-111022524D01*
X144756813Y-111056525D01*
X144776756Y-111067919D01*
X144804907Y-111061975D01*
X144813762Y-111058713D01*
X144853132Y-111048921D01*
X144877497Y-111057760D01*
X144879541Y-111059691D01*
X144896949Y-111065987D01*
X144923311Y-111053144D01*
X144959184Y-111023401D01*
X144996134Y-110992100D01*
X145024091Y-110972167D01*
X145032980Y-110968375D01*
X145047228Y-110981344D01*
X145067174Y-111013751D01*
X145073812Y-111026972D01*
X145101756Y-111085570D01*
X145140242Y-111036393D01*
X145176384Y-111001285D01*
X145208505Y-110995012D01*
X145209321Y-110995216D01*
X145244963Y-110989391D01*
X145268422Y-110969920D01*
X145292660Y-110945460D01*
X145307121Y-110936625D01*
X145318192Y-110950076D01*
X145334939Y-110984307D01*
X145344593Y-111008062D01*
X145364362Y-111050498D01*
X145383151Y-111076240D01*
X145396725Y-111080987D01*
X145401000Y-111065323D01*
X145412819Y-111045138D01*
X145441154Y-111041342D01*
X145475318Y-111053947D01*
X145490007Y-111065217D01*
X145526454Y-111099457D01*
X145589450Y-111068289D01*
X145643942Y-111048217D01*
X145677837Y-111051330D01*
X145704407Y-111051478D01*
X145739473Y-111035932D01*
X145771960Y-111011986D01*
X145790794Y-110986932D01*
X145791660Y-110976380D01*
X145780922Y-110959889D01*
X145752978Y-110922163D01*
X145710246Y-110866242D01*
X145655143Y-110795163D01*
X145590086Y-110711967D01*
X145517494Y-110619691D01*
X145439784Y-110521375D01*
X145359373Y-110420057D01*
X145278679Y-110318777D01*
X145200119Y-110220573D01*
X145126110Y-110128484D01*
X145059071Y-110045549D01*
X145001418Y-109974807D01*
X144955569Y-109919296D01*
X144923942Y-109882055D01*
X144908954Y-109866124D01*
X144908140Y-109865774D01*
X144900378Y-109881902D01*
X144884955Y-109922743D01*
X144863853Y-109982760D01*
X144839053Y-110056417D01*
X144829261Y-110086250D01*
X144803550Y-110163079D01*
X144780620Y-110227807D01*
X144762473Y-110275058D01*
X144751113Y-110299460D01*
X144748983Y-110301625D01*
X144737696Y-110289312D01*
X144709408Y-110254073D01*
X144666068Y-110198453D01*
X144609627Y-110125000D01*
X144542033Y-110036262D01*
X144465236Y-109934784D01*
X144381187Y-109823113D01*
X144311924Y-109730676D01*
X144223504Y-109612936D01*
X144140660Y-109503565D01*
X144065358Y-109405091D01*
X143999563Y-109320042D01*
X143945243Y-109250945D01*
X143904363Y-109200327D01*
X143878889Y-109170716D01*
X143870978Y-109163829D01*
X143858587Y-109178048D01*
X143832620Y-109215076D01*
X143795951Y-109270568D01*
X143751455Y-109340179D01*
X143704122Y-109416123D01*
X143654904Y-109495662D01*
X143611064Y-109565841D01*
X143575436Y-109622174D01*
X143550858Y-109660178D01*
X143540322Y-109675218D01*
X143521463Y-109674403D01*
X143487087Y-109659377D01*
X143472187Y-109650750D01*
X143435612Y-109630506D01*
X143411748Y-109621688D01*
X143408063Y-109622270D01*
X143402398Y-109633489D01*
X143389019Y-109664048D01*
X143367382Y-109715268D01*
X143336941Y-109788467D01*
X143297151Y-109884966D01*
X143247467Y-110006086D01*
X143187346Y-110153145D01*
X143116240Y-110327464D01*
X143063607Y-110456669D01*
X143029564Y-110540275D01*
X142965126Y-110480732D01*
X142929368Y-110447095D01*
X142877450Y-110397490D01*
X142815883Y-110338174D01*
X142751182Y-110275402D01*
X142740422Y-110264917D01*
X142580158Y-110108646D01*
X142541985Y-110155962D01*
X142481771Y-110230891D01*
X142413243Y-110316657D01*
X142339056Y-110409890D01*
X142261867Y-110507216D01*
X142184333Y-110605265D01*
X142109111Y-110700663D01*
X142038856Y-110790039D01*
X141976227Y-110870021D01*
X141923878Y-110937237D01*
X141884467Y-110988314D01*
X141860651Y-111019881D01*
X141855039Y-111027906D01*
X141849971Y-111045743D01*
X140902314Y-111045743D01*
X140918198Y-111018225D01*
X140943100Y-110960252D01*
X140946360Y-110948531D01*
X140950100Y-110921147D01*
X140941663Y-110907697D01*
X140915959Y-110907261D01*
X140867902Y-110918920D01*
X140835491Y-110928515D01*
X140790436Y-110941961D01*
X140760069Y-110950606D01*
X140752883Y-110952328D01*
X140761046Y-110942277D01*
X140786892Y-110915495D01*
X140825258Y-110877298D01*
X140834743Y-110868011D01*
X140887515Y-110812561D01*
X140933576Y-110756992D01*
X140968070Y-110707820D01*
X140986140Y-110671561D01*
X140987690Y-110662781D01*
X140984552Y-110661225D01*
X141647504Y-110661225D01*
X141654499Y-110684148D01*
X141657575Y-110690973D01*
X141677839Y-110720635D01*
X141700164Y-110720288D01*
X141727802Y-110689700D01*
X141730483Y-110685723D01*
X141743649Y-110662704D01*
X141737434Y-110653013D01*
X141706221Y-110650896D01*
X141696464Y-110650875D01*
X141659341Y-110652353D01*
X141647504Y-110661225D01*
X140984552Y-110661225D01*
X140973483Y-110655738D01*
X140937274Y-110651191D01*
X140912343Y-110650342D01*
X140836937Y-110649810D01*
X140899254Y-110598942D01*
X140933025Y-110565965D01*
X140972810Y-110519294D01*
X141013153Y-110466435D01*
X141048601Y-110414891D01*
X141073699Y-110372169D01*
X141083000Y-110346092D01*
X141070729Y-110334650D01*
X141063156Y-110334560D01*
X141023279Y-110336352D01*
X141011788Y-110326188D01*
X141026917Y-110302046D01*
X141030856Y-110297656D01*
X141052827Y-110268212D01*
X141079257Y-110225284D01*
X141105744Y-110177212D01*
X141127887Y-110132337D01*
X141141284Y-110099001D01*
X141142547Y-110086005D01*
X141124864Y-110085900D01*
X141089262Y-110093521D01*
X141082053Y-110095521D01*
X141034538Y-110107735D01*
X141014832Y-110106855D01*
X141020709Y-110090084D01*
X141049723Y-110054875D01*
X141075514Y-110020592D01*
X141106932Y-109972017D01*
X141139235Y-109917455D01*
X141167682Y-109865206D01*
X141187530Y-109823575D01*
X141194125Y-109802015D01*
X141180304Y-109796119D01*
X141147015Y-109793625D01*
X141146500Y-109793625D01*
X141110034Y-109790170D01*
X141101596Y-109776976D01*
X141119903Y-109749797D01*
X141129938Y-109738793D01*
X141151664Y-109710818D01*
X141183931Y-109663477D01*
X141221331Y-109604858D01*
X141240189Y-109573971D01*
X141319377Y-109442214D01*
X141353981Y-109510763D01*
X141381084Y-109559252D01*
X141418681Y-109620111D01*
X141458042Y-109679291D01*
X141491077Y-109727713D01*
X141515593Y-109765303D01*
X141527138Y-109785196D01*
X141527500Y-109786448D01*
X141513684Y-109791505D01*
X141480441Y-109793624D01*
X141480215Y-109793625D01*
X141447992Y-109795757D01*
X141441157Y-109808466D01*
X141451850Y-109837281D01*
X141473056Y-109879985D01*
X141502393Y-109931356D01*
X141535200Y-109984186D01*
X141566821Y-110031265D01*
X141592597Y-110065384D01*
X141607869Y-110079336D01*
X141608298Y-110079375D01*
X141622184Y-110091633D01*
X141622750Y-110096319D01*
X141610256Y-110106252D01*
X141591000Y-110104257D01*
X141547161Y-110091820D01*
X141527500Y-110086242D01*
X141501030Y-110086605D01*
X141495750Y-110098384D01*
X141504701Y-110131609D01*
X141527705Y-110179375D01*
X141558982Y-110231424D01*
X141592756Y-110277500D01*
X141603533Y-110289718D01*
X141627870Y-110319969D01*
X141627836Y-110334084D01*
X141621751Y-110335792D01*
X141584251Y-110339612D01*
X141575125Y-110340503D01*
X141558102Y-110349334D01*
X141560086Y-110372976D01*
X141581995Y-110414725D01*
X141605962Y-110451110D01*
X141645986Y-110504055D01*
X141688715Y-110552289D01*
X141728346Y-110590101D01*
X141759072Y-110611775D01*
X141771858Y-110614401D01*
X141792020Y-110597734D01*
X141788215Y-110578848D01*
X141766947Y-110571500D01*
X141742968Y-110569348D01*
X141736769Y-110559238D01*
X141749281Y-110535683D01*
X141779890Y-110495162D01*
X141810594Y-110451070D01*
X141832840Y-110410210D01*
X141837187Y-110398751D01*
X141842332Y-110374643D01*
X141832998Y-110366315D01*
X141801872Y-110369727D01*
X141788964Y-110372103D01*
X141729460Y-110383266D01*
X141784854Y-110318551D01*
X141822960Y-110267174D01*
X141855343Y-110212002D01*
X141865159Y-110190418D01*
X141890070Y-110127000D01*
X141809481Y-110127000D01*
X141848633Y-110075406D01*
X141879056Y-110031660D01*
X141914567Y-109975500D01*
X141935086Y-109940697D01*
X141982387Y-109857581D01*
X142070359Y-109992290D01*
X142109576Y-110053017D01*
X142132899Y-110092105D01*
X142142099Y-110114295D01*
X142138951Y-110124328D01*
X142125226Y-110126947D01*
X142120728Y-110127000D01*
X142091871Y-110129709D01*
X142083125Y-110134512D01*
X142089908Y-110155667D01*
X142106625Y-110191489D01*
X142127830Y-110231764D01*
X142148073Y-110266276D01*
X142161907Y-110284809D01*
X142163779Y-110285750D01*
X142178904Y-110274169D01*
X142204922Y-110244801D01*
X142219470Y-110226218D01*
X142280561Y-110146258D01*
X142342716Y-110066846D01*
X142402735Y-109991865D01*
X142457418Y-109925197D01*
X142503565Y-109870725D01*
X142537975Y-109832331D01*
X142557449Y-109813898D01*
X142560172Y-109812891D01*
X142575519Y-109824998D01*
X142609122Y-109855035D01*
X142656434Y-109898837D01*
X142712912Y-109952238D01*
X142729652Y-109968250D01*
X142790227Y-110026128D01*
X142845083Y-110078166D01*
X142888876Y-110119319D01*
X142916263Y-110144545D01*
X142919419Y-110147338D01*
X142927571Y-110155656D01*
X142934130Y-110162528D01*
X142940395Y-110165335D01*
X142947666Y-110161455D01*
X142957244Y-110148268D01*
X142970429Y-110123152D01*
X142988520Y-110083487D01*
X143012818Y-110026652D01*
X143044623Y-109950026D01*
X143085235Y-109850988D01*
X143135953Y-109726917D01*
X143173617Y-109634875D01*
X143207708Y-109551894D01*
X143240135Y-109473417D01*
X143267747Y-109407044D01*
X143287389Y-109360373D01*
X143290984Y-109351980D01*
X143320574Y-109283398D01*
X143374066Y-109324199D01*
X143410866Y-109349602D01*
X143438315Y-109363870D01*
X143443521Y-109364999D01*
X143459216Y-109352378D01*
X143484921Y-109319314D01*
X143514601Y-109273718D01*
X143595181Y-109140570D01*
X143661038Y-109032501D01*
X143713620Y-108947269D01*
X143754371Y-108882628D01*
X143784739Y-108836333D01*
X143806170Y-108806141D01*
X143820110Y-108789806D01*
X143828005Y-108785085D01*
X143829210Y-108785460D01*
D11*
X131200000Y-95500000D02*
G75*
G03X131200000Y-95500000I-1450000J0D01*
G01*
X135200000Y-95500000D02*
G75*
G03X135200000Y-95500000I-1450000J0D01*
G01*
X110910436Y-107590000D02*
X112114564Y-107590000D01*
X110910436Y-109410000D02*
X112114564Y-109410000D01*
X111236252Y-97790000D02*
X110713748Y-97790000D01*
X111236252Y-99210000D02*
X110713748Y-99210000D01*
X110713748Y-102790000D02*
X111236252Y-102790000D01*
X110713748Y-104210000D02*
X111236252Y-104210000D01*
X139200000Y-95500000D02*
G75*
G03X139200000Y-95500000I-1450000J0D01*
G01*
X111236252Y-106960000D02*
X110713748Y-106960000D01*
X111236252Y-105540000D02*
X110713748Y-105540000D01*
X136300000Y-108050000D02*
X139200000Y-108050000D01*
X139200000Y-108050000D02*
X139200000Y-110950000D01*
X139200000Y-110950000D02*
X136300000Y-110950000D01*
X136300000Y-110950000D02*
X136300000Y-108050000D01*
D12*
X118150000Y-98176000D02*
X121350000Y-98176000D01*
X121350000Y-98176000D02*
X121350000Y-106824000D01*
X121350000Y-106824000D02*
X118150000Y-106824000D01*
X118150000Y-106824000D02*
X118150000Y-98176000D01*
X116275000Y-99075000D02*
X117800000Y-99075000D01*
D13*
X125750000Y-98350000D02*
G75*
G03X125750000Y-98350000I-125000J0D01*
G01*
D12*
X126350000Y-103000000D02*
X128650000Y-103000000D01*
X128650000Y-103000000D02*
X128650000Y-106000000D01*
X128650000Y-106000000D02*
X126350000Y-106000000D01*
X126350000Y-106000000D02*
X126350000Y-103000000D01*
X124600000Y-102950000D02*
X126000000Y-102950000D01*
D11*
X123200000Y-109500000D02*
G75*
G03X123200000Y-109500000I-1450000J0D01*
G01*
D12*
X146150000Y-105250000D02*
X146150000Y-105000000D01*
X146150000Y-105000000D02*
X146150000Y-105000000D01*
X146150000Y-105000000D02*
X146150000Y-105250000D01*
X146150000Y-105250000D02*
X146150000Y-105250000D01*
X146150000Y-100000000D02*
X146150000Y-99750000D01*
X146150000Y-99750000D02*
X146150000Y-99750000D01*
X146150000Y-99750000D02*
X146150000Y-100000000D01*
X146150000Y-100000000D02*
X146150000Y-100000000D01*
X155350000Y-106350000D02*
X155350000Y-98750000D01*
X155350000Y-98750000D02*
X155350000Y-98750000D01*
X155350000Y-98750000D02*
X155350000Y-106350000D01*
X155350000Y-106350000D02*
X155350000Y-106350000D01*
X149000000Y-106350000D02*
X149000000Y-106350000D01*
X149000000Y-106350000D02*
X150500000Y-106350000D01*
X150500000Y-106350000D02*
X150500000Y-106350000D01*
X150500000Y-106350000D02*
X149000000Y-106350000D01*
X149000000Y-98650000D02*
X149000000Y-98650000D01*
X149000000Y-98650000D02*
X150500000Y-98650000D01*
X150500000Y-98650000D02*
X150500000Y-98650000D01*
X150500000Y-98650000D02*
X149000000Y-98650000D01*
X154500000Y-106350000D02*
X154500000Y-106350000D01*
X154500000Y-106350000D02*
X155350000Y-106350000D01*
X155350000Y-106350000D02*
X155350000Y-106350000D01*
X155350000Y-106350000D02*
X154500000Y-106350000D01*
X154500000Y-98650000D02*
X154500000Y-98650000D01*
X154500000Y-98650000D02*
X155350000Y-98650000D01*
X155350000Y-98650000D02*
X155350000Y-98650000D01*
X155350000Y-98650000D02*
X154500000Y-98650000D01*
X145100000Y-104100000D02*
X145100000Y-104100000D01*
X145300000Y-104100000D02*
X145300000Y-104100000D01*
X145100000Y-104100000D02*
X145100000Y-104100000D01*
X145300000Y-104100000D02*
G75*
G02X145100000Y-104100000I-100000J0D01*
G01*
X145100000Y-104100000D02*
G75*
G02X145300000Y-104100000I100000J0D01*
G01*
X145300000Y-104100000D02*
G75*
G02X145100000Y-104100000I-100000J0D01*
G01*
D11*
X136725000Y-100710000D02*
X139585000Y-100710000D01*
X139585000Y-100710000D02*
X139585000Y-98790000D01*
X139585000Y-98790000D02*
X136725000Y-98790000D01*
X136162500Y-103885000D02*
X140222500Y-103885000D01*
X140222500Y-103885000D02*
X140222500Y-101615000D01*
X140222500Y-101615000D02*
X136162500Y-101615000D01*
X140222500Y-104115000D02*
X136162500Y-104115000D01*
X140222500Y-106385000D02*
X140222500Y-104115000D01*
X136162500Y-106385000D02*
X140222500Y-106385000D01*
X123200000Y-95500000D02*
G75*
G03X123200000Y-95500000I-1450000J0D01*
G01*
X127200000Y-95500000D02*
G75*
G03X127200000Y-95500000I-1450000J0D01*
G01*
X111236252Y-96960000D02*
X110713748Y-96960000D01*
X111236252Y-95540000D02*
X110713748Y-95540000D01*
X111261252Y-100540000D02*
X110738748Y-100540000D01*
X111261252Y-101960000D02*
X110738748Y-101960000D01*
X127200000Y-109500000D02*
G75*
G03X127200000Y-109500000I-1450000J0D01*
G01*
X135200000Y-109500000D02*
G75*
G03X135200000Y-109500000I-1450000J0D01*
G01*
X131200000Y-109500000D02*
G75*
G03X131200000Y-109500000I-1450000J0D01*
G01*
D14*
X129511904Y-93518666D02*
X129988095Y-93518666D01*
X129416666Y-93804380D02*
X129750000Y-92804380D01*
X130083333Y-93804380D01*
X133821428Y-93280571D02*
X133964285Y-93328190D01*
X134011904Y-93375809D01*
X134059523Y-93471047D01*
X134059523Y-93613904D01*
X134011904Y-93709142D01*
X133964285Y-93756761D01*
X133869047Y-93804380D01*
X133488095Y-93804380D01*
X133488095Y-92804380D01*
X133821428Y-92804380D01*
X133916666Y-92852000D01*
X133964285Y-92899619D01*
X134011904Y-92994857D01*
X134011904Y-93090095D01*
X133964285Y-93185333D01*
X133916666Y-93232952D01*
X133821428Y-93280571D01*
X133488095Y-93280571D01*
X114833333Y-108857142D02*
X114785714Y-108904761D01*
X114642857Y-108952380D01*
X114547619Y-108952380D01*
X114404761Y-108904761D01*
X114309523Y-108809523D01*
X114261904Y-108714285D01*
X114214285Y-108523809D01*
X114214285Y-108380952D01*
X114261904Y-108190476D01*
X114309523Y-108095238D01*
X114404761Y-108000000D01*
X114547619Y-107952380D01*
X114642857Y-107952380D01*
X114785714Y-108000000D01*
X114833333Y-108047619D01*
X115452380Y-107952380D02*
X115547619Y-107952380D01*
X115642857Y-108000000D01*
X115690476Y-108047619D01*
X115738095Y-108142857D01*
X115785714Y-108333333D01*
X115785714Y-108571428D01*
X115738095Y-108761904D01*
X115690476Y-108857142D01*
X115642857Y-108904761D01*
X115547619Y-108952380D01*
X115452380Y-108952380D01*
X115357142Y-108904761D01*
X115309523Y-108857142D01*
X115261904Y-108761904D01*
X115214285Y-108571428D01*
X115214285Y-108333333D01*
X115261904Y-108142857D01*
X115309523Y-108047619D01*
X115357142Y-108000000D01*
X115452380Y-107952380D01*
X113833333Y-98857142D02*
X113785714Y-98904761D01*
X113642857Y-98952380D01*
X113547619Y-98952380D01*
X113404761Y-98904761D01*
X113309523Y-98809523D01*
X113261904Y-98714285D01*
X113214285Y-98523809D01*
X113214285Y-98380952D01*
X113261904Y-98190476D01*
X113309523Y-98095238D01*
X113404761Y-98000000D01*
X113547619Y-97952380D01*
X113642857Y-97952380D01*
X113785714Y-98000000D01*
X113833333Y-98047619D01*
X114166666Y-97952380D02*
X114785714Y-97952380D01*
X114452380Y-98333333D01*
X114595238Y-98333333D01*
X114690476Y-98380952D01*
X114738095Y-98428571D01*
X114785714Y-98523809D01*
X114785714Y-98761904D01*
X114738095Y-98857142D01*
X114690476Y-98904761D01*
X114595238Y-98952380D01*
X114309523Y-98952380D01*
X114214285Y-98904761D01*
X114166666Y-98857142D01*
X113833333Y-103857142D02*
X113785714Y-103904761D01*
X113642857Y-103952380D01*
X113547619Y-103952380D01*
X113404761Y-103904761D01*
X113309523Y-103809523D01*
X113261904Y-103714285D01*
X113214285Y-103523809D01*
X113214285Y-103380952D01*
X113261904Y-103190476D01*
X113309523Y-103095238D01*
X113404761Y-103000000D01*
X113547619Y-102952380D01*
X113642857Y-102952380D01*
X113785714Y-103000000D01*
X113833333Y-103047619D01*
X114690476Y-103285714D02*
X114690476Y-103952380D01*
X114452380Y-102904761D02*
X114214285Y-103619047D01*
X114833333Y-103619047D01*
X137011904Y-93280571D02*
X137345238Y-93280571D01*
X137488095Y-93804380D02*
X137011904Y-93804380D01*
X137011904Y-92804380D01*
X137488095Y-92804380D01*
X137916666Y-93804380D02*
X137916666Y-92804380D01*
X138488095Y-93804380D01*
X138488095Y-92804380D01*
X113416666Y-106178571D02*
X113083333Y-106178571D01*
X113083333Y-106702380D02*
X113083333Y-105702380D01*
X113559523Y-105702380D01*
X114273809Y-106178571D02*
X114416666Y-106226190D01*
X114464285Y-106273809D01*
X114511904Y-106369047D01*
X114511904Y-106511904D01*
X114464285Y-106607142D01*
X114416666Y-106654761D01*
X114321428Y-106702380D01*
X113940476Y-106702380D01*
X113940476Y-105702380D01*
X114273809Y-105702380D01*
X114369047Y-105750000D01*
X114416666Y-105797619D01*
X114464285Y-105892857D01*
X114464285Y-105988095D01*
X114416666Y-106083333D01*
X114369047Y-106130952D01*
X114273809Y-106178571D01*
X113940476Y-106178571D01*
X115130952Y-105702380D02*
X115226190Y-105702380D01*
X115321428Y-105750000D01*
X115369047Y-105797619D01*
X115416666Y-105892857D01*
X115464285Y-106083333D01*
X115464285Y-106321428D01*
X115416666Y-106511904D01*
X115369047Y-106607142D01*
X115321428Y-106654761D01*
X115226190Y-106702380D01*
X115130952Y-106702380D01*
X115035714Y-106654761D01*
X114988095Y-106607142D01*
X114940476Y-106511904D01*
X114892857Y-106321428D01*
X114892857Y-106083333D01*
X114940476Y-105892857D01*
X114988095Y-105797619D01*
X115035714Y-105750000D01*
X115130952Y-105702380D01*
X136988095Y-111352000D02*
X136892857Y-111304380D01*
X136750000Y-111304380D01*
X136607142Y-111352000D01*
X136511904Y-111447238D01*
X136464285Y-111542476D01*
X136416666Y-111732952D01*
X136416666Y-111875809D01*
X136464285Y-112066285D01*
X136511904Y-112161523D01*
X136607142Y-112256761D01*
X136750000Y-112304380D01*
X136845238Y-112304380D01*
X136988095Y-112256761D01*
X137035714Y-112209142D01*
X137035714Y-111875809D01*
X136845238Y-111875809D01*
X137464285Y-112304380D02*
X137464285Y-111304380D01*
X138035714Y-112304380D01*
X138035714Y-111304380D01*
X138511904Y-112304380D02*
X138511904Y-111304380D01*
X138750000Y-111304380D01*
X138892857Y-111352000D01*
X138988095Y-111447238D01*
X139035714Y-111542476D01*
X139083333Y-111732952D01*
X139083333Y-111875809D01*
X139035714Y-112066285D01*
X138988095Y-112161523D01*
X138892857Y-112256761D01*
X138750000Y-112304380D01*
X138511904Y-112304380D01*
D15*
X122010238Y-107574523D02*
X122010238Y-106304523D01*
X123340714Y-107453571D02*
X123280238Y-107514047D01*
X123098809Y-107574523D01*
X122977857Y-107574523D01*
X122796428Y-107514047D01*
X122675476Y-107393095D01*
X122615000Y-107272142D01*
X122554523Y-107030238D01*
X122554523Y-106848809D01*
X122615000Y-106606904D01*
X122675476Y-106485952D01*
X122796428Y-106365000D01*
X122977857Y-106304523D01*
X123098809Y-106304523D01*
X123280238Y-106365000D01*
X123340714Y-106425476D01*
X124126904Y-106304523D02*
X124247857Y-106304523D01*
X124368809Y-106365000D01*
X124429285Y-106425476D01*
X124489761Y-106546428D01*
X124550238Y-106788333D01*
X124550238Y-107090714D01*
X124489761Y-107332619D01*
X124429285Y-107453571D01*
X124368809Y-107514047D01*
X124247857Y-107574523D01*
X124126904Y-107574523D01*
X124005952Y-107514047D01*
X123945476Y-107453571D01*
X123885000Y-107332619D01*
X123824523Y-107090714D01*
X123824523Y-106788333D01*
X123885000Y-106546428D01*
X123945476Y-106425476D01*
X124005952Y-106365000D01*
X124126904Y-106304523D01*
X130010238Y-100574523D02*
X130010238Y-99304523D01*
X131340714Y-100453571D02*
X131280238Y-100514047D01*
X131098809Y-100574523D01*
X130977857Y-100574523D01*
X130796428Y-100514047D01*
X130675476Y-100393095D01*
X130615000Y-100272142D01*
X130554523Y-100030238D01*
X130554523Y-99848809D01*
X130615000Y-99606904D01*
X130675476Y-99485952D01*
X130796428Y-99365000D01*
X130977857Y-99304523D01*
X131098809Y-99304523D01*
X131280238Y-99365000D01*
X131340714Y-99425476D01*
X132550238Y-100574523D02*
X131824523Y-100574523D01*
X132187380Y-100574523D02*
X132187380Y-99304523D01*
X132066428Y-99485952D01*
X131945476Y-99606904D01*
X131824523Y-99667380D01*
X131010238Y-105074523D02*
X131010238Y-103804523D01*
X132340714Y-104953571D02*
X132280238Y-105014047D01*
X132098809Y-105074523D01*
X131977857Y-105074523D01*
X131796428Y-105014047D01*
X131675476Y-104893095D01*
X131615000Y-104772142D01*
X131554523Y-104530238D01*
X131554523Y-104348809D01*
X131615000Y-104106904D01*
X131675476Y-103985952D01*
X131796428Y-103865000D01*
X131977857Y-103804523D01*
X132098809Y-103804523D01*
X132280238Y-103865000D01*
X132340714Y-103925476D01*
X132824523Y-103925476D02*
X132885000Y-103865000D01*
X133005952Y-103804523D01*
X133308333Y-103804523D01*
X133429285Y-103865000D01*
X133489761Y-103925476D01*
X133550238Y-104046428D01*
X133550238Y-104167380D01*
X133489761Y-104348809D01*
X132764047Y-105074523D01*
X133550238Y-105074523D01*
D14*
X120464285Y-111637714D02*
X121178571Y-111637714D01*
X120750000Y-111209142D02*
X120464285Y-112494857D01*
X121083333Y-112066285D02*
X120369047Y-112066285D01*
X120797619Y-112494857D02*
X121083333Y-111209142D01*
X121511904Y-111780571D02*
X121845238Y-111780571D01*
X121988095Y-112304380D02*
X121511904Y-112304380D01*
X121511904Y-111304380D01*
X121988095Y-111304380D01*
X122416666Y-112304380D02*
X122416666Y-111304380D01*
X122988095Y-112304380D01*
X122988095Y-111304380D01*
D15*
X152076666Y-108554523D02*
X152076666Y-109461666D01*
X152016190Y-109643095D01*
X151895238Y-109764047D01*
X151713809Y-109824523D01*
X151592857Y-109824523D01*
X152923333Y-108554523D02*
X153044285Y-108554523D01*
X153165238Y-108615000D01*
X153225714Y-108675476D01*
X153286190Y-108796428D01*
X153346666Y-109038333D01*
X153346666Y-109340714D01*
X153286190Y-109582619D01*
X153225714Y-109703571D01*
X153165238Y-109764047D01*
X153044285Y-109824523D01*
X152923333Y-109824523D01*
X152802380Y-109764047D01*
X152741904Y-109703571D01*
X152681428Y-109582619D01*
X152620952Y-109340714D01*
X152620952Y-109038333D01*
X152681428Y-108796428D01*
X152741904Y-108675476D01*
X152802380Y-108615000D01*
X152923333Y-108554523D01*
D14*
X140330952Y-100202380D02*
X139854761Y-100202380D01*
X139854761Y-99202380D01*
X140664285Y-99678571D02*
X140997619Y-99678571D01*
X141140476Y-100202380D02*
X140664285Y-100202380D01*
X140664285Y-99202380D01*
X141140476Y-99202380D01*
X141569047Y-100202380D02*
X141569047Y-99202380D01*
X141807142Y-99202380D01*
X141950000Y-99250000D01*
X142045238Y-99345238D01*
X142092857Y-99440476D01*
X142140476Y-99630952D01*
X142140476Y-99773809D01*
X142092857Y-99964285D01*
X142045238Y-100059523D01*
X141950000Y-100154761D01*
X141807142Y-100202380D01*
X141569047Y-100202380D01*
X142759523Y-99202380D02*
X142854761Y-99202380D01*
X142950000Y-99250000D01*
X142997619Y-99297619D01*
X143045238Y-99392857D01*
X143092857Y-99583333D01*
X143092857Y-99821428D01*
X143045238Y-100011904D01*
X142997619Y-100107142D01*
X142950000Y-100154761D01*
X142854761Y-100202380D01*
X142759523Y-100202380D01*
X142664285Y-100154761D01*
X142616666Y-100107142D01*
X142569047Y-100011904D01*
X142521428Y-99821428D01*
X142521428Y-99583333D01*
X142569047Y-99392857D01*
X142616666Y-99297619D01*
X142664285Y-99250000D01*
X142759523Y-99202380D01*
X141155952Y-103202380D02*
X140679761Y-103202380D01*
X140679761Y-102202380D01*
X141489285Y-102678571D02*
X141822619Y-102678571D01*
X141965476Y-103202380D02*
X141489285Y-103202380D01*
X141489285Y-102202380D01*
X141965476Y-102202380D01*
X142394047Y-103202380D02*
X142394047Y-102202380D01*
X142632142Y-102202380D01*
X142775000Y-102250000D01*
X142870238Y-102345238D01*
X142917857Y-102440476D01*
X142965476Y-102630952D01*
X142965476Y-102773809D01*
X142917857Y-102964285D01*
X142870238Y-103059523D01*
X142775000Y-103154761D01*
X142632142Y-103202380D01*
X142394047Y-103202380D01*
X143917857Y-103202380D02*
X143346428Y-103202380D01*
X143632142Y-103202380D02*
X143632142Y-102202380D01*
X143536904Y-102345238D01*
X143441666Y-102440476D01*
X143346428Y-102488095D01*
X141155952Y-105702380D02*
X140679761Y-105702380D01*
X140679761Y-104702380D01*
X141489285Y-105178571D02*
X141822619Y-105178571D01*
X141965476Y-105702380D02*
X141489285Y-105702380D01*
X141489285Y-104702380D01*
X141965476Y-104702380D01*
X142394047Y-105702380D02*
X142394047Y-104702380D01*
X142632142Y-104702380D01*
X142775000Y-104750000D01*
X142870238Y-104845238D01*
X142917857Y-104940476D01*
X142965476Y-105130952D01*
X142965476Y-105273809D01*
X142917857Y-105464285D01*
X142870238Y-105559523D01*
X142775000Y-105654761D01*
X142632142Y-105702380D01*
X142394047Y-105702380D01*
X143346428Y-104797619D02*
X143394047Y-104750000D01*
X143489285Y-104702380D01*
X143727380Y-104702380D01*
X143822619Y-104750000D01*
X143870238Y-104797619D01*
X143917857Y-104892857D01*
X143917857Y-104988095D01*
X143870238Y-105130952D01*
X143298809Y-105702380D01*
X143917857Y-105702380D01*
X121559523Y-92804380D02*
X121083333Y-92804380D01*
X121035714Y-93280571D01*
X121083333Y-93232952D01*
X121178571Y-93185333D01*
X121416666Y-93185333D01*
X121511904Y-93232952D01*
X121559523Y-93280571D01*
X121607142Y-93375809D01*
X121607142Y-93613904D01*
X121559523Y-93709142D01*
X121511904Y-93756761D01*
X121416666Y-93804380D01*
X121178571Y-93804380D01*
X121083333Y-93756761D01*
X121035714Y-93709142D01*
X121892857Y-92804380D02*
X122226190Y-93804380D01*
X122559523Y-92804380D01*
X124273809Y-92804380D02*
X124892857Y-92804380D01*
X124559523Y-93185333D01*
X124702380Y-93185333D01*
X124797619Y-93232952D01*
X124845238Y-93280571D01*
X124892857Y-93375809D01*
X124892857Y-93613904D01*
X124845238Y-93709142D01*
X124797619Y-93756761D01*
X124702380Y-93804380D01*
X124416666Y-93804380D01*
X124321428Y-93756761D01*
X124273809Y-93709142D01*
X125321428Y-93709142D02*
X125369047Y-93756761D01*
X125321428Y-93804380D01*
X125273809Y-93756761D01*
X125321428Y-93709142D01*
X125321428Y-93804380D01*
X125702380Y-92804380D02*
X126321428Y-92804380D01*
X125988095Y-93185333D01*
X126130952Y-93185333D01*
X126226190Y-93232952D01*
X126273809Y-93280571D01*
X126321428Y-93375809D01*
X126321428Y-93613904D01*
X126273809Y-93709142D01*
X126226190Y-93756761D01*
X126130952Y-93804380D01*
X125845238Y-93804380D01*
X125750000Y-93756761D01*
X125702380Y-93709142D01*
X126607142Y-92804380D02*
X126940476Y-93804380D01*
X127273809Y-92804380D01*
X113833333Y-96702380D02*
X113500000Y-96226190D01*
X113261904Y-96702380D02*
X113261904Y-95702380D01*
X113642857Y-95702380D01*
X113738095Y-95750000D01*
X113785714Y-95797619D01*
X113833333Y-95892857D01*
X113833333Y-96035714D01*
X113785714Y-96130952D01*
X113738095Y-96178571D01*
X113642857Y-96226190D01*
X113261904Y-96226190D01*
X114785714Y-96702380D02*
X114214285Y-96702380D01*
X114500000Y-96702380D02*
X114500000Y-95702380D01*
X114404761Y-95845238D01*
X114309523Y-95940476D01*
X114214285Y-95988095D01*
X113808333Y-101702380D02*
X113475000Y-101226190D01*
X113236904Y-101702380D02*
X113236904Y-100702380D01*
X113617857Y-100702380D01*
X113713095Y-100750000D01*
X113760714Y-100797619D01*
X113808333Y-100892857D01*
X113808333Y-101035714D01*
X113760714Y-101130952D01*
X113713095Y-101178571D01*
X113617857Y-101226190D01*
X113236904Y-101226190D01*
X114189285Y-100797619D02*
X114236904Y-100750000D01*
X114332142Y-100702380D01*
X114570238Y-100702380D01*
X114665476Y-100750000D01*
X114713095Y-100797619D01*
X114760714Y-100892857D01*
X114760714Y-100988095D01*
X114713095Y-101130952D01*
X114141666Y-101702380D01*
X114760714Y-101702380D01*
X125583333Y-112304380D02*
X125250000Y-111828190D01*
X125011904Y-112304380D02*
X125011904Y-111304380D01*
X125392857Y-111304380D01*
X125488095Y-111352000D01*
X125535714Y-111399619D01*
X125583333Y-111494857D01*
X125583333Y-111637714D01*
X125535714Y-111732952D01*
X125488095Y-111780571D01*
X125392857Y-111828190D01*
X125011904Y-111828190D01*
X125916666Y-111304380D02*
X126583333Y-112304380D01*
X126583333Y-111304380D02*
X125916666Y-112304380D01*
X132011904Y-111304380D02*
X132583333Y-111304380D01*
X132297619Y-112304380D02*
X132297619Y-111304380D01*
X132821428Y-111304380D02*
X133488095Y-112304380D01*
X133488095Y-111304380D02*
X132821428Y-112304380D01*
X133869047Y-111780571D02*
X134202380Y-111780571D01*
X134345238Y-112304380D02*
X133869047Y-112304380D01*
X133869047Y-111304380D01*
X134345238Y-111304380D01*
X134773809Y-112304380D02*
X134773809Y-111304380D01*
X135345238Y-112304380D01*
X135345238Y-111304380D01*
X128988095Y-111304380D02*
X129559523Y-111304380D01*
X129273809Y-112304380D02*
X129273809Y-111304380D01*
X129797619Y-111304380D02*
X130464285Y-112304380D01*
X130464285Y-111304380D02*
X129797619Y-112304380D01*
X104688095Y-109602380D02*
X104688095Y-110411904D01*
X104735714Y-110507142D01*
X104783333Y-110554761D01*
X104878571Y-110602380D01*
X105069047Y-110602380D01*
X105164285Y-110554761D01*
X105211904Y-110507142D01*
X105259523Y-110411904D01*
X105259523Y-109602380D01*
X105926190Y-109602380D02*
X106021428Y-109602380D01*
X106116666Y-109650000D01*
X106164285Y-109697619D01*
X106211904Y-109792857D01*
X106259523Y-109983333D01*
X106259523Y-110221428D01*
X106211904Y-110411904D01*
X106164285Y-110507142D01*
X106116666Y-110554761D01*
X106021428Y-110602380D01*
X105926190Y-110602380D01*
X105830952Y-110554761D01*
X105783333Y-110507142D01*
X105735714Y-110411904D01*
X105688095Y-110221428D01*
X105688095Y-109983333D01*
X105735714Y-109792857D01*
X105783333Y-109697619D01*
X105830952Y-109650000D01*
X105926190Y-109602380D01*
M02*
