G04 #@! TF.GenerationSoftware,KiCad,Pcbnew,(5.1.0)-1*
G04 #@! TF.CreationDate,2022-11-08T17:01:55+01:00*
G04 #@! TF.ProjectId,USB - UART,55534220-2d20-4554-9152-542e6b696361,rev?*
G04 #@! TF.SameCoordinates,Original*
G04 #@! TF.FileFunction,Soldermask,Bot*
G04 #@! TF.FilePolarity,Negative*
%FSLAX46Y46*%
G04 Gerber Fmt 4.6, Leading zero omitted, Abs format (unit mm)*
G04 Created by KiCad (PCBNEW (5.1.0)-1) date 2022-11-08 17:01:55*
%MOMM*%
%LPD*%
G04 APERTURE LIST*
%ADD10C,0.100000*%
G04 APERTURE END LIST*
D10*
G36*
X108224549Y-109871116D02*
G01*
X108335734Y-109893232D01*
X108545203Y-109979997D01*
X108733720Y-110105960D01*
X108894040Y-110266280D01*
X109020003Y-110454797D01*
X109106768Y-110664266D01*
X109151000Y-110886636D01*
X109151000Y-111113364D01*
X109106768Y-111335734D01*
X109020003Y-111545203D01*
X108894040Y-111733720D01*
X108733720Y-111894040D01*
X108545203Y-112020003D01*
X108335734Y-112106768D01*
X108224549Y-112128884D01*
X108113365Y-112151000D01*
X107886635Y-112151000D01*
X107775451Y-112128884D01*
X107664266Y-112106768D01*
X107454797Y-112020003D01*
X107266280Y-111894040D01*
X107105960Y-111733720D01*
X106979997Y-111545203D01*
X106893232Y-111335734D01*
X106849000Y-111113364D01*
X106849000Y-110886636D01*
X106893232Y-110664266D01*
X106979997Y-110454797D01*
X107105960Y-110266280D01*
X107266280Y-110105960D01*
X107454797Y-109979997D01*
X107664266Y-109893232D01*
X107775451Y-109871116D01*
X107886635Y-109849000D01*
X108113365Y-109849000D01*
X108224549Y-109871116D01*
X108224549Y-109871116D01*
G37*
G36*
X149974549Y-109371116D02*
G01*
X150085734Y-109393232D01*
X150295203Y-109479997D01*
X150483720Y-109605960D01*
X150644040Y-109766280D01*
X150770003Y-109954797D01*
X150770004Y-109954799D01*
X150856768Y-110164267D01*
X150901000Y-110386635D01*
X150901000Y-110613365D01*
X150890875Y-110664266D01*
X150856768Y-110835734D01*
X150770003Y-111045203D01*
X150644040Y-111233720D01*
X150483720Y-111394040D01*
X150295203Y-111520003D01*
X150085734Y-111606768D01*
X149974549Y-111628884D01*
X149863365Y-111651000D01*
X149636635Y-111651000D01*
X149525451Y-111628884D01*
X149414266Y-111606768D01*
X149204797Y-111520003D01*
X149016280Y-111394040D01*
X148855960Y-111233720D01*
X148729997Y-111045203D01*
X148643232Y-110835734D01*
X148609125Y-110664266D01*
X148599000Y-110613365D01*
X148599000Y-110386635D01*
X148643232Y-110164267D01*
X148729996Y-109954799D01*
X148729997Y-109954797D01*
X148855960Y-109766280D01*
X149016280Y-109605960D01*
X149204797Y-109479997D01*
X149414266Y-109393232D01*
X149525451Y-109371116D01*
X149636635Y-109349000D01*
X149863365Y-109349000D01*
X149974549Y-109371116D01*
X149974549Y-109371116D01*
G37*
G36*
X130129487Y-108248996D02*
G01*
X130366253Y-108347068D01*
X130366255Y-108347069D01*
X130579339Y-108489447D01*
X130760553Y-108670661D01*
X130849556Y-108803863D01*
X130902932Y-108883747D01*
X131001004Y-109120513D01*
X131051000Y-109371861D01*
X131051000Y-109628139D01*
X131001004Y-109879487D01*
X130902932Y-110116253D01*
X130902931Y-110116255D01*
X130760553Y-110329339D01*
X130579339Y-110510553D01*
X130366255Y-110652931D01*
X130366254Y-110652932D01*
X130366253Y-110652932D01*
X130129487Y-110751004D01*
X129878139Y-110801000D01*
X129621861Y-110801000D01*
X129370513Y-110751004D01*
X129133747Y-110652932D01*
X129133746Y-110652932D01*
X129133745Y-110652931D01*
X128920661Y-110510553D01*
X128739447Y-110329339D01*
X128597069Y-110116255D01*
X128597068Y-110116253D01*
X128498996Y-109879487D01*
X128449000Y-109628139D01*
X128449000Y-109371861D01*
X128498996Y-109120513D01*
X128597068Y-108883747D01*
X128650445Y-108803863D01*
X128739447Y-108670661D01*
X128920661Y-108489447D01*
X129133745Y-108347069D01*
X129133747Y-108347068D01*
X129370513Y-108248996D01*
X129621861Y-108199000D01*
X129878139Y-108199000D01*
X130129487Y-108248996D01*
X130129487Y-108248996D01*
G37*
G36*
X134129487Y-108248996D02*
G01*
X134366253Y-108347068D01*
X134366255Y-108347069D01*
X134579339Y-108489447D01*
X134760553Y-108670661D01*
X134849556Y-108803863D01*
X134902932Y-108883747D01*
X135001004Y-109120513D01*
X135051000Y-109371861D01*
X135051000Y-109628139D01*
X135001004Y-109879487D01*
X134902932Y-110116253D01*
X134902931Y-110116255D01*
X134760553Y-110329339D01*
X134579339Y-110510553D01*
X134366255Y-110652931D01*
X134366254Y-110652932D01*
X134366253Y-110652932D01*
X134129487Y-110751004D01*
X133878139Y-110801000D01*
X133621861Y-110801000D01*
X133370513Y-110751004D01*
X133133747Y-110652932D01*
X133133746Y-110652932D01*
X133133745Y-110652931D01*
X132920661Y-110510553D01*
X132739447Y-110329339D01*
X132597069Y-110116255D01*
X132597068Y-110116253D01*
X132498996Y-109879487D01*
X132449000Y-109628139D01*
X132449000Y-109371861D01*
X132498996Y-109120513D01*
X132597068Y-108883747D01*
X132650445Y-108803863D01*
X132739447Y-108670661D01*
X132920661Y-108489447D01*
X133133745Y-108347069D01*
X133133747Y-108347068D01*
X133370513Y-108248996D01*
X133621861Y-108199000D01*
X133878139Y-108199000D01*
X134129487Y-108248996D01*
X134129487Y-108248996D01*
G37*
G36*
X139051000Y-110801000D02*
G01*
X136449000Y-110801000D01*
X136449000Y-108199000D01*
X139051000Y-108199000D01*
X139051000Y-110801000D01*
X139051000Y-110801000D01*
G37*
G36*
X122129487Y-108248996D02*
G01*
X122366253Y-108347068D01*
X122366255Y-108347069D01*
X122579339Y-108489447D01*
X122760553Y-108670661D01*
X122849556Y-108803863D01*
X122902932Y-108883747D01*
X123001004Y-109120513D01*
X123051000Y-109371861D01*
X123051000Y-109628139D01*
X123001004Y-109879487D01*
X122902932Y-110116253D01*
X122902931Y-110116255D01*
X122760553Y-110329339D01*
X122579339Y-110510553D01*
X122366255Y-110652931D01*
X122366254Y-110652932D01*
X122366253Y-110652932D01*
X122129487Y-110751004D01*
X121878139Y-110801000D01*
X121621861Y-110801000D01*
X121370513Y-110751004D01*
X121133747Y-110652932D01*
X121133746Y-110652932D01*
X121133745Y-110652931D01*
X120920661Y-110510553D01*
X120739447Y-110329339D01*
X120597069Y-110116255D01*
X120597068Y-110116253D01*
X120498996Y-109879487D01*
X120449000Y-109628139D01*
X120449000Y-109371861D01*
X120498996Y-109120513D01*
X120597068Y-108883747D01*
X120650445Y-108803863D01*
X120739447Y-108670661D01*
X120920661Y-108489447D01*
X121133745Y-108347069D01*
X121133747Y-108347068D01*
X121370513Y-108248996D01*
X121621861Y-108199000D01*
X121878139Y-108199000D01*
X122129487Y-108248996D01*
X122129487Y-108248996D01*
G37*
G36*
X126129487Y-108248996D02*
G01*
X126366253Y-108347068D01*
X126366255Y-108347069D01*
X126579339Y-108489447D01*
X126760553Y-108670661D01*
X126849556Y-108803863D01*
X126902932Y-108883747D01*
X127001004Y-109120513D01*
X127051000Y-109371861D01*
X127051000Y-109628139D01*
X127001004Y-109879487D01*
X126902932Y-110116253D01*
X126902931Y-110116255D01*
X126760553Y-110329339D01*
X126579339Y-110510553D01*
X126366255Y-110652931D01*
X126366254Y-110652932D01*
X126366253Y-110652932D01*
X126129487Y-110751004D01*
X125878139Y-110801000D01*
X125621861Y-110801000D01*
X125370513Y-110751004D01*
X125133747Y-110652932D01*
X125133746Y-110652932D01*
X125133745Y-110652931D01*
X124920661Y-110510553D01*
X124739447Y-110329339D01*
X124597069Y-110116255D01*
X124597068Y-110116253D01*
X124498996Y-109879487D01*
X124449000Y-109628139D01*
X124449000Y-109371861D01*
X124498996Y-109120513D01*
X124597068Y-108883747D01*
X124650445Y-108803863D01*
X124739447Y-108670661D01*
X124920661Y-108489447D01*
X125133745Y-108347069D01*
X125133747Y-108347068D01*
X125370513Y-108248996D01*
X125621861Y-108199000D01*
X125878139Y-108199000D01*
X126129487Y-108248996D01*
X126129487Y-108248996D01*
G37*
G36*
X106817747Y-107540921D02*
G01*
X106897376Y-107548764D01*
X107050627Y-107595252D01*
X107050630Y-107595253D01*
X107191863Y-107670744D01*
X107315659Y-107772341D01*
X107417256Y-107896137D01*
X107492747Y-108037370D01*
X107492748Y-108037373D01*
X107539236Y-108190624D01*
X107554933Y-108350000D01*
X107539236Y-108509376D01*
X107492748Y-108662627D01*
X107492747Y-108662630D01*
X107417256Y-108803863D01*
X107315659Y-108927659D01*
X107191863Y-109029256D01*
X107050630Y-109104747D01*
X107050627Y-109104748D01*
X106897376Y-109151236D01*
X106817747Y-109159079D01*
X106777934Y-109163000D01*
X104022066Y-109163000D01*
X103982253Y-109159079D01*
X103902624Y-109151236D01*
X103749373Y-109104748D01*
X103749370Y-109104747D01*
X103608137Y-109029256D01*
X103484341Y-108927659D01*
X103382744Y-108803863D01*
X103307253Y-108662630D01*
X103307252Y-108662627D01*
X103260764Y-108509376D01*
X103245067Y-108350000D01*
X103260764Y-108190624D01*
X103307252Y-108037373D01*
X103307253Y-108037370D01*
X103382744Y-107896137D01*
X103484341Y-107772341D01*
X103608137Y-107670744D01*
X103749370Y-107595253D01*
X103749373Y-107595252D01*
X103902624Y-107548764D01*
X103982253Y-107540921D01*
X104022066Y-107537000D01*
X106777934Y-107537000D01*
X106817747Y-107540921D01*
X106817747Y-107540921D01*
G37*
G36*
X132213674Y-106003465D02*
G01*
X132251367Y-106014899D01*
X132286103Y-106033466D01*
X132316548Y-106058452D01*
X132341534Y-106088897D01*
X132360101Y-106123633D01*
X132371535Y-106161326D01*
X132376000Y-106206661D01*
X132376000Y-107293339D01*
X132371535Y-107338674D01*
X132360101Y-107376367D01*
X132341534Y-107411103D01*
X132316548Y-107441548D01*
X132286103Y-107466534D01*
X132251367Y-107485101D01*
X132213674Y-107496535D01*
X132168339Y-107501000D01*
X131331661Y-107501000D01*
X131286326Y-107496535D01*
X131248633Y-107485101D01*
X131213897Y-107466534D01*
X131183452Y-107441548D01*
X131158466Y-107411103D01*
X131139899Y-107376367D01*
X131128465Y-107338674D01*
X131124000Y-107293339D01*
X131124000Y-106206661D01*
X131128465Y-106161326D01*
X131139899Y-106123633D01*
X131158466Y-106088897D01*
X131183452Y-106058452D01*
X131213897Y-106033466D01*
X131248633Y-106014899D01*
X131286326Y-106003465D01*
X131331661Y-105999000D01*
X132168339Y-105999000D01*
X132213674Y-106003465D01*
X132213674Y-106003465D01*
G37*
G36*
X130163674Y-106003465D02*
G01*
X130201367Y-106014899D01*
X130236103Y-106033466D01*
X130266548Y-106058452D01*
X130291534Y-106088897D01*
X130310101Y-106123633D01*
X130321535Y-106161326D01*
X130326000Y-106206661D01*
X130326000Y-107293339D01*
X130321535Y-107338674D01*
X130310101Y-107376367D01*
X130291534Y-107411103D01*
X130266548Y-107441548D01*
X130236103Y-107466534D01*
X130201367Y-107485101D01*
X130163674Y-107496535D01*
X130118339Y-107501000D01*
X129281661Y-107501000D01*
X129236326Y-107496535D01*
X129198633Y-107485101D01*
X129163897Y-107466534D01*
X129133452Y-107441548D01*
X129108466Y-107411103D01*
X129089899Y-107376367D01*
X129078465Y-107338674D01*
X129074000Y-107293339D01*
X129074000Y-106206661D01*
X129078465Y-106161326D01*
X129089899Y-106123633D01*
X129108466Y-106088897D01*
X129133452Y-106058452D01*
X129163897Y-106033466D01*
X129198633Y-106014899D01*
X129236326Y-106003465D01*
X129281661Y-105999000D01*
X130118339Y-105999000D01*
X130163674Y-106003465D01*
X130163674Y-106003465D01*
G37*
G36*
X123688674Y-106003465D02*
G01*
X123726367Y-106014899D01*
X123761103Y-106033466D01*
X123791548Y-106058452D01*
X123816534Y-106088897D01*
X123835101Y-106123633D01*
X123846535Y-106161326D01*
X123851000Y-106206661D01*
X123851000Y-107293339D01*
X123846535Y-107338674D01*
X123835101Y-107376367D01*
X123816534Y-107411103D01*
X123791548Y-107441548D01*
X123761103Y-107466534D01*
X123726367Y-107485101D01*
X123688674Y-107496535D01*
X123643339Y-107501000D01*
X122806661Y-107501000D01*
X122761326Y-107496535D01*
X122723633Y-107485101D01*
X122688897Y-107466534D01*
X122658452Y-107441548D01*
X122633466Y-107411103D01*
X122614899Y-107376367D01*
X122603465Y-107338674D01*
X122599000Y-107293339D01*
X122599000Y-106206661D01*
X122603465Y-106161326D01*
X122614899Y-106123633D01*
X122633466Y-106088897D01*
X122658452Y-106058452D01*
X122688897Y-106033466D01*
X122723633Y-106014899D01*
X122761326Y-106003465D01*
X122806661Y-105999000D01*
X123643339Y-105999000D01*
X123688674Y-106003465D01*
X123688674Y-106003465D01*
G37*
G36*
X125738674Y-106003465D02*
G01*
X125776367Y-106014899D01*
X125811103Y-106033466D01*
X125841548Y-106058452D01*
X125866534Y-106088897D01*
X125885101Y-106123633D01*
X125896535Y-106161326D01*
X125901000Y-106206661D01*
X125901000Y-107293339D01*
X125896535Y-107338674D01*
X125885101Y-107376367D01*
X125866534Y-107411103D01*
X125841548Y-107441548D01*
X125811103Y-107466534D01*
X125776367Y-107485101D01*
X125738674Y-107496535D01*
X125693339Y-107501000D01*
X124856661Y-107501000D01*
X124811326Y-107496535D01*
X124773633Y-107485101D01*
X124738897Y-107466534D01*
X124708452Y-107441548D01*
X124683466Y-107411103D01*
X124664899Y-107376367D01*
X124653465Y-107338674D01*
X124649000Y-107293339D01*
X124649000Y-106206661D01*
X124653465Y-106161326D01*
X124664899Y-106123633D01*
X124683466Y-106088897D01*
X124708452Y-106058452D01*
X124738897Y-106033466D01*
X124773633Y-106014899D01*
X124811326Y-106003465D01*
X124856661Y-105999000D01*
X125693339Y-105999000D01*
X125738674Y-106003465D01*
X125738674Y-106003465D01*
G37*
G36*
X107737142Y-105218242D02*
G01*
X107885101Y-105279529D01*
X108018255Y-105368499D01*
X108131501Y-105481745D01*
X108220471Y-105614899D01*
X108281758Y-105762858D01*
X108313000Y-105919925D01*
X108313000Y-106080075D01*
X108281758Y-106237142D01*
X108220471Y-106385101D01*
X108131501Y-106518255D01*
X108018255Y-106631501D01*
X107885101Y-106720471D01*
X107737142Y-106781758D01*
X107580075Y-106813000D01*
X107419925Y-106813000D01*
X107262858Y-106781758D01*
X107114899Y-106720471D01*
X106981745Y-106631501D01*
X106868499Y-106518255D01*
X106779529Y-106385101D01*
X106718242Y-106237142D01*
X106687000Y-106080075D01*
X106687000Y-105919925D01*
X106718242Y-105762858D01*
X106779529Y-105614899D01*
X106868499Y-105481745D01*
X106981745Y-105368499D01*
X107114899Y-105279529D01*
X107262858Y-105218242D01*
X107419925Y-105187000D01*
X107580075Y-105187000D01*
X107737142Y-105218242D01*
X107737142Y-105218242D01*
G37*
G36*
X137213674Y-104503465D02*
G01*
X137251367Y-104514899D01*
X137286103Y-104533466D01*
X137316548Y-104558452D01*
X137341534Y-104588897D01*
X137360101Y-104623633D01*
X137371535Y-104661326D01*
X137376000Y-104706661D01*
X137376000Y-105793339D01*
X137371535Y-105838674D01*
X137360101Y-105876367D01*
X137341534Y-105911103D01*
X137316548Y-105941548D01*
X137286103Y-105966534D01*
X137251367Y-105985101D01*
X137213674Y-105996535D01*
X137168339Y-106001000D01*
X136331661Y-106001000D01*
X136286326Y-105996535D01*
X136248633Y-105985101D01*
X136213897Y-105966534D01*
X136183452Y-105941548D01*
X136158466Y-105911103D01*
X136139899Y-105876367D01*
X136128465Y-105838674D01*
X136124000Y-105793339D01*
X136124000Y-104706661D01*
X136128465Y-104661326D01*
X136139899Y-104623633D01*
X136158466Y-104588897D01*
X136183452Y-104558452D01*
X136213897Y-104533466D01*
X136248633Y-104514899D01*
X136286326Y-104503465D01*
X136331661Y-104499000D01*
X137168339Y-104499000D01*
X137213674Y-104503465D01*
X137213674Y-104503465D01*
G37*
G36*
X139263674Y-104503465D02*
G01*
X139301367Y-104514899D01*
X139336103Y-104533466D01*
X139366548Y-104558452D01*
X139391534Y-104588897D01*
X139410101Y-104623633D01*
X139421535Y-104661326D01*
X139426000Y-104706661D01*
X139426000Y-105793339D01*
X139421535Y-105838674D01*
X139410101Y-105876367D01*
X139391534Y-105911103D01*
X139366548Y-105941548D01*
X139336103Y-105966534D01*
X139301367Y-105985101D01*
X139263674Y-105996535D01*
X139218339Y-106001000D01*
X138381661Y-106001000D01*
X138336326Y-105996535D01*
X138298633Y-105985101D01*
X138263897Y-105966534D01*
X138233452Y-105941548D01*
X138208466Y-105911103D01*
X138189899Y-105876367D01*
X138178465Y-105838674D01*
X138174000Y-105793339D01*
X138174000Y-104706661D01*
X138178465Y-104661326D01*
X138189899Y-104623633D01*
X138208466Y-104588897D01*
X138233452Y-104558452D01*
X138263897Y-104533466D01*
X138298633Y-104514899D01*
X138336326Y-104503465D01*
X138381661Y-104499000D01*
X139218339Y-104499000D01*
X139263674Y-104503465D01*
X139263674Y-104503465D01*
G37*
G36*
X146513674Y-104253465D02*
G01*
X146551367Y-104264899D01*
X146586103Y-104283466D01*
X146616548Y-104308452D01*
X146641534Y-104338897D01*
X146660101Y-104373633D01*
X146671535Y-104411326D01*
X146676000Y-104456661D01*
X146676000Y-105543339D01*
X146671535Y-105588674D01*
X146660101Y-105626367D01*
X146641534Y-105661103D01*
X146616548Y-105691548D01*
X146586103Y-105716534D01*
X146551367Y-105735101D01*
X146513674Y-105746535D01*
X146468339Y-105751000D01*
X145631661Y-105751000D01*
X145586326Y-105746535D01*
X145548633Y-105735101D01*
X145513897Y-105716534D01*
X145483452Y-105691548D01*
X145458466Y-105661103D01*
X145439899Y-105626367D01*
X145428465Y-105588674D01*
X145424000Y-105543339D01*
X145424000Y-104456661D01*
X145428465Y-104411326D01*
X145439899Y-104373633D01*
X145458466Y-104338897D01*
X145483452Y-104308452D01*
X145513897Y-104283466D01*
X145548633Y-104264899D01*
X145586326Y-104253465D01*
X145631661Y-104249000D01*
X146468339Y-104249000D01*
X146513674Y-104253465D01*
X146513674Y-104253465D01*
G37*
G36*
X144463674Y-104253465D02*
G01*
X144501367Y-104264899D01*
X144536103Y-104283466D01*
X144566548Y-104308452D01*
X144591534Y-104338897D01*
X144610101Y-104373633D01*
X144621535Y-104411326D01*
X144626000Y-104456661D01*
X144626000Y-105543339D01*
X144621535Y-105588674D01*
X144610101Y-105626367D01*
X144591534Y-105661103D01*
X144566548Y-105691548D01*
X144536103Y-105716534D01*
X144501367Y-105735101D01*
X144463674Y-105746535D01*
X144418339Y-105751000D01*
X143581661Y-105751000D01*
X143536326Y-105746535D01*
X143498633Y-105735101D01*
X143463897Y-105716534D01*
X143433452Y-105691548D01*
X143408466Y-105661103D01*
X143389899Y-105626367D01*
X143378465Y-105588674D01*
X143374000Y-105543339D01*
X143374000Y-104456661D01*
X143378465Y-104411326D01*
X143389899Y-104373633D01*
X143408466Y-104338897D01*
X143433452Y-104308452D01*
X143463897Y-104283466D01*
X143498633Y-104264899D01*
X143536326Y-104253465D01*
X143581661Y-104249000D01*
X144418339Y-104249000D01*
X144463674Y-104253465D01*
X144463674Y-104253465D01*
G37*
G36*
X105637142Y-103968242D02*
G01*
X105785101Y-104029529D01*
X105918255Y-104118499D01*
X106031501Y-104231745D01*
X106120471Y-104364899D01*
X106181758Y-104512858D01*
X106213000Y-104669925D01*
X106213000Y-104830075D01*
X106181758Y-104987142D01*
X106120471Y-105135101D01*
X106031501Y-105268255D01*
X105918255Y-105381501D01*
X105785101Y-105470471D01*
X105637142Y-105531758D01*
X105480075Y-105563000D01*
X105319925Y-105563000D01*
X105162858Y-105531758D01*
X105014899Y-105470471D01*
X104881745Y-105381501D01*
X104768499Y-105268255D01*
X104679529Y-105135101D01*
X104618242Y-104987142D01*
X104587000Y-104830075D01*
X104587000Y-104669925D01*
X104618242Y-104512858D01*
X104679529Y-104364899D01*
X104768499Y-104231745D01*
X104881745Y-104118499D01*
X105014899Y-104029529D01*
X105162858Y-103968242D01*
X105319925Y-103937000D01*
X105480075Y-103937000D01*
X105637142Y-103968242D01*
X105637142Y-103968242D01*
G37*
G36*
X132263674Y-104003465D02*
G01*
X132301367Y-104014899D01*
X132336103Y-104033466D01*
X132366548Y-104058452D01*
X132391534Y-104088897D01*
X132410101Y-104123633D01*
X132421535Y-104161326D01*
X132426000Y-104206661D01*
X132426000Y-105293339D01*
X132421535Y-105338674D01*
X132410101Y-105376367D01*
X132391534Y-105411103D01*
X132366548Y-105441548D01*
X132336103Y-105466534D01*
X132301367Y-105485101D01*
X132263674Y-105496535D01*
X132218339Y-105501000D01*
X131381661Y-105501000D01*
X131336326Y-105496535D01*
X131298633Y-105485101D01*
X131263897Y-105466534D01*
X131233452Y-105441548D01*
X131208466Y-105411103D01*
X131189899Y-105376367D01*
X131178465Y-105338674D01*
X131174000Y-105293339D01*
X131174000Y-104206661D01*
X131178465Y-104161326D01*
X131189899Y-104123633D01*
X131208466Y-104088897D01*
X131233452Y-104058452D01*
X131263897Y-104033466D01*
X131298633Y-104014899D01*
X131336326Y-104003465D01*
X131381661Y-103999000D01*
X132218339Y-103999000D01*
X132263674Y-104003465D01*
X132263674Y-104003465D01*
G37*
G36*
X130213674Y-104003465D02*
G01*
X130251367Y-104014899D01*
X130286103Y-104033466D01*
X130316548Y-104058452D01*
X130341534Y-104088897D01*
X130360101Y-104123633D01*
X130371535Y-104161326D01*
X130376000Y-104206661D01*
X130376000Y-105293339D01*
X130371535Y-105338674D01*
X130360101Y-105376367D01*
X130341534Y-105411103D01*
X130316548Y-105441548D01*
X130286103Y-105466534D01*
X130251367Y-105485101D01*
X130213674Y-105496535D01*
X130168339Y-105501000D01*
X129331661Y-105501000D01*
X129286326Y-105496535D01*
X129248633Y-105485101D01*
X129213897Y-105466534D01*
X129183452Y-105441548D01*
X129158466Y-105411103D01*
X129139899Y-105376367D01*
X129128465Y-105338674D01*
X129124000Y-105293339D01*
X129124000Y-104206661D01*
X129128465Y-104161326D01*
X129139899Y-104123633D01*
X129158466Y-104088897D01*
X129183452Y-104058452D01*
X129213897Y-104033466D01*
X129248633Y-104014899D01*
X129286326Y-104003465D01*
X129331661Y-103999000D01*
X130168339Y-103999000D01*
X130213674Y-104003465D01*
X130213674Y-104003465D01*
G37*
G36*
X125763674Y-104003465D02*
G01*
X125801367Y-104014899D01*
X125836103Y-104033466D01*
X125866548Y-104058452D01*
X125891534Y-104088897D01*
X125910101Y-104123633D01*
X125921535Y-104161326D01*
X125926000Y-104206661D01*
X125926000Y-105293339D01*
X125921535Y-105338674D01*
X125910101Y-105376367D01*
X125891534Y-105411103D01*
X125866548Y-105441548D01*
X125836103Y-105466534D01*
X125801367Y-105485101D01*
X125763674Y-105496535D01*
X125718339Y-105501000D01*
X124881661Y-105501000D01*
X124836326Y-105496535D01*
X124798633Y-105485101D01*
X124763897Y-105466534D01*
X124733452Y-105441548D01*
X124708466Y-105411103D01*
X124689899Y-105376367D01*
X124678465Y-105338674D01*
X124674000Y-105293339D01*
X124674000Y-104206661D01*
X124678465Y-104161326D01*
X124689899Y-104123633D01*
X124708466Y-104088897D01*
X124733452Y-104058452D01*
X124763897Y-104033466D01*
X124798633Y-104014899D01*
X124836326Y-104003465D01*
X124881661Y-103999000D01*
X125718339Y-103999000D01*
X125763674Y-104003465D01*
X125763674Y-104003465D01*
G37*
G36*
X123713674Y-104003465D02*
G01*
X123751367Y-104014899D01*
X123786103Y-104033466D01*
X123816548Y-104058452D01*
X123841534Y-104088897D01*
X123860101Y-104123633D01*
X123871535Y-104161326D01*
X123876000Y-104206661D01*
X123876000Y-105293339D01*
X123871535Y-105338674D01*
X123860101Y-105376367D01*
X123841534Y-105411103D01*
X123816548Y-105441548D01*
X123786103Y-105466534D01*
X123751367Y-105485101D01*
X123713674Y-105496535D01*
X123668339Y-105501000D01*
X122831661Y-105501000D01*
X122786326Y-105496535D01*
X122748633Y-105485101D01*
X122713897Y-105466534D01*
X122683452Y-105441548D01*
X122658466Y-105411103D01*
X122639899Y-105376367D01*
X122628465Y-105338674D01*
X122624000Y-105293339D01*
X122624000Y-104206661D01*
X122628465Y-104161326D01*
X122639899Y-104123633D01*
X122658466Y-104088897D01*
X122683452Y-104058452D01*
X122713897Y-104033466D01*
X122748633Y-104014899D01*
X122786326Y-104003465D01*
X122831661Y-103999000D01*
X123668339Y-103999000D01*
X123713674Y-104003465D01*
X123713674Y-104003465D01*
G37*
G36*
X107737142Y-102718242D02*
G01*
X107885101Y-102779529D01*
X108018255Y-102868499D01*
X108131501Y-102981745D01*
X108220471Y-103114899D01*
X108281758Y-103262858D01*
X108313000Y-103419925D01*
X108313000Y-103580075D01*
X108281758Y-103737142D01*
X108220471Y-103885101D01*
X108131501Y-104018255D01*
X108018255Y-104131501D01*
X107885101Y-104220471D01*
X107737142Y-104281758D01*
X107580075Y-104313000D01*
X107419925Y-104313000D01*
X107262858Y-104281758D01*
X107114899Y-104220471D01*
X106981745Y-104131501D01*
X106868499Y-104018255D01*
X106779529Y-103885101D01*
X106718242Y-103737142D01*
X106687000Y-103580075D01*
X106687000Y-103419925D01*
X106718242Y-103262858D01*
X106779529Y-103114899D01*
X106868499Y-102981745D01*
X106981745Y-102868499D01*
X107114899Y-102779529D01*
X107262858Y-102718242D01*
X107419925Y-102687000D01*
X107580075Y-102687000D01*
X107737142Y-102718242D01*
X107737142Y-102718242D01*
G37*
G36*
X150338674Y-102878465D02*
G01*
X150376367Y-102889899D01*
X150411103Y-102908466D01*
X150441548Y-102933452D01*
X150466534Y-102963897D01*
X150485101Y-102998633D01*
X150496535Y-103036326D01*
X150501000Y-103081661D01*
X150501000Y-103918339D01*
X150496535Y-103963674D01*
X150485101Y-104001367D01*
X150466534Y-104036103D01*
X150441548Y-104066548D01*
X150411103Y-104091534D01*
X150376367Y-104110101D01*
X150338674Y-104121535D01*
X150293339Y-104126000D01*
X149206661Y-104126000D01*
X149161326Y-104121535D01*
X149123633Y-104110101D01*
X149088897Y-104091534D01*
X149058452Y-104066548D01*
X149033466Y-104036103D01*
X149014899Y-104001367D01*
X149003465Y-103963674D01*
X148999000Y-103918339D01*
X148999000Y-103081661D01*
X149003465Y-103036326D01*
X149014899Y-102998633D01*
X149033466Y-102963897D01*
X149058452Y-102933452D01*
X149088897Y-102908466D01*
X149123633Y-102889899D01*
X149161326Y-102878465D01*
X149206661Y-102874000D01*
X150293339Y-102874000D01*
X150338674Y-102878465D01*
X150338674Y-102878465D01*
G37*
G36*
X152338674Y-102878465D02*
G01*
X152376367Y-102889899D01*
X152411103Y-102908466D01*
X152441548Y-102933452D01*
X152466534Y-102963897D01*
X152485101Y-102998633D01*
X152496535Y-103036326D01*
X152501000Y-103081661D01*
X152501000Y-103918339D01*
X152496535Y-103963674D01*
X152485101Y-104001367D01*
X152466534Y-104036103D01*
X152441548Y-104066548D01*
X152411103Y-104091534D01*
X152376367Y-104110101D01*
X152338674Y-104121535D01*
X152293339Y-104126000D01*
X151206661Y-104126000D01*
X151161326Y-104121535D01*
X151123633Y-104110101D01*
X151088897Y-104091534D01*
X151058452Y-104066548D01*
X151033466Y-104036103D01*
X151014899Y-104001367D01*
X151003465Y-103963674D01*
X150999000Y-103918339D01*
X150999000Y-103081661D01*
X151003465Y-103036326D01*
X151014899Y-102998633D01*
X151033466Y-102963897D01*
X151058452Y-102933452D01*
X151088897Y-102908466D01*
X151123633Y-102889899D01*
X151161326Y-102878465D01*
X151206661Y-102874000D01*
X152293339Y-102874000D01*
X152338674Y-102878465D01*
X152338674Y-102878465D01*
G37*
G36*
X115664499Y-102978445D02*
G01*
X115701995Y-102989820D01*
X115736554Y-103008292D01*
X115766847Y-103033153D01*
X115791708Y-103063446D01*
X115810180Y-103098005D01*
X115821555Y-103135501D01*
X115826000Y-103180638D01*
X115826000Y-103819362D01*
X115821555Y-103864499D01*
X115810180Y-103901995D01*
X115791708Y-103936554D01*
X115766847Y-103966847D01*
X115736554Y-103991708D01*
X115701995Y-104010180D01*
X115664499Y-104021555D01*
X115619362Y-104026000D01*
X114880638Y-104026000D01*
X114835501Y-104021555D01*
X114798005Y-104010180D01*
X114763446Y-103991708D01*
X114733153Y-103966847D01*
X114708292Y-103936554D01*
X114689820Y-103901995D01*
X114678445Y-103864499D01*
X114674000Y-103819362D01*
X114674000Y-103180638D01*
X114678445Y-103135501D01*
X114689820Y-103098005D01*
X114708292Y-103063446D01*
X114733153Y-103033153D01*
X114763446Y-103008292D01*
X114798005Y-102989820D01*
X114835501Y-102978445D01*
X114880638Y-102974000D01*
X115619362Y-102974000D01*
X115664499Y-102978445D01*
X115664499Y-102978445D01*
G37*
G36*
X113914499Y-102978445D02*
G01*
X113951995Y-102989820D01*
X113986554Y-103008292D01*
X114016847Y-103033153D01*
X114041708Y-103063446D01*
X114060180Y-103098005D01*
X114071555Y-103135501D01*
X114076000Y-103180638D01*
X114076000Y-103819362D01*
X114071555Y-103864499D01*
X114060180Y-103901995D01*
X114041708Y-103936554D01*
X114016847Y-103966847D01*
X113986554Y-103991708D01*
X113951995Y-104010180D01*
X113914499Y-104021555D01*
X113869362Y-104026000D01*
X113130638Y-104026000D01*
X113085501Y-104021555D01*
X113048005Y-104010180D01*
X113013446Y-103991708D01*
X112983153Y-103966847D01*
X112958292Y-103936554D01*
X112939820Y-103901995D01*
X112928445Y-103864499D01*
X112924000Y-103819362D01*
X112924000Y-103180638D01*
X112928445Y-103135501D01*
X112939820Y-103098005D01*
X112958292Y-103063446D01*
X112983153Y-103033153D01*
X113013446Y-103008292D01*
X113048005Y-102989820D01*
X113085501Y-102978445D01*
X113130638Y-102974000D01*
X113869362Y-102974000D01*
X113914499Y-102978445D01*
X113914499Y-102978445D01*
G37*
G36*
X146513674Y-102253465D02*
G01*
X146551367Y-102264899D01*
X146586103Y-102283466D01*
X146616548Y-102308452D01*
X146641534Y-102338897D01*
X146660101Y-102373633D01*
X146671535Y-102411326D01*
X146676000Y-102456661D01*
X146676000Y-103543339D01*
X146671535Y-103588674D01*
X146660101Y-103626367D01*
X146641534Y-103661103D01*
X146616548Y-103691548D01*
X146586103Y-103716534D01*
X146551367Y-103735101D01*
X146513674Y-103746535D01*
X146468339Y-103751000D01*
X145631661Y-103751000D01*
X145586326Y-103746535D01*
X145548633Y-103735101D01*
X145513897Y-103716534D01*
X145483452Y-103691548D01*
X145458466Y-103661103D01*
X145439899Y-103626367D01*
X145428465Y-103588674D01*
X145424000Y-103543339D01*
X145424000Y-102456661D01*
X145428465Y-102411326D01*
X145439899Y-102373633D01*
X145458466Y-102338897D01*
X145483452Y-102308452D01*
X145513897Y-102283466D01*
X145548633Y-102264899D01*
X145586326Y-102253465D01*
X145631661Y-102249000D01*
X146468339Y-102249000D01*
X146513674Y-102253465D01*
X146513674Y-102253465D01*
G37*
G36*
X144463674Y-102253465D02*
G01*
X144501367Y-102264899D01*
X144536103Y-102283466D01*
X144566548Y-102308452D01*
X144591534Y-102338897D01*
X144610101Y-102373633D01*
X144621535Y-102411326D01*
X144626000Y-102456661D01*
X144626000Y-103543339D01*
X144621535Y-103588674D01*
X144610101Y-103626367D01*
X144591534Y-103661103D01*
X144566548Y-103691548D01*
X144536103Y-103716534D01*
X144501367Y-103735101D01*
X144463674Y-103746535D01*
X144418339Y-103751000D01*
X143581661Y-103751000D01*
X143536326Y-103746535D01*
X143498633Y-103735101D01*
X143463897Y-103716534D01*
X143433452Y-103691548D01*
X143408466Y-103661103D01*
X143389899Y-103626367D01*
X143378465Y-103588674D01*
X143374000Y-103543339D01*
X143374000Y-102456661D01*
X143378465Y-102411326D01*
X143389899Y-102373633D01*
X143408466Y-102338897D01*
X143433452Y-102308452D01*
X143463897Y-102283466D01*
X143498633Y-102264899D01*
X143536326Y-102253465D01*
X143581661Y-102249000D01*
X144418339Y-102249000D01*
X144463674Y-102253465D01*
X144463674Y-102253465D01*
G37*
G36*
X137163674Y-102003465D02*
G01*
X137201367Y-102014899D01*
X137236103Y-102033466D01*
X137266548Y-102058452D01*
X137291534Y-102088897D01*
X137310101Y-102123633D01*
X137321535Y-102161326D01*
X137326000Y-102206661D01*
X137326000Y-103293339D01*
X137321535Y-103338674D01*
X137310101Y-103376367D01*
X137291534Y-103411103D01*
X137266548Y-103441548D01*
X137236103Y-103466534D01*
X137201367Y-103485101D01*
X137163674Y-103496535D01*
X137118339Y-103501000D01*
X136281661Y-103501000D01*
X136236326Y-103496535D01*
X136198633Y-103485101D01*
X136163897Y-103466534D01*
X136133452Y-103441548D01*
X136108466Y-103411103D01*
X136089899Y-103376367D01*
X136078465Y-103338674D01*
X136074000Y-103293339D01*
X136074000Y-102206661D01*
X136078465Y-102161326D01*
X136089899Y-102123633D01*
X136108466Y-102088897D01*
X136133452Y-102058452D01*
X136163897Y-102033466D01*
X136198633Y-102014899D01*
X136236326Y-102003465D01*
X136281661Y-101999000D01*
X137118339Y-101999000D01*
X137163674Y-102003465D01*
X137163674Y-102003465D01*
G37*
G36*
X123663674Y-102003465D02*
G01*
X123701367Y-102014899D01*
X123736103Y-102033466D01*
X123766548Y-102058452D01*
X123791534Y-102088897D01*
X123810101Y-102123633D01*
X123821535Y-102161326D01*
X123826000Y-102206661D01*
X123826000Y-103293339D01*
X123821535Y-103338674D01*
X123810101Y-103376367D01*
X123791534Y-103411103D01*
X123766548Y-103441548D01*
X123736103Y-103466534D01*
X123701367Y-103485101D01*
X123663674Y-103496535D01*
X123618339Y-103501000D01*
X122781661Y-103501000D01*
X122736326Y-103496535D01*
X122698633Y-103485101D01*
X122663897Y-103466534D01*
X122633452Y-103441548D01*
X122608466Y-103411103D01*
X122589899Y-103376367D01*
X122578465Y-103338674D01*
X122574000Y-103293339D01*
X122574000Y-102206661D01*
X122578465Y-102161326D01*
X122589899Y-102123633D01*
X122608466Y-102088897D01*
X122633452Y-102058452D01*
X122663897Y-102033466D01*
X122698633Y-102014899D01*
X122736326Y-102003465D01*
X122781661Y-101999000D01*
X123618339Y-101999000D01*
X123663674Y-102003465D01*
X123663674Y-102003465D01*
G37*
G36*
X130213674Y-102003465D02*
G01*
X130251367Y-102014899D01*
X130286103Y-102033466D01*
X130316548Y-102058452D01*
X130341534Y-102088897D01*
X130360101Y-102123633D01*
X130371535Y-102161326D01*
X130376000Y-102206661D01*
X130376000Y-103293339D01*
X130371535Y-103338674D01*
X130360101Y-103376367D01*
X130341534Y-103411103D01*
X130316548Y-103441548D01*
X130286103Y-103466534D01*
X130251367Y-103485101D01*
X130213674Y-103496535D01*
X130168339Y-103501000D01*
X129331661Y-103501000D01*
X129286326Y-103496535D01*
X129248633Y-103485101D01*
X129213897Y-103466534D01*
X129183452Y-103441548D01*
X129158466Y-103411103D01*
X129139899Y-103376367D01*
X129128465Y-103338674D01*
X129124000Y-103293339D01*
X129124000Y-102206661D01*
X129128465Y-102161326D01*
X129139899Y-102123633D01*
X129158466Y-102088897D01*
X129183452Y-102058452D01*
X129213897Y-102033466D01*
X129248633Y-102014899D01*
X129286326Y-102003465D01*
X129331661Y-101999000D01*
X130168339Y-101999000D01*
X130213674Y-102003465D01*
X130213674Y-102003465D01*
G37*
G36*
X125713674Y-102003465D02*
G01*
X125751367Y-102014899D01*
X125786103Y-102033466D01*
X125816548Y-102058452D01*
X125841534Y-102088897D01*
X125860101Y-102123633D01*
X125871535Y-102161326D01*
X125876000Y-102206661D01*
X125876000Y-103293339D01*
X125871535Y-103338674D01*
X125860101Y-103376367D01*
X125841534Y-103411103D01*
X125816548Y-103441548D01*
X125786103Y-103466534D01*
X125751367Y-103485101D01*
X125713674Y-103496535D01*
X125668339Y-103501000D01*
X124831661Y-103501000D01*
X124786326Y-103496535D01*
X124748633Y-103485101D01*
X124713897Y-103466534D01*
X124683452Y-103441548D01*
X124658466Y-103411103D01*
X124639899Y-103376367D01*
X124628465Y-103338674D01*
X124624000Y-103293339D01*
X124624000Y-102206661D01*
X124628465Y-102161326D01*
X124639899Y-102123633D01*
X124658466Y-102088897D01*
X124683452Y-102058452D01*
X124713897Y-102033466D01*
X124748633Y-102014899D01*
X124786326Y-102003465D01*
X124831661Y-101999000D01*
X125668339Y-101999000D01*
X125713674Y-102003465D01*
X125713674Y-102003465D01*
G37*
G36*
X139213674Y-102003465D02*
G01*
X139251367Y-102014899D01*
X139286103Y-102033466D01*
X139316548Y-102058452D01*
X139341534Y-102088897D01*
X139360101Y-102123633D01*
X139371535Y-102161326D01*
X139376000Y-102206661D01*
X139376000Y-103293339D01*
X139371535Y-103338674D01*
X139360101Y-103376367D01*
X139341534Y-103411103D01*
X139316548Y-103441548D01*
X139286103Y-103466534D01*
X139251367Y-103485101D01*
X139213674Y-103496535D01*
X139168339Y-103501000D01*
X138331661Y-103501000D01*
X138286326Y-103496535D01*
X138248633Y-103485101D01*
X138213897Y-103466534D01*
X138183452Y-103441548D01*
X138158466Y-103411103D01*
X138139899Y-103376367D01*
X138128465Y-103338674D01*
X138124000Y-103293339D01*
X138124000Y-102206661D01*
X138128465Y-102161326D01*
X138139899Y-102123633D01*
X138158466Y-102088897D01*
X138183452Y-102058452D01*
X138213897Y-102033466D01*
X138248633Y-102014899D01*
X138286326Y-102003465D01*
X138331661Y-101999000D01*
X139168339Y-101999000D01*
X139213674Y-102003465D01*
X139213674Y-102003465D01*
G37*
G36*
X132263674Y-102003465D02*
G01*
X132301367Y-102014899D01*
X132336103Y-102033466D01*
X132366548Y-102058452D01*
X132391534Y-102088897D01*
X132410101Y-102123633D01*
X132421535Y-102161326D01*
X132426000Y-102206661D01*
X132426000Y-103293339D01*
X132421535Y-103338674D01*
X132410101Y-103376367D01*
X132391534Y-103411103D01*
X132366548Y-103441548D01*
X132336103Y-103466534D01*
X132301367Y-103485101D01*
X132263674Y-103496535D01*
X132218339Y-103501000D01*
X131381661Y-103501000D01*
X131336326Y-103496535D01*
X131298633Y-103485101D01*
X131263897Y-103466534D01*
X131233452Y-103441548D01*
X131208466Y-103411103D01*
X131189899Y-103376367D01*
X131178465Y-103338674D01*
X131174000Y-103293339D01*
X131174000Y-102206661D01*
X131178465Y-102161326D01*
X131189899Y-102123633D01*
X131208466Y-102088897D01*
X131233452Y-102058452D01*
X131263897Y-102033466D01*
X131298633Y-102014899D01*
X131336326Y-102003465D01*
X131381661Y-101999000D01*
X132218339Y-101999000D01*
X132263674Y-102003465D01*
X132263674Y-102003465D01*
G37*
G36*
X119164499Y-102228445D02*
G01*
X119201995Y-102239820D01*
X119236554Y-102258292D01*
X119266847Y-102283153D01*
X119291708Y-102313446D01*
X119310180Y-102348005D01*
X119321555Y-102385501D01*
X119326000Y-102430638D01*
X119326000Y-103069362D01*
X119321555Y-103114499D01*
X119310180Y-103151995D01*
X119291708Y-103186554D01*
X119266847Y-103216847D01*
X119236554Y-103241708D01*
X119201995Y-103260180D01*
X119164499Y-103271555D01*
X119119362Y-103276000D01*
X118380638Y-103276000D01*
X118335501Y-103271555D01*
X118298005Y-103260180D01*
X118263446Y-103241708D01*
X118233153Y-103216847D01*
X118208292Y-103186554D01*
X118189820Y-103151995D01*
X118178445Y-103114499D01*
X118174000Y-103069362D01*
X118174000Y-102430638D01*
X118178445Y-102385501D01*
X118189820Y-102348005D01*
X118208292Y-102313446D01*
X118233153Y-102283153D01*
X118263446Y-102258292D01*
X118298005Y-102239820D01*
X118335501Y-102228445D01*
X118380638Y-102224000D01*
X119119362Y-102224000D01*
X119164499Y-102228445D01*
X119164499Y-102228445D01*
G37*
G36*
X120914499Y-102228445D02*
G01*
X120951995Y-102239820D01*
X120986554Y-102258292D01*
X121016847Y-102283153D01*
X121041708Y-102313446D01*
X121060180Y-102348005D01*
X121071555Y-102385501D01*
X121076000Y-102430638D01*
X121076000Y-103069362D01*
X121071555Y-103114499D01*
X121060180Y-103151995D01*
X121041708Y-103186554D01*
X121016847Y-103216847D01*
X120986554Y-103241708D01*
X120951995Y-103260180D01*
X120914499Y-103271555D01*
X120869362Y-103276000D01*
X120130638Y-103276000D01*
X120085501Y-103271555D01*
X120048005Y-103260180D01*
X120013446Y-103241708D01*
X119983153Y-103216847D01*
X119958292Y-103186554D01*
X119939820Y-103151995D01*
X119928445Y-103114499D01*
X119924000Y-103069362D01*
X119924000Y-102430638D01*
X119928445Y-102385501D01*
X119939820Y-102348005D01*
X119958292Y-102313446D01*
X119983153Y-102283153D01*
X120013446Y-102258292D01*
X120048005Y-102239820D01*
X120085501Y-102228445D01*
X120130638Y-102224000D01*
X120869362Y-102224000D01*
X120914499Y-102228445D01*
X120914499Y-102228445D01*
G37*
G36*
X115664499Y-101478445D02*
G01*
X115701995Y-101489820D01*
X115736554Y-101508292D01*
X115766847Y-101533153D01*
X115791708Y-101563446D01*
X115810180Y-101598005D01*
X115821555Y-101635501D01*
X115826000Y-101680638D01*
X115826000Y-102319362D01*
X115821555Y-102364499D01*
X115810180Y-102401995D01*
X115791708Y-102436554D01*
X115766847Y-102466847D01*
X115736554Y-102491708D01*
X115701995Y-102510180D01*
X115664499Y-102521555D01*
X115619362Y-102526000D01*
X114880638Y-102526000D01*
X114835501Y-102521555D01*
X114798005Y-102510180D01*
X114763446Y-102491708D01*
X114733153Y-102466847D01*
X114708292Y-102436554D01*
X114689820Y-102401995D01*
X114678445Y-102364499D01*
X114674000Y-102319362D01*
X114674000Y-101680638D01*
X114678445Y-101635501D01*
X114689820Y-101598005D01*
X114708292Y-101563446D01*
X114733153Y-101533153D01*
X114763446Y-101508292D01*
X114798005Y-101489820D01*
X114835501Y-101478445D01*
X114880638Y-101474000D01*
X115619362Y-101474000D01*
X115664499Y-101478445D01*
X115664499Y-101478445D01*
G37*
G36*
X113914499Y-101478445D02*
G01*
X113951995Y-101489820D01*
X113986554Y-101508292D01*
X114016847Y-101533153D01*
X114041708Y-101563446D01*
X114060180Y-101598005D01*
X114071555Y-101635501D01*
X114076000Y-101680638D01*
X114076000Y-102319362D01*
X114071555Y-102364499D01*
X114060180Y-102401995D01*
X114041708Y-102436554D01*
X114016847Y-102466847D01*
X113986554Y-102491708D01*
X113951995Y-102510180D01*
X113914499Y-102521555D01*
X113869362Y-102526000D01*
X113130638Y-102526000D01*
X113085501Y-102521555D01*
X113048005Y-102510180D01*
X113013446Y-102491708D01*
X112983153Y-102466847D01*
X112958292Y-102436554D01*
X112939820Y-102401995D01*
X112928445Y-102364499D01*
X112924000Y-102319362D01*
X112924000Y-101680638D01*
X112928445Y-101635501D01*
X112939820Y-101598005D01*
X112958292Y-101563446D01*
X112983153Y-101533153D01*
X113013446Y-101508292D01*
X113048005Y-101489820D01*
X113085501Y-101478445D01*
X113130638Y-101474000D01*
X113869362Y-101474000D01*
X113914499Y-101478445D01*
X113914499Y-101478445D01*
G37*
G36*
X107737142Y-100718242D02*
G01*
X107885101Y-100779529D01*
X108018255Y-100868499D01*
X108131501Y-100981745D01*
X108220471Y-101114899D01*
X108281758Y-101262858D01*
X108313000Y-101419925D01*
X108313000Y-101580075D01*
X108281758Y-101737142D01*
X108220471Y-101885101D01*
X108131501Y-102018255D01*
X108018255Y-102131501D01*
X107885101Y-102220471D01*
X107737142Y-102281758D01*
X107580075Y-102313000D01*
X107419925Y-102313000D01*
X107262858Y-102281758D01*
X107114899Y-102220471D01*
X106981745Y-102131501D01*
X106868499Y-102018255D01*
X106779529Y-101885101D01*
X106718242Y-101737142D01*
X106687000Y-101580075D01*
X106687000Y-101419925D01*
X106718242Y-101262858D01*
X106779529Y-101114899D01*
X106868499Y-100981745D01*
X106981745Y-100868499D01*
X107114899Y-100779529D01*
X107262858Y-100718242D01*
X107419925Y-100687000D01*
X107580075Y-100687000D01*
X107737142Y-100718242D01*
X107737142Y-100718242D01*
G37*
G36*
X152338674Y-100828465D02*
G01*
X152376367Y-100839899D01*
X152411103Y-100858466D01*
X152441548Y-100883452D01*
X152466534Y-100913897D01*
X152485101Y-100948633D01*
X152496535Y-100986326D01*
X152501000Y-101031661D01*
X152501000Y-101868339D01*
X152496535Y-101913674D01*
X152485101Y-101951367D01*
X152466534Y-101986103D01*
X152441548Y-102016548D01*
X152411103Y-102041534D01*
X152376367Y-102060101D01*
X152338674Y-102071535D01*
X152293339Y-102076000D01*
X151206661Y-102076000D01*
X151161326Y-102071535D01*
X151123633Y-102060101D01*
X151088897Y-102041534D01*
X151058452Y-102016548D01*
X151033466Y-101986103D01*
X151014899Y-101951367D01*
X151003465Y-101913674D01*
X150999000Y-101868339D01*
X150999000Y-101031661D01*
X151003465Y-100986326D01*
X151014899Y-100948633D01*
X151033466Y-100913897D01*
X151058452Y-100883452D01*
X151088897Y-100858466D01*
X151123633Y-100839899D01*
X151161326Y-100828465D01*
X151206661Y-100824000D01*
X152293339Y-100824000D01*
X152338674Y-100828465D01*
X152338674Y-100828465D01*
G37*
G36*
X150338674Y-100828465D02*
G01*
X150376367Y-100839899D01*
X150411103Y-100858466D01*
X150441548Y-100883452D01*
X150466534Y-100913897D01*
X150485101Y-100948633D01*
X150496535Y-100986326D01*
X150501000Y-101031661D01*
X150501000Y-101868339D01*
X150496535Y-101913674D01*
X150485101Y-101951367D01*
X150466534Y-101986103D01*
X150441548Y-102016548D01*
X150411103Y-102041534D01*
X150376367Y-102060101D01*
X150338674Y-102071535D01*
X150293339Y-102076000D01*
X149206661Y-102076000D01*
X149161326Y-102071535D01*
X149123633Y-102060101D01*
X149088897Y-102041534D01*
X149058452Y-102016548D01*
X149033466Y-101986103D01*
X149014899Y-101951367D01*
X149003465Y-101913674D01*
X148999000Y-101868339D01*
X148999000Y-101031661D01*
X149003465Y-100986326D01*
X149014899Y-100948633D01*
X149033466Y-100913897D01*
X149058452Y-100883452D01*
X149088897Y-100858466D01*
X149123633Y-100839899D01*
X149161326Y-100828465D01*
X149206661Y-100824000D01*
X150293339Y-100824000D01*
X150338674Y-100828465D01*
X150338674Y-100828465D01*
G37*
G36*
X105637142Y-99468242D02*
G01*
X105785101Y-99529529D01*
X105918255Y-99618499D01*
X106031501Y-99731745D01*
X106120471Y-99864899D01*
X106181758Y-100012858D01*
X106213000Y-100169925D01*
X106213000Y-100330075D01*
X106181758Y-100487142D01*
X106120471Y-100635101D01*
X106031501Y-100768255D01*
X105918255Y-100881501D01*
X105785101Y-100970471D01*
X105637142Y-101031758D01*
X105480075Y-101063000D01*
X105319925Y-101063000D01*
X105162858Y-101031758D01*
X105014899Y-100970471D01*
X104881745Y-100881501D01*
X104768499Y-100768255D01*
X104679529Y-100635101D01*
X104618242Y-100487142D01*
X104587000Y-100330075D01*
X104587000Y-100169925D01*
X104618242Y-100012858D01*
X104679529Y-99864899D01*
X104768499Y-99731745D01*
X104881745Y-99618499D01*
X105014899Y-99529529D01*
X105162858Y-99468242D01*
X105319925Y-99437000D01*
X105480075Y-99437000D01*
X105637142Y-99468242D01*
X105637142Y-99468242D01*
G37*
G36*
X137213674Y-99003465D02*
G01*
X137251367Y-99014899D01*
X137286103Y-99033466D01*
X137316548Y-99058452D01*
X137341534Y-99088897D01*
X137360101Y-99123633D01*
X137371535Y-99161326D01*
X137376000Y-99206661D01*
X137376000Y-100293339D01*
X137371535Y-100338674D01*
X137360101Y-100376367D01*
X137341534Y-100411103D01*
X137316548Y-100441548D01*
X137286103Y-100466534D01*
X137251367Y-100485101D01*
X137213674Y-100496535D01*
X137168339Y-100501000D01*
X136331661Y-100501000D01*
X136286326Y-100496535D01*
X136248633Y-100485101D01*
X136213897Y-100466534D01*
X136183452Y-100441548D01*
X136158466Y-100411103D01*
X136139899Y-100376367D01*
X136128465Y-100338674D01*
X136124000Y-100293339D01*
X136124000Y-99206661D01*
X136128465Y-99161326D01*
X136139899Y-99123633D01*
X136158466Y-99088897D01*
X136183452Y-99058452D01*
X136213897Y-99033466D01*
X136248633Y-99014899D01*
X136286326Y-99003465D01*
X136331661Y-98999000D01*
X137168339Y-98999000D01*
X137213674Y-99003465D01*
X137213674Y-99003465D01*
G37*
G36*
X139263674Y-99003465D02*
G01*
X139301367Y-99014899D01*
X139336103Y-99033466D01*
X139366548Y-99058452D01*
X139391534Y-99088897D01*
X139410101Y-99123633D01*
X139421535Y-99161326D01*
X139426000Y-99206661D01*
X139426000Y-100293339D01*
X139421535Y-100338674D01*
X139410101Y-100376367D01*
X139391534Y-100411103D01*
X139366548Y-100441548D01*
X139336103Y-100466534D01*
X139301367Y-100485101D01*
X139263674Y-100496535D01*
X139218339Y-100501000D01*
X138381661Y-100501000D01*
X138336326Y-100496535D01*
X138298633Y-100485101D01*
X138263897Y-100466534D01*
X138233452Y-100441548D01*
X138208466Y-100411103D01*
X138189899Y-100376367D01*
X138178465Y-100338674D01*
X138174000Y-100293339D01*
X138174000Y-99206661D01*
X138178465Y-99161326D01*
X138189899Y-99123633D01*
X138208466Y-99088897D01*
X138233452Y-99058452D01*
X138263897Y-99033466D01*
X138298633Y-99014899D01*
X138336326Y-99003465D01*
X138381661Y-98999000D01*
X139218339Y-98999000D01*
X139263674Y-99003465D01*
X139263674Y-99003465D01*
G37*
G36*
X107737142Y-98218242D02*
G01*
X107885101Y-98279529D01*
X108018255Y-98368499D01*
X108131501Y-98481745D01*
X108220471Y-98614899D01*
X108281758Y-98762858D01*
X108313000Y-98919925D01*
X108313000Y-99080075D01*
X108281758Y-99237142D01*
X108220471Y-99385101D01*
X108131501Y-99518255D01*
X108018255Y-99631501D01*
X107885101Y-99720471D01*
X107737142Y-99781758D01*
X107580075Y-99813000D01*
X107419925Y-99813000D01*
X107262858Y-99781758D01*
X107114899Y-99720471D01*
X106981745Y-99631501D01*
X106868499Y-99518255D01*
X106779529Y-99385101D01*
X106718242Y-99237142D01*
X106687000Y-99080075D01*
X106687000Y-98919925D01*
X106718242Y-98762858D01*
X106779529Y-98614899D01*
X106868499Y-98481745D01*
X106981745Y-98368499D01*
X107114899Y-98279529D01*
X107262858Y-98218242D01*
X107419925Y-98187000D01*
X107580075Y-98187000D01*
X107737142Y-98218242D01*
X107737142Y-98218242D01*
G37*
G36*
X106817747Y-95840921D02*
G01*
X106897376Y-95848764D01*
X107050627Y-95895252D01*
X107050630Y-95895253D01*
X107191863Y-95970744D01*
X107315659Y-96072341D01*
X107417256Y-96196137D01*
X107492747Y-96337370D01*
X107492748Y-96337373D01*
X107539236Y-96490624D01*
X107554933Y-96650000D01*
X107539236Y-96809376D01*
X107492748Y-96962627D01*
X107492747Y-96962630D01*
X107417256Y-97103863D01*
X107315659Y-97227659D01*
X107191863Y-97329256D01*
X107050630Y-97404747D01*
X107050627Y-97404748D01*
X106897376Y-97451236D01*
X106817747Y-97459079D01*
X106777934Y-97463000D01*
X104022066Y-97463000D01*
X103982253Y-97459079D01*
X103902624Y-97451236D01*
X103749373Y-97404748D01*
X103749370Y-97404747D01*
X103608137Y-97329256D01*
X103484341Y-97227659D01*
X103382744Y-97103863D01*
X103307253Y-96962630D01*
X103307252Y-96962627D01*
X103260764Y-96809376D01*
X103245067Y-96650000D01*
X103260764Y-96490624D01*
X103307252Y-96337373D01*
X103307253Y-96337370D01*
X103382744Y-96196137D01*
X103484341Y-96072341D01*
X103608137Y-95970744D01*
X103749370Y-95895253D01*
X103749373Y-95895252D01*
X103902624Y-95848764D01*
X103982253Y-95840921D01*
X104022066Y-95837000D01*
X106777934Y-95837000D01*
X106817747Y-95840921D01*
X106817747Y-95840921D01*
G37*
G36*
X126129487Y-94248996D02*
G01*
X126338890Y-94335734D01*
X126366255Y-94347069D01*
X126425471Y-94386636D01*
X126579339Y-94489447D01*
X126760553Y-94670661D01*
X126902932Y-94883747D01*
X127001004Y-95120513D01*
X127051000Y-95371861D01*
X127051000Y-95628139D01*
X127001004Y-95879487D01*
X126921121Y-96072341D01*
X126902931Y-96116255D01*
X126760553Y-96329339D01*
X126579339Y-96510553D01*
X126366255Y-96652931D01*
X126366254Y-96652932D01*
X126366253Y-96652932D01*
X126129487Y-96751004D01*
X125878139Y-96801000D01*
X125621861Y-96801000D01*
X125370513Y-96751004D01*
X125133747Y-96652932D01*
X125133746Y-96652932D01*
X125133745Y-96652931D01*
X124920661Y-96510553D01*
X124739447Y-96329339D01*
X124597069Y-96116255D01*
X124578879Y-96072341D01*
X124498996Y-95879487D01*
X124449000Y-95628139D01*
X124449000Y-95371861D01*
X124498996Y-95120513D01*
X124597068Y-94883747D01*
X124739447Y-94670661D01*
X124920661Y-94489447D01*
X125074529Y-94386636D01*
X125133745Y-94347069D01*
X125161110Y-94335734D01*
X125370513Y-94248996D01*
X125621861Y-94199000D01*
X125878139Y-94199000D01*
X126129487Y-94248996D01*
X126129487Y-94248996D01*
G37*
G36*
X122129487Y-94248996D02*
G01*
X122338890Y-94335734D01*
X122366255Y-94347069D01*
X122425471Y-94386636D01*
X122579339Y-94489447D01*
X122760553Y-94670661D01*
X122902932Y-94883747D01*
X123001004Y-95120513D01*
X123051000Y-95371861D01*
X123051000Y-95628139D01*
X123001004Y-95879487D01*
X122921121Y-96072341D01*
X122902931Y-96116255D01*
X122760553Y-96329339D01*
X122579339Y-96510553D01*
X122366255Y-96652931D01*
X122366254Y-96652932D01*
X122366253Y-96652932D01*
X122129487Y-96751004D01*
X121878139Y-96801000D01*
X121621861Y-96801000D01*
X121370513Y-96751004D01*
X121133747Y-96652932D01*
X121133746Y-96652932D01*
X121133745Y-96652931D01*
X120920661Y-96510553D01*
X120739447Y-96329339D01*
X120597069Y-96116255D01*
X120578879Y-96072341D01*
X120498996Y-95879487D01*
X120449000Y-95628139D01*
X120449000Y-95371861D01*
X120498996Y-95120513D01*
X120597068Y-94883747D01*
X120739447Y-94670661D01*
X120920661Y-94489447D01*
X121074529Y-94386636D01*
X121133745Y-94347069D01*
X121161110Y-94335734D01*
X121370513Y-94248996D01*
X121621861Y-94199000D01*
X121878139Y-94199000D01*
X122129487Y-94248996D01*
X122129487Y-94248996D01*
G37*
G36*
X138129487Y-94248996D02*
G01*
X138338890Y-94335734D01*
X138366255Y-94347069D01*
X138425471Y-94386636D01*
X138579339Y-94489447D01*
X138760553Y-94670661D01*
X138902932Y-94883747D01*
X139001004Y-95120513D01*
X139051000Y-95371861D01*
X139051000Y-95628139D01*
X139001004Y-95879487D01*
X138921121Y-96072341D01*
X138902931Y-96116255D01*
X138760553Y-96329339D01*
X138579339Y-96510553D01*
X138366255Y-96652931D01*
X138366254Y-96652932D01*
X138366253Y-96652932D01*
X138129487Y-96751004D01*
X137878139Y-96801000D01*
X137621861Y-96801000D01*
X137370513Y-96751004D01*
X137133747Y-96652932D01*
X137133746Y-96652932D01*
X137133745Y-96652931D01*
X136920661Y-96510553D01*
X136739447Y-96329339D01*
X136597069Y-96116255D01*
X136578879Y-96072341D01*
X136498996Y-95879487D01*
X136449000Y-95628139D01*
X136449000Y-95371861D01*
X136498996Y-95120513D01*
X136597068Y-94883747D01*
X136739447Y-94670661D01*
X136920661Y-94489447D01*
X137074529Y-94386636D01*
X137133745Y-94347069D01*
X137161110Y-94335734D01*
X137370513Y-94248996D01*
X137621861Y-94199000D01*
X137878139Y-94199000D01*
X138129487Y-94248996D01*
X138129487Y-94248996D01*
G37*
G36*
X134129487Y-94248996D02*
G01*
X134338890Y-94335734D01*
X134366255Y-94347069D01*
X134425471Y-94386636D01*
X134579339Y-94489447D01*
X134760553Y-94670661D01*
X134902932Y-94883747D01*
X135001004Y-95120513D01*
X135051000Y-95371861D01*
X135051000Y-95628139D01*
X135001004Y-95879487D01*
X134921121Y-96072341D01*
X134902931Y-96116255D01*
X134760553Y-96329339D01*
X134579339Y-96510553D01*
X134366255Y-96652931D01*
X134366254Y-96652932D01*
X134366253Y-96652932D01*
X134129487Y-96751004D01*
X133878139Y-96801000D01*
X133621861Y-96801000D01*
X133370513Y-96751004D01*
X133133747Y-96652932D01*
X133133746Y-96652932D01*
X133133745Y-96652931D01*
X132920661Y-96510553D01*
X132739447Y-96329339D01*
X132597069Y-96116255D01*
X132578879Y-96072341D01*
X132498996Y-95879487D01*
X132449000Y-95628139D01*
X132449000Y-95371861D01*
X132498996Y-95120513D01*
X132597068Y-94883747D01*
X132739447Y-94670661D01*
X132920661Y-94489447D01*
X133074529Y-94386636D01*
X133133745Y-94347069D01*
X133161110Y-94335734D01*
X133370513Y-94248996D01*
X133621861Y-94199000D01*
X133878139Y-94199000D01*
X134129487Y-94248996D01*
X134129487Y-94248996D01*
G37*
G36*
X130129487Y-94248996D02*
G01*
X130338890Y-94335734D01*
X130366255Y-94347069D01*
X130425471Y-94386636D01*
X130579339Y-94489447D01*
X130760553Y-94670661D01*
X130902932Y-94883747D01*
X131001004Y-95120513D01*
X131051000Y-95371861D01*
X131051000Y-95628139D01*
X131001004Y-95879487D01*
X130921121Y-96072341D01*
X130902931Y-96116255D01*
X130760553Y-96329339D01*
X130579339Y-96510553D01*
X130366255Y-96652931D01*
X130366254Y-96652932D01*
X130366253Y-96652932D01*
X130129487Y-96751004D01*
X129878139Y-96801000D01*
X129621861Y-96801000D01*
X129370513Y-96751004D01*
X129133747Y-96652932D01*
X129133746Y-96652932D01*
X129133745Y-96652931D01*
X128920661Y-96510553D01*
X128739447Y-96329339D01*
X128597069Y-96116255D01*
X128578879Y-96072341D01*
X128498996Y-95879487D01*
X128449000Y-95628139D01*
X128449000Y-95371861D01*
X128498996Y-95120513D01*
X128597068Y-94883747D01*
X128739447Y-94670661D01*
X128920661Y-94489447D01*
X129074529Y-94386636D01*
X129133745Y-94347069D01*
X129161110Y-94335734D01*
X129370513Y-94248996D01*
X129621861Y-94199000D01*
X129878139Y-94199000D01*
X130129487Y-94248996D01*
X130129487Y-94248996D01*
G37*
G36*
X149974549Y-93371116D02*
G01*
X150085734Y-93393232D01*
X150295203Y-93479997D01*
X150483720Y-93605960D01*
X150644040Y-93766280D01*
X150770003Y-93954797D01*
X150835684Y-94113364D01*
X150856768Y-94164267D01*
X150893130Y-94347068D01*
X150901000Y-94386636D01*
X150901000Y-94613364D01*
X150856768Y-94835734D01*
X150770003Y-95045203D01*
X150644040Y-95233720D01*
X150483720Y-95394040D01*
X150295203Y-95520003D01*
X150085734Y-95606768D01*
X149978304Y-95628137D01*
X149863365Y-95651000D01*
X149636635Y-95651000D01*
X149521696Y-95628137D01*
X149414266Y-95606768D01*
X149204797Y-95520003D01*
X149016280Y-95394040D01*
X148855960Y-95233720D01*
X148729997Y-95045203D01*
X148643232Y-94835734D01*
X148599000Y-94613364D01*
X148599000Y-94386636D01*
X148606871Y-94347068D01*
X148643232Y-94164267D01*
X148664317Y-94113364D01*
X148729997Y-93954797D01*
X148855960Y-93766280D01*
X149016280Y-93605960D01*
X149204797Y-93479997D01*
X149414266Y-93393232D01*
X149525451Y-93371116D01*
X149636635Y-93349000D01*
X149863365Y-93349000D01*
X149974549Y-93371116D01*
X149974549Y-93371116D01*
G37*
G36*
X108224549Y-92871116D02*
G01*
X108335734Y-92893232D01*
X108545203Y-92979997D01*
X108733720Y-93105960D01*
X108894040Y-93266280D01*
X109020003Y-93454797D01*
X109106768Y-93664266D01*
X109151000Y-93886636D01*
X109151000Y-94113364D01*
X109106768Y-94335734D01*
X109020003Y-94545203D01*
X108894040Y-94733720D01*
X108733720Y-94894040D01*
X108545203Y-95020003D01*
X108335734Y-95106768D01*
X108266638Y-95120512D01*
X108113365Y-95151000D01*
X107886635Y-95151000D01*
X107733362Y-95120512D01*
X107664266Y-95106768D01*
X107454797Y-95020003D01*
X107266280Y-94894040D01*
X107105960Y-94733720D01*
X106979997Y-94545203D01*
X106893232Y-94335734D01*
X106849000Y-94113364D01*
X106849000Y-93886636D01*
X106893232Y-93664266D01*
X106979997Y-93454797D01*
X107105960Y-93266280D01*
X107266280Y-93105960D01*
X107454797Y-92979997D01*
X107664266Y-92893232D01*
X107775451Y-92871116D01*
X107886635Y-92849000D01*
X108113365Y-92849000D01*
X108224549Y-92871116D01*
X108224549Y-92871116D01*
G37*
M02*
