G04 #@! TF.GenerationSoftware,KiCad,Pcbnew,(5.1.0)-1*
G04 #@! TF.CreationDate,2022-11-08T17:01:55+01:00*
G04 #@! TF.ProjectId,USB - UART,55534220-2d20-4554-9152-542e6b696361,rev?*
G04 #@! TF.SameCoordinates,Original*
G04 #@! TF.FileFunction,Copper,L1,Top*
G04 #@! TF.FilePolarity,Positive*
%FSLAX46Y46*%
G04 Gerber Fmt 4.6, Leading zero omitted, Abs format (unit mm)*
G04 Created by KiCad (PCBNEW (5.1.0)-1) date 2022-11-08 17:01:55*
%MOMM*%
%LPD*%
G04 APERTURE LIST*
%ADD10C,2.500000*%
%ADD11C,0.100000*%
%ADD12C,1.425000*%
%ADD13C,1.150000*%
%ADD14R,2.500000X2.500000*%
%ADD15R,1.526000X0.435000*%
%ADD16R,0.750000X0.350000*%
%ADD17R,1.600000X2.400000*%
%ADD18R,1.400000X0.450000*%
%ADD19R,2.300000X0.500000*%
%ADD20R,2.500000X2.000000*%
%ADD21C,1.524000*%
%ADD22O,4.200000X1.524000*%
%ADD23C,0.800000*%
%ADD24C,0.250000*%
%ADD25C,0.254000*%
G04 APERTURE END LIST*
D10*
X129750000Y-95500000D03*
X133750000Y-95500000D03*
D11*
G36*
X110512004Y-107626204D02*
G01*
X110536273Y-107629804D01*
X110560071Y-107635765D01*
X110583171Y-107644030D01*
X110605349Y-107654520D01*
X110626393Y-107667133D01*
X110646098Y-107681747D01*
X110664277Y-107698223D01*
X110680753Y-107716402D01*
X110695367Y-107736107D01*
X110707980Y-107757151D01*
X110718470Y-107779329D01*
X110726735Y-107802429D01*
X110732696Y-107826227D01*
X110736296Y-107850496D01*
X110737500Y-107875000D01*
X110737500Y-109125000D01*
X110736296Y-109149504D01*
X110732696Y-109173773D01*
X110726735Y-109197571D01*
X110718470Y-109220671D01*
X110707980Y-109242849D01*
X110695367Y-109263893D01*
X110680753Y-109283598D01*
X110664277Y-109301777D01*
X110646098Y-109318253D01*
X110626393Y-109332867D01*
X110605349Y-109345480D01*
X110583171Y-109355970D01*
X110560071Y-109364235D01*
X110536273Y-109370196D01*
X110512004Y-109373796D01*
X110487500Y-109375000D01*
X109562500Y-109375000D01*
X109537996Y-109373796D01*
X109513727Y-109370196D01*
X109489929Y-109364235D01*
X109466829Y-109355970D01*
X109444651Y-109345480D01*
X109423607Y-109332867D01*
X109403902Y-109318253D01*
X109385723Y-109301777D01*
X109369247Y-109283598D01*
X109354633Y-109263893D01*
X109342020Y-109242849D01*
X109331530Y-109220671D01*
X109323265Y-109197571D01*
X109317304Y-109173773D01*
X109313704Y-109149504D01*
X109312500Y-109125000D01*
X109312500Y-107875000D01*
X109313704Y-107850496D01*
X109317304Y-107826227D01*
X109323265Y-107802429D01*
X109331530Y-107779329D01*
X109342020Y-107757151D01*
X109354633Y-107736107D01*
X109369247Y-107716402D01*
X109385723Y-107698223D01*
X109403902Y-107681747D01*
X109423607Y-107667133D01*
X109444651Y-107654520D01*
X109466829Y-107644030D01*
X109489929Y-107635765D01*
X109513727Y-107629804D01*
X109537996Y-107626204D01*
X109562500Y-107625000D01*
X110487500Y-107625000D01*
X110512004Y-107626204D01*
X110512004Y-107626204D01*
G37*
D12*
X110025000Y-108500000D03*
D11*
G36*
X113487004Y-107626204D02*
G01*
X113511273Y-107629804D01*
X113535071Y-107635765D01*
X113558171Y-107644030D01*
X113580349Y-107654520D01*
X113601393Y-107667133D01*
X113621098Y-107681747D01*
X113639277Y-107698223D01*
X113655753Y-107716402D01*
X113670367Y-107736107D01*
X113682980Y-107757151D01*
X113693470Y-107779329D01*
X113701735Y-107802429D01*
X113707696Y-107826227D01*
X113711296Y-107850496D01*
X113712500Y-107875000D01*
X113712500Y-109125000D01*
X113711296Y-109149504D01*
X113707696Y-109173773D01*
X113701735Y-109197571D01*
X113693470Y-109220671D01*
X113682980Y-109242849D01*
X113670367Y-109263893D01*
X113655753Y-109283598D01*
X113639277Y-109301777D01*
X113621098Y-109318253D01*
X113601393Y-109332867D01*
X113580349Y-109345480D01*
X113558171Y-109355970D01*
X113535071Y-109364235D01*
X113511273Y-109370196D01*
X113487004Y-109373796D01*
X113462500Y-109375000D01*
X112537500Y-109375000D01*
X112512996Y-109373796D01*
X112488727Y-109370196D01*
X112464929Y-109364235D01*
X112441829Y-109355970D01*
X112419651Y-109345480D01*
X112398607Y-109332867D01*
X112378902Y-109318253D01*
X112360723Y-109301777D01*
X112344247Y-109283598D01*
X112329633Y-109263893D01*
X112317020Y-109242849D01*
X112306530Y-109220671D01*
X112298265Y-109197571D01*
X112292304Y-109173773D01*
X112288704Y-109149504D01*
X112287500Y-109125000D01*
X112287500Y-107875000D01*
X112288704Y-107850496D01*
X112292304Y-107826227D01*
X112298265Y-107802429D01*
X112306530Y-107779329D01*
X112317020Y-107757151D01*
X112329633Y-107736107D01*
X112344247Y-107716402D01*
X112360723Y-107698223D01*
X112378902Y-107681747D01*
X112398607Y-107667133D01*
X112419651Y-107654520D01*
X112441829Y-107644030D01*
X112464929Y-107635765D01*
X112488727Y-107629804D01*
X112512996Y-107626204D01*
X112537500Y-107625000D01*
X113462500Y-107625000D01*
X113487004Y-107626204D01*
X113487004Y-107626204D01*
G37*
D12*
X113000000Y-108500000D03*
D11*
G36*
X110299505Y-97801204D02*
G01*
X110323773Y-97804804D01*
X110347572Y-97810765D01*
X110370671Y-97819030D01*
X110392850Y-97829520D01*
X110413893Y-97842132D01*
X110433599Y-97856747D01*
X110451777Y-97873223D01*
X110468253Y-97891401D01*
X110482868Y-97911107D01*
X110495480Y-97932150D01*
X110505970Y-97954329D01*
X110514235Y-97977428D01*
X110520196Y-98001227D01*
X110523796Y-98025495D01*
X110525000Y-98049999D01*
X110525000Y-98950001D01*
X110523796Y-98974505D01*
X110520196Y-98998773D01*
X110514235Y-99022572D01*
X110505970Y-99045671D01*
X110495480Y-99067850D01*
X110482868Y-99088893D01*
X110468253Y-99108599D01*
X110451777Y-99126777D01*
X110433599Y-99143253D01*
X110413893Y-99157868D01*
X110392850Y-99170480D01*
X110370671Y-99180970D01*
X110347572Y-99189235D01*
X110323773Y-99195196D01*
X110299505Y-99198796D01*
X110275001Y-99200000D01*
X109624999Y-99200000D01*
X109600495Y-99198796D01*
X109576227Y-99195196D01*
X109552428Y-99189235D01*
X109529329Y-99180970D01*
X109507150Y-99170480D01*
X109486107Y-99157868D01*
X109466401Y-99143253D01*
X109448223Y-99126777D01*
X109431747Y-99108599D01*
X109417132Y-99088893D01*
X109404520Y-99067850D01*
X109394030Y-99045671D01*
X109385765Y-99022572D01*
X109379804Y-98998773D01*
X109376204Y-98974505D01*
X109375000Y-98950001D01*
X109375000Y-98049999D01*
X109376204Y-98025495D01*
X109379804Y-98001227D01*
X109385765Y-97977428D01*
X109394030Y-97954329D01*
X109404520Y-97932150D01*
X109417132Y-97911107D01*
X109431747Y-97891401D01*
X109448223Y-97873223D01*
X109466401Y-97856747D01*
X109486107Y-97842132D01*
X109507150Y-97829520D01*
X109529329Y-97819030D01*
X109552428Y-97810765D01*
X109576227Y-97804804D01*
X109600495Y-97801204D01*
X109624999Y-97800000D01*
X110275001Y-97800000D01*
X110299505Y-97801204D01*
X110299505Y-97801204D01*
G37*
D13*
X109950000Y-98500000D03*
D11*
G36*
X112349505Y-97801204D02*
G01*
X112373773Y-97804804D01*
X112397572Y-97810765D01*
X112420671Y-97819030D01*
X112442850Y-97829520D01*
X112463893Y-97842132D01*
X112483599Y-97856747D01*
X112501777Y-97873223D01*
X112518253Y-97891401D01*
X112532868Y-97911107D01*
X112545480Y-97932150D01*
X112555970Y-97954329D01*
X112564235Y-97977428D01*
X112570196Y-98001227D01*
X112573796Y-98025495D01*
X112575000Y-98049999D01*
X112575000Y-98950001D01*
X112573796Y-98974505D01*
X112570196Y-98998773D01*
X112564235Y-99022572D01*
X112555970Y-99045671D01*
X112545480Y-99067850D01*
X112532868Y-99088893D01*
X112518253Y-99108599D01*
X112501777Y-99126777D01*
X112483599Y-99143253D01*
X112463893Y-99157868D01*
X112442850Y-99170480D01*
X112420671Y-99180970D01*
X112397572Y-99189235D01*
X112373773Y-99195196D01*
X112349505Y-99198796D01*
X112325001Y-99200000D01*
X111674999Y-99200000D01*
X111650495Y-99198796D01*
X111626227Y-99195196D01*
X111602428Y-99189235D01*
X111579329Y-99180970D01*
X111557150Y-99170480D01*
X111536107Y-99157868D01*
X111516401Y-99143253D01*
X111498223Y-99126777D01*
X111481747Y-99108599D01*
X111467132Y-99088893D01*
X111454520Y-99067850D01*
X111444030Y-99045671D01*
X111435765Y-99022572D01*
X111429804Y-98998773D01*
X111426204Y-98974505D01*
X111425000Y-98950001D01*
X111425000Y-98049999D01*
X111426204Y-98025495D01*
X111429804Y-98001227D01*
X111435765Y-97977428D01*
X111444030Y-97954329D01*
X111454520Y-97932150D01*
X111467132Y-97911107D01*
X111481747Y-97891401D01*
X111498223Y-97873223D01*
X111516401Y-97856747D01*
X111536107Y-97842132D01*
X111557150Y-97829520D01*
X111579329Y-97819030D01*
X111602428Y-97810765D01*
X111626227Y-97804804D01*
X111650495Y-97801204D01*
X111674999Y-97800000D01*
X112325001Y-97800000D01*
X112349505Y-97801204D01*
X112349505Y-97801204D01*
G37*
D13*
X112000000Y-98500000D03*
D11*
G36*
X110299505Y-102801204D02*
G01*
X110323773Y-102804804D01*
X110347572Y-102810765D01*
X110370671Y-102819030D01*
X110392850Y-102829520D01*
X110413893Y-102842132D01*
X110433599Y-102856747D01*
X110451777Y-102873223D01*
X110468253Y-102891401D01*
X110482868Y-102911107D01*
X110495480Y-102932150D01*
X110505970Y-102954329D01*
X110514235Y-102977428D01*
X110520196Y-103001227D01*
X110523796Y-103025495D01*
X110525000Y-103049999D01*
X110525000Y-103950001D01*
X110523796Y-103974505D01*
X110520196Y-103998773D01*
X110514235Y-104022572D01*
X110505970Y-104045671D01*
X110495480Y-104067850D01*
X110482868Y-104088893D01*
X110468253Y-104108599D01*
X110451777Y-104126777D01*
X110433599Y-104143253D01*
X110413893Y-104157868D01*
X110392850Y-104170480D01*
X110370671Y-104180970D01*
X110347572Y-104189235D01*
X110323773Y-104195196D01*
X110299505Y-104198796D01*
X110275001Y-104200000D01*
X109624999Y-104200000D01*
X109600495Y-104198796D01*
X109576227Y-104195196D01*
X109552428Y-104189235D01*
X109529329Y-104180970D01*
X109507150Y-104170480D01*
X109486107Y-104157868D01*
X109466401Y-104143253D01*
X109448223Y-104126777D01*
X109431747Y-104108599D01*
X109417132Y-104088893D01*
X109404520Y-104067850D01*
X109394030Y-104045671D01*
X109385765Y-104022572D01*
X109379804Y-103998773D01*
X109376204Y-103974505D01*
X109375000Y-103950001D01*
X109375000Y-103049999D01*
X109376204Y-103025495D01*
X109379804Y-103001227D01*
X109385765Y-102977428D01*
X109394030Y-102954329D01*
X109404520Y-102932150D01*
X109417132Y-102911107D01*
X109431747Y-102891401D01*
X109448223Y-102873223D01*
X109466401Y-102856747D01*
X109486107Y-102842132D01*
X109507150Y-102829520D01*
X109529329Y-102819030D01*
X109552428Y-102810765D01*
X109576227Y-102804804D01*
X109600495Y-102801204D01*
X109624999Y-102800000D01*
X110275001Y-102800000D01*
X110299505Y-102801204D01*
X110299505Y-102801204D01*
G37*
D13*
X109950000Y-103500000D03*
D11*
G36*
X112349505Y-102801204D02*
G01*
X112373773Y-102804804D01*
X112397572Y-102810765D01*
X112420671Y-102819030D01*
X112442850Y-102829520D01*
X112463893Y-102842132D01*
X112483599Y-102856747D01*
X112501777Y-102873223D01*
X112518253Y-102891401D01*
X112532868Y-102911107D01*
X112545480Y-102932150D01*
X112555970Y-102954329D01*
X112564235Y-102977428D01*
X112570196Y-103001227D01*
X112573796Y-103025495D01*
X112575000Y-103049999D01*
X112575000Y-103950001D01*
X112573796Y-103974505D01*
X112570196Y-103998773D01*
X112564235Y-104022572D01*
X112555970Y-104045671D01*
X112545480Y-104067850D01*
X112532868Y-104088893D01*
X112518253Y-104108599D01*
X112501777Y-104126777D01*
X112483599Y-104143253D01*
X112463893Y-104157868D01*
X112442850Y-104170480D01*
X112420671Y-104180970D01*
X112397572Y-104189235D01*
X112373773Y-104195196D01*
X112349505Y-104198796D01*
X112325001Y-104200000D01*
X111674999Y-104200000D01*
X111650495Y-104198796D01*
X111626227Y-104195196D01*
X111602428Y-104189235D01*
X111579329Y-104180970D01*
X111557150Y-104170480D01*
X111536107Y-104157868D01*
X111516401Y-104143253D01*
X111498223Y-104126777D01*
X111481747Y-104108599D01*
X111467132Y-104088893D01*
X111454520Y-104067850D01*
X111444030Y-104045671D01*
X111435765Y-104022572D01*
X111429804Y-103998773D01*
X111426204Y-103974505D01*
X111425000Y-103950001D01*
X111425000Y-103049999D01*
X111426204Y-103025495D01*
X111429804Y-103001227D01*
X111435765Y-102977428D01*
X111444030Y-102954329D01*
X111454520Y-102932150D01*
X111467132Y-102911107D01*
X111481747Y-102891401D01*
X111498223Y-102873223D01*
X111516401Y-102856747D01*
X111536107Y-102842132D01*
X111557150Y-102829520D01*
X111579329Y-102819030D01*
X111602428Y-102810765D01*
X111626227Y-102804804D01*
X111650495Y-102801204D01*
X111674999Y-102800000D01*
X112325001Y-102800000D01*
X112349505Y-102801204D01*
X112349505Y-102801204D01*
G37*
D13*
X112000000Y-103500000D03*
D10*
X137750000Y-95500000D03*
D11*
G36*
X112349505Y-105551204D02*
G01*
X112373773Y-105554804D01*
X112397572Y-105560765D01*
X112420671Y-105569030D01*
X112442850Y-105579520D01*
X112463893Y-105592132D01*
X112483599Y-105606747D01*
X112501777Y-105623223D01*
X112518253Y-105641401D01*
X112532868Y-105661107D01*
X112545480Y-105682150D01*
X112555970Y-105704329D01*
X112564235Y-105727428D01*
X112570196Y-105751227D01*
X112573796Y-105775495D01*
X112575000Y-105799999D01*
X112575000Y-106700001D01*
X112573796Y-106724505D01*
X112570196Y-106748773D01*
X112564235Y-106772572D01*
X112555970Y-106795671D01*
X112545480Y-106817850D01*
X112532868Y-106838893D01*
X112518253Y-106858599D01*
X112501777Y-106876777D01*
X112483599Y-106893253D01*
X112463893Y-106907868D01*
X112442850Y-106920480D01*
X112420671Y-106930970D01*
X112397572Y-106939235D01*
X112373773Y-106945196D01*
X112349505Y-106948796D01*
X112325001Y-106950000D01*
X111674999Y-106950000D01*
X111650495Y-106948796D01*
X111626227Y-106945196D01*
X111602428Y-106939235D01*
X111579329Y-106930970D01*
X111557150Y-106920480D01*
X111536107Y-106907868D01*
X111516401Y-106893253D01*
X111498223Y-106876777D01*
X111481747Y-106858599D01*
X111467132Y-106838893D01*
X111454520Y-106817850D01*
X111444030Y-106795671D01*
X111435765Y-106772572D01*
X111429804Y-106748773D01*
X111426204Y-106724505D01*
X111425000Y-106700001D01*
X111425000Y-105799999D01*
X111426204Y-105775495D01*
X111429804Y-105751227D01*
X111435765Y-105727428D01*
X111444030Y-105704329D01*
X111454520Y-105682150D01*
X111467132Y-105661107D01*
X111481747Y-105641401D01*
X111498223Y-105623223D01*
X111516401Y-105606747D01*
X111536107Y-105592132D01*
X111557150Y-105579520D01*
X111579329Y-105569030D01*
X111602428Y-105560765D01*
X111626227Y-105554804D01*
X111650495Y-105551204D01*
X111674999Y-105550000D01*
X112325001Y-105550000D01*
X112349505Y-105551204D01*
X112349505Y-105551204D01*
G37*
D13*
X112000000Y-106250000D03*
D11*
G36*
X110299505Y-105551204D02*
G01*
X110323773Y-105554804D01*
X110347572Y-105560765D01*
X110370671Y-105569030D01*
X110392850Y-105579520D01*
X110413893Y-105592132D01*
X110433599Y-105606747D01*
X110451777Y-105623223D01*
X110468253Y-105641401D01*
X110482868Y-105661107D01*
X110495480Y-105682150D01*
X110505970Y-105704329D01*
X110514235Y-105727428D01*
X110520196Y-105751227D01*
X110523796Y-105775495D01*
X110525000Y-105799999D01*
X110525000Y-106700001D01*
X110523796Y-106724505D01*
X110520196Y-106748773D01*
X110514235Y-106772572D01*
X110505970Y-106795671D01*
X110495480Y-106817850D01*
X110482868Y-106838893D01*
X110468253Y-106858599D01*
X110451777Y-106876777D01*
X110433599Y-106893253D01*
X110413893Y-106907868D01*
X110392850Y-106920480D01*
X110370671Y-106930970D01*
X110347572Y-106939235D01*
X110323773Y-106945196D01*
X110299505Y-106948796D01*
X110275001Y-106950000D01*
X109624999Y-106950000D01*
X109600495Y-106948796D01*
X109576227Y-106945196D01*
X109552428Y-106939235D01*
X109529329Y-106930970D01*
X109507150Y-106920480D01*
X109486107Y-106907868D01*
X109466401Y-106893253D01*
X109448223Y-106876777D01*
X109431747Y-106858599D01*
X109417132Y-106838893D01*
X109404520Y-106817850D01*
X109394030Y-106795671D01*
X109385765Y-106772572D01*
X109379804Y-106748773D01*
X109376204Y-106724505D01*
X109375000Y-106700001D01*
X109375000Y-105799999D01*
X109376204Y-105775495D01*
X109379804Y-105751227D01*
X109385765Y-105727428D01*
X109394030Y-105704329D01*
X109404520Y-105682150D01*
X109417132Y-105661107D01*
X109431747Y-105641401D01*
X109448223Y-105623223D01*
X109466401Y-105606747D01*
X109486107Y-105592132D01*
X109507150Y-105579520D01*
X109529329Y-105569030D01*
X109552428Y-105560765D01*
X109576227Y-105554804D01*
X109600495Y-105551204D01*
X109624999Y-105550000D01*
X110275001Y-105550000D01*
X110299505Y-105551204D01*
X110299505Y-105551204D01*
G37*
D13*
X109950000Y-106250000D03*
D14*
X137750000Y-109500000D03*
D15*
X117038000Y-99642000D03*
X117038000Y-100278000D03*
X117038000Y-100912000D03*
X117038000Y-101548000D03*
X117038000Y-102182000D03*
X117038000Y-102818000D03*
X117038000Y-103452000D03*
X117038000Y-104088000D03*
X117038000Y-104722000D03*
X117038000Y-105358000D03*
X122462000Y-105358000D03*
X122462000Y-104722000D03*
X122462000Y-104088000D03*
X122462000Y-103452000D03*
X122462000Y-102818000D03*
X122462000Y-102182000D03*
X122462000Y-101548000D03*
X122462000Y-100912000D03*
X122462000Y-100278000D03*
X122462000Y-99642000D03*
D16*
X126000000Y-99025000D03*
X126000000Y-99675000D03*
X126000000Y-100325000D03*
X126000000Y-100975000D03*
X129000000Y-100975000D03*
X129000000Y-100325000D03*
X129000000Y-99675000D03*
X129000000Y-99025000D03*
D17*
X127500000Y-100000000D03*
D18*
X125300000Y-103525000D03*
X125300000Y-104175000D03*
X125300000Y-104825000D03*
X125300000Y-105475000D03*
X129700000Y-105475000D03*
X129700000Y-104825000D03*
X129700000Y-104175000D03*
X129700000Y-103525000D03*
D10*
X121750000Y-109500000D03*
D19*
X146900000Y-104100000D03*
X146900000Y-103300000D03*
X146900000Y-102500000D03*
X146900000Y-101700000D03*
X146900000Y-100900000D03*
D20*
X147000000Y-106950000D03*
X147000000Y-98050000D03*
X152500000Y-98050000D03*
X152500000Y-106950000D03*
D11*
G36*
X139099505Y-99051204D02*
G01*
X139123773Y-99054804D01*
X139147572Y-99060765D01*
X139170671Y-99069030D01*
X139192850Y-99079520D01*
X139213893Y-99092132D01*
X139233599Y-99106747D01*
X139251777Y-99123223D01*
X139268253Y-99141401D01*
X139282868Y-99161107D01*
X139295480Y-99182150D01*
X139305970Y-99204329D01*
X139314235Y-99227428D01*
X139320196Y-99251227D01*
X139323796Y-99275495D01*
X139325000Y-99299999D01*
X139325000Y-100200001D01*
X139323796Y-100224505D01*
X139320196Y-100248773D01*
X139314235Y-100272572D01*
X139305970Y-100295671D01*
X139295480Y-100317850D01*
X139282868Y-100338893D01*
X139268253Y-100358599D01*
X139251777Y-100376777D01*
X139233599Y-100393253D01*
X139213893Y-100407868D01*
X139192850Y-100420480D01*
X139170671Y-100430970D01*
X139147572Y-100439235D01*
X139123773Y-100445196D01*
X139099505Y-100448796D01*
X139075001Y-100450000D01*
X138424999Y-100450000D01*
X138400495Y-100448796D01*
X138376227Y-100445196D01*
X138352428Y-100439235D01*
X138329329Y-100430970D01*
X138307150Y-100420480D01*
X138286107Y-100407868D01*
X138266401Y-100393253D01*
X138248223Y-100376777D01*
X138231747Y-100358599D01*
X138217132Y-100338893D01*
X138204520Y-100317850D01*
X138194030Y-100295671D01*
X138185765Y-100272572D01*
X138179804Y-100248773D01*
X138176204Y-100224505D01*
X138175000Y-100200001D01*
X138175000Y-99299999D01*
X138176204Y-99275495D01*
X138179804Y-99251227D01*
X138185765Y-99227428D01*
X138194030Y-99204329D01*
X138204520Y-99182150D01*
X138217132Y-99161107D01*
X138231747Y-99141401D01*
X138248223Y-99123223D01*
X138266401Y-99106747D01*
X138286107Y-99092132D01*
X138307150Y-99079520D01*
X138329329Y-99069030D01*
X138352428Y-99060765D01*
X138376227Y-99054804D01*
X138400495Y-99051204D01*
X138424999Y-99050000D01*
X139075001Y-99050000D01*
X139099505Y-99051204D01*
X139099505Y-99051204D01*
G37*
D13*
X138750000Y-99750000D03*
D11*
G36*
X137049505Y-99051204D02*
G01*
X137073773Y-99054804D01*
X137097572Y-99060765D01*
X137120671Y-99069030D01*
X137142850Y-99079520D01*
X137163893Y-99092132D01*
X137183599Y-99106747D01*
X137201777Y-99123223D01*
X137218253Y-99141401D01*
X137232868Y-99161107D01*
X137245480Y-99182150D01*
X137255970Y-99204329D01*
X137264235Y-99227428D01*
X137270196Y-99251227D01*
X137273796Y-99275495D01*
X137275000Y-99299999D01*
X137275000Y-100200001D01*
X137273796Y-100224505D01*
X137270196Y-100248773D01*
X137264235Y-100272572D01*
X137255970Y-100295671D01*
X137245480Y-100317850D01*
X137232868Y-100338893D01*
X137218253Y-100358599D01*
X137201777Y-100376777D01*
X137183599Y-100393253D01*
X137163893Y-100407868D01*
X137142850Y-100420480D01*
X137120671Y-100430970D01*
X137097572Y-100439235D01*
X137073773Y-100445196D01*
X137049505Y-100448796D01*
X137025001Y-100450000D01*
X136374999Y-100450000D01*
X136350495Y-100448796D01*
X136326227Y-100445196D01*
X136302428Y-100439235D01*
X136279329Y-100430970D01*
X136257150Y-100420480D01*
X136236107Y-100407868D01*
X136216401Y-100393253D01*
X136198223Y-100376777D01*
X136181747Y-100358599D01*
X136167132Y-100338893D01*
X136154520Y-100317850D01*
X136144030Y-100295671D01*
X136135765Y-100272572D01*
X136129804Y-100248773D01*
X136126204Y-100224505D01*
X136125000Y-100200001D01*
X136125000Y-99299999D01*
X136126204Y-99275495D01*
X136129804Y-99251227D01*
X136135765Y-99227428D01*
X136144030Y-99204329D01*
X136154520Y-99182150D01*
X136167132Y-99161107D01*
X136181747Y-99141401D01*
X136198223Y-99123223D01*
X136216401Y-99106747D01*
X136236107Y-99092132D01*
X136257150Y-99079520D01*
X136279329Y-99069030D01*
X136302428Y-99060765D01*
X136326227Y-99054804D01*
X136350495Y-99051204D01*
X136374999Y-99050000D01*
X137025001Y-99050000D01*
X137049505Y-99051204D01*
X137049505Y-99051204D01*
G37*
D13*
X136700000Y-99750000D03*
D11*
G36*
X139737004Y-101876204D02*
G01*
X139761273Y-101879804D01*
X139785071Y-101885765D01*
X139808171Y-101894030D01*
X139830349Y-101904520D01*
X139851393Y-101917133D01*
X139871098Y-101931747D01*
X139889277Y-101948223D01*
X139905753Y-101966402D01*
X139920367Y-101986107D01*
X139932980Y-102007151D01*
X139943470Y-102029329D01*
X139951735Y-102052429D01*
X139957696Y-102076227D01*
X139961296Y-102100496D01*
X139962500Y-102125000D01*
X139962500Y-103375000D01*
X139961296Y-103399504D01*
X139957696Y-103423773D01*
X139951735Y-103447571D01*
X139943470Y-103470671D01*
X139932980Y-103492849D01*
X139920367Y-103513893D01*
X139905753Y-103533598D01*
X139889277Y-103551777D01*
X139871098Y-103568253D01*
X139851393Y-103582867D01*
X139830349Y-103595480D01*
X139808171Y-103605970D01*
X139785071Y-103614235D01*
X139761273Y-103620196D01*
X139737004Y-103623796D01*
X139712500Y-103625000D01*
X138787500Y-103625000D01*
X138762996Y-103623796D01*
X138738727Y-103620196D01*
X138714929Y-103614235D01*
X138691829Y-103605970D01*
X138669651Y-103595480D01*
X138648607Y-103582867D01*
X138628902Y-103568253D01*
X138610723Y-103551777D01*
X138594247Y-103533598D01*
X138579633Y-103513893D01*
X138567020Y-103492849D01*
X138556530Y-103470671D01*
X138548265Y-103447571D01*
X138542304Y-103423773D01*
X138538704Y-103399504D01*
X138537500Y-103375000D01*
X138537500Y-102125000D01*
X138538704Y-102100496D01*
X138542304Y-102076227D01*
X138548265Y-102052429D01*
X138556530Y-102029329D01*
X138567020Y-102007151D01*
X138579633Y-101986107D01*
X138594247Y-101966402D01*
X138610723Y-101948223D01*
X138628902Y-101931747D01*
X138648607Y-101917133D01*
X138669651Y-101904520D01*
X138691829Y-101894030D01*
X138714929Y-101885765D01*
X138738727Y-101879804D01*
X138762996Y-101876204D01*
X138787500Y-101875000D01*
X139712500Y-101875000D01*
X139737004Y-101876204D01*
X139737004Y-101876204D01*
G37*
D12*
X139250000Y-102750000D03*
D11*
G36*
X136762004Y-101876204D02*
G01*
X136786273Y-101879804D01*
X136810071Y-101885765D01*
X136833171Y-101894030D01*
X136855349Y-101904520D01*
X136876393Y-101917133D01*
X136896098Y-101931747D01*
X136914277Y-101948223D01*
X136930753Y-101966402D01*
X136945367Y-101986107D01*
X136957980Y-102007151D01*
X136968470Y-102029329D01*
X136976735Y-102052429D01*
X136982696Y-102076227D01*
X136986296Y-102100496D01*
X136987500Y-102125000D01*
X136987500Y-103375000D01*
X136986296Y-103399504D01*
X136982696Y-103423773D01*
X136976735Y-103447571D01*
X136968470Y-103470671D01*
X136957980Y-103492849D01*
X136945367Y-103513893D01*
X136930753Y-103533598D01*
X136914277Y-103551777D01*
X136896098Y-103568253D01*
X136876393Y-103582867D01*
X136855349Y-103595480D01*
X136833171Y-103605970D01*
X136810071Y-103614235D01*
X136786273Y-103620196D01*
X136762004Y-103623796D01*
X136737500Y-103625000D01*
X135812500Y-103625000D01*
X135787996Y-103623796D01*
X135763727Y-103620196D01*
X135739929Y-103614235D01*
X135716829Y-103605970D01*
X135694651Y-103595480D01*
X135673607Y-103582867D01*
X135653902Y-103568253D01*
X135635723Y-103551777D01*
X135619247Y-103533598D01*
X135604633Y-103513893D01*
X135592020Y-103492849D01*
X135581530Y-103470671D01*
X135573265Y-103447571D01*
X135567304Y-103423773D01*
X135563704Y-103399504D01*
X135562500Y-103375000D01*
X135562500Y-102125000D01*
X135563704Y-102100496D01*
X135567304Y-102076227D01*
X135573265Y-102052429D01*
X135581530Y-102029329D01*
X135592020Y-102007151D01*
X135604633Y-101986107D01*
X135619247Y-101966402D01*
X135635723Y-101948223D01*
X135653902Y-101931747D01*
X135673607Y-101917133D01*
X135694651Y-101904520D01*
X135716829Y-101894030D01*
X135739929Y-101885765D01*
X135763727Y-101879804D01*
X135787996Y-101876204D01*
X135812500Y-101875000D01*
X136737500Y-101875000D01*
X136762004Y-101876204D01*
X136762004Y-101876204D01*
G37*
D12*
X136275000Y-102750000D03*
D11*
G36*
X136762004Y-104376204D02*
G01*
X136786273Y-104379804D01*
X136810071Y-104385765D01*
X136833171Y-104394030D01*
X136855349Y-104404520D01*
X136876393Y-104417133D01*
X136896098Y-104431747D01*
X136914277Y-104448223D01*
X136930753Y-104466402D01*
X136945367Y-104486107D01*
X136957980Y-104507151D01*
X136968470Y-104529329D01*
X136976735Y-104552429D01*
X136982696Y-104576227D01*
X136986296Y-104600496D01*
X136987500Y-104625000D01*
X136987500Y-105875000D01*
X136986296Y-105899504D01*
X136982696Y-105923773D01*
X136976735Y-105947571D01*
X136968470Y-105970671D01*
X136957980Y-105992849D01*
X136945367Y-106013893D01*
X136930753Y-106033598D01*
X136914277Y-106051777D01*
X136896098Y-106068253D01*
X136876393Y-106082867D01*
X136855349Y-106095480D01*
X136833171Y-106105970D01*
X136810071Y-106114235D01*
X136786273Y-106120196D01*
X136762004Y-106123796D01*
X136737500Y-106125000D01*
X135812500Y-106125000D01*
X135787996Y-106123796D01*
X135763727Y-106120196D01*
X135739929Y-106114235D01*
X135716829Y-106105970D01*
X135694651Y-106095480D01*
X135673607Y-106082867D01*
X135653902Y-106068253D01*
X135635723Y-106051777D01*
X135619247Y-106033598D01*
X135604633Y-106013893D01*
X135592020Y-105992849D01*
X135581530Y-105970671D01*
X135573265Y-105947571D01*
X135567304Y-105923773D01*
X135563704Y-105899504D01*
X135562500Y-105875000D01*
X135562500Y-104625000D01*
X135563704Y-104600496D01*
X135567304Y-104576227D01*
X135573265Y-104552429D01*
X135581530Y-104529329D01*
X135592020Y-104507151D01*
X135604633Y-104486107D01*
X135619247Y-104466402D01*
X135635723Y-104448223D01*
X135653902Y-104431747D01*
X135673607Y-104417133D01*
X135694651Y-104404520D01*
X135716829Y-104394030D01*
X135739929Y-104385765D01*
X135763727Y-104379804D01*
X135787996Y-104376204D01*
X135812500Y-104375000D01*
X136737500Y-104375000D01*
X136762004Y-104376204D01*
X136762004Y-104376204D01*
G37*
D12*
X136275000Y-105250000D03*
D11*
G36*
X139737004Y-104376204D02*
G01*
X139761273Y-104379804D01*
X139785071Y-104385765D01*
X139808171Y-104394030D01*
X139830349Y-104404520D01*
X139851393Y-104417133D01*
X139871098Y-104431747D01*
X139889277Y-104448223D01*
X139905753Y-104466402D01*
X139920367Y-104486107D01*
X139932980Y-104507151D01*
X139943470Y-104529329D01*
X139951735Y-104552429D01*
X139957696Y-104576227D01*
X139961296Y-104600496D01*
X139962500Y-104625000D01*
X139962500Y-105875000D01*
X139961296Y-105899504D01*
X139957696Y-105923773D01*
X139951735Y-105947571D01*
X139943470Y-105970671D01*
X139932980Y-105992849D01*
X139920367Y-106013893D01*
X139905753Y-106033598D01*
X139889277Y-106051777D01*
X139871098Y-106068253D01*
X139851393Y-106082867D01*
X139830349Y-106095480D01*
X139808171Y-106105970D01*
X139785071Y-106114235D01*
X139761273Y-106120196D01*
X139737004Y-106123796D01*
X139712500Y-106125000D01*
X138787500Y-106125000D01*
X138762996Y-106123796D01*
X138738727Y-106120196D01*
X138714929Y-106114235D01*
X138691829Y-106105970D01*
X138669651Y-106095480D01*
X138648607Y-106082867D01*
X138628902Y-106068253D01*
X138610723Y-106051777D01*
X138594247Y-106033598D01*
X138579633Y-106013893D01*
X138567020Y-105992849D01*
X138556530Y-105970671D01*
X138548265Y-105947571D01*
X138542304Y-105923773D01*
X138538704Y-105899504D01*
X138537500Y-105875000D01*
X138537500Y-104625000D01*
X138538704Y-104600496D01*
X138542304Y-104576227D01*
X138548265Y-104552429D01*
X138556530Y-104529329D01*
X138567020Y-104507151D01*
X138579633Y-104486107D01*
X138594247Y-104466402D01*
X138610723Y-104448223D01*
X138628902Y-104431747D01*
X138648607Y-104417133D01*
X138669651Y-104404520D01*
X138691829Y-104394030D01*
X138714929Y-104385765D01*
X138738727Y-104379804D01*
X138762996Y-104376204D01*
X138787500Y-104375000D01*
X139712500Y-104375000D01*
X139737004Y-104376204D01*
X139737004Y-104376204D01*
G37*
D12*
X139250000Y-105250000D03*
D10*
X121750000Y-95500000D03*
X125750000Y-95500000D03*
D11*
G36*
X112349505Y-95551204D02*
G01*
X112373773Y-95554804D01*
X112397572Y-95560765D01*
X112420671Y-95569030D01*
X112442850Y-95579520D01*
X112463893Y-95592132D01*
X112483599Y-95606747D01*
X112501777Y-95623223D01*
X112518253Y-95641401D01*
X112532868Y-95661107D01*
X112545480Y-95682150D01*
X112555970Y-95704329D01*
X112564235Y-95727428D01*
X112570196Y-95751227D01*
X112573796Y-95775495D01*
X112575000Y-95799999D01*
X112575000Y-96700001D01*
X112573796Y-96724505D01*
X112570196Y-96748773D01*
X112564235Y-96772572D01*
X112555970Y-96795671D01*
X112545480Y-96817850D01*
X112532868Y-96838893D01*
X112518253Y-96858599D01*
X112501777Y-96876777D01*
X112483599Y-96893253D01*
X112463893Y-96907868D01*
X112442850Y-96920480D01*
X112420671Y-96930970D01*
X112397572Y-96939235D01*
X112373773Y-96945196D01*
X112349505Y-96948796D01*
X112325001Y-96950000D01*
X111674999Y-96950000D01*
X111650495Y-96948796D01*
X111626227Y-96945196D01*
X111602428Y-96939235D01*
X111579329Y-96930970D01*
X111557150Y-96920480D01*
X111536107Y-96907868D01*
X111516401Y-96893253D01*
X111498223Y-96876777D01*
X111481747Y-96858599D01*
X111467132Y-96838893D01*
X111454520Y-96817850D01*
X111444030Y-96795671D01*
X111435765Y-96772572D01*
X111429804Y-96748773D01*
X111426204Y-96724505D01*
X111425000Y-96700001D01*
X111425000Y-95799999D01*
X111426204Y-95775495D01*
X111429804Y-95751227D01*
X111435765Y-95727428D01*
X111444030Y-95704329D01*
X111454520Y-95682150D01*
X111467132Y-95661107D01*
X111481747Y-95641401D01*
X111498223Y-95623223D01*
X111516401Y-95606747D01*
X111536107Y-95592132D01*
X111557150Y-95579520D01*
X111579329Y-95569030D01*
X111602428Y-95560765D01*
X111626227Y-95554804D01*
X111650495Y-95551204D01*
X111674999Y-95550000D01*
X112325001Y-95550000D01*
X112349505Y-95551204D01*
X112349505Y-95551204D01*
G37*
D13*
X112000000Y-96250000D03*
D11*
G36*
X110299505Y-95551204D02*
G01*
X110323773Y-95554804D01*
X110347572Y-95560765D01*
X110370671Y-95569030D01*
X110392850Y-95579520D01*
X110413893Y-95592132D01*
X110433599Y-95606747D01*
X110451777Y-95623223D01*
X110468253Y-95641401D01*
X110482868Y-95661107D01*
X110495480Y-95682150D01*
X110505970Y-95704329D01*
X110514235Y-95727428D01*
X110520196Y-95751227D01*
X110523796Y-95775495D01*
X110525000Y-95799999D01*
X110525000Y-96700001D01*
X110523796Y-96724505D01*
X110520196Y-96748773D01*
X110514235Y-96772572D01*
X110505970Y-96795671D01*
X110495480Y-96817850D01*
X110482868Y-96838893D01*
X110468253Y-96858599D01*
X110451777Y-96876777D01*
X110433599Y-96893253D01*
X110413893Y-96907868D01*
X110392850Y-96920480D01*
X110370671Y-96930970D01*
X110347572Y-96939235D01*
X110323773Y-96945196D01*
X110299505Y-96948796D01*
X110275001Y-96950000D01*
X109624999Y-96950000D01*
X109600495Y-96948796D01*
X109576227Y-96945196D01*
X109552428Y-96939235D01*
X109529329Y-96930970D01*
X109507150Y-96920480D01*
X109486107Y-96907868D01*
X109466401Y-96893253D01*
X109448223Y-96876777D01*
X109431747Y-96858599D01*
X109417132Y-96838893D01*
X109404520Y-96817850D01*
X109394030Y-96795671D01*
X109385765Y-96772572D01*
X109379804Y-96748773D01*
X109376204Y-96724505D01*
X109375000Y-96700001D01*
X109375000Y-95799999D01*
X109376204Y-95775495D01*
X109379804Y-95751227D01*
X109385765Y-95727428D01*
X109394030Y-95704329D01*
X109404520Y-95682150D01*
X109417132Y-95661107D01*
X109431747Y-95641401D01*
X109448223Y-95623223D01*
X109466401Y-95606747D01*
X109486107Y-95592132D01*
X109507150Y-95579520D01*
X109529329Y-95569030D01*
X109552428Y-95560765D01*
X109576227Y-95554804D01*
X109600495Y-95551204D01*
X109624999Y-95550000D01*
X110275001Y-95550000D01*
X110299505Y-95551204D01*
X110299505Y-95551204D01*
G37*
D13*
X109950000Y-96250000D03*
D11*
G36*
X110324505Y-100551204D02*
G01*
X110348773Y-100554804D01*
X110372572Y-100560765D01*
X110395671Y-100569030D01*
X110417850Y-100579520D01*
X110438893Y-100592132D01*
X110458599Y-100606747D01*
X110476777Y-100623223D01*
X110493253Y-100641401D01*
X110507868Y-100661107D01*
X110520480Y-100682150D01*
X110530970Y-100704329D01*
X110539235Y-100727428D01*
X110545196Y-100751227D01*
X110548796Y-100775495D01*
X110550000Y-100799999D01*
X110550000Y-101700001D01*
X110548796Y-101724505D01*
X110545196Y-101748773D01*
X110539235Y-101772572D01*
X110530970Y-101795671D01*
X110520480Y-101817850D01*
X110507868Y-101838893D01*
X110493253Y-101858599D01*
X110476777Y-101876777D01*
X110458599Y-101893253D01*
X110438893Y-101907868D01*
X110417850Y-101920480D01*
X110395671Y-101930970D01*
X110372572Y-101939235D01*
X110348773Y-101945196D01*
X110324505Y-101948796D01*
X110300001Y-101950000D01*
X109649999Y-101950000D01*
X109625495Y-101948796D01*
X109601227Y-101945196D01*
X109577428Y-101939235D01*
X109554329Y-101930970D01*
X109532150Y-101920480D01*
X109511107Y-101907868D01*
X109491401Y-101893253D01*
X109473223Y-101876777D01*
X109456747Y-101858599D01*
X109442132Y-101838893D01*
X109429520Y-101817850D01*
X109419030Y-101795671D01*
X109410765Y-101772572D01*
X109404804Y-101748773D01*
X109401204Y-101724505D01*
X109400000Y-101700001D01*
X109400000Y-100799999D01*
X109401204Y-100775495D01*
X109404804Y-100751227D01*
X109410765Y-100727428D01*
X109419030Y-100704329D01*
X109429520Y-100682150D01*
X109442132Y-100661107D01*
X109456747Y-100641401D01*
X109473223Y-100623223D01*
X109491401Y-100606747D01*
X109511107Y-100592132D01*
X109532150Y-100579520D01*
X109554329Y-100569030D01*
X109577428Y-100560765D01*
X109601227Y-100554804D01*
X109625495Y-100551204D01*
X109649999Y-100550000D01*
X110300001Y-100550000D01*
X110324505Y-100551204D01*
X110324505Y-100551204D01*
G37*
D13*
X109975000Y-101250000D03*
D11*
G36*
X112374505Y-100551204D02*
G01*
X112398773Y-100554804D01*
X112422572Y-100560765D01*
X112445671Y-100569030D01*
X112467850Y-100579520D01*
X112488893Y-100592132D01*
X112508599Y-100606747D01*
X112526777Y-100623223D01*
X112543253Y-100641401D01*
X112557868Y-100661107D01*
X112570480Y-100682150D01*
X112580970Y-100704329D01*
X112589235Y-100727428D01*
X112595196Y-100751227D01*
X112598796Y-100775495D01*
X112600000Y-100799999D01*
X112600000Y-101700001D01*
X112598796Y-101724505D01*
X112595196Y-101748773D01*
X112589235Y-101772572D01*
X112580970Y-101795671D01*
X112570480Y-101817850D01*
X112557868Y-101838893D01*
X112543253Y-101858599D01*
X112526777Y-101876777D01*
X112508599Y-101893253D01*
X112488893Y-101907868D01*
X112467850Y-101920480D01*
X112445671Y-101930970D01*
X112422572Y-101939235D01*
X112398773Y-101945196D01*
X112374505Y-101948796D01*
X112350001Y-101950000D01*
X111699999Y-101950000D01*
X111675495Y-101948796D01*
X111651227Y-101945196D01*
X111627428Y-101939235D01*
X111604329Y-101930970D01*
X111582150Y-101920480D01*
X111561107Y-101907868D01*
X111541401Y-101893253D01*
X111523223Y-101876777D01*
X111506747Y-101858599D01*
X111492132Y-101838893D01*
X111479520Y-101817850D01*
X111469030Y-101795671D01*
X111460765Y-101772572D01*
X111454804Y-101748773D01*
X111451204Y-101724505D01*
X111450000Y-101700001D01*
X111450000Y-100799999D01*
X111451204Y-100775495D01*
X111454804Y-100751227D01*
X111460765Y-100727428D01*
X111469030Y-100704329D01*
X111479520Y-100682150D01*
X111492132Y-100661107D01*
X111506747Y-100641401D01*
X111523223Y-100623223D01*
X111541401Y-100606747D01*
X111561107Y-100592132D01*
X111582150Y-100579520D01*
X111604329Y-100569030D01*
X111627428Y-100560765D01*
X111651227Y-100554804D01*
X111675495Y-100551204D01*
X111699999Y-100550000D01*
X112350001Y-100550000D01*
X112374505Y-100551204D01*
X112374505Y-100551204D01*
G37*
D13*
X112025000Y-101250000D03*
D10*
X125750000Y-109500000D03*
X133750000Y-109500000D03*
X129750000Y-109500000D03*
D21*
X107500000Y-101500000D03*
X107500000Y-103500000D03*
X107500000Y-99000000D03*
X107500000Y-106000000D03*
X105400000Y-100250000D03*
X105400000Y-104750000D03*
D22*
X105400000Y-108350000D03*
X105400000Y-96650000D03*
D23*
X145000000Y-104000000D03*
X130250000Y-100250000D03*
X134500000Y-100250000D03*
X144000000Y-105000000D03*
X130749848Y-98525153D03*
X141000000Y-100824990D03*
X142250000Y-105000000D03*
X113000000Y-108500000D03*
X112000000Y-98500000D03*
X115250000Y-103500000D03*
X118750000Y-102750000D03*
X123225000Y-106750000D03*
X121000000Y-100750000D03*
X117000000Y-98736998D03*
X127500000Y-100000000D03*
X133750000Y-107000000D03*
X131500000Y-100999990D03*
X120250000Y-102750000D03*
X131800000Y-104750000D03*
X121098998Y-104746754D03*
X129000000Y-97800001D03*
X118541744Y-100791744D03*
X112000000Y-106250000D03*
X120250000Y-101500000D03*
X145000000Y-102000000D03*
X131824149Y-102774149D03*
X132750000Y-98250000D03*
X149750000Y-103500000D03*
X140750000Y-107500000D03*
X119000000Y-97250000D03*
X114250000Y-94500000D03*
X121019249Y-99519249D03*
X119750000Y-111250000D03*
X117250000Y-106025000D03*
X114500000Y-105000000D03*
X114250000Y-100186999D03*
X110750000Y-104750000D03*
X112025000Y-101250000D03*
X128467893Y-102221800D03*
X126500001Y-104144467D03*
X124000000Y-101000000D03*
X127988174Y-107013480D03*
X127225001Y-102668164D03*
X125049154Y-100799154D03*
X124000000Y-99750000D03*
X125250000Y-102750000D03*
X126500000Y-106750000D03*
X128463342Y-104981671D03*
X129750000Y-102699998D03*
X144000000Y-103000000D03*
X118750000Y-104750000D03*
X120121359Y-103878641D03*
X138750000Y-99750000D03*
X139250000Y-102750000D03*
X139250000Y-105250000D03*
D24*
X146900000Y-103300000D02*
X145700000Y-103300000D01*
X145700000Y-103300000D02*
X145000000Y-104000000D01*
X129000000Y-100325000D02*
X130175000Y-100325000D01*
X130175000Y-100325000D02*
X130250000Y-100250000D01*
X144434315Y-104000000D02*
X145000000Y-104000000D01*
X143926998Y-104000000D02*
X144434315Y-104000000D01*
X141476988Y-101549990D02*
X143926998Y-104000000D01*
X135799990Y-101549990D02*
X141476988Y-101549990D01*
X134500000Y-100250000D02*
X135799990Y-101549990D01*
X145100000Y-105000000D02*
X144000000Y-105000000D01*
X146000000Y-104100000D02*
X145100000Y-105000000D01*
X146900000Y-104100000D02*
X146000000Y-104100000D01*
X129000000Y-99675000D02*
X129600001Y-99675000D01*
X129600001Y-99675000D02*
X130749848Y-98525153D01*
X141000000Y-100411810D02*
X141000000Y-100824990D01*
X139313180Y-98724990D02*
X141000000Y-100411810D01*
X133750000Y-95500000D02*
X136974990Y-98724990D01*
X136974990Y-98724990D02*
X139313180Y-98724990D01*
X142250000Y-105000000D02*
X144000000Y-105000000D01*
X110025000Y-106325000D02*
X109950000Y-106250000D01*
X110025000Y-108500000D02*
X110025000Y-106325000D01*
X107750000Y-106250000D02*
X107500000Y-106000000D01*
X109950000Y-106250000D02*
X107750000Y-106250000D01*
X111376628Y-99123372D02*
X112000000Y-98500000D01*
X111124990Y-99375010D02*
X111376628Y-99123372D01*
X111124990Y-102624990D02*
X111124990Y-99375010D01*
X112000000Y-103500000D02*
X111124990Y-102624990D01*
X112000000Y-103500000D02*
X115250000Y-103500000D01*
X115932000Y-102818000D02*
X115250000Y-103500000D01*
X117038000Y-102818000D02*
X115932000Y-102818000D01*
X117038000Y-102818000D02*
X118682000Y-102818000D01*
X118682000Y-102818000D02*
X118750000Y-102750000D01*
X128475000Y-100975000D02*
X129000000Y-100975000D01*
X127500000Y-100000000D02*
X128475000Y-100975000D01*
X123550000Y-106750000D02*
X123225000Y-106750000D01*
X124825000Y-105475000D02*
X123550000Y-106750000D01*
X125300000Y-105475000D02*
X124825000Y-105475000D01*
X121000000Y-101651502D02*
X121000000Y-100750000D01*
X122462000Y-102182000D02*
X121530498Y-102182000D01*
X121530498Y-102182000D02*
X121000000Y-101651502D01*
X115250000Y-99921313D02*
X115250000Y-103500000D01*
X117000000Y-98736998D02*
X116434315Y-98736998D01*
X116434315Y-98736998D02*
X115250000Y-99921313D01*
X129025000Y-101000000D02*
X129000000Y-100975000D01*
X133750000Y-107000000D02*
X136250000Y-109500000D01*
X129000000Y-100975000D02*
X131475010Y-100975000D01*
X131475010Y-100975000D02*
X131500000Y-100999990D01*
X113000000Y-109475000D02*
X115525000Y-112000000D01*
X113000000Y-108500000D02*
X113000000Y-109475000D01*
X136250000Y-109500000D02*
X137750000Y-109500000D01*
X115525000Y-112000000D02*
X137000000Y-112000000D01*
X137750000Y-111250000D02*
X137750000Y-109500000D01*
X137000000Y-112000000D02*
X137750000Y-111250000D01*
X122462000Y-103452000D02*
X122462000Y-104088000D01*
X117127000Y-100823000D02*
X117038000Y-100912000D01*
X118510488Y-100823000D02*
X117127000Y-100823000D01*
X118910487Y-100423001D02*
X118541744Y-100791744D01*
X120858489Y-98474999D02*
X118910487Y-100423001D01*
X128874999Y-98474999D02*
X120858489Y-98474999D01*
X129000000Y-98600000D02*
X128874999Y-98474999D01*
X129000000Y-99025000D02*
X129000000Y-98600000D01*
X130175000Y-103525000D02*
X129700000Y-103525000D01*
X131800000Y-104675000D02*
X131800000Y-104750000D01*
X130650000Y-103525000D02*
X131800000Y-104675000D01*
X129700000Y-103525000D02*
X130650000Y-103525000D01*
X135775000Y-104750000D02*
X136275000Y-105250000D01*
X131800000Y-104750000D02*
X135775000Y-104750000D01*
X136275000Y-102750000D02*
X136275000Y-105250000D01*
X121098998Y-104438002D02*
X121098998Y-104746754D01*
X122462000Y-104088000D02*
X121449000Y-104088000D01*
X121449000Y-104088000D02*
X121098998Y-104438002D01*
X129000000Y-99025000D02*
X129000000Y-97800001D01*
X121098998Y-103598998D02*
X120250000Y-102750000D01*
X121098998Y-104746754D02*
X121098998Y-103598998D01*
X118541744Y-100791744D02*
X118510488Y-100823000D01*
X131050001Y-97800001D02*
X129000000Y-97800001D01*
X132250000Y-99000000D02*
X131050001Y-97800001D01*
X130047992Y-103525000D02*
X132250000Y-101322992D01*
X129700000Y-103525000D02*
X130047992Y-103525000D01*
X132250000Y-101250000D02*
X132250000Y-99000000D01*
X122999999Y-96749999D02*
X121750000Y-95500000D01*
X123325001Y-97075001D02*
X122999999Y-96749999D01*
X133350001Y-97075001D02*
X123325001Y-97075001D01*
X136025000Y-99750000D02*
X133350001Y-97075001D01*
X136700000Y-99750000D02*
X136025000Y-99750000D01*
X120250000Y-101619000D02*
X120250000Y-101500000D01*
X121449000Y-102818000D02*
X120250000Y-101619000D01*
X122462000Y-102818000D02*
X121449000Y-102818000D01*
X109950000Y-96250000D02*
X109950000Y-98500000D01*
X107500000Y-100950000D02*
X107500000Y-101500000D01*
X109950000Y-98500000D02*
X107500000Y-100950000D01*
X109975000Y-103475000D02*
X109950000Y-103500000D01*
X109975000Y-101250000D02*
X109975000Y-103475000D01*
X109950000Y-103500000D02*
X107500000Y-103500000D01*
X146900000Y-101700000D02*
X145300000Y-101700000D01*
X145300000Y-101700000D02*
X145000000Y-102000000D01*
X131824149Y-102774149D02*
X132750000Y-101848298D01*
X132750000Y-101848298D02*
X132750000Y-98250000D01*
X144250000Y-102000000D02*
X145000000Y-102000000D01*
X137750000Y-95500000D02*
X144250000Y-102000000D01*
X149750000Y-102350000D02*
X149750000Y-103500000D01*
X148300000Y-100900000D02*
X149750000Y-102350000D01*
X146900000Y-100900000D02*
X148300000Y-100900000D01*
X118051000Y-101548000D02*
X117038000Y-101548000D01*
X118990498Y-101548000D02*
X118051000Y-101548000D01*
X121513498Y-99025000D02*
X121019249Y-99519249D01*
X126000000Y-99025000D02*
X121513498Y-99025000D01*
X121019249Y-99519249D02*
X118990498Y-101548000D01*
X124000000Y-111250000D02*
X125750000Y-109500000D01*
X119750000Y-111250000D02*
X124000000Y-111250000D01*
X117038000Y-105358000D02*
X117038000Y-105813000D01*
X117038000Y-105813000D02*
X117250000Y-106025000D01*
X114250000Y-98500000D02*
X112000000Y-96250000D01*
X114250000Y-100186999D02*
X114250000Y-98500000D01*
X116250000Y-106750000D02*
X114500000Y-105000000D01*
X116974989Y-107474989D02*
X116250000Y-106750000D01*
X120812511Y-107474989D02*
X116974989Y-107474989D01*
X122462000Y-105358000D02*
X122462000Y-105825500D01*
X122462000Y-105825500D02*
X120812511Y-107474989D01*
X123550001Y-104797001D02*
X123475000Y-104722000D01*
X110750000Y-104750000D02*
X111224990Y-105224990D01*
X123385502Y-106000000D02*
X123550001Y-105835501D01*
X112563180Y-105224990D02*
X115263189Y-107924999D01*
X123475000Y-104722000D02*
X122462000Y-104722000D01*
X115263189Y-107924999D02*
X120998911Y-107924999D01*
X111224990Y-105224990D02*
X112563180Y-105224990D01*
X120998911Y-107924999D02*
X122912009Y-106011901D01*
X123550001Y-105835501D02*
X123550001Y-104797001D01*
X122912010Y-106000000D02*
X123385502Y-106000000D01*
X122912009Y-106011901D02*
X122912010Y-106000000D01*
X127573002Y-103393165D02*
X128467893Y-102498274D01*
X126877000Y-103393165D02*
X127573002Y-103393165D01*
X123475000Y-101548000D02*
X123927000Y-102000000D01*
X128467893Y-102498274D02*
X128467893Y-102221800D01*
X123927000Y-102000000D02*
X126179838Y-102000000D01*
X122462000Y-101548000D02*
X123475000Y-101548000D01*
X126179838Y-102000000D02*
X126500000Y-102320163D01*
X126500000Y-102320163D02*
X126500000Y-103016165D01*
X126500000Y-103016165D02*
X126877000Y-103393165D01*
X126000000Y-100325000D02*
X126000000Y-99675000D01*
X122462000Y-100912000D02*
X123475000Y-100912000D01*
X129225000Y-105475000D02*
X129700000Y-105475000D01*
X128750000Y-105950000D02*
X129225000Y-105475000D01*
X128358669Y-105950000D02*
X128750000Y-105950000D01*
X126583669Y-104175000D02*
X128358669Y-105950000D01*
X125300000Y-104175000D02*
X126583669Y-104175000D01*
X133750000Y-109050000D02*
X133750000Y-109500000D01*
X130175000Y-105475000D02*
X133750000Y-109050000D01*
X129700000Y-105475000D02*
X130175000Y-105475000D01*
X125148002Y-99675000D02*
X126000000Y-99675000D01*
X122462000Y-100912000D02*
X123911002Y-100912000D01*
X123911002Y-100912000D02*
X124536501Y-100286501D01*
X124536501Y-100286501D02*
X125148002Y-99675000D01*
X124324153Y-100498849D02*
X124536501Y-100286501D01*
X125300000Y-104175000D02*
X126469468Y-104175000D01*
X126469468Y-104175000D02*
X126500001Y-104144467D01*
X122462000Y-100912000D02*
X123912000Y-100912000D01*
X123912000Y-100912000D02*
X124000000Y-101000000D01*
X126000000Y-100975000D02*
X125890002Y-100975000D01*
X127988174Y-107738174D02*
X129750000Y-109500000D01*
X127988174Y-107013480D02*
X127988174Y-107738174D01*
X127225001Y-102200001D02*
X126000000Y-100975000D01*
X127225001Y-102668164D02*
X127225001Y-102200001D01*
X125225000Y-100975000D02*
X126000000Y-100975000D01*
X125049154Y-100799154D02*
X125225000Y-100975000D01*
X122462000Y-99642000D02*
X123892000Y-99642000D01*
X123892000Y-99642000D02*
X124000000Y-99750000D01*
X125300000Y-103525000D02*
X125300000Y-102800000D01*
X125300000Y-102800000D02*
X125250000Y-102750000D01*
X126500000Y-105075000D02*
X126500000Y-106750000D01*
X125300000Y-104825000D02*
X126250000Y-104825000D01*
X126250000Y-104825000D02*
X126500000Y-105075000D01*
X129700000Y-104825000D02*
X128620013Y-104825000D01*
X128620013Y-104825000D02*
X128463342Y-104981671D01*
X128750000Y-104175000D02*
X128500000Y-103925000D01*
X129700000Y-104175000D02*
X128750000Y-104175000D01*
X129015000Y-102699998D02*
X129750000Y-102699998D01*
X128500000Y-103925000D02*
X128500000Y-103214998D01*
X128500000Y-103214998D02*
X129015000Y-102699998D01*
X145073002Y-103000000D02*
X144000000Y-103000000D01*
X145573002Y-102500000D02*
X145073002Y-103000000D01*
X146900000Y-102500000D02*
X145573002Y-102500000D01*
X118750000Y-104750000D02*
X119250000Y-104750000D01*
X119250000Y-104750000D02*
X120121359Y-103878641D01*
D25*
G36*
X148402337Y-93394002D02*
G01*
X148212463Y-93678169D01*
X148081675Y-93993919D01*
X148015000Y-94329117D01*
X148015000Y-94670883D01*
X148081675Y-95006081D01*
X148212463Y-95321831D01*
X148402337Y-95605998D01*
X148644002Y-95847663D01*
X148928169Y-96037537D01*
X149243919Y-96168325D01*
X149579117Y-96235000D01*
X149920883Y-96235000D01*
X150256081Y-96168325D01*
X150571831Y-96037537D01*
X150855998Y-95847663D01*
X151097663Y-95605998D01*
X151287537Y-95321831D01*
X151418325Y-95006081D01*
X151485000Y-94670883D01*
X151485000Y-94329117D01*
X151418325Y-93993919D01*
X151287537Y-93678169D01*
X151097663Y-93394002D01*
X150863661Y-93160000D01*
X154340000Y-93160000D01*
X154340000Y-96807462D01*
X154339502Y-96805820D01*
X154280537Y-96695506D01*
X154201185Y-96598815D01*
X154104494Y-96519463D01*
X153994180Y-96460498D01*
X153874482Y-96424188D01*
X153750000Y-96411928D01*
X152785750Y-96415000D01*
X152627000Y-96573750D01*
X152627000Y-97923000D01*
X152647000Y-97923000D01*
X152647000Y-98177000D01*
X152627000Y-98177000D01*
X152627000Y-99526250D01*
X152785750Y-99685000D01*
X153750000Y-99688072D01*
X153874482Y-99675812D01*
X153994180Y-99639502D01*
X154104494Y-99580537D01*
X154201185Y-99501185D01*
X154280537Y-99404494D01*
X154339502Y-99294180D01*
X154340000Y-99292537D01*
X154340001Y-105707464D01*
X154339502Y-105705820D01*
X154280537Y-105595506D01*
X154201185Y-105498815D01*
X154104494Y-105419463D01*
X153994180Y-105360498D01*
X153874482Y-105324188D01*
X153750000Y-105311928D01*
X152785750Y-105315000D01*
X152627000Y-105473750D01*
X152627000Y-106823000D01*
X152647000Y-106823000D01*
X152647000Y-107077000D01*
X152627000Y-107077000D01*
X152627000Y-108426250D01*
X152785750Y-108585000D01*
X153750000Y-108588072D01*
X153874482Y-108575812D01*
X153994180Y-108539502D01*
X154104494Y-108480537D01*
X154201185Y-108401185D01*
X154280537Y-108304494D01*
X154339502Y-108194180D01*
X154340001Y-108192536D01*
X154340001Y-111840000D01*
X150863661Y-111840000D01*
X151097663Y-111605998D01*
X151287537Y-111321831D01*
X151418325Y-111006081D01*
X151485000Y-110670883D01*
X151485000Y-110329117D01*
X151418325Y-109993919D01*
X151287537Y-109678169D01*
X151097663Y-109394002D01*
X150855998Y-109152337D01*
X150571831Y-108962463D01*
X150256081Y-108831675D01*
X149920883Y-108765000D01*
X149579117Y-108765000D01*
X149243919Y-108831675D01*
X148928169Y-108962463D01*
X148644002Y-109152337D01*
X148402337Y-109394002D01*
X148212463Y-109678169D01*
X148081675Y-109993919D01*
X148015000Y-110329117D01*
X148015000Y-110670883D01*
X148081675Y-111006081D01*
X148212463Y-111321831D01*
X148402337Y-111605998D01*
X148636339Y-111840000D01*
X138234802Y-111840000D01*
X138261004Y-111813798D01*
X138290001Y-111790001D01*
X138384974Y-111674276D01*
X138455546Y-111542247D01*
X138499003Y-111398986D01*
X138500078Y-111388072D01*
X139000000Y-111388072D01*
X139124482Y-111375812D01*
X139244180Y-111339502D01*
X139354494Y-111280537D01*
X139451185Y-111201185D01*
X139530537Y-111104494D01*
X139589502Y-110994180D01*
X139625812Y-110874482D01*
X139638072Y-110750000D01*
X139638072Y-108250000D01*
X139625812Y-108125518D01*
X139589502Y-108005820D01*
X139559666Y-107950000D01*
X145111928Y-107950000D01*
X145124188Y-108074482D01*
X145160498Y-108194180D01*
X145219463Y-108304494D01*
X145298815Y-108401185D01*
X145395506Y-108480537D01*
X145505820Y-108539502D01*
X145625518Y-108575812D01*
X145750000Y-108588072D01*
X146714250Y-108585000D01*
X146873000Y-108426250D01*
X146873000Y-107077000D01*
X147127000Y-107077000D01*
X147127000Y-108426250D01*
X147285750Y-108585000D01*
X148250000Y-108588072D01*
X148374482Y-108575812D01*
X148494180Y-108539502D01*
X148604494Y-108480537D01*
X148701185Y-108401185D01*
X148780537Y-108304494D01*
X148839502Y-108194180D01*
X148875812Y-108074482D01*
X148888072Y-107950000D01*
X150611928Y-107950000D01*
X150624188Y-108074482D01*
X150660498Y-108194180D01*
X150719463Y-108304494D01*
X150798815Y-108401185D01*
X150895506Y-108480537D01*
X151005820Y-108539502D01*
X151125518Y-108575812D01*
X151250000Y-108588072D01*
X152214250Y-108585000D01*
X152373000Y-108426250D01*
X152373000Y-107077000D01*
X150773750Y-107077000D01*
X150615000Y-107235750D01*
X150611928Y-107950000D01*
X148888072Y-107950000D01*
X148885000Y-107235750D01*
X148726250Y-107077000D01*
X147127000Y-107077000D01*
X146873000Y-107077000D01*
X145273750Y-107077000D01*
X145115000Y-107235750D01*
X145111928Y-107950000D01*
X139559666Y-107950000D01*
X139530537Y-107895506D01*
X139451185Y-107798815D01*
X139354494Y-107719463D01*
X139244180Y-107660498D01*
X139124482Y-107624188D01*
X139000000Y-107611928D01*
X136500000Y-107611928D01*
X136375518Y-107624188D01*
X136255820Y-107660498D01*
X136145506Y-107719463D01*
X136048815Y-107798815D01*
X135969463Y-107895506D01*
X135910498Y-108005820D01*
X135891907Y-108067106D01*
X134785000Y-106960199D01*
X134785000Y-106898061D01*
X134745226Y-106698102D01*
X134667205Y-106509744D01*
X134553937Y-106340226D01*
X134409774Y-106196063D01*
X134240256Y-106082795D01*
X134051898Y-106004774D01*
X133851939Y-105965000D01*
X133648061Y-105965000D01*
X133448102Y-106004774D01*
X133259744Y-106082795D01*
X133090226Y-106196063D01*
X132946063Y-106340226D01*
X132832795Y-106509744D01*
X132754774Y-106698102D01*
X132715000Y-106898061D01*
X132715000Y-106940198D01*
X131525472Y-105750670D01*
X131698061Y-105785000D01*
X131901939Y-105785000D01*
X132101898Y-105745226D01*
X132290256Y-105667205D01*
X132459774Y-105553937D01*
X132503711Y-105510000D01*
X134924428Y-105510000D01*
X134924428Y-105875000D01*
X134941492Y-106048254D01*
X134992028Y-106214850D01*
X135074095Y-106368386D01*
X135184538Y-106502962D01*
X135319114Y-106613405D01*
X135472650Y-106695472D01*
X135639246Y-106746008D01*
X135812500Y-106763072D01*
X136737500Y-106763072D01*
X136910754Y-106746008D01*
X137077350Y-106695472D01*
X137230886Y-106613405D01*
X137365462Y-106502962D01*
X137475905Y-106368386D01*
X137557972Y-106214850D01*
X137608508Y-106048254D01*
X137625572Y-105875000D01*
X137625572Y-104625000D01*
X137608508Y-104451746D01*
X137557972Y-104285150D01*
X137475905Y-104131614D01*
X137367893Y-104000000D01*
X137475905Y-103868386D01*
X137557972Y-103714850D01*
X137608508Y-103548254D01*
X137625572Y-103375000D01*
X137625572Y-102309990D01*
X137899428Y-102309990D01*
X137899428Y-103375000D01*
X137916492Y-103548254D01*
X137967028Y-103714850D01*
X138049095Y-103868386D01*
X138157107Y-104000000D01*
X138049095Y-104131614D01*
X137967028Y-104285150D01*
X137916492Y-104451746D01*
X137899428Y-104625000D01*
X137899428Y-105875000D01*
X137916492Y-106048254D01*
X137967028Y-106214850D01*
X138049095Y-106368386D01*
X138159538Y-106502962D01*
X138294114Y-106613405D01*
X138447650Y-106695472D01*
X138614246Y-106746008D01*
X138787500Y-106763072D01*
X139712500Y-106763072D01*
X139885754Y-106746008D01*
X140052350Y-106695472D01*
X140205886Y-106613405D01*
X140340462Y-106502962D01*
X140450905Y-106368386D01*
X140532972Y-106214850D01*
X140583508Y-106048254D01*
X140600572Y-105875000D01*
X140600572Y-104625000D01*
X140583508Y-104451746D01*
X140532972Y-104285150D01*
X140450905Y-104131614D01*
X140342893Y-104000000D01*
X140450905Y-103868386D01*
X140532972Y-103714850D01*
X140583508Y-103548254D01*
X140600572Y-103375000D01*
X140600572Y-102309990D01*
X141162187Y-102309990D01*
X143092196Y-104240000D01*
X142953711Y-104240000D01*
X142909774Y-104196063D01*
X142740256Y-104082795D01*
X142551898Y-104004774D01*
X142351939Y-103965000D01*
X142148061Y-103965000D01*
X141948102Y-104004774D01*
X141759744Y-104082795D01*
X141590226Y-104196063D01*
X141446063Y-104340226D01*
X141332795Y-104509744D01*
X141254774Y-104698102D01*
X141215000Y-104898061D01*
X141215000Y-105101939D01*
X141254774Y-105301898D01*
X141332795Y-105490256D01*
X141446063Y-105659774D01*
X141590226Y-105803937D01*
X141759744Y-105917205D01*
X141948102Y-105995226D01*
X142148061Y-106035000D01*
X142351939Y-106035000D01*
X142551898Y-105995226D01*
X142740256Y-105917205D01*
X142909774Y-105803937D01*
X142953711Y-105760000D01*
X143296289Y-105760000D01*
X143340226Y-105803937D01*
X143509744Y-105917205D01*
X143698102Y-105995226D01*
X143898061Y-106035000D01*
X144101939Y-106035000D01*
X144301898Y-105995226D01*
X144490256Y-105917205D01*
X144659774Y-105803937D01*
X144703711Y-105760000D01*
X145062678Y-105760000D01*
X145100000Y-105763676D01*
X145137322Y-105760000D01*
X145137333Y-105760000D01*
X145144270Y-105759317D01*
X145124188Y-105825518D01*
X145111928Y-105950000D01*
X145115000Y-106664250D01*
X145273750Y-106823000D01*
X146873000Y-106823000D01*
X146873000Y-105473750D01*
X147127000Y-105473750D01*
X147127000Y-106823000D01*
X148726250Y-106823000D01*
X148885000Y-106664250D01*
X148888072Y-105950000D01*
X150611928Y-105950000D01*
X150615000Y-106664250D01*
X150773750Y-106823000D01*
X152373000Y-106823000D01*
X152373000Y-105473750D01*
X152214250Y-105315000D01*
X151250000Y-105311928D01*
X151125518Y-105324188D01*
X151005820Y-105360498D01*
X150895506Y-105419463D01*
X150798815Y-105498815D01*
X150719463Y-105595506D01*
X150660498Y-105705820D01*
X150624188Y-105825518D01*
X150611928Y-105950000D01*
X148888072Y-105950000D01*
X148875812Y-105825518D01*
X148839502Y-105705820D01*
X148780537Y-105595506D01*
X148701185Y-105498815D01*
X148604494Y-105419463D01*
X148494180Y-105360498D01*
X148374482Y-105324188D01*
X148250000Y-105311928D01*
X147285750Y-105315000D01*
X147127000Y-105473750D01*
X146873000Y-105473750D01*
X146714250Y-105315000D01*
X145862515Y-105312286D01*
X146186730Y-104988072D01*
X148050000Y-104988072D01*
X148174482Y-104975812D01*
X148294180Y-104939502D01*
X148404494Y-104880537D01*
X148501185Y-104801185D01*
X148580537Y-104704494D01*
X148639502Y-104594180D01*
X148675812Y-104474482D01*
X148688072Y-104350000D01*
X148688072Y-103850000D01*
X148675812Y-103725518D01*
X148668071Y-103700000D01*
X148675812Y-103674482D01*
X148688072Y-103550000D01*
X148688072Y-103050000D01*
X148675812Y-102925518D01*
X148668071Y-102900000D01*
X148675812Y-102874482D01*
X148688072Y-102750000D01*
X148688072Y-102362874D01*
X148990000Y-102664802D01*
X148990000Y-102796289D01*
X148946063Y-102840226D01*
X148832795Y-103009744D01*
X148754774Y-103198102D01*
X148715000Y-103398061D01*
X148715000Y-103601939D01*
X148754774Y-103801898D01*
X148832795Y-103990256D01*
X148946063Y-104159774D01*
X149090226Y-104303937D01*
X149259744Y-104417205D01*
X149448102Y-104495226D01*
X149648061Y-104535000D01*
X149851939Y-104535000D01*
X150051898Y-104495226D01*
X150240256Y-104417205D01*
X150409774Y-104303937D01*
X150553937Y-104159774D01*
X150667205Y-103990256D01*
X150745226Y-103801898D01*
X150785000Y-103601939D01*
X150785000Y-103398061D01*
X150745226Y-103198102D01*
X150667205Y-103009744D01*
X150553937Y-102840226D01*
X150510000Y-102796289D01*
X150510000Y-102387325D01*
X150513676Y-102350000D01*
X150510000Y-102312675D01*
X150510000Y-102312667D01*
X150499003Y-102201014D01*
X150455546Y-102057753D01*
X150384974Y-101925724D01*
X150290001Y-101809999D01*
X150261004Y-101786202D01*
X148863804Y-100389003D01*
X148840001Y-100359999D01*
X148724276Y-100265026D01*
X148592247Y-100194454D01*
X148448986Y-100150997D01*
X148442091Y-100150318D01*
X148404494Y-100119463D01*
X148294180Y-100060498D01*
X148174482Y-100024188D01*
X148050000Y-100011928D01*
X145750000Y-100011928D01*
X145625518Y-100024188D01*
X145505820Y-100060498D01*
X145395506Y-100119463D01*
X145298815Y-100198815D01*
X145219463Y-100295506D01*
X145160498Y-100405820D01*
X145124188Y-100525518D01*
X145111928Y-100650000D01*
X145111928Y-100962853D01*
X145103698Y-100965350D01*
X145101939Y-100965000D01*
X144898061Y-100965000D01*
X144698102Y-101004774D01*
X144509744Y-101082795D01*
X144448511Y-101123709D01*
X142374802Y-99050000D01*
X145111928Y-99050000D01*
X145124188Y-99174482D01*
X145160498Y-99294180D01*
X145219463Y-99404494D01*
X145298815Y-99501185D01*
X145395506Y-99580537D01*
X145505820Y-99639502D01*
X145625518Y-99675812D01*
X145750000Y-99688072D01*
X146714250Y-99685000D01*
X146873000Y-99526250D01*
X146873000Y-98177000D01*
X147127000Y-98177000D01*
X147127000Y-99526250D01*
X147285750Y-99685000D01*
X148250000Y-99688072D01*
X148374482Y-99675812D01*
X148494180Y-99639502D01*
X148604494Y-99580537D01*
X148701185Y-99501185D01*
X148780537Y-99404494D01*
X148839502Y-99294180D01*
X148875812Y-99174482D01*
X148888072Y-99050000D01*
X150611928Y-99050000D01*
X150624188Y-99174482D01*
X150660498Y-99294180D01*
X150719463Y-99404494D01*
X150798815Y-99501185D01*
X150895506Y-99580537D01*
X151005820Y-99639502D01*
X151125518Y-99675812D01*
X151250000Y-99688072D01*
X152214250Y-99685000D01*
X152373000Y-99526250D01*
X152373000Y-98177000D01*
X150773750Y-98177000D01*
X150615000Y-98335750D01*
X150611928Y-99050000D01*
X148888072Y-99050000D01*
X148885000Y-98335750D01*
X148726250Y-98177000D01*
X147127000Y-98177000D01*
X146873000Y-98177000D01*
X145273750Y-98177000D01*
X145115000Y-98335750D01*
X145111928Y-99050000D01*
X142374802Y-99050000D01*
X140374802Y-97050000D01*
X145111928Y-97050000D01*
X145115000Y-97764250D01*
X145273750Y-97923000D01*
X146873000Y-97923000D01*
X146873000Y-96573750D01*
X147127000Y-96573750D01*
X147127000Y-97923000D01*
X148726250Y-97923000D01*
X148885000Y-97764250D01*
X148888072Y-97050000D01*
X150611928Y-97050000D01*
X150615000Y-97764250D01*
X150773750Y-97923000D01*
X152373000Y-97923000D01*
X152373000Y-96573750D01*
X152214250Y-96415000D01*
X151250000Y-96411928D01*
X151125518Y-96424188D01*
X151005820Y-96460498D01*
X150895506Y-96519463D01*
X150798815Y-96598815D01*
X150719463Y-96695506D01*
X150660498Y-96805820D01*
X150624188Y-96925518D01*
X150611928Y-97050000D01*
X148888072Y-97050000D01*
X148875812Y-96925518D01*
X148839502Y-96805820D01*
X148780537Y-96695506D01*
X148701185Y-96598815D01*
X148604494Y-96519463D01*
X148494180Y-96460498D01*
X148374482Y-96424188D01*
X148250000Y-96411928D01*
X147285750Y-96415000D01*
X147127000Y-96573750D01*
X146873000Y-96573750D01*
X146714250Y-96415000D01*
X145750000Y-96411928D01*
X145625518Y-96424188D01*
X145505820Y-96460498D01*
X145395506Y-96519463D01*
X145298815Y-96598815D01*
X145219463Y-96695506D01*
X145160498Y-96805820D01*
X145124188Y-96925518D01*
X145111928Y-97050000D01*
X140374802Y-97050000D01*
X139507519Y-96182718D01*
X139562561Y-96049834D01*
X139635000Y-95685656D01*
X139635000Y-95314344D01*
X139562561Y-94950166D01*
X139420466Y-94607118D01*
X139214175Y-94298382D01*
X138951618Y-94035825D01*
X138642882Y-93829534D01*
X138299834Y-93687439D01*
X137935656Y-93615000D01*
X137564344Y-93615000D01*
X137200166Y-93687439D01*
X136857118Y-93829534D01*
X136548382Y-94035825D01*
X136285825Y-94298382D01*
X136079534Y-94607118D01*
X135937439Y-94950166D01*
X135865000Y-95314344D01*
X135865000Y-95685656D01*
X135937439Y-96049834D01*
X136079534Y-96392882D01*
X136285825Y-96701618D01*
X136548382Y-96964175D01*
X136857118Y-97170466D01*
X137200166Y-97312561D01*
X137564344Y-97385000D01*
X137935656Y-97385000D01*
X138299834Y-97312561D01*
X138432718Y-97257519D01*
X139140189Y-97964990D01*
X137289792Y-97964990D01*
X135507519Y-96182718D01*
X135562561Y-96049834D01*
X135635000Y-95685656D01*
X135635000Y-95314344D01*
X135562561Y-94950166D01*
X135420466Y-94607118D01*
X135214175Y-94298382D01*
X134951618Y-94035825D01*
X134642882Y-93829534D01*
X134299834Y-93687439D01*
X133935656Y-93615000D01*
X133564344Y-93615000D01*
X133200166Y-93687439D01*
X132857118Y-93829534D01*
X132548382Y-94035825D01*
X132285825Y-94298382D01*
X132079534Y-94607118D01*
X131937439Y-94950166D01*
X131865000Y-95314344D01*
X131865000Y-95685656D01*
X131937439Y-96049834D01*
X132047275Y-96315001D01*
X131452725Y-96315001D01*
X131562561Y-96049834D01*
X131635000Y-95685656D01*
X131635000Y-95314344D01*
X131562561Y-94950166D01*
X131420466Y-94607118D01*
X131214175Y-94298382D01*
X130951618Y-94035825D01*
X130642882Y-93829534D01*
X130299834Y-93687439D01*
X129935656Y-93615000D01*
X129564344Y-93615000D01*
X129200166Y-93687439D01*
X128857118Y-93829534D01*
X128548382Y-94035825D01*
X128285825Y-94298382D01*
X128079534Y-94607118D01*
X127937439Y-94950166D01*
X127865000Y-95314344D01*
X127865000Y-95685656D01*
X127937439Y-96049834D01*
X128047275Y-96315001D01*
X127452725Y-96315001D01*
X127562561Y-96049834D01*
X127635000Y-95685656D01*
X127635000Y-95314344D01*
X127562561Y-94950166D01*
X127420466Y-94607118D01*
X127214175Y-94298382D01*
X126951618Y-94035825D01*
X126642882Y-93829534D01*
X126299834Y-93687439D01*
X125935656Y-93615000D01*
X125564344Y-93615000D01*
X125200166Y-93687439D01*
X124857118Y-93829534D01*
X124548382Y-94035825D01*
X124285825Y-94298382D01*
X124079534Y-94607118D01*
X123937439Y-94950166D01*
X123865000Y-95314344D01*
X123865000Y-95685656D01*
X123937439Y-96049834D01*
X124047275Y-96315001D01*
X123639802Y-96315001D01*
X123563803Y-96239002D01*
X123563798Y-96238996D01*
X123507519Y-96182717D01*
X123562561Y-96049834D01*
X123635000Y-95685656D01*
X123635000Y-95314344D01*
X123562561Y-94950166D01*
X123420466Y-94607118D01*
X123214175Y-94298382D01*
X122951618Y-94035825D01*
X122642882Y-93829534D01*
X122299834Y-93687439D01*
X121935656Y-93615000D01*
X121564344Y-93615000D01*
X121200166Y-93687439D01*
X120857118Y-93829534D01*
X120548382Y-94035825D01*
X120285825Y-94298382D01*
X120079534Y-94607118D01*
X119937439Y-94950166D01*
X119865000Y-95314344D01*
X119865000Y-95685656D01*
X119937439Y-96049834D01*
X120079534Y-96392882D01*
X120285825Y-96701618D01*
X120548382Y-96964175D01*
X120857118Y-97170466D01*
X121200166Y-97312561D01*
X121564344Y-97385000D01*
X121935656Y-97385000D01*
X122299834Y-97312561D01*
X122432717Y-97257519D01*
X122488996Y-97313798D01*
X122489002Y-97313803D01*
X122761197Y-97585998D01*
X122785000Y-97615002D01*
X122900725Y-97709975D01*
X122910124Y-97714999D01*
X120895812Y-97714999D01*
X120858489Y-97711323D01*
X120821166Y-97714999D01*
X120821156Y-97714999D01*
X120709503Y-97725996D01*
X120566242Y-97769453D01*
X120434213Y-97840025D01*
X120318488Y-97934998D01*
X120294690Y-97963996D01*
X118501943Y-99756744D01*
X118439805Y-99756744D01*
X118439072Y-99756890D01*
X118439072Y-99424500D01*
X118426812Y-99300018D01*
X118390502Y-99180320D01*
X118331537Y-99070006D01*
X118252185Y-98973315D01*
X118155494Y-98893963D01*
X118045180Y-98834998D01*
X118035000Y-98831910D01*
X118035000Y-98635059D01*
X117995226Y-98435100D01*
X117917205Y-98246742D01*
X117803937Y-98077224D01*
X117659774Y-97933061D01*
X117490256Y-97819793D01*
X117301898Y-97741772D01*
X117101939Y-97701998D01*
X116898061Y-97701998D01*
X116698102Y-97741772D01*
X116509744Y-97819793D01*
X116340226Y-97933061D01*
X116285276Y-97988011D01*
X116142068Y-98031452D01*
X116010039Y-98102024D01*
X115894314Y-98196997D01*
X115870516Y-98225995D01*
X115010000Y-99086512D01*
X115010000Y-98537333D01*
X115013677Y-98500000D01*
X115008236Y-98444752D01*
X114999003Y-98351014D01*
X114955546Y-98207753D01*
X114884974Y-98075724D01*
X114790001Y-97959999D01*
X114761003Y-97936201D01*
X113213072Y-96388271D01*
X113213072Y-95799999D01*
X113196008Y-95626745D01*
X113145472Y-95460149D01*
X113063405Y-95306613D01*
X112952962Y-95172038D01*
X112818387Y-95061595D01*
X112664851Y-94979528D01*
X112498255Y-94928992D01*
X112325001Y-94911928D01*
X111674999Y-94911928D01*
X111501745Y-94928992D01*
X111335149Y-94979528D01*
X111181613Y-95061595D01*
X111047038Y-95172038D01*
X110975000Y-95259816D01*
X110902962Y-95172038D01*
X110768387Y-95061595D01*
X110614851Y-94979528D01*
X110448255Y-94928992D01*
X110275001Y-94911928D01*
X109624999Y-94911928D01*
X109466934Y-94927496D01*
X109537537Y-94821831D01*
X109668325Y-94506081D01*
X109735000Y-94170883D01*
X109735000Y-93829117D01*
X109668325Y-93493919D01*
X109537537Y-93178169D01*
X109525397Y-93160000D01*
X148636339Y-93160000D01*
X148402337Y-93394002D01*
X148402337Y-93394002D01*
G37*
X148402337Y-93394002D02*
X148212463Y-93678169D01*
X148081675Y-93993919D01*
X148015000Y-94329117D01*
X148015000Y-94670883D01*
X148081675Y-95006081D01*
X148212463Y-95321831D01*
X148402337Y-95605998D01*
X148644002Y-95847663D01*
X148928169Y-96037537D01*
X149243919Y-96168325D01*
X149579117Y-96235000D01*
X149920883Y-96235000D01*
X150256081Y-96168325D01*
X150571831Y-96037537D01*
X150855998Y-95847663D01*
X151097663Y-95605998D01*
X151287537Y-95321831D01*
X151418325Y-95006081D01*
X151485000Y-94670883D01*
X151485000Y-94329117D01*
X151418325Y-93993919D01*
X151287537Y-93678169D01*
X151097663Y-93394002D01*
X150863661Y-93160000D01*
X154340000Y-93160000D01*
X154340000Y-96807462D01*
X154339502Y-96805820D01*
X154280537Y-96695506D01*
X154201185Y-96598815D01*
X154104494Y-96519463D01*
X153994180Y-96460498D01*
X153874482Y-96424188D01*
X153750000Y-96411928D01*
X152785750Y-96415000D01*
X152627000Y-96573750D01*
X152627000Y-97923000D01*
X152647000Y-97923000D01*
X152647000Y-98177000D01*
X152627000Y-98177000D01*
X152627000Y-99526250D01*
X152785750Y-99685000D01*
X153750000Y-99688072D01*
X153874482Y-99675812D01*
X153994180Y-99639502D01*
X154104494Y-99580537D01*
X154201185Y-99501185D01*
X154280537Y-99404494D01*
X154339502Y-99294180D01*
X154340000Y-99292537D01*
X154340001Y-105707464D01*
X154339502Y-105705820D01*
X154280537Y-105595506D01*
X154201185Y-105498815D01*
X154104494Y-105419463D01*
X153994180Y-105360498D01*
X153874482Y-105324188D01*
X153750000Y-105311928D01*
X152785750Y-105315000D01*
X152627000Y-105473750D01*
X152627000Y-106823000D01*
X152647000Y-106823000D01*
X152647000Y-107077000D01*
X152627000Y-107077000D01*
X152627000Y-108426250D01*
X152785750Y-108585000D01*
X153750000Y-108588072D01*
X153874482Y-108575812D01*
X153994180Y-108539502D01*
X154104494Y-108480537D01*
X154201185Y-108401185D01*
X154280537Y-108304494D01*
X154339502Y-108194180D01*
X154340001Y-108192536D01*
X154340001Y-111840000D01*
X150863661Y-111840000D01*
X151097663Y-111605998D01*
X151287537Y-111321831D01*
X151418325Y-111006081D01*
X151485000Y-110670883D01*
X151485000Y-110329117D01*
X151418325Y-109993919D01*
X151287537Y-109678169D01*
X151097663Y-109394002D01*
X150855998Y-109152337D01*
X150571831Y-108962463D01*
X150256081Y-108831675D01*
X149920883Y-108765000D01*
X149579117Y-108765000D01*
X149243919Y-108831675D01*
X148928169Y-108962463D01*
X148644002Y-109152337D01*
X148402337Y-109394002D01*
X148212463Y-109678169D01*
X148081675Y-109993919D01*
X148015000Y-110329117D01*
X148015000Y-110670883D01*
X148081675Y-111006081D01*
X148212463Y-111321831D01*
X148402337Y-111605998D01*
X148636339Y-111840000D01*
X138234802Y-111840000D01*
X138261004Y-111813798D01*
X138290001Y-111790001D01*
X138384974Y-111674276D01*
X138455546Y-111542247D01*
X138499003Y-111398986D01*
X138500078Y-111388072D01*
X139000000Y-111388072D01*
X139124482Y-111375812D01*
X139244180Y-111339502D01*
X139354494Y-111280537D01*
X139451185Y-111201185D01*
X139530537Y-111104494D01*
X139589502Y-110994180D01*
X139625812Y-110874482D01*
X139638072Y-110750000D01*
X139638072Y-108250000D01*
X139625812Y-108125518D01*
X139589502Y-108005820D01*
X139559666Y-107950000D01*
X145111928Y-107950000D01*
X145124188Y-108074482D01*
X145160498Y-108194180D01*
X145219463Y-108304494D01*
X145298815Y-108401185D01*
X145395506Y-108480537D01*
X145505820Y-108539502D01*
X145625518Y-108575812D01*
X145750000Y-108588072D01*
X146714250Y-108585000D01*
X146873000Y-108426250D01*
X146873000Y-107077000D01*
X147127000Y-107077000D01*
X147127000Y-108426250D01*
X147285750Y-108585000D01*
X148250000Y-108588072D01*
X148374482Y-108575812D01*
X148494180Y-108539502D01*
X148604494Y-108480537D01*
X148701185Y-108401185D01*
X148780537Y-108304494D01*
X148839502Y-108194180D01*
X148875812Y-108074482D01*
X148888072Y-107950000D01*
X150611928Y-107950000D01*
X150624188Y-108074482D01*
X150660498Y-108194180D01*
X150719463Y-108304494D01*
X150798815Y-108401185D01*
X150895506Y-108480537D01*
X151005820Y-108539502D01*
X151125518Y-108575812D01*
X151250000Y-108588072D01*
X152214250Y-108585000D01*
X152373000Y-108426250D01*
X152373000Y-107077000D01*
X150773750Y-107077000D01*
X150615000Y-107235750D01*
X150611928Y-107950000D01*
X148888072Y-107950000D01*
X148885000Y-107235750D01*
X148726250Y-107077000D01*
X147127000Y-107077000D01*
X146873000Y-107077000D01*
X145273750Y-107077000D01*
X145115000Y-107235750D01*
X145111928Y-107950000D01*
X139559666Y-107950000D01*
X139530537Y-107895506D01*
X139451185Y-107798815D01*
X139354494Y-107719463D01*
X139244180Y-107660498D01*
X139124482Y-107624188D01*
X139000000Y-107611928D01*
X136500000Y-107611928D01*
X136375518Y-107624188D01*
X136255820Y-107660498D01*
X136145506Y-107719463D01*
X136048815Y-107798815D01*
X135969463Y-107895506D01*
X135910498Y-108005820D01*
X135891907Y-108067106D01*
X134785000Y-106960199D01*
X134785000Y-106898061D01*
X134745226Y-106698102D01*
X134667205Y-106509744D01*
X134553937Y-106340226D01*
X134409774Y-106196063D01*
X134240256Y-106082795D01*
X134051898Y-106004774D01*
X133851939Y-105965000D01*
X133648061Y-105965000D01*
X133448102Y-106004774D01*
X133259744Y-106082795D01*
X133090226Y-106196063D01*
X132946063Y-106340226D01*
X132832795Y-106509744D01*
X132754774Y-106698102D01*
X132715000Y-106898061D01*
X132715000Y-106940198D01*
X131525472Y-105750670D01*
X131698061Y-105785000D01*
X131901939Y-105785000D01*
X132101898Y-105745226D01*
X132290256Y-105667205D01*
X132459774Y-105553937D01*
X132503711Y-105510000D01*
X134924428Y-105510000D01*
X134924428Y-105875000D01*
X134941492Y-106048254D01*
X134992028Y-106214850D01*
X135074095Y-106368386D01*
X135184538Y-106502962D01*
X135319114Y-106613405D01*
X135472650Y-106695472D01*
X135639246Y-106746008D01*
X135812500Y-106763072D01*
X136737500Y-106763072D01*
X136910754Y-106746008D01*
X137077350Y-106695472D01*
X137230886Y-106613405D01*
X137365462Y-106502962D01*
X137475905Y-106368386D01*
X137557972Y-106214850D01*
X137608508Y-106048254D01*
X137625572Y-105875000D01*
X137625572Y-104625000D01*
X137608508Y-104451746D01*
X137557972Y-104285150D01*
X137475905Y-104131614D01*
X137367893Y-104000000D01*
X137475905Y-103868386D01*
X137557972Y-103714850D01*
X137608508Y-103548254D01*
X137625572Y-103375000D01*
X137625572Y-102309990D01*
X137899428Y-102309990D01*
X137899428Y-103375000D01*
X137916492Y-103548254D01*
X137967028Y-103714850D01*
X138049095Y-103868386D01*
X138157107Y-104000000D01*
X138049095Y-104131614D01*
X137967028Y-104285150D01*
X137916492Y-104451746D01*
X137899428Y-104625000D01*
X137899428Y-105875000D01*
X137916492Y-106048254D01*
X137967028Y-106214850D01*
X138049095Y-106368386D01*
X138159538Y-106502962D01*
X138294114Y-106613405D01*
X138447650Y-106695472D01*
X138614246Y-106746008D01*
X138787500Y-106763072D01*
X139712500Y-106763072D01*
X139885754Y-106746008D01*
X140052350Y-106695472D01*
X140205886Y-106613405D01*
X140340462Y-106502962D01*
X140450905Y-106368386D01*
X140532972Y-106214850D01*
X140583508Y-106048254D01*
X140600572Y-105875000D01*
X140600572Y-104625000D01*
X140583508Y-104451746D01*
X140532972Y-104285150D01*
X140450905Y-104131614D01*
X140342893Y-104000000D01*
X140450905Y-103868386D01*
X140532972Y-103714850D01*
X140583508Y-103548254D01*
X140600572Y-103375000D01*
X140600572Y-102309990D01*
X141162187Y-102309990D01*
X143092196Y-104240000D01*
X142953711Y-104240000D01*
X142909774Y-104196063D01*
X142740256Y-104082795D01*
X142551898Y-104004774D01*
X142351939Y-103965000D01*
X142148061Y-103965000D01*
X141948102Y-104004774D01*
X141759744Y-104082795D01*
X141590226Y-104196063D01*
X141446063Y-104340226D01*
X141332795Y-104509744D01*
X141254774Y-104698102D01*
X141215000Y-104898061D01*
X141215000Y-105101939D01*
X141254774Y-105301898D01*
X141332795Y-105490256D01*
X141446063Y-105659774D01*
X141590226Y-105803937D01*
X141759744Y-105917205D01*
X141948102Y-105995226D01*
X142148061Y-106035000D01*
X142351939Y-106035000D01*
X142551898Y-105995226D01*
X142740256Y-105917205D01*
X142909774Y-105803937D01*
X142953711Y-105760000D01*
X143296289Y-105760000D01*
X143340226Y-105803937D01*
X143509744Y-105917205D01*
X143698102Y-105995226D01*
X143898061Y-106035000D01*
X144101939Y-106035000D01*
X144301898Y-105995226D01*
X144490256Y-105917205D01*
X144659774Y-105803937D01*
X144703711Y-105760000D01*
X145062678Y-105760000D01*
X145100000Y-105763676D01*
X145137322Y-105760000D01*
X145137333Y-105760000D01*
X145144270Y-105759317D01*
X145124188Y-105825518D01*
X145111928Y-105950000D01*
X145115000Y-106664250D01*
X145273750Y-106823000D01*
X146873000Y-106823000D01*
X146873000Y-105473750D01*
X147127000Y-105473750D01*
X147127000Y-106823000D01*
X148726250Y-106823000D01*
X148885000Y-106664250D01*
X148888072Y-105950000D01*
X150611928Y-105950000D01*
X150615000Y-106664250D01*
X150773750Y-106823000D01*
X152373000Y-106823000D01*
X152373000Y-105473750D01*
X152214250Y-105315000D01*
X151250000Y-105311928D01*
X151125518Y-105324188D01*
X151005820Y-105360498D01*
X150895506Y-105419463D01*
X150798815Y-105498815D01*
X150719463Y-105595506D01*
X150660498Y-105705820D01*
X150624188Y-105825518D01*
X150611928Y-105950000D01*
X148888072Y-105950000D01*
X148875812Y-105825518D01*
X148839502Y-105705820D01*
X148780537Y-105595506D01*
X148701185Y-105498815D01*
X148604494Y-105419463D01*
X148494180Y-105360498D01*
X148374482Y-105324188D01*
X148250000Y-105311928D01*
X147285750Y-105315000D01*
X147127000Y-105473750D01*
X146873000Y-105473750D01*
X146714250Y-105315000D01*
X145862515Y-105312286D01*
X146186730Y-104988072D01*
X148050000Y-104988072D01*
X148174482Y-104975812D01*
X148294180Y-104939502D01*
X148404494Y-104880537D01*
X148501185Y-104801185D01*
X148580537Y-104704494D01*
X148639502Y-104594180D01*
X148675812Y-104474482D01*
X148688072Y-104350000D01*
X148688072Y-103850000D01*
X148675812Y-103725518D01*
X148668071Y-103700000D01*
X148675812Y-103674482D01*
X148688072Y-103550000D01*
X148688072Y-103050000D01*
X148675812Y-102925518D01*
X148668071Y-102900000D01*
X148675812Y-102874482D01*
X148688072Y-102750000D01*
X148688072Y-102362874D01*
X148990000Y-102664802D01*
X148990000Y-102796289D01*
X148946063Y-102840226D01*
X148832795Y-103009744D01*
X148754774Y-103198102D01*
X148715000Y-103398061D01*
X148715000Y-103601939D01*
X148754774Y-103801898D01*
X148832795Y-103990256D01*
X148946063Y-104159774D01*
X149090226Y-104303937D01*
X149259744Y-104417205D01*
X149448102Y-104495226D01*
X149648061Y-104535000D01*
X149851939Y-104535000D01*
X150051898Y-104495226D01*
X150240256Y-104417205D01*
X150409774Y-104303937D01*
X150553937Y-104159774D01*
X150667205Y-103990256D01*
X150745226Y-103801898D01*
X150785000Y-103601939D01*
X150785000Y-103398061D01*
X150745226Y-103198102D01*
X150667205Y-103009744D01*
X150553937Y-102840226D01*
X150510000Y-102796289D01*
X150510000Y-102387325D01*
X150513676Y-102350000D01*
X150510000Y-102312675D01*
X150510000Y-102312667D01*
X150499003Y-102201014D01*
X150455546Y-102057753D01*
X150384974Y-101925724D01*
X150290001Y-101809999D01*
X150261004Y-101786202D01*
X148863804Y-100389003D01*
X148840001Y-100359999D01*
X148724276Y-100265026D01*
X148592247Y-100194454D01*
X148448986Y-100150997D01*
X148442091Y-100150318D01*
X148404494Y-100119463D01*
X148294180Y-100060498D01*
X148174482Y-100024188D01*
X148050000Y-100011928D01*
X145750000Y-100011928D01*
X145625518Y-100024188D01*
X145505820Y-100060498D01*
X145395506Y-100119463D01*
X145298815Y-100198815D01*
X145219463Y-100295506D01*
X145160498Y-100405820D01*
X145124188Y-100525518D01*
X145111928Y-100650000D01*
X145111928Y-100962853D01*
X145103698Y-100965350D01*
X145101939Y-100965000D01*
X144898061Y-100965000D01*
X144698102Y-101004774D01*
X144509744Y-101082795D01*
X144448511Y-101123709D01*
X142374802Y-99050000D01*
X145111928Y-99050000D01*
X145124188Y-99174482D01*
X145160498Y-99294180D01*
X145219463Y-99404494D01*
X145298815Y-99501185D01*
X145395506Y-99580537D01*
X145505820Y-99639502D01*
X145625518Y-99675812D01*
X145750000Y-99688072D01*
X146714250Y-99685000D01*
X146873000Y-99526250D01*
X146873000Y-98177000D01*
X147127000Y-98177000D01*
X147127000Y-99526250D01*
X147285750Y-99685000D01*
X148250000Y-99688072D01*
X148374482Y-99675812D01*
X148494180Y-99639502D01*
X148604494Y-99580537D01*
X148701185Y-99501185D01*
X148780537Y-99404494D01*
X148839502Y-99294180D01*
X148875812Y-99174482D01*
X148888072Y-99050000D01*
X150611928Y-99050000D01*
X150624188Y-99174482D01*
X150660498Y-99294180D01*
X150719463Y-99404494D01*
X150798815Y-99501185D01*
X150895506Y-99580537D01*
X151005820Y-99639502D01*
X151125518Y-99675812D01*
X151250000Y-99688072D01*
X152214250Y-99685000D01*
X152373000Y-99526250D01*
X152373000Y-98177000D01*
X150773750Y-98177000D01*
X150615000Y-98335750D01*
X150611928Y-99050000D01*
X148888072Y-99050000D01*
X148885000Y-98335750D01*
X148726250Y-98177000D01*
X147127000Y-98177000D01*
X146873000Y-98177000D01*
X145273750Y-98177000D01*
X145115000Y-98335750D01*
X145111928Y-99050000D01*
X142374802Y-99050000D01*
X140374802Y-97050000D01*
X145111928Y-97050000D01*
X145115000Y-97764250D01*
X145273750Y-97923000D01*
X146873000Y-97923000D01*
X146873000Y-96573750D01*
X147127000Y-96573750D01*
X147127000Y-97923000D01*
X148726250Y-97923000D01*
X148885000Y-97764250D01*
X148888072Y-97050000D01*
X150611928Y-97050000D01*
X150615000Y-97764250D01*
X150773750Y-97923000D01*
X152373000Y-97923000D01*
X152373000Y-96573750D01*
X152214250Y-96415000D01*
X151250000Y-96411928D01*
X151125518Y-96424188D01*
X151005820Y-96460498D01*
X150895506Y-96519463D01*
X150798815Y-96598815D01*
X150719463Y-96695506D01*
X150660498Y-96805820D01*
X150624188Y-96925518D01*
X150611928Y-97050000D01*
X148888072Y-97050000D01*
X148875812Y-96925518D01*
X148839502Y-96805820D01*
X148780537Y-96695506D01*
X148701185Y-96598815D01*
X148604494Y-96519463D01*
X148494180Y-96460498D01*
X148374482Y-96424188D01*
X148250000Y-96411928D01*
X147285750Y-96415000D01*
X147127000Y-96573750D01*
X146873000Y-96573750D01*
X146714250Y-96415000D01*
X145750000Y-96411928D01*
X145625518Y-96424188D01*
X145505820Y-96460498D01*
X145395506Y-96519463D01*
X145298815Y-96598815D01*
X145219463Y-96695506D01*
X145160498Y-96805820D01*
X145124188Y-96925518D01*
X145111928Y-97050000D01*
X140374802Y-97050000D01*
X139507519Y-96182718D01*
X139562561Y-96049834D01*
X139635000Y-95685656D01*
X139635000Y-95314344D01*
X139562561Y-94950166D01*
X139420466Y-94607118D01*
X139214175Y-94298382D01*
X138951618Y-94035825D01*
X138642882Y-93829534D01*
X138299834Y-93687439D01*
X137935656Y-93615000D01*
X137564344Y-93615000D01*
X137200166Y-93687439D01*
X136857118Y-93829534D01*
X136548382Y-94035825D01*
X136285825Y-94298382D01*
X136079534Y-94607118D01*
X135937439Y-94950166D01*
X135865000Y-95314344D01*
X135865000Y-95685656D01*
X135937439Y-96049834D01*
X136079534Y-96392882D01*
X136285825Y-96701618D01*
X136548382Y-96964175D01*
X136857118Y-97170466D01*
X137200166Y-97312561D01*
X137564344Y-97385000D01*
X137935656Y-97385000D01*
X138299834Y-97312561D01*
X138432718Y-97257519D01*
X139140189Y-97964990D01*
X137289792Y-97964990D01*
X135507519Y-96182718D01*
X135562561Y-96049834D01*
X135635000Y-95685656D01*
X135635000Y-95314344D01*
X135562561Y-94950166D01*
X135420466Y-94607118D01*
X135214175Y-94298382D01*
X134951618Y-94035825D01*
X134642882Y-93829534D01*
X134299834Y-93687439D01*
X133935656Y-93615000D01*
X133564344Y-93615000D01*
X133200166Y-93687439D01*
X132857118Y-93829534D01*
X132548382Y-94035825D01*
X132285825Y-94298382D01*
X132079534Y-94607118D01*
X131937439Y-94950166D01*
X131865000Y-95314344D01*
X131865000Y-95685656D01*
X131937439Y-96049834D01*
X132047275Y-96315001D01*
X131452725Y-96315001D01*
X131562561Y-96049834D01*
X131635000Y-95685656D01*
X131635000Y-95314344D01*
X131562561Y-94950166D01*
X131420466Y-94607118D01*
X131214175Y-94298382D01*
X130951618Y-94035825D01*
X130642882Y-93829534D01*
X130299834Y-93687439D01*
X129935656Y-93615000D01*
X129564344Y-93615000D01*
X129200166Y-93687439D01*
X128857118Y-93829534D01*
X128548382Y-94035825D01*
X128285825Y-94298382D01*
X128079534Y-94607118D01*
X127937439Y-94950166D01*
X127865000Y-95314344D01*
X127865000Y-95685656D01*
X127937439Y-96049834D01*
X128047275Y-96315001D01*
X127452725Y-96315001D01*
X127562561Y-96049834D01*
X127635000Y-95685656D01*
X127635000Y-95314344D01*
X127562561Y-94950166D01*
X127420466Y-94607118D01*
X127214175Y-94298382D01*
X126951618Y-94035825D01*
X126642882Y-93829534D01*
X126299834Y-93687439D01*
X125935656Y-93615000D01*
X125564344Y-93615000D01*
X125200166Y-93687439D01*
X124857118Y-93829534D01*
X124548382Y-94035825D01*
X124285825Y-94298382D01*
X124079534Y-94607118D01*
X123937439Y-94950166D01*
X123865000Y-95314344D01*
X123865000Y-95685656D01*
X123937439Y-96049834D01*
X124047275Y-96315001D01*
X123639802Y-96315001D01*
X123563803Y-96239002D01*
X123563798Y-96238996D01*
X123507519Y-96182717D01*
X123562561Y-96049834D01*
X123635000Y-95685656D01*
X123635000Y-95314344D01*
X123562561Y-94950166D01*
X123420466Y-94607118D01*
X123214175Y-94298382D01*
X122951618Y-94035825D01*
X122642882Y-93829534D01*
X122299834Y-93687439D01*
X121935656Y-93615000D01*
X121564344Y-93615000D01*
X121200166Y-93687439D01*
X120857118Y-93829534D01*
X120548382Y-94035825D01*
X120285825Y-94298382D01*
X120079534Y-94607118D01*
X119937439Y-94950166D01*
X119865000Y-95314344D01*
X119865000Y-95685656D01*
X119937439Y-96049834D01*
X120079534Y-96392882D01*
X120285825Y-96701618D01*
X120548382Y-96964175D01*
X120857118Y-97170466D01*
X121200166Y-97312561D01*
X121564344Y-97385000D01*
X121935656Y-97385000D01*
X122299834Y-97312561D01*
X122432717Y-97257519D01*
X122488996Y-97313798D01*
X122489002Y-97313803D01*
X122761197Y-97585998D01*
X122785000Y-97615002D01*
X122900725Y-97709975D01*
X122910124Y-97714999D01*
X120895812Y-97714999D01*
X120858489Y-97711323D01*
X120821166Y-97714999D01*
X120821156Y-97714999D01*
X120709503Y-97725996D01*
X120566242Y-97769453D01*
X120434213Y-97840025D01*
X120318488Y-97934998D01*
X120294690Y-97963996D01*
X118501943Y-99756744D01*
X118439805Y-99756744D01*
X118439072Y-99756890D01*
X118439072Y-99424500D01*
X118426812Y-99300018D01*
X118390502Y-99180320D01*
X118331537Y-99070006D01*
X118252185Y-98973315D01*
X118155494Y-98893963D01*
X118045180Y-98834998D01*
X118035000Y-98831910D01*
X118035000Y-98635059D01*
X117995226Y-98435100D01*
X117917205Y-98246742D01*
X117803937Y-98077224D01*
X117659774Y-97933061D01*
X117490256Y-97819793D01*
X117301898Y-97741772D01*
X117101939Y-97701998D01*
X116898061Y-97701998D01*
X116698102Y-97741772D01*
X116509744Y-97819793D01*
X116340226Y-97933061D01*
X116285276Y-97988011D01*
X116142068Y-98031452D01*
X116010039Y-98102024D01*
X115894314Y-98196997D01*
X115870516Y-98225995D01*
X115010000Y-99086512D01*
X115010000Y-98537333D01*
X115013677Y-98500000D01*
X115008236Y-98444752D01*
X114999003Y-98351014D01*
X114955546Y-98207753D01*
X114884974Y-98075724D01*
X114790001Y-97959999D01*
X114761003Y-97936201D01*
X113213072Y-96388271D01*
X113213072Y-95799999D01*
X113196008Y-95626745D01*
X113145472Y-95460149D01*
X113063405Y-95306613D01*
X112952962Y-95172038D01*
X112818387Y-95061595D01*
X112664851Y-94979528D01*
X112498255Y-94928992D01*
X112325001Y-94911928D01*
X111674999Y-94911928D01*
X111501745Y-94928992D01*
X111335149Y-94979528D01*
X111181613Y-95061595D01*
X111047038Y-95172038D01*
X110975000Y-95259816D01*
X110902962Y-95172038D01*
X110768387Y-95061595D01*
X110614851Y-94979528D01*
X110448255Y-94928992D01*
X110275001Y-94911928D01*
X109624999Y-94911928D01*
X109466934Y-94927496D01*
X109537537Y-94821831D01*
X109668325Y-94506081D01*
X109735000Y-94170883D01*
X109735000Y-93829117D01*
X109668325Y-93493919D01*
X109537537Y-93178169D01*
X109525397Y-93160000D01*
X148636339Y-93160000D01*
X148402337Y-93394002D01*
G36*
X106462463Y-93178169D02*
G01*
X106331675Y-93493919D01*
X106265000Y-93829117D01*
X106265000Y-94170883D01*
X106331675Y-94506081D01*
X106462463Y-94821831D01*
X106652337Y-95105998D01*
X106799339Y-95253000D01*
X105527000Y-95253000D01*
X105527000Y-96523000D01*
X107969720Y-96523000D01*
X108092220Y-96306930D01*
X108077262Y-96232724D01*
X107970122Y-95979465D01*
X107815632Y-95751974D01*
X107790629Y-95727344D01*
X107829117Y-95735000D01*
X108170883Y-95735000D01*
X108506081Y-95668325D01*
X108775193Y-95556855D01*
X108753992Y-95626745D01*
X108736928Y-95799999D01*
X108736928Y-96700001D01*
X108753992Y-96873255D01*
X108804528Y-97039851D01*
X108886595Y-97193387D01*
X108997038Y-97327962D01*
X109054354Y-97375000D01*
X108997038Y-97422038D01*
X108886595Y-97556613D01*
X108804528Y-97710149D01*
X108753992Y-97876745D01*
X108736928Y-98049999D01*
X108736928Y-98336661D01*
X108585120Y-98109465D01*
X108390535Y-97914880D01*
X108161727Y-97761995D01*
X107907490Y-97656686D01*
X107739290Y-97623229D01*
X107815632Y-97548026D01*
X107970122Y-97320535D01*
X108077262Y-97067276D01*
X108092220Y-96993070D01*
X107969720Y-96777000D01*
X105527000Y-96777000D01*
X105527000Y-98047000D01*
X106477345Y-98047000D01*
X106414880Y-98109465D01*
X106261995Y-98338273D01*
X106156686Y-98592510D01*
X106103000Y-98862408D01*
X106103000Y-99036830D01*
X105869952Y-98927244D01*
X105602865Y-98860977D01*
X105327983Y-98848090D01*
X105055867Y-98889078D01*
X104796977Y-98982364D01*
X104681020Y-99044344D01*
X104614040Y-99284435D01*
X105400000Y-100070395D01*
X105414143Y-100056253D01*
X105593748Y-100235858D01*
X105579605Y-100250000D01*
X105593748Y-100264143D01*
X105414143Y-100443748D01*
X105400000Y-100429605D01*
X104614040Y-101215565D01*
X104681020Y-101455656D01*
X104930048Y-101572756D01*
X105197135Y-101639023D01*
X105472017Y-101651910D01*
X105744133Y-101610922D01*
X106003023Y-101517636D01*
X106103000Y-101464197D01*
X106103000Y-101637592D01*
X106156686Y-101907490D01*
X106261995Y-102161727D01*
X106414880Y-102390535D01*
X106524345Y-102500000D01*
X106414880Y-102609465D01*
X106261995Y-102838273D01*
X106156686Y-103092510D01*
X106103000Y-103362408D01*
X106103000Y-103536830D01*
X105869952Y-103427244D01*
X105602865Y-103360977D01*
X105327983Y-103348090D01*
X105055867Y-103389078D01*
X104796977Y-103482364D01*
X104681020Y-103544344D01*
X104614040Y-103784435D01*
X105400000Y-104570395D01*
X105414143Y-104556253D01*
X105593748Y-104735858D01*
X105579605Y-104750000D01*
X105593748Y-104764143D01*
X105414143Y-104943748D01*
X105400000Y-104929605D01*
X104614040Y-105715565D01*
X104681020Y-105955656D01*
X104930048Y-106072756D01*
X105197135Y-106139023D01*
X105472017Y-106151910D01*
X105744133Y-106110922D01*
X106003023Y-106017636D01*
X106103000Y-105964197D01*
X106103000Y-106137592D01*
X106156686Y-106407490D01*
X106261995Y-106661727D01*
X106414880Y-106890535D01*
X106477345Y-106953000D01*
X105527000Y-106953000D01*
X105527000Y-108223000D01*
X107969720Y-108223000D01*
X108092220Y-108006930D01*
X108077262Y-107932724D01*
X107970122Y-107679465D01*
X107815632Y-107451974D01*
X107739290Y-107376771D01*
X107907490Y-107343314D01*
X108161727Y-107238005D01*
X108390535Y-107085120D01*
X108465655Y-107010000D01*
X108795473Y-107010000D01*
X108804528Y-107039851D01*
X108886595Y-107193387D01*
X108932582Y-107249422D01*
X108824095Y-107381614D01*
X108742028Y-107535150D01*
X108691492Y-107701746D01*
X108674428Y-107875000D01*
X108674428Y-109125000D01*
X108691492Y-109298254D01*
X108729732Y-109424314D01*
X108506081Y-109331675D01*
X108170883Y-109265000D01*
X107829117Y-109265000D01*
X107790629Y-109272656D01*
X107815632Y-109248026D01*
X107970122Y-109020535D01*
X108077262Y-108767276D01*
X108092220Y-108693070D01*
X107969720Y-108477000D01*
X105527000Y-108477000D01*
X105527000Y-109747000D01*
X106799339Y-109747000D01*
X106652337Y-109894002D01*
X106462463Y-110178169D01*
X106331675Y-110493919D01*
X106265000Y-110829117D01*
X106265000Y-111170883D01*
X106331675Y-111506081D01*
X106462463Y-111821831D01*
X106474603Y-111840000D01*
X103160000Y-111840000D01*
X103160000Y-109421037D01*
X103180271Y-109441006D01*
X103410058Y-109592059D01*
X103664899Y-109695381D01*
X103935000Y-109747000D01*
X105273000Y-109747000D01*
X105273000Y-108477000D01*
X105253000Y-108477000D01*
X105253000Y-108223000D01*
X105273000Y-108223000D01*
X105273000Y-106953000D01*
X103935000Y-106953000D01*
X103664899Y-107004619D01*
X103410058Y-107107941D01*
X103180271Y-107258994D01*
X103160000Y-107278963D01*
X103160000Y-104822017D01*
X103998090Y-104822017D01*
X104039078Y-105094133D01*
X104132364Y-105353023D01*
X104194344Y-105468980D01*
X104434435Y-105535960D01*
X105220395Y-104750000D01*
X104434435Y-103964040D01*
X104194344Y-104031020D01*
X104077244Y-104280048D01*
X104010977Y-104547135D01*
X103998090Y-104822017D01*
X103160000Y-104822017D01*
X103160000Y-100322017D01*
X103998090Y-100322017D01*
X104039078Y-100594133D01*
X104132364Y-100853023D01*
X104194344Y-100968980D01*
X104434435Y-101035960D01*
X105220395Y-100250000D01*
X104434435Y-99464040D01*
X104194344Y-99531020D01*
X104077244Y-99780048D01*
X104010977Y-100047135D01*
X103998090Y-100322017D01*
X103160000Y-100322017D01*
X103160000Y-97721037D01*
X103180271Y-97741006D01*
X103410058Y-97892059D01*
X103664899Y-97995381D01*
X103935000Y-98047000D01*
X105273000Y-98047000D01*
X105273000Y-96777000D01*
X105253000Y-96777000D01*
X105253000Y-96523000D01*
X105273000Y-96523000D01*
X105273000Y-95253000D01*
X103935000Y-95253000D01*
X103664899Y-95304619D01*
X103410058Y-95407941D01*
X103180271Y-95558994D01*
X103160000Y-95578963D01*
X103160000Y-93160000D01*
X106474603Y-93160000D01*
X106462463Y-93178169D01*
X106462463Y-93178169D01*
G37*
X106462463Y-93178169D02*
X106331675Y-93493919D01*
X106265000Y-93829117D01*
X106265000Y-94170883D01*
X106331675Y-94506081D01*
X106462463Y-94821831D01*
X106652337Y-95105998D01*
X106799339Y-95253000D01*
X105527000Y-95253000D01*
X105527000Y-96523000D01*
X107969720Y-96523000D01*
X108092220Y-96306930D01*
X108077262Y-96232724D01*
X107970122Y-95979465D01*
X107815632Y-95751974D01*
X107790629Y-95727344D01*
X107829117Y-95735000D01*
X108170883Y-95735000D01*
X108506081Y-95668325D01*
X108775193Y-95556855D01*
X108753992Y-95626745D01*
X108736928Y-95799999D01*
X108736928Y-96700001D01*
X108753992Y-96873255D01*
X108804528Y-97039851D01*
X108886595Y-97193387D01*
X108997038Y-97327962D01*
X109054354Y-97375000D01*
X108997038Y-97422038D01*
X108886595Y-97556613D01*
X108804528Y-97710149D01*
X108753992Y-97876745D01*
X108736928Y-98049999D01*
X108736928Y-98336661D01*
X108585120Y-98109465D01*
X108390535Y-97914880D01*
X108161727Y-97761995D01*
X107907490Y-97656686D01*
X107739290Y-97623229D01*
X107815632Y-97548026D01*
X107970122Y-97320535D01*
X108077262Y-97067276D01*
X108092220Y-96993070D01*
X107969720Y-96777000D01*
X105527000Y-96777000D01*
X105527000Y-98047000D01*
X106477345Y-98047000D01*
X106414880Y-98109465D01*
X106261995Y-98338273D01*
X106156686Y-98592510D01*
X106103000Y-98862408D01*
X106103000Y-99036830D01*
X105869952Y-98927244D01*
X105602865Y-98860977D01*
X105327983Y-98848090D01*
X105055867Y-98889078D01*
X104796977Y-98982364D01*
X104681020Y-99044344D01*
X104614040Y-99284435D01*
X105400000Y-100070395D01*
X105414143Y-100056253D01*
X105593748Y-100235858D01*
X105579605Y-100250000D01*
X105593748Y-100264143D01*
X105414143Y-100443748D01*
X105400000Y-100429605D01*
X104614040Y-101215565D01*
X104681020Y-101455656D01*
X104930048Y-101572756D01*
X105197135Y-101639023D01*
X105472017Y-101651910D01*
X105744133Y-101610922D01*
X106003023Y-101517636D01*
X106103000Y-101464197D01*
X106103000Y-101637592D01*
X106156686Y-101907490D01*
X106261995Y-102161727D01*
X106414880Y-102390535D01*
X106524345Y-102500000D01*
X106414880Y-102609465D01*
X106261995Y-102838273D01*
X106156686Y-103092510D01*
X106103000Y-103362408D01*
X106103000Y-103536830D01*
X105869952Y-103427244D01*
X105602865Y-103360977D01*
X105327983Y-103348090D01*
X105055867Y-103389078D01*
X104796977Y-103482364D01*
X104681020Y-103544344D01*
X104614040Y-103784435D01*
X105400000Y-104570395D01*
X105414143Y-104556253D01*
X105593748Y-104735858D01*
X105579605Y-104750000D01*
X105593748Y-104764143D01*
X105414143Y-104943748D01*
X105400000Y-104929605D01*
X104614040Y-105715565D01*
X104681020Y-105955656D01*
X104930048Y-106072756D01*
X105197135Y-106139023D01*
X105472017Y-106151910D01*
X105744133Y-106110922D01*
X106003023Y-106017636D01*
X106103000Y-105964197D01*
X106103000Y-106137592D01*
X106156686Y-106407490D01*
X106261995Y-106661727D01*
X106414880Y-106890535D01*
X106477345Y-106953000D01*
X105527000Y-106953000D01*
X105527000Y-108223000D01*
X107969720Y-108223000D01*
X108092220Y-108006930D01*
X108077262Y-107932724D01*
X107970122Y-107679465D01*
X107815632Y-107451974D01*
X107739290Y-107376771D01*
X107907490Y-107343314D01*
X108161727Y-107238005D01*
X108390535Y-107085120D01*
X108465655Y-107010000D01*
X108795473Y-107010000D01*
X108804528Y-107039851D01*
X108886595Y-107193387D01*
X108932582Y-107249422D01*
X108824095Y-107381614D01*
X108742028Y-107535150D01*
X108691492Y-107701746D01*
X108674428Y-107875000D01*
X108674428Y-109125000D01*
X108691492Y-109298254D01*
X108729732Y-109424314D01*
X108506081Y-109331675D01*
X108170883Y-109265000D01*
X107829117Y-109265000D01*
X107790629Y-109272656D01*
X107815632Y-109248026D01*
X107970122Y-109020535D01*
X108077262Y-108767276D01*
X108092220Y-108693070D01*
X107969720Y-108477000D01*
X105527000Y-108477000D01*
X105527000Y-109747000D01*
X106799339Y-109747000D01*
X106652337Y-109894002D01*
X106462463Y-110178169D01*
X106331675Y-110493919D01*
X106265000Y-110829117D01*
X106265000Y-111170883D01*
X106331675Y-111506081D01*
X106462463Y-111821831D01*
X106474603Y-111840000D01*
X103160000Y-111840000D01*
X103160000Y-109421037D01*
X103180271Y-109441006D01*
X103410058Y-109592059D01*
X103664899Y-109695381D01*
X103935000Y-109747000D01*
X105273000Y-109747000D01*
X105273000Y-108477000D01*
X105253000Y-108477000D01*
X105253000Y-108223000D01*
X105273000Y-108223000D01*
X105273000Y-106953000D01*
X103935000Y-106953000D01*
X103664899Y-107004619D01*
X103410058Y-107107941D01*
X103180271Y-107258994D01*
X103160000Y-107278963D01*
X103160000Y-104822017D01*
X103998090Y-104822017D01*
X104039078Y-105094133D01*
X104132364Y-105353023D01*
X104194344Y-105468980D01*
X104434435Y-105535960D01*
X105220395Y-104750000D01*
X104434435Y-103964040D01*
X104194344Y-104031020D01*
X104077244Y-104280048D01*
X104010977Y-104547135D01*
X103998090Y-104822017D01*
X103160000Y-104822017D01*
X103160000Y-100322017D01*
X103998090Y-100322017D01*
X104039078Y-100594133D01*
X104132364Y-100853023D01*
X104194344Y-100968980D01*
X104434435Y-101035960D01*
X105220395Y-100250000D01*
X104434435Y-99464040D01*
X104194344Y-99531020D01*
X104077244Y-99780048D01*
X104010977Y-100047135D01*
X103998090Y-100322017D01*
X103160000Y-100322017D01*
X103160000Y-97721037D01*
X103180271Y-97741006D01*
X103410058Y-97892059D01*
X103664899Y-97995381D01*
X103935000Y-98047000D01*
X105273000Y-98047000D01*
X105273000Y-96777000D01*
X105253000Y-96777000D01*
X105253000Y-96523000D01*
X105273000Y-96523000D01*
X105273000Y-95253000D01*
X103935000Y-95253000D01*
X103664899Y-95304619D01*
X103410058Y-95407941D01*
X103180271Y-95558994D01*
X103160000Y-95578963D01*
X103160000Y-93160000D01*
X106474603Y-93160000D01*
X106462463Y-93178169D01*
M02*
