M48
; DRILL file {KiCad (5.1.0)-1} date 08/11/2022 17:01:59
; FORMAT={-:-/ absolute / inch / decimal}
; #@! TF.CreationDate,2022-11-08T17:01:59+01:00
; #@! TF.GenerationSoftware,Kicad,Pcbnew,(5.1.0)-1
; #@! TF.FileFunction,Plated,1,2,PTH
FMAT,2
INCH
T1C0.0157
T2C0.0362
T3C0.0394
T4C0.0433
T5C0.0472
%
G90
G05
T1
X4.3602Y-4.124
X4.4094Y-3.878
X4.4094Y-4.1831
X4.4104Y-3.9862
X4.4488Y-4.2717
X4.498Y-3.7205
X4.498Y-3.9444
X4.5079Y-4.1339
X4.5374Y-4.0748
X4.6063Y-3.8873
X4.6161Y-4.1742
X4.667Y-3.9682
X4.6752Y-4.0453
X4.6752Y-4.124
X4.685Y-3.8287
X4.7146Y-4.3799
X4.7292Y-4.0897
X4.7343Y-3.9961
X4.7343Y-4.0453
X4.7638Y-3.9665
X4.7645Y-3.9181
X4.7677Y-4.1239
X4.8514Y-4.2028
X4.8819Y-3.9272
X4.8819Y-3.9764
X4.9232Y-3.9685
X4.9311Y-4.0453
X4.9803Y-4.2028
X4.9803Y-4.1002
X5.0089Y-4.0421
X5.0197Y-3.937
X5.0389Y-4.2131
X5.0576Y-4.1331
X5.0578Y-4.0245
X5.0787Y-3.8504
X5.1083Y-4.0433
X5.128Y-3.9469
X5.1476Y-3.8789
X5.1772Y-3.9764
X5.189Y-4.124
X5.1899Y-4.0462
X5.2264Y-3.8681
X5.2657Y-4.2126
X5.2953Y-3.9469
X5.4626Y-3.9272
X5.4823Y-4.0453
X5.4823Y-4.1437
X5.5413Y-4.2323
X5.5512Y-3.9695
X5.6004Y-4.1339
X5.6693Y-4.0551
X5.6693Y-4.1339
X5.7087Y-4.0157
X5.7087Y-4.0945
X5.8957Y-4.0748
T2
X4.2323Y-3.8976
X4.2323Y-3.9961
X4.2323Y-4.0748
X4.2323Y-4.1732
T4
X4.1496Y-3.9469
X4.1496Y-4.124
T5
X5.4232Y-3.7598
X5.1083Y-4.311
X5.1083Y-3.7598
X4.7933Y-3.7598
X4.9508Y-4.311
X4.9508Y-3.7598
X4.7933Y-4.311
X5.4232Y-4.311
X5.2657Y-4.311
X5.2657Y-3.7598
T3
G00X4.1791Y-3.8051
M15
G01X4.1201Y-3.8051
M16
G05
G00X4.1791Y-4.2657
M15
G01X4.1201Y-4.2657
M16
G05
T0
M30
