%TF.GenerationSoftware,KiCad,Pcbnew,(5.1.12)-1*%
%TF.CreationDate,2023-03-06T23:23:30+01:00*%
%TF.ProjectId,DualPressure_V2,4475616c-5072-4657-9373-7572655f5632,rev?*%
%TF.SameCoordinates,Original*%
%TF.FileFunction,Copper,L2,Bot*%
%TF.FilePolarity,Positive*%
%FSLAX46Y46*%
G04 Gerber Fmt 4.6, Leading zero omitted, Abs format (unit mm)*
G04 Created by KiCad (PCBNEW (5.1.12)-1) date 2023-03-06 23:23:30*
%MOMM*%
%LPD*%
G01*
G04 APERTURE LIST*
%TA.AperFunction,SMDPad,CuDef*%
%ADD10R,1.750000X2.000000*%
%TD*%
%TA.AperFunction,ComponentPad*%
%ADD11R,2.500000X2.500000*%
%TD*%
%TA.AperFunction,SMDPad,CuDef*%
%ADD12R,1.525000X0.650000*%
%TD*%
%TA.AperFunction,ComponentPad*%
%ADD13C,2.704000*%
%TD*%
%TA.AperFunction,SMDPad,CuDef*%
%ADD14R,2.920000X1.270000*%
%TD*%
%TA.AperFunction,SMDPad,CuDef*%
%ADD15R,1.650000X3.430000*%
%TD*%
%TA.AperFunction,ComponentPad*%
%ADD16C,2.500000*%
%TD*%
%TA.AperFunction,ComponentPad*%
%ADD17R,2.250000X2.250000*%
%TD*%
%TA.AperFunction,ComponentPad*%
%ADD18C,2.250000*%
%TD*%
%TA.AperFunction,ComponentPad*%
%ADD19C,4.050000*%
%TD*%
%TA.AperFunction,ViaPad*%
%ADD20C,0.800000*%
%TD*%
%TA.AperFunction,Conductor*%
%ADD21C,0.250000*%
%TD*%
%TA.AperFunction,Conductor*%
%ADD22C,0.254000*%
%TD*%
%TA.AperFunction,Conductor*%
%ADD23C,0.100000*%
%TD*%
G04 APERTURE END LIST*
D10*
%TO.P,ABP2D0,6*%
%TO.N,/5V*%
X198450000Y-78460000D03*
%TO.P,ABP2D0,1*%
%TO.N,GND*%
X209050000Y-78460000D03*
%TO.P,ABP2D0,5*%
%TO.N,Net-(ABP2D0-Pad5)*%
X198450000Y-81000000D03*
%TO.P,ABP2D0,2*%
%TO.N,Net-(ABP2D0-Pad2)*%
X209050000Y-81000000D03*
%TO.P,ABP2D0,4*%
%TO.N,Net-(ABP2D0-Pad4)*%
X198450000Y-83540000D03*
%TO.P,ABP2D0,3*%
%TO.N,/AIN0*%
X209050000Y-83540000D03*
%TD*%
%TO.P,ABP2D1,3*%
%TO.N,/AIN1*%
X209050000Y-95540000D03*
%TO.P,ABP2D1,4*%
%TO.N,Net-(ABP2D1-Pad4)*%
X198450000Y-95540000D03*
%TO.P,ABP2D1,2*%
%TO.N,Net-(ABP2D1-Pad2)*%
X209050000Y-93000000D03*
%TO.P,ABP2D1,5*%
%TO.N,Net-(ABP2D1-Pad5)*%
X198450000Y-93000000D03*
%TO.P,ABP2D1,1*%
%TO.N,GND*%
X209050000Y-90460000D03*
%TO.P,ABP2D1,6*%
%TO.N,/5V*%
X198450000Y-90460000D03*
%TD*%
%TO.P,C3,1*%
%TO.N,/GPIO2*%
%TA.AperFunction,SMDPad,CuDef*%
G36*
G01*
X239337500Y-85225000D02*
X239337500Y-84275000D01*
G75*
G02*
X239587500Y-84025000I250000J0D01*
G01*
X240262500Y-84025000D01*
G75*
G02*
X240512500Y-84275000I0J-250000D01*
G01*
X240512500Y-85225000D01*
G75*
G02*
X240262500Y-85475000I-250000J0D01*
G01*
X239587500Y-85475000D01*
G75*
G02*
X239337500Y-85225000I0J250000D01*
G01*
G37*
%TD.AperFunction*%
%TO.P,C3,2*%
%TO.N,GND*%
%TA.AperFunction,SMDPad,CuDef*%
G36*
G01*
X241412500Y-85225000D02*
X241412500Y-84275000D01*
G75*
G02*
X241662500Y-84025000I250000J0D01*
G01*
X242337500Y-84025000D01*
G75*
G02*
X242587500Y-84275000I0J-250000D01*
G01*
X242587500Y-85225000D01*
G75*
G02*
X242337500Y-85475000I-250000J0D01*
G01*
X241662500Y-85475000D01*
G75*
G02*
X241412500Y-85225000I0J250000D01*
G01*
G37*
%TD.AperFunction*%
%TD*%
%TO.P,C4,2*%
%TO.N,GND*%
%TA.AperFunction,SMDPad,CuDef*%
G36*
G01*
X241450000Y-87475000D02*
X241450000Y-86525000D01*
G75*
G02*
X241700000Y-86275000I250000J0D01*
G01*
X242375000Y-86275000D01*
G75*
G02*
X242625000Y-86525000I0J-250000D01*
G01*
X242625000Y-87475000D01*
G75*
G02*
X242375000Y-87725000I-250000J0D01*
G01*
X241700000Y-87725000D01*
G75*
G02*
X241450000Y-87475000I0J250000D01*
G01*
G37*
%TD.AperFunction*%
%TO.P,C4,1*%
%TO.N,/GPIO1*%
%TA.AperFunction,SMDPad,CuDef*%
G36*
G01*
X239375000Y-87475000D02*
X239375000Y-86525000D01*
G75*
G02*
X239625000Y-86275000I250000J0D01*
G01*
X240300000Y-86275000D01*
G75*
G02*
X240550000Y-86525000I0J-250000D01*
G01*
X240550000Y-87475000D01*
G75*
G02*
X240300000Y-87725000I-250000J0D01*
G01*
X239625000Y-87725000D01*
G75*
G02*
X239375000Y-87475000I0J250000D01*
G01*
G37*
%TD.AperFunction*%
%TD*%
%TO.P,C5,1*%
%TO.N,/GPIO0*%
%TA.AperFunction,SMDPad,CuDef*%
G36*
G01*
X239375000Y-89725000D02*
X239375000Y-88775000D01*
G75*
G02*
X239625000Y-88525000I250000J0D01*
G01*
X240300000Y-88525000D01*
G75*
G02*
X240550000Y-88775000I0J-250000D01*
G01*
X240550000Y-89725000D01*
G75*
G02*
X240300000Y-89975000I-250000J0D01*
G01*
X239625000Y-89975000D01*
G75*
G02*
X239375000Y-89725000I0J250000D01*
G01*
G37*
%TD.AperFunction*%
%TO.P,C5,2*%
%TO.N,GND*%
%TA.AperFunction,SMDPad,CuDef*%
G36*
G01*
X241450000Y-89725000D02*
X241450000Y-88775000D01*
G75*
G02*
X241700000Y-88525000I250000J0D01*
G01*
X242375000Y-88525000D01*
G75*
G02*
X242625000Y-88775000I0J-250000D01*
G01*
X242625000Y-89725000D01*
G75*
G02*
X242375000Y-89975000I-250000J0D01*
G01*
X241700000Y-89975000D01*
G75*
G02*
X241450000Y-89725000I0J250000D01*
G01*
G37*
%TD.AperFunction*%
%TD*%
D11*
%TO.P,GD0,1*%
%TO.N,GND*%
X212750000Y-97000000D03*
%TD*%
D12*
%TO.P,IC0,1*%
%TO.N,/3.3V*%
X242288000Y-96155000D03*
%TO.P,IC0,2*%
%TO.N,Net-(IC0-Pad2)*%
X242288000Y-94885000D03*
%TO.P,IC0,3*%
%TO.N,Net-(IC0-Pad3)*%
X242288000Y-93615000D03*
%TO.P,IC0,4*%
%TO.N,GND*%
X242288000Y-92345000D03*
%TO.P,IC0,5*%
%TO.N,Net-(IC0-Pad5)*%
X247712000Y-92345000D03*
%TO.P,IC0,6*%
%TO.N,Net-(IC0-Pad6)*%
X247712000Y-93615000D03*
%TO.P,IC0,7*%
%TO.N,Net-(IC0-Pad7)*%
X247712000Y-94885000D03*
%TO.P,IC0,8*%
%TO.N,Net-(IC0-Pad8)*%
X247712000Y-96155000D03*
%TD*%
D13*
%TO.P,J0,1*%
%TO.N,/POWER*%
X262000000Y-78250000D03*
%TO.P,J0,2*%
%TO.N,Net-(D0-Pad1)*%
X256700000Y-82500000D03*
%TO.P,J0,3*%
%TO.N,/SHIELD*%
X256700000Y-77000000D03*
%TD*%
D14*
%TO.P,J2,1*%
%TO.N,/GPIO0*%
X259770000Y-92750000D03*
%TO.P,J2,2*%
%TO.N,/GPIO1*%
X259770000Y-89750000D03*
%TO.P,J2,3*%
%TO.N,/GPIO2*%
X259770000Y-86750000D03*
D15*
%TO.P,J2,MP1*%
%TO.N,Net-(J2-PadMP1)*%
X265250000Y-96455000D03*
%TO.P,J2,MP2*%
%TO.N,Net-(J2-PadMP2)*%
X265250000Y-83045000D03*
%TD*%
D16*
%TO.P,P5,1*%
%TO.N,/5V*%
X216750000Y-77000000D03*
%TD*%
%TO.P,P33,1*%
%TO.N,/3.3V*%
X212750000Y-77000000D03*
%TD*%
%TO.P,PW0,1*%
%TO.N,/POWER*%
X220750000Y-77000000D03*
%TD*%
%TO.P,R0,2*%
%TO.N,Net-(IC0-Pad7)*%
%TA.AperFunction,SMDPad,CuDef*%
G36*
G01*
X251400000Y-95950001D02*
X251400000Y-95049999D01*
G75*
G02*
X251649999Y-94800000I249999J0D01*
G01*
X252350001Y-94800000D01*
G75*
G02*
X252600000Y-95049999I0J-249999D01*
G01*
X252600000Y-95950001D01*
G75*
G02*
X252350001Y-96200000I-249999J0D01*
G01*
X251649999Y-96200000D01*
G75*
G02*
X251400000Y-95950001I0J249999D01*
G01*
G37*
%TD.AperFunction*%
%TO.P,R0,1*%
%TO.N,Net-(IC0-Pad8)*%
%TA.AperFunction,SMDPad,CuDef*%
G36*
G01*
X249400000Y-95950001D02*
X249400000Y-95049999D01*
G75*
G02*
X249649999Y-94800000I249999J0D01*
G01*
X250350001Y-94800000D01*
G75*
G02*
X250600000Y-95049999I0J-249999D01*
G01*
X250600000Y-95950001D01*
G75*
G02*
X250350001Y-96200000I-249999J0D01*
G01*
X249649999Y-96200000D01*
G75*
G02*
X249400000Y-95950001I0J249999D01*
G01*
G37*
%TD.AperFunction*%
%TD*%
%TO.P,R1,1*%
%TO.N,Net-(IC0-Pad2)*%
%TA.AperFunction,SMDPad,CuDef*%
G36*
G01*
X240600000Y-95049999D02*
X240600000Y-95950001D01*
G75*
G02*
X240350001Y-96200000I-249999J0D01*
G01*
X239649999Y-96200000D01*
G75*
G02*
X239400000Y-95950001I0J249999D01*
G01*
X239400000Y-95049999D01*
G75*
G02*
X239649999Y-94800000I249999J0D01*
G01*
X240350001Y-94800000D01*
G75*
G02*
X240600000Y-95049999I0J-249999D01*
G01*
G37*
%TD.AperFunction*%
%TO.P,R1,2*%
%TO.N,Net-(IC1-Pad16)*%
%TA.AperFunction,SMDPad,CuDef*%
G36*
G01*
X238600000Y-95049999D02*
X238600000Y-95950001D01*
G75*
G02*
X238350001Y-96200000I-249999J0D01*
G01*
X237649999Y-96200000D01*
G75*
G02*
X237400000Y-95950001I0J249999D01*
G01*
X237400000Y-95049999D01*
G75*
G02*
X237649999Y-94800000I249999J0D01*
G01*
X238350001Y-94800000D01*
G75*
G02*
X238600000Y-95049999I0J-249999D01*
G01*
G37*
%TD.AperFunction*%
%TD*%
%TO.P,R2,2*%
%TO.N,Net-(IC1-Pad15)*%
%TA.AperFunction,SMDPad,CuDef*%
G36*
G01*
X238600000Y-92549999D02*
X238600000Y-93450001D01*
G75*
G02*
X238350001Y-93700000I-249999J0D01*
G01*
X237649999Y-93700000D01*
G75*
G02*
X237400000Y-93450001I0J249999D01*
G01*
X237400000Y-92549999D01*
G75*
G02*
X237649999Y-92300000I249999J0D01*
G01*
X238350001Y-92300000D01*
G75*
G02*
X238600000Y-92549999I0J-249999D01*
G01*
G37*
%TD.AperFunction*%
%TO.P,R2,1*%
%TO.N,Net-(IC0-Pad3)*%
%TA.AperFunction,SMDPad,CuDef*%
G36*
G01*
X240600000Y-92549999D02*
X240600000Y-93450001D01*
G75*
G02*
X240350001Y-93700000I-249999J0D01*
G01*
X239649999Y-93700000D01*
G75*
G02*
X239400000Y-93450001I0J249999D01*
G01*
X239400000Y-92549999D01*
G75*
G02*
X239649999Y-92300000I249999J0D01*
G01*
X240350001Y-92300000D01*
G75*
G02*
X240600000Y-92549999I0J-249999D01*
G01*
G37*
%TD.AperFunction*%
%TD*%
%TO.P,R3,1*%
%TO.N,/GPIO2*%
%TA.AperFunction,SMDPad,CuDef*%
G36*
G01*
X238350000Y-84299999D02*
X238350000Y-85200001D01*
G75*
G02*
X238100001Y-85450000I-249999J0D01*
G01*
X237399999Y-85450000D01*
G75*
G02*
X237150000Y-85200001I0J249999D01*
G01*
X237150000Y-84299999D01*
G75*
G02*
X237399999Y-84050000I249999J0D01*
G01*
X238100001Y-84050000D01*
G75*
G02*
X238350000Y-84299999I0J-249999D01*
G01*
G37*
%TD.AperFunction*%
%TO.P,R3,2*%
%TO.N,Net-(IC1-Pad14)*%
%TA.AperFunction,SMDPad,CuDef*%
G36*
G01*
X236350000Y-84299999D02*
X236350000Y-85200001D01*
G75*
G02*
X236100001Y-85450000I-249999J0D01*
G01*
X235399999Y-85450000D01*
G75*
G02*
X235150000Y-85200001I0J249999D01*
G01*
X235150000Y-84299999D01*
G75*
G02*
X235399999Y-84050000I249999J0D01*
G01*
X236100001Y-84050000D01*
G75*
G02*
X236350000Y-84299999I0J-249999D01*
G01*
G37*
%TD.AperFunction*%
%TD*%
%TO.P,R4,1*%
%TO.N,Net-(IC1-Pad1)*%
%TA.AperFunction,SMDPad,CuDef*%
G36*
G01*
X235150000Y-87450001D02*
X235150000Y-86549999D01*
G75*
G02*
X235399999Y-86300000I249999J0D01*
G01*
X236100001Y-86300000D01*
G75*
G02*
X236350000Y-86549999I0J-249999D01*
G01*
X236350000Y-87450001D01*
G75*
G02*
X236100001Y-87700000I-249999J0D01*
G01*
X235399999Y-87700000D01*
G75*
G02*
X235150000Y-87450001I0J249999D01*
G01*
G37*
%TD.AperFunction*%
%TO.P,R4,2*%
%TO.N,/GPIO1*%
%TA.AperFunction,SMDPad,CuDef*%
G36*
G01*
X237150000Y-87450001D02*
X237150000Y-86549999D01*
G75*
G02*
X237399999Y-86300000I249999J0D01*
G01*
X238100001Y-86300000D01*
G75*
G02*
X238350000Y-86549999I0J-249999D01*
G01*
X238350000Y-87450001D01*
G75*
G02*
X238100001Y-87700000I-249999J0D01*
G01*
X237399999Y-87700000D01*
G75*
G02*
X237150000Y-87450001I0J249999D01*
G01*
G37*
%TD.AperFunction*%
%TD*%
%TO.P,R5,2*%
%TO.N,/GPIO0*%
%TA.AperFunction,SMDPad,CuDef*%
G36*
G01*
X237150000Y-89700001D02*
X237150000Y-88799999D01*
G75*
G02*
X237399999Y-88550000I249999J0D01*
G01*
X238100001Y-88550000D01*
G75*
G02*
X238350000Y-88799999I0J-249999D01*
G01*
X238350000Y-89700001D01*
G75*
G02*
X238100001Y-89950000I-249999J0D01*
G01*
X237399999Y-89950000D01*
G75*
G02*
X237150000Y-89700001I0J249999D01*
G01*
G37*
%TD.AperFunction*%
%TO.P,R5,1*%
%TO.N,Net-(IC1-Pad2)*%
%TA.AperFunction,SMDPad,CuDef*%
G36*
G01*
X235150000Y-89700001D02*
X235150000Y-88799999D01*
G75*
G02*
X235399999Y-88550000I249999J0D01*
G01*
X236100001Y-88550000D01*
G75*
G02*
X236350000Y-88799999I0J-249999D01*
G01*
X236350000Y-89700001D01*
G75*
G02*
X236100001Y-89950000I-249999J0D01*
G01*
X235399999Y-89950000D01*
G75*
G02*
X235150000Y-89700001I0J249999D01*
G01*
G37*
%TD.AperFunction*%
%TD*%
%TO.P,R10,1*%
%TO.N,Net-(IC0-Pad6)*%
%TA.AperFunction,SMDPad,CuDef*%
G36*
G01*
X249400000Y-93450001D02*
X249400000Y-92549999D01*
G75*
G02*
X249649999Y-92300000I249999J0D01*
G01*
X250350001Y-92300000D01*
G75*
G02*
X250600000Y-92549999I0J-249999D01*
G01*
X250600000Y-93450001D01*
G75*
G02*
X250350001Y-93700000I-249999J0D01*
G01*
X249649999Y-93700000D01*
G75*
G02*
X249400000Y-93450001I0J249999D01*
G01*
G37*
%TD.AperFunction*%
%TO.P,R10,2*%
%TO.N,Net-(IC0-Pad5)*%
%TA.AperFunction,SMDPad,CuDef*%
G36*
G01*
X251400000Y-93450001D02*
X251400000Y-92549999D01*
G75*
G02*
X251649999Y-92300000I249999J0D01*
G01*
X252350001Y-92300000D01*
G75*
G02*
X252600000Y-92549999I0J-249999D01*
G01*
X252600000Y-93450001D01*
G75*
G02*
X252350001Y-93700000I-249999J0D01*
G01*
X251649999Y-93700000D01*
G75*
G02*
X251400000Y-93450001I0J249999D01*
G01*
G37*
%TD.AperFunction*%
%TD*%
%TO.P,RX0,1*%
%TO.N,Net-(IC0-Pad2)*%
X216750000Y-97000000D03*
%TD*%
%TO.P,TX0,1*%
%TO.N,Net-(IC0-Pad3)*%
X220750000Y-97000000D03*
%TD*%
D17*
%TO.P,U0,1*%
%TO.N,Net-(R6-Pad2)*%
X179000000Y-91000000D03*
D18*
%TO.P,U0,2*%
%TO.N,Net-(R7-Pad1)*%
X179000000Y-83100000D03*
D19*
%TO.P,U0,MH1*%
%TO.N,Net-(U0-PadMH1)*%
X168750000Y-87050000D03*
%TD*%
D20*
%TO.N,/5V*%
X215626289Y-87400000D03*
X211500000Y-87250000D03*
X210000000Y-87250000D03*
X198450000Y-90460000D03*
%TO.N,GND*%
X193250000Y-93750000D03*
X193250000Y-80250000D03*
X242000000Y-84750000D03*
X242037500Y-87000000D03*
X242037500Y-89250000D03*
X242288000Y-92345000D03*
X221750000Y-80500000D03*
X209050000Y-90460000D03*
X211750000Y-86000000D03*
%TO.N,/AIN0*%
X212750000Y-91185000D03*
%TO.N,/AIN1*%
X209050000Y-95540000D03*
%TO.N,/POWER*%
X234445000Y-77346000D03*
%TO.N,/3.3V*%
X229150000Y-87737500D03*
X232750000Y-88500000D03*
X242288000Y-96155000D03*
%TO.N,Net-(IC0-Pad3)*%
X228512653Y-94737347D03*
%TO.N,Net-(IC0-Pad5)*%
X255762653Y-93012653D03*
%TO.N,Net-(IC0-Pad6)*%
X253750000Y-94000000D03*
%TO.N,Net-(IC0-Pad7)*%
X253750000Y-95500000D03*
%TO.N,Net-(IC0-Pad8)*%
X253750000Y-96750000D03*
%TO.N,Net-(IC1-Pad1)*%
X227750000Y-87000000D03*
X225200846Y-87049154D03*
X213812000Y-84549998D03*
%TO.N,Net-(IC1-Pad2)*%
X227750000Y-89250000D03*
X225525000Y-89250000D03*
X215250000Y-85500000D03*
%TO.N,Net-(IC1-Pad14)*%
X227500000Y-86000000D03*
%TO.N,Net-(IC1-Pad15)*%
X225750000Y-85500000D03*
%TO.N,Net-(IC1-Pad16)*%
X219688000Y-84549998D03*
%TO.N,/SHIELD*%
X259500000Y-77000000D03*
X254000000Y-77000000D03*
X228750000Y-91000000D03*
X216750000Y-82500000D03*
X223750000Y-80750000D03*
X216750000Y-93750000D03*
X203750000Y-86250000D03*
X254750000Y-89250000D03*
X254750000Y-87000000D03*
X223000000Y-88250000D03*
X229500000Y-97750000D03*
X238250000Y-82500000D03*
X238250000Y-77250000D03*
X231250000Y-80750000D03*
X216750000Y-89000000D03*
X261250000Y-96500000D03*
%TD*%
D21*
%TO.N,/5V*%
X211650000Y-87400000D02*
X211500000Y-87250000D01*
X215626289Y-87400000D02*
X211650000Y-87400000D01*
X210000000Y-87250000D02*
X202250000Y-87250000D01*
X210000000Y-87250000D02*
X202005012Y-87250000D01*
X198450000Y-90460000D02*
X201660000Y-87250000D01*
X201660000Y-87250000D02*
X210000000Y-87250000D01*
X210000000Y-87250000D02*
X201750000Y-87250000D01*
X201750000Y-87250000D02*
X200000000Y-85500000D01*
X200000000Y-80010000D02*
X198450000Y-78460000D01*
X200000000Y-85500000D02*
X200000000Y-80010000D01*
%TO.N,GND*%
X242000000Y-86962500D02*
X242037500Y-87000000D01*
X242000000Y-84750000D02*
X242000000Y-84750000D01*
X242037500Y-92094500D02*
X242288000Y-92345000D01*
X193250000Y-93750000D02*
X193250000Y-80250000D01*
X207489990Y-76899990D02*
X209050000Y-78460000D01*
X196600010Y-76899990D02*
X207489990Y-76899990D01*
X193250000Y-80250000D02*
X196600010Y-76899990D01*
X212750000Y-94160000D02*
X212750000Y-97000000D01*
X209050000Y-90460000D02*
X212750000Y-94160000D01*
X211090000Y-80500000D02*
X209050000Y-78460000D01*
X221750000Y-80500000D02*
X211090000Y-80500000D01*
X221750000Y-80500000D02*
X214250000Y-80500000D01*
X211750000Y-83000000D02*
X211750000Y-86000000D01*
X214250000Y-80500000D02*
X211750000Y-83000000D01*
%TO.N,/AIN0*%
X210774999Y-89209999D02*
X212750000Y-91185000D01*
X210774999Y-84139999D02*
X210774999Y-89209999D01*
X210175000Y-83540000D02*
X210774999Y-84139999D01*
X209050000Y-83540000D02*
X210175000Y-83540000D01*
%TO.N,/POWER*%
X235776001Y-78677001D02*
X234445000Y-77346000D01*
X261572999Y-78677001D02*
X235776001Y-78677001D01*
X262000000Y-78250000D02*
X261572999Y-78677001D01*
X221096000Y-77346000D02*
X220750000Y-77000000D01*
X234445000Y-77346000D02*
X221096000Y-77346000D01*
%TO.N,/3.3V*%
X231987500Y-87737500D02*
X232750000Y-88500000D01*
X229150000Y-87737500D02*
X231987500Y-87737500D01*
%TO.N,/GPIO2*%
X237750000Y-84750000D02*
X239925000Y-84750000D01*
X258820010Y-85800010D02*
X259770000Y-86750000D01*
X240975010Y-85800010D02*
X258820010Y-85800010D01*
X239925000Y-84750000D02*
X240975010Y-85800010D01*
%TO.N,/GPIO1*%
X237750000Y-87000000D02*
X239962500Y-87000000D01*
X258070010Y-88050010D02*
X259770000Y-89750000D01*
X241012510Y-88050010D02*
X258070010Y-88050010D01*
X239962500Y-87000000D02*
X241012510Y-88050010D01*
%TO.N,/GPIO0*%
X237750000Y-89250000D02*
X239962500Y-89250000D01*
X257320010Y-90300010D02*
X241012510Y-90300010D01*
X241012510Y-90300010D02*
X239962500Y-89250000D01*
X259770000Y-92750000D02*
X257320010Y-90300010D01*
%TO.N,Net-(IC0-Pad2)*%
X240615000Y-94885000D02*
X240000000Y-95500000D01*
X242288000Y-94885000D02*
X240615000Y-94885000D01*
X240000000Y-95500000D02*
X238974990Y-96525010D01*
X216750000Y-97000000D02*
X218750000Y-95000000D01*
X218750000Y-95000000D02*
X222699980Y-95000000D01*
X222699980Y-95000000D02*
X224224990Y-96525010D01*
X238974990Y-96525010D02*
X224224990Y-96525010D01*
%TO.N,Net-(IC0-Pad3)*%
X240615000Y-93615000D02*
X240000000Y-93000000D01*
X242288000Y-93615000D02*
X240615000Y-93615000D01*
X229224990Y-94025010D02*
X228512653Y-94737347D01*
X238974990Y-94025010D02*
X229224990Y-94025010D01*
X240000000Y-93000000D02*
X238974990Y-94025010D01*
%TO.N,Net-(IC0-Pad5)*%
X250974990Y-91974990D02*
X252000000Y-93000000D01*
X248082010Y-91974990D02*
X250974990Y-91974990D01*
X247712000Y-92345000D02*
X248082010Y-91974990D01*
X252012653Y-93012653D02*
X252000000Y-93000000D01*
X255762653Y-93012653D02*
X252012653Y-93012653D01*
%TO.N,Net-(IC0-Pad6)*%
X249385000Y-93615000D02*
X250000000Y-93000000D01*
X247712000Y-93615000D02*
X249385000Y-93615000D01*
X251025010Y-94025010D02*
X250000000Y-93000000D01*
X253724990Y-94025010D02*
X251025010Y-94025010D01*
X253750000Y-94000000D02*
X253724990Y-94025010D01*
%TO.N,Net-(IC0-Pad7)*%
X250974990Y-94474990D02*
X252000000Y-95500000D01*
X248122010Y-94474990D02*
X250974990Y-94474990D01*
X247712000Y-94885000D02*
X248122010Y-94474990D01*
X253750000Y-95500000D02*
X252000000Y-95500000D01*
%TO.N,Net-(IC0-Pad8)*%
X249345000Y-96155000D02*
X250000000Y-95500000D01*
X247712000Y-96155000D02*
X249345000Y-96155000D01*
X251250000Y-96750000D02*
X250000000Y-95500000D01*
X253750000Y-96750000D02*
X251250000Y-96750000D01*
%TO.N,Net-(IC1-Pad1)*%
X235750000Y-87000000D02*
X227750000Y-87000000D01*
X213812000Y-84549998D02*
X218299998Y-84549998D01*
X220799154Y-87049154D02*
X223450846Y-87049154D01*
X218299998Y-84549998D02*
X220799154Y-87049154D01*
X225200846Y-87049154D02*
X223450846Y-87049154D01*
%TO.N,Net-(IC1-Pad2)*%
X235750000Y-89250000D02*
X227750000Y-89250000D01*
X219000000Y-89250000D02*
X215250000Y-85500000D01*
X225525000Y-89250000D02*
X219000000Y-89250000D01*
%TO.N,Net-(IC1-Pad14)*%
X228750000Y-84750000D02*
X227500000Y-86000000D01*
X235750000Y-84750000D02*
X228750000Y-84750000D01*
%TO.N,Net-(IC1-Pad15)*%
X238000000Y-93000000D02*
X228750000Y-93000000D01*
X228750000Y-93000000D02*
X227000000Y-91250000D01*
X227000000Y-86750000D02*
X225750000Y-85500000D01*
X227000000Y-91250000D02*
X227000000Y-86750000D01*
%TO.N,Net-(IC1-Pad16)*%
X238000000Y-95500000D02*
X228250000Y-95500000D01*
X228250000Y-95500000D02*
X226250000Y-93500000D01*
X226250000Y-93500000D02*
X226250000Y-87073002D01*
X223726996Y-84549998D02*
X219688000Y-84549998D01*
X226250000Y-87073002D02*
X223726996Y-84549998D01*
%TD*%
D22*
%TO.N,/SHIELD*%
X211285825Y-75798382D02*
X211079534Y-76107118D01*
X210937439Y-76450166D01*
X210865000Y-76814344D01*
X210865000Y-77185656D01*
X210937439Y-77549834D01*
X211079534Y-77892882D01*
X211285825Y-78201618D01*
X211548382Y-78464175D01*
X211857118Y-78670466D01*
X212200166Y-78812561D01*
X212564344Y-78885000D01*
X212935656Y-78885000D01*
X213299834Y-78812561D01*
X213642882Y-78670466D01*
X213951618Y-78464175D01*
X214214175Y-78201618D01*
X214420466Y-77892882D01*
X214562561Y-77549834D01*
X214635000Y-77185656D01*
X214635000Y-76814344D01*
X214562561Y-76450166D01*
X214420466Y-76107118D01*
X214214175Y-75798382D01*
X214075793Y-75660000D01*
X215424207Y-75660000D01*
X215285825Y-75798382D01*
X215079534Y-76107118D01*
X214937439Y-76450166D01*
X214865000Y-76814344D01*
X214865000Y-77185656D01*
X214937439Y-77549834D01*
X215079534Y-77892882D01*
X215285825Y-78201618D01*
X215548382Y-78464175D01*
X215857118Y-78670466D01*
X216200166Y-78812561D01*
X216564344Y-78885000D01*
X216935656Y-78885000D01*
X217299834Y-78812561D01*
X217642882Y-78670466D01*
X217951618Y-78464175D01*
X218214175Y-78201618D01*
X218420466Y-77892882D01*
X218562561Y-77549834D01*
X218635000Y-77185656D01*
X218635000Y-76814344D01*
X218562561Y-76450166D01*
X218420466Y-76107118D01*
X218214175Y-75798382D01*
X218075793Y-75660000D01*
X219424207Y-75660000D01*
X219285825Y-75798382D01*
X219079534Y-76107118D01*
X218937439Y-76450166D01*
X218865000Y-76814344D01*
X218865000Y-77185656D01*
X218937439Y-77549834D01*
X219079534Y-77892882D01*
X219285825Y-78201618D01*
X219548382Y-78464175D01*
X219857118Y-78670466D01*
X220200166Y-78812561D01*
X220564344Y-78885000D01*
X220935656Y-78885000D01*
X221299834Y-78812561D01*
X221642882Y-78670466D01*
X221951618Y-78464175D01*
X222214175Y-78201618D01*
X222278065Y-78106000D01*
X233741289Y-78106000D01*
X233785226Y-78149937D01*
X233954744Y-78263205D01*
X234143102Y-78341226D01*
X234343061Y-78381000D01*
X234405199Y-78381000D01*
X235212202Y-79188004D01*
X235236000Y-79217002D01*
X235351725Y-79311975D01*
X235483754Y-79382547D01*
X235627015Y-79426004D01*
X235738668Y-79437001D01*
X235738676Y-79437001D01*
X235776001Y-79440677D01*
X235813326Y-79437001D01*
X257505023Y-79437001D01*
X257465000Y-79638212D01*
X257465000Y-79861788D01*
X257508617Y-80081067D01*
X257594176Y-80287624D01*
X257718388Y-80473520D01*
X257876480Y-80631612D01*
X258062376Y-80755824D01*
X258268933Y-80841383D01*
X258488212Y-80885000D01*
X258711788Y-80885000D01*
X258931067Y-80841383D01*
X259137624Y-80755824D01*
X259323520Y-80631612D01*
X259481612Y-80473520D01*
X259605824Y-80287624D01*
X259691383Y-80081067D01*
X259735000Y-79861788D01*
X259735000Y-79638212D01*
X259694977Y-79437001D01*
X260403385Y-79437001D01*
X260456597Y-79516639D01*
X260733361Y-79793403D01*
X261058803Y-80010856D01*
X261420414Y-80160640D01*
X261804298Y-80237000D01*
X262195702Y-80237000D01*
X262579586Y-80160640D01*
X262941197Y-80010856D01*
X263266639Y-79793403D01*
X263543403Y-79516639D01*
X263760856Y-79191197D01*
X263910640Y-78829586D01*
X263987000Y-78445702D01*
X263987000Y-78054298D01*
X263910640Y-77670414D01*
X263760856Y-77308803D01*
X263543403Y-76983361D01*
X263266639Y-76706597D01*
X262941197Y-76489144D01*
X262579586Y-76339360D01*
X262195702Y-76263000D01*
X261804298Y-76263000D01*
X261420414Y-76339360D01*
X261058803Y-76489144D01*
X260733361Y-76706597D01*
X260456597Y-76983361D01*
X260239144Y-77308803D01*
X260089360Y-77670414D01*
X260040310Y-77917001D01*
X258462940Y-77917001D01*
X258562709Y-77718875D01*
X258667164Y-77341666D01*
X258696021Y-76951326D01*
X258648173Y-76562857D01*
X258525456Y-76191187D01*
X258386672Y-75931541D01*
X258086264Y-75793344D01*
X258201189Y-75678419D01*
X258182770Y-75660000D01*
X269340000Y-75660000D01*
X269340001Y-98340000D01*
X266687004Y-98340000D01*
X266700812Y-98294482D01*
X266713072Y-98170000D01*
X266713072Y-94740000D01*
X266700812Y-94615518D01*
X266664502Y-94495820D01*
X266605537Y-94385506D01*
X266526185Y-94288815D01*
X266429494Y-94209463D01*
X266319180Y-94150498D01*
X266199482Y-94114188D01*
X266075000Y-94101928D01*
X264425000Y-94101928D01*
X264300518Y-94114188D01*
X264180820Y-94150498D01*
X264070506Y-94209463D01*
X263973815Y-94288815D01*
X263894463Y-94385506D01*
X263835498Y-94495820D01*
X263799188Y-94615518D01*
X263786928Y-94740000D01*
X263786928Y-98170000D01*
X263799188Y-98294482D01*
X263812996Y-98340000D01*
X222075793Y-98340000D01*
X222214175Y-98201618D01*
X222420466Y-97892882D01*
X222562561Y-97549834D01*
X222635000Y-97185656D01*
X222635000Y-96814344D01*
X222562561Y-96450166D01*
X222420466Y-96107118D01*
X222214175Y-95798382D01*
X222175793Y-95760000D01*
X222385179Y-95760000D01*
X223661191Y-97036013D01*
X223684989Y-97065011D01*
X223800714Y-97159984D01*
X223932743Y-97230556D01*
X224076004Y-97274013D01*
X224187657Y-97285010D01*
X224187667Y-97285010D01*
X224224990Y-97288686D01*
X224262313Y-97285010D01*
X238937668Y-97285010D01*
X238974990Y-97288686D01*
X239012312Y-97285010D01*
X239012323Y-97285010D01*
X239123976Y-97274013D01*
X239267237Y-97230556D01*
X239399266Y-97159984D01*
X239514991Y-97065011D01*
X239538794Y-97036008D01*
X239736729Y-96838072D01*
X240350001Y-96838072D01*
X240523255Y-96821008D01*
X240689851Y-96770472D01*
X240843387Y-96688405D01*
X240908849Y-96634682D01*
X240935998Y-96724180D01*
X240994963Y-96834494D01*
X241074315Y-96931185D01*
X241171006Y-97010537D01*
X241281320Y-97069502D01*
X241401018Y-97105812D01*
X241525500Y-97118072D01*
X241908476Y-97118072D01*
X241986102Y-97150226D01*
X242186061Y-97190000D01*
X242389939Y-97190000D01*
X242589898Y-97150226D01*
X242667524Y-97118072D01*
X243050500Y-97118072D01*
X243174982Y-97105812D01*
X243294680Y-97069502D01*
X243404994Y-97010537D01*
X243501685Y-96931185D01*
X243581037Y-96834494D01*
X243640002Y-96724180D01*
X243676312Y-96604482D01*
X243688572Y-96480000D01*
X243688572Y-95830000D01*
X243676312Y-95705518D01*
X243640002Y-95585820D01*
X243604820Y-95520000D01*
X243640002Y-95454180D01*
X243676312Y-95334482D01*
X243688572Y-95210000D01*
X243688572Y-94560000D01*
X243676312Y-94435518D01*
X243640002Y-94315820D01*
X243604820Y-94250000D01*
X243640002Y-94184180D01*
X243676312Y-94064482D01*
X243688572Y-93940000D01*
X243688572Y-93290000D01*
X243676312Y-93165518D01*
X243640002Y-93045820D01*
X243604820Y-92980000D01*
X243640002Y-92914180D01*
X243676312Y-92794482D01*
X243688572Y-92670000D01*
X243688572Y-92020000D01*
X246311428Y-92020000D01*
X246311428Y-92670000D01*
X246323688Y-92794482D01*
X246359998Y-92914180D01*
X246395180Y-92980000D01*
X246359998Y-93045820D01*
X246323688Y-93165518D01*
X246311428Y-93290000D01*
X246311428Y-93940000D01*
X246323688Y-94064482D01*
X246359998Y-94184180D01*
X246395180Y-94250000D01*
X246359998Y-94315820D01*
X246323688Y-94435518D01*
X246311428Y-94560000D01*
X246311428Y-95210000D01*
X246323688Y-95334482D01*
X246359998Y-95454180D01*
X246395180Y-95520000D01*
X246359998Y-95585820D01*
X246323688Y-95705518D01*
X246311428Y-95830000D01*
X246311428Y-96480000D01*
X246323688Y-96604482D01*
X246359998Y-96724180D01*
X246418963Y-96834494D01*
X246498315Y-96931185D01*
X246595006Y-97010537D01*
X246705320Y-97069502D01*
X246825018Y-97105812D01*
X246949500Y-97118072D01*
X248474500Y-97118072D01*
X248598982Y-97105812D01*
X248718680Y-97069502D01*
X248828994Y-97010537D01*
X248925685Y-96931185D01*
X248938968Y-96915000D01*
X249307678Y-96915000D01*
X249345000Y-96918676D01*
X249382322Y-96915000D01*
X249382333Y-96915000D01*
X249493986Y-96904003D01*
X249637247Y-96860546D01*
X249679292Y-96838072D01*
X250263270Y-96838072D01*
X250686201Y-97261003D01*
X250709999Y-97290001D01*
X250738997Y-97313799D01*
X250825723Y-97384974D01*
X250957753Y-97455546D01*
X251101014Y-97499003D01*
X251212667Y-97510000D01*
X251212677Y-97510000D01*
X251250000Y-97513676D01*
X251287323Y-97510000D01*
X253046289Y-97510000D01*
X253090226Y-97553937D01*
X253259744Y-97667205D01*
X253448102Y-97745226D01*
X253648061Y-97785000D01*
X253851939Y-97785000D01*
X254051898Y-97745226D01*
X254240256Y-97667205D01*
X254409774Y-97553937D01*
X254553937Y-97409774D01*
X254667205Y-97240256D01*
X254745226Y-97051898D01*
X254785000Y-96851939D01*
X254785000Y-96648061D01*
X254745226Y-96448102D01*
X254667205Y-96259744D01*
X254577172Y-96125000D01*
X254667205Y-95990256D01*
X254745226Y-95801898D01*
X254785000Y-95601939D01*
X254785000Y-95398061D01*
X254745226Y-95198102D01*
X254667205Y-95009744D01*
X254553937Y-94840226D01*
X254463711Y-94750000D01*
X254553937Y-94659774D01*
X254667205Y-94490256D01*
X254745226Y-94301898D01*
X254785000Y-94101939D01*
X254785000Y-93898061D01*
X254760055Y-93772653D01*
X255058942Y-93772653D01*
X255102879Y-93816590D01*
X255272397Y-93929858D01*
X255460755Y-94007879D01*
X255660714Y-94047653D01*
X255864592Y-94047653D01*
X256064551Y-94007879D01*
X256252909Y-93929858D01*
X256422427Y-93816590D01*
X256566590Y-93672427D01*
X256679858Y-93502909D01*
X256757879Y-93314551D01*
X256797653Y-93114592D01*
X256797653Y-92910714D01*
X256757879Y-92710755D01*
X256679858Y-92522397D01*
X256566590Y-92352879D01*
X256422427Y-92208716D01*
X256252909Y-92095448D01*
X256064551Y-92017427D01*
X255864592Y-91977653D01*
X255660714Y-91977653D01*
X255460755Y-92017427D01*
X255272397Y-92095448D01*
X255102879Y-92208716D01*
X255058942Y-92252653D01*
X253183365Y-92252653D01*
X253170472Y-92210149D01*
X253088405Y-92056613D01*
X252977962Y-91922038D01*
X252843387Y-91811595D01*
X252689851Y-91729528D01*
X252523255Y-91678992D01*
X252350001Y-91661928D01*
X251736729Y-91661928D01*
X251538794Y-91463992D01*
X251514991Y-91434989D01*
X251399266Y-91340016D01*
X251267237Y-91269444D01*
X251123976Y-91225987D01*
X251012323Y-91214990D01*
X251012312Y-91214990D01*
X250974990Y-91211314D01*
X250937668Y-91214990D01*
X248119332Y-91214990D01*
X248082009Y-91211314D01*
X248044686Y-91214990D01*
X248044677Y-91214990D01*
X247933024Y-91225987D01*
X247789763Y-91269444D01*
X247657734Y-91340016D01*
X247606664Y-91381928D01*
X246949500Y-91381928D01*
X246825018Y-91394188D01*
X246705320Y-91430498D01*
X246595006Y-91489463D01*
X246498315Y-91568815D01*
X246418963Y-91665506D01*
X246359998Y-91775820D01*
X246323688Y-91895518D01*
X246311428Y-92020000D01*
X243688572Y-92020000D01*
X243676312Y-91895518D01*
X243640002Y-91775820D01*
X243581037Y-91665506D01*
X243501685Y-91568815D01*
X243404994Y-91489463D01*
X243294680Y-91430498D01*
X243174982Y-91394188D01*
X243050500Y-91381928D01*
X242667524Y-91381928D01*
X242589898Y-91349774D01*
X242389939Y-91310000D01*
X242186061Y-91310000D01*
X242066842Y-91333714D01*
X242037500Y-91330824D01*
X241888515Y-91345498D01*
X241768417Y-91381928D01*
X241525500Y-91381928D01*
X241401018Y-91394188D01*
X241281320Y-91430498D01*
X241171006Y-91489463D01*
X241074315Y-91568815D01*
X240994963Y-91665506D01*
X240935998Y-91775820D01*
X240908849Y-91865318D01*
X240843387Y-91811595D01*
X240689851Y-91729528D01*
X240523255Y-91678992D01*
X240350001Y-91661928D01*
X239649999Y-91661928D01*
X239476745Y-91678992D01*
X239310149Y-91729528D01*
X239156613Y-91811595D01*
X239022038Y-91922038D01*
X239000000Y-91948891D01*
X238977962Y-91922038D01*
X238843387Y-91811595D01*
X238689851Y-91729528D01*
X238523255Y-91678992D01*
X238350001Y-91661928D01*
X237649999Y-91661928D01*
X237476745Y-91678992D01*
X237310149Y-91729528D01*
X237156613Y-91811595D01*
X237022038Y-91922038D01*
X236911595Y-92056613D01*
X236829528Y-92210149D01*
X236820473Y-92240000D01*
X229064802Y-92240000D01*
X227760000Y-90935199D01*
X227760000Y-90285000D01*
X227851939Y-90285000D01*
X228051898Y-90245226D01*
X228240256Y-90167205D01*
X228409774Y-90053937D01*
X228453711Y-90010000D01*
X234570473Y-90010000D01*
X234579528Y-90039851D01*
X234661595Y-90193387D01*
X234772038Y-90327962D01*
X234906613Y-90438405D01*
X235060149Y-90520472D01*
X235226745Y-90571008D01*
X235399999Y-90588072D01*
X236100001Y-90588072D01*
X236273255Y-90571008D01*
X236439851Y-90520472D01*
X236593387Y-90438405D01*
X236727962Y-90327962D01*
X236750000Y-90301109D01*
X236772038Y-90327962D01*
X236906613Y-90438405D01*
X237060149Y-90520472D01*
X237226745Y-90571008D01*
X237399999Y-90588072D01*
X238100001Y-90588072D01*
X238273255Y-90571008D01*
X238439851Y-90520472D01*
X238593387Y-90438405D01*
X238727962Y-90327962D01*
X238838405Y-90193387D01*
X238855819Y-90160808D01*
X238886595Y-90218386D01*
X238997038Y-90352962D01*
X239131614Y-90463405D01*
X239285150Y-90545472D01*
X239451746Y-90596008D01*
X239625000Y-90613072D01*
X240250769Y-90613072D01*
X240448715Y-90811018D01*
X240472509Y-90840011D01*
X240501502Y-90863805D01*
X240501506Y-90863809D01*
X240536775Y-90892753D01*
X240588234Y-90934984D01*
X240720263Y-91005556D01*
X240863524Y-91049013D01*
X240975177Y-91060010D01*
X240975186Y-91060010D01*
X241012509Y-91063686D01*
X241049832Y-91060010D01*
X257005209Y-91060010D01*
X257753771Y-91808572D01*
X257720498Y-91870820D01*
X257684188Y-91990518D01*
X257671928Y-92115000D01*
X257671928Y-93385000D01*
X257684188Y-93509482D01*
X257720498Y-93629180D01*
X257779463Y-93739494D01*
X257858815Y-93836185D01*
X257955506Y-93915537D01*
X258065820Y-93974502D01*
X258185518Y-94010812D01*
X258310000Y-94023072D01*
X261230000Y-94023072D01*
X261354482Y-94010812D01*
X261474180Y-93974502D01*
X261584494Y-93915537D01*
X261681185Y-93836185D01*
X261760537Y-93739494D01*
X261819502Y-93629180D01*
X261855812Y-93509482D01*
X261868072Y-93385000D01*
X261868072Y-92115000D01*
X261855812Y-91990518D01*
X261819502Y-91870820D01*
X261760537Y-91760506D01*
X261681185Y-91663815D01*
X261584494Y-91584463D01*
X261474180Y-91525498D01*
X261354482Y-91489188D01*
X261230000Y-91476928D01*
X259571730Y-91476928D01*
X259117874Y-91023072D01*
X261230000Y-91023072D01*
X261354482Y-91010812D01*
X261474180Y-90974502D01*
X261584494Y-90915537D01*
X261681185Y-90836185D01*
X261760537Y-90739494D01*
X261819502Y-90629180D01*
X261855812Y-90509482D01*
X261868072Y-90385000D01*
X261868072Y-89115000D01*
X261855812Y-88990518D01*
X261819502Y-88870820D01*
X261760537Y-88760506D01*
X261681185Y-88663815D01*
X261584494Y-88584463D01*
X261474180Y-88525498D01*
X261354482Y-88489188D01*
X261230000Y-88476928D01*
X259571730Y-88476928D01*
X259117873Y-88023072D01*
X261230000Y-88023072D01*
X261354482Y-88010812D01*
X261474180Y-87974502D01*
X261584494Y-87915537D01*
X261681185Y-87836185D01*
X261760537Y-87739494D01*
X261819502Y-87629180D01*
X261855812Y-87509482D01*
X261868072Y-87385000D01*
X261868072Y-86115000D01*
X261855812Y-85990518D01*
X261819502Y-85870820D01*
X261760537Y-85760506D01*
X261681185Y-85663815D01*
X261584494Y-85584463D01*
X261474180Y-85525498D01*
X261354482Y-85489188D01*
X261230000Y-85476928D01*
X259571729Y-85476928D01*
X259383814Y-85289012D01*
X259360011Y-85260009D01*
X259244286Y-85165036D01*
X259112257Y-85094464D01*
X258968996Y-85051007D01*
X258857343Y-85040010D01*
X258857332Y-85040010D01*
X258820010Y-85036334D01*
X258782688Y-85040010D01*
X243225572Y-85040010D01*
X243225572Y-84275000D01*
X243208508Y-84101746D01*
X243157972Y-83935150D01*
X243075905Y-83781614D01*
X242965462Y-83647038D01*
X242830886Y-83536595D01*
X242677350Y-83454528D01*
X242510754Y-83403992D01*
X242337500Y-83386928D01*
X241662500Y-83386928D01*
X241489246Y-83403992D01*
X241322650Y-83454528D01*
X241169114Y-83536595D01*
X241034538Y-83647038D01*
X240962500Y-83734817D01*
X240890462Y-83647038D01*
X240755886Y-83536595D01*
X240602350Y-83454528D01*
X240435754Y-83403992D01*
X240262500Y-83386928D01*
X239587500Y-83386928D01*
X239414246Y-83403992D01*
X239247650Y-83454528D01*
X239094114Y-83536595D01*
X238959538Y-83647038D01*
X238849095Y-83781614D01*
X238836787Y-83804641D01*
X238727962Y-83672038D01*
X238593387Y-83561595D01*
X238439851Y-83479528D01*
X238273255Y-83428992D01*
X238100001Y-83411928D01*
X237399999Y-83411928D01*
X237226745Y-83428992D01*
X237060149Y-83479528D01*
X236906613Y-83561595D01*
X236772038Y-83672038D01*
X236750000Y-83698891D01*
X236727962Y-83672038D01*
X236593387Y-83561595D01*
X236439851Y-83479528D01*
X236273255Y-83428992D01*
X236100001Y-83411928D01*
X235399999Y-83411928D01*
X235226745Y-83428992D01*
X235060149Y-83479528D01*
X234906613Y-83561595D01*
X234772038Y-83672038D01*
X234661595Y-83806613D01*
X234579528Y-83960149D01*
X234570473Y-83990000D01*
X228787323Y-83990000D01*
X228750000Y-83986324D01*
X228712677Y-83990000D01*
X228712667Y-83990000D01*
X228601014Y-84000997D01*
X228461218Y-84043403D01*
X228457753Y-84044454D01*
X228325723Y-84115026D01*
X228311444Y-84126745D01*
X228209999Y-84209999D01*
X228186201Y-84238997D01*
X227460199Y-84965000D01*
X227398061Y-84965000D01*
X227198102Y-85004774D01*
X227009744Y-85082795D01*
X226840226Y-85196063D01*
X226760649Y-85275640D01*
X226745226Y-85198102D01*
X226667205Y-85009744D01*
X226553937Y-84840226D01*
X226409774Y-84696063D01*
X226240256Y-84582795D01*
X226051898Y-84504774D01*
X225851939Y-84465000D01*
X225648061Y-84465000D01*
X225448102Y-84504774D01*
X225259744Y-84582795D01*
X225090226Y-84696063D01*
X225019044Y-84767245D01*
X224290800Y-84039001D01*
X224266997Y-84009997D01*
X224151272Y-83915024D01*
X224019243Y-83844452D01*
X223875982Y-83800995D01*
X223764329Y-83789998D01*
X223764318Y-83789998D01*
X223726996Y-83786322D01*
X223689674Y-83789998D01*
X220391711Y-83789998D01*
X220347774Y-83746061D01*
X220178256Y-83632793D01*
X219989898Y-83554772D01*
X219789939Y-83514998D01*
X219586061Y-83514998D01*
X219386102Y-83554772D01*
X219197744Y-83632793D01*
X219028226Y-83746061D01*
X218884063Y-83890224D01*
X218816771Y-83990934D01*
X218724274Y-83915024D01*
X218592245Y-83844452D01*
X218448984Y-83800995D01*
X218337331Y-83789998D01*
X218337320Y-83789998D01*
X218299998Y-83786322D01*
X218262676Y-83789998D01*
X214515711Y-83789998D01*
X214471774Y-83746061D01*
X214302256Y-83632793D01*
X214113898Y-83554772D01*
X213913939Y-83514998D01*
X213710061Y-83514998D01*
X213510102Y-83554772D01*
X213321744Y-83632793D01*
X213152226Y-83746061D01*
X213008063Y-83890224D01*
X212894795Y-84059742D01*
X212816774Y-84248100D01*
X212777000Y-84448059D01*
X212777000Y-84651937D01*
X212816774Y-84851896D01*
X212894795Y-85040254D01*
X213008063Y-85209772D01*
X213152226Y-85353935D01*
X213321744Y-85467203D01*
X213510102Y-85545224D01*
X213710061Y-85584998D01*
X213913939Y-85584998D01*
X214113898Y-85545224D01*
X214215000Y-85503346D01*
X214215000Y-85601939D01*
X214254774Y-85801898D01*
X214332795Y-85990256D01*
X214446063Y-86159774D01*
X214590226Y-86303937D01*
X214759744Y-86417205D01*
X214948102Y-86495226D01*
X215078585Y-86521180D01*
X214966515Y-86596063D01*
X214922578Y-86640000D01*
X212567150Y-86640000D01*
X212667205Y-86490256D01*
X212745226Y-86301898D01*
X212785000Y-86101939D01*
X212785000Y-85898061D01*
X212745226Y-85698102D01*
X212667205Y-85509744D01*
X212553937Y-85340226D01*
X212510000Y-85296289D01*
X212510000Y-83314801D01*
X213520503Y-82304298D01*
X254713000Y-82304298D01*
X254713000Y-82695702D01*
X254789360Y-83079586D01*
X254939144Y-83441197D01*
X255156597Y-83766639D01*
X255433361Y-84043403D01*
X255758803Y-84260856D01*
X256120414Y-84410640D01*
X256504298Y-84487000D01*
X256895702Y-84487000D01*
X257279586Y-84410640D01*
X257641197Y-84260856D01*
X257966639Y-84043403D01*
X258243403Y-83766639D01*
X258460856Y-83441197D01*
X258610640Y-83079586D01*
X258687000Y-82695702D01*
X258687000Y-82304298D01*
X258610640Y-81920414D01*
X258460856Y-81558803D01*
X258307975Y-81330000D01*
X263786928Y-81330000D01*
X263786928Y-84760000D01*
X263799188Y-84884482D01*
X263835498Y-85004180D01*
X263894463Y-85114494D01*
X263973815Y-85211185D01*
X264070506Y-85290537D01*
X264180820Y-85349502D01*
X264300518Y-85385812D01*
X264425000Y-85398072D01*
X266075000Y-85398072D01*
X266199482Y-85385812D01*
X266319180Y-85349502D01*
X266429494Y-85290537D01*
X266526185Y-85211185D01*
X266605537Y-85114494D01*
X266664502Y-85004180D01*
X266700812Y-84884482D01*
X266713072Y-84760000D01*
X266713072Y-81330000D01*
X266700812Y-81205518D01*
X266664502Y-81085820D01*
X266605537Y-80975506D01*
X266526185Y-80878815D01*
X266463968Y-80827755D01*
X266637624Y-80755824D01*
X266823520Y-80631612D01*
X266981612Y-80473520D01*
X267105824Y-80287624D01*
X267191383Y-80081067D01*
X267235000Y-79861788D01*
X267235000Y-79638212D01*
X267191383Y-79418933D01*
X267105824Y-79212376D01*
X266981612Y-79026480D01*
X266823520Y-78868388D01*
X266637624Y-78744176D01*
X266431067Y-78658617D01*
X266211788Y-78615000D01*
X265988212Y-78615000D01*
X265768933Y-78658617D01*
X265562376Y-78744176D01*
X265376480Y-78868388D01*
X265218388Y-79026480D01*
X265094176Y-79212376D01*
X265008617Y-79418933D01*
X264965000Y-79638212D01*
X264965000Y-79861788D01*
X265008617Y-80081067D01*
X265094176Y-80287624D01*
X265218388Y-80473520D01*
X265376480Y-80631612D01*
X265466749Y-80691928D01*
X264425000Y-80691928D01*
X264300518Y-80704188D01*
X264180820Y-80740498D01*
X264070506Y-80799463D01*
X263973815Y-80878815D01*
X263894463Y-80975506D01*
X263835498Y-81085820D01*
X263799188Y-81205518D01*
X263786928Y-81330000D01*
X258307975Y-81330000D01*
X258243403Y-81233361D01*
X257966639Y-80956597D01*
X257641197Y-80739144D01*
X257279586Y-80589360D01*
X256895702Y-80513000D01*
X256504298Y-80513000D01*
X256120414Y-80589360D01*
X255758803Y-80739144D01*
X255433361Y-80956597D01*
X255156597Y-81233361D01*
X254939144Y-81558803D01*
X254789360Y-81920414D01*
X254713000Y-82304298D01*
X213520503Y-82304298D01*
X214564802Y-81260000D01*
X221046289Y-81260000D01*
X221090226Y-81303937D01*
X221259744Y-81417205D01*
X221448102Y-81495226D01*
X221648061Y-81535000D01*
X221851939Y-81535000D01*
X222051898Y-81495226D01*
X222240256Y-81417205D01*
X222409774Y-81303937D01*
X222553937Y-81159774D01*
X222667205Y-80990256D01*
X222745226Y-80801898D01*
X222785000Y-80601939D01*
X222785000Y-80398061D01*
X222745226Y-80198102D01*
X222667205Y-80009744D01*
X222553937Y-79840226D01*
X222409774Y-79696063D01*
X222240256Y-79582795D01*
X222051898Y-79504774D01*
X221851939Y-79465000D01*
X221648061Y-79465000D01*
X221448102Y-79504774D01*
X221259744Y-79582795D01*
X221090226Y-79696063D01*
X221046289Y-79740000D01*
X214287323Y-79740000D01*
X214250000Y-79736324D01*
X214212677Y-79740000D01*
X211404802Y-79740000D01*
X210563072Y-78898271D01*
X210563072Y-77460000D01*
X210550812Y-77335518D01*
X210514502Y-77215820D01*
X210455537Y-77105506D01*
X210376185Y-77008815D01*
X210279494Y-76929463D01*
X210169180Y-76870498D01*
X210049482Y-76834188D01*
X209925000Y-76821928D01*
X208486729Y-76821928D01*
X208053794Y-76388993D01*
X208029991Y-76359989D01*
X207914266Y-76265016D01*
X207782237Y-76194444D01*
X207638976Y-76150987D01*
X207527323Y-76139990D01*
X207527312Y-76139990D01*
X207489990Y-76136314D01*
X207452668Y-76139990D01*
X196637343Y-76139990D01*
X196600010Y-76136313D01*
X196562677Y-76139990D01*
X196451024Y-76150987D01*
X196307763Y-76194444D01*
X196175734Y-76265016D01*
X196060009Y-76359989D01*
X196036211Y-76388987D01*
X193210199Y-79215000D01*
X193148061Y-79215000D01*
X192948102Y-79254774D01*
X192759744Y-79332795D01*
X192590226Y-79446063D01*
X192446063Y-79590226D01*
X192332795Y-79759744D01*
X192254774Y-79948102D01*
X192215000Y-80148061D01*
X192215000Y-80351939D01*
X192254774Y-80551898D01*
X192332795Y-80740256D01*
X192446063Y-80909774D01*
X192490001Y-80953712D01*
X192490000Y-93046289D01*
X192446063Y-93090226D01*
X192332795Y-93259744D01*
X192254774Y-93448102D01*
X192215000Y-93648061D01*
X192215000Y-93851939D01*
X192254774Y-94051898D01*
X192332795Y-94240256D01*
X192446063Y-94409774D01*
X192590226Y-94553937D01*
X192759744Y-94667205D01*
X192948102Y-94745226D01*
X193148061Y-94785000D01*
X193351939Y-94785000D01*
X193551898Y-94745226D01*
X193740256Y-94667205D01*
X193909774Y-94553937D01*
X194053937Y-94409774D01*
X194167205Y-94240256D01*
X194245226Y-94051898D01*
X194285000Y-93851939D01*
X194285000Y-93648061D01*
X194245226Y-93448102D01*
X194167205Y-93259744D01*
X194053937Y-93090226D01*
X194010000Y-93046289D01*
X194010000Y-80953711D01*
X194053937Y-80909774D01*
X194167205Y-80740256D01*
X194245226Y-80551898D01*
X194285000Y-80351939D01*
X194285000Y-80289801D01*
X196914812Y-77659990D01*
X196936928Y-77659990D01*
X196936928Y-79460000D01*
X196949188Y-79584482D01*
X196985498Y-79704180D01*
X196999299Y-79730000D01*
X196985498Y-79755820D01*
X196949188Y-79875518D01*
X196936928Y-80000000D01*
X196936928Y-82000000D01*
X196949188Y-82124482D01*
X196985498Y-82244180D01*
X196999299Y-82270000D01*
X196985498Y-82295820D01*
X196949188Y-82415518D01*
X196936928Y-82540000D01*
X196936928Y-84540000D01*
X196949188Y-84664482D01*
X196985498Y-84784180D01*
X197044463Y-84894494D01*
X197123815Y-84991185D01*
X197220506Y-85070537D01*
X197330820Y-85129502D01*
X197450518Y-85165812D01*
X197575000Y-85178072D01*
X199240000Y-85178072D01*
X199240000Y-85462677D01*
X199236324Y-85500000D01*
X199240000Y-85537322D01*
X199240000Y-85537332D01*
X199250997Y-85648985D01*
X199275429Y-85729528D01*
X199294454Y-85792246D01*
X199365026Y-85924276D01*
X199397139Y-85963405D01*
X199459999Y-86040001D01*
X199489003Y-86063804D01*
X200630198Y-87205000D01*
X199013271Y-88821928D01*
X197575000Y-88821928D01*
X197450518Y-88834188D01*
X197330820Y-88870498D01*
X197220506Y-88929463D01*
X197123815Y-89008815D01*
X197044463Y-89105506D01*
X196985498Y-89215820D01*
X196949188Y-89335518D01*
X196936928Y-89460000D01*
X196936928Y-91460000D01*
X196949188Y-91584482D01*
X196985498Y-91704180D01*
X196999299Y-91730000D01*
X196985498Y-91755820D01*
X196949188Y-91875518D01*
X196936928Y-92000000D01*
X196936928Y-94000000D01*
X196949188Y-94124482D01*
X196985498Y-94244180D01*
X196999299Y-94270000D01*
X196985498Y-94295820D01*
X196949188Y-94415518D01*
X196936928Y-94540000D01*
X196936928Y-96540000D01*
X196949188Y-96664482D01*
X196985498Y-96784180D01*
X197044463Y-96894494D01*
X197123815Y-96991185D01*
X197220506Y-97070537D01*
X197330820Y-97129502D01*
X197450518Y-97165812D01*
X197575000Y-97178072D01*
X199325000Y-97178072D01*
X199449482Y-97165812D01*
X199569180Y-97129502D01*
X199679494Y-97070537D01*
X199776185Y-96991185D01*
X199854513Y-96895742D01*
X199887290Y-97003793D01*
X199948575Y-97118450D01*
X199997506Y-97178072D01*
X200031052Y-97218948D01*
X200131550Y-97301425D01*
X200246207Y-97362710D01*
X200370617Y-97400450D01*
X200500000Y-97413193D01*
X200532419Y-97410000D01*
X206967581Y-97410000D01*
X207000000Y-97413193D01*
X207032419Y-97410000D01*
X207129383Y-97400450D01*
X207253793Y-97362710D01*
X207368450Y-97301425D01*
X207468948Y-97218948D01*
X207551425Y-97118450D01*
X207612710Y-97003793D01*
X207645487Y-96895742D01*
X207723815Y-96991185D01*
X207820506Y-97070537D01*
X207930820Y-97129502D01*
X208050518Y-97165812D01*
X208175000Y-97178072D01*
X209925000Y-97178072D01*
X210049482Y-97165812D01*
X210169180Y-97129502D01*
X210279494Y-97070537D01*
X210376185Y-96991185D01*
X210455537Y-96894494D01*
X210514502Y-96784180D01*
X210550812Y-96664482D01*
X210563072Y-96540000D01*
X210563072Y-94540000D01*
X210550812Y-94415518D01*
X210514502Y-94295820D01*
X210500701Y-94270000D01*
X210514502Y-94244180D01*
X210550812Y-94124482D01*
X210563072Y-94000000D01*
X210563072Y-93047874D01*
X211990000Y-94474802D01*
X211990000Y-95111928D01*
X211500000Y-95111928D01*
X211375518Y-95124188D01*
X211255820Y-95160498D01*
X211145506Y-95219463D01*
X211048815Y-95298815D01*
X210969463Y-95395506D01*
X210910498Y-95505820D01*
X210874188Y-95625518D01*
X210861928Y-95750000D01*
X210861928Y-98250000D01*
X210870792Y-98340000D01*
X163410000Y-98340000D01*
X163410000Y-89875000D01*
X177236928Y-89875000D01*
X177236928Y-92125000D01*
X177249188Y-92249482D01*
X177285498Y-92369180D01*
X177344463Y-92479494D01*
X177423815Y-92576185D01*
X177520506Y-92655537D01*
X177630820Y-92714502D01*
X177750518Y-92750812D01*
X177875000Y-92763072D01*
X180125000Y-92763072D01*
X180249482Y-92750812D01*
X180369180Y-92714502D01*
X180479494Y-92655537D01*
X180576185Y-92576185D01*
X180655537Y-92479494D01*
X180714502Y-92369180D01*
X180750812Y-92249482D01*
X180763072Y-92125000D01*
X180763072Y-89875000D01*
X180750812Y-89750518D01*
X180714502Y-89630820D01*
X180655537Y-89520506D01*
X180576185Y-89423815D01*
X180479494Y-89344463D01*
X180369180Y-89285498D01*
X180249482Y-89249188D01*
X180125000Y-89236928D01*
X177875000Y-89236928D01*
X177750518Y-89249188D01*
X177630820Y-89285498D01*
X177520506Y-89344463D01*
X177423815Y-89423815D01*
X177344463Y-89520506D01*
X177285498Y-89630820D01*
X177249188Y-89750518D01*
X177236928Y-89875000D01*
X163410000Y-89875000D01*
X163410000Y-86788013D01*
X166090000Y-86788013D01*
X166090000Y-87311987D01*
X166192222Y-87825893D01*
X166392738Y-88309983D01*
X166683843Y-88745651D01*
X167054349Y-89116157D01*
X167490017Y-89407262D01*
X167974107Y-89607778D01*
X168488013Y-89710000D01*
X169011987Y-89710000D01*
X169525893Y-89607778D01*
X170009983Y-89407262D01*
X170445651Y-89116157D01*
X170816157Y-88745651D01*
X171107262Y-88309983D01*
X171307778Y-87825893D01*
X171410000Y-87311987D01*
X171410000Y-86788013D01*
X171307778Y-86274107D01*
X171107262Y-85790017D01*
X170816157Y-85354349D01*
X170445651Y-84983843D01*
X170009983Y-84692738D01*
X169525893Y-84492222D01*
X169011987Y-84390000D01*
X168488013Y-84390000D01*
X167974107Y-84492222D01*
X167490017Y-84692738D01*
X167054349Y-84983843D01*
X166683843Y-85354349D01*
X166392738Y-85790017D01*
X166192222Y-86274107D01*
X166090000Y-86788013D01*
X163410000Y-86788013D01*
X163410000Y-82926655D01*
X177240000Y-82926655D01*
X177240000Y-83273345D01*
X177307636Y-83613373D01*
X177440308Y-83933673D01*
X177632919Y-84221935D01*
X177878065Y-84467081D01*
X178166327Y-84659692D01*
X178486627Y-84792364D01*
X178826655Y-84860000D01*
X179173345Y-84860000D01*
X179513373Y-84792364D01*
X179833673Y-84659692D01*
X180121935Y-84467081D01*
X180367081Y-84221935D01*
X180559692Y-83933673D01*
X180692364Y-83613373D01*
X180760000Y-83273345D01*
X180760000Y-82926655D01*
X180692364Y-82586627D01*
X180559692Y-82266327D01*
X180367081Y-81978065D01*
X180121935Y-81732919D01*
X179833673Y-81540308D01*
X179513373Y-81407636D01*
X179173345Y-81340000D01*
X178826655Y-81340000D01*
X178486627Y-81407636D01*
X178166327Y-81540308D01*
X177878065Y-81732919D01*
X177632919Y-81978065D01*
X177440308Y-82266327D01*
X177307636Y-82586627D01*
X177240000Y-82926655D01*
X163410000Y-82926655D01*
X163410000Y-75660000D01*
X211424207Y-75660000D01*
X211285825Y-75798382D01*
%TA.AperFunction,Conductor*%
D23*
G36*
X211285825Y-75798382D02*
G01*
X211079534Y-76107118D01*
X210937439Y-76450166D01*
X210865000Y-76814344D01*
X210865000Y-77185656D01*
X210937439Y-77549834D01*
X211079534Y-77892882D01*
X211285825Y-78201618D01*
X211548382Y-78464175D01*
X211857118Y-78670466D01*
X212200166Y-78812561D01*
X212564344Y-78885000D01*
X212935656Y-78885000D01*
X213299834Y-78812561D01*
X213642882Y-78670466D01*
X213951618Y-78464175D01*
X214214175Y-78201618D01*
X214420466Y-77892882D01*
X214562561Y-77549834D01*
X214635000Y-77185656D01*
X214635000Y-76814344D01*
X214562561Y-76450166D01*
X214420466Y-76107118D01*
X214214175Y-75798382D01*
X214075793Y-75660000D01*
X215424207Y-75660000D01*
X215285825Y-75798382D01*
X215079534Y-76107118D01*
X214937439Y-76450166D01*
X214865000Y-76814344D01*
X214865000Y-77185656D01*
X214937439Y-77549834D01*
X215079534Y-77892882D01*
X215285825Y-78201618D01*
X215548382Y-78464175D01*
X215857118Y-78670466D01*
X216200166Y-78812561D01*
X216564344Y-78885000D01*
X216935656Y-78885000D01*
X217299834Y-78812561D01*
X217642882Y-78670466D01*
X217951618Y-78464175D01*
X218214175Y-78201618D01*
X218420466Y-77892882D01*
X218562561Y-77549834D01*
X218635000Y-77185656D01*
X218635000Y-76814344D01*
X218562561Y-76450166D01*
X218420466Y-76107118D01*
X218214175Y-75798382D01*
X218075793Y-75660000D01*
X219424207Y-75660000D01*
X219285825Y-75798382D01*
X219079534Y-76107118D01*
X218937439Y-76450166D01*
X218865000Y-76814344D01*
X218865000Y-77185656D01*
X218937439Y-77549834D01*
X219079534Y-77892882D01*
X219285825Y-78201618D01*
X219548382Y-78464175D01*
X219857118Y-78670466D01*
X220200166Y-78812561D01*
X220564344Y-78885000D01*
X220935656Y-78885000D01*
X221299834Y-78812561D01*
X221642882Y-78670466D01*
X221951618Y-78464175D01*
X222214175Y-78201618D01*
X222278065Y-78106000D01*
X233741289Y-78106000D01*
X233785226Y-78149937D01*
X233954744Y-78263205D01*
X234143102Y-78341226D01*
X234343061Y-78381000D01*
X234405199Y-78381000D01*
X235212202Y-79188004D01*
X235236000Y-79217002D01*
X235351725Y-79311975D01*
X235483754Y-79382547D01*
X235627015Y-79426004D01*
X235738668Y-79437001D01*
X235738676Y-79437001D01*
X235776001Y-79440677D01*
X235813326Y-79437001D01*
X257505023Y-79437001D01*
X257465000Y-79638212D01*
X257465000Y-79861788D01*
X257508617Y-80081067D01*
X257594176Y-80287624D01*
X257718388Y-80473520D01*
X257876480Y-80631612D01*
X258062376Y-80755824D01*
X258268933Y-80841383D01*
X258488212Y-80885000D01*
X258711788Y-80885000D01*
X258931067Y-80841383D01*
X259137624Y-80755824D01*
X259323520Y-80631612D01*
X259481612Y-80473520D01*
X259605824Y-80287624D01*
X259691383Y-80081067D01*
X259735000Y-79861788D01*
X259735000Y-79638212D01*
X259694977Y-79437001D01*
X260403385Y-79437001D01*
X260456597Y-79516639D01*
X260733361Y-79793403D01*
X261058803Y-80010856D01*
X261420414Y-80160640D01*
X261804298Y-80237000D01*
X262195702Y-80237000D01*
X262579586Y-80160640D01*
X262941197Y-80010856D01*
X263266639Y-79793403D01*
X263543403Y-79516639D01*
X263760856Y-79191197D01*
X263910640Y-78829586D01*
X263987000Y-78445702D01*
X263987000Y-78054298D01*
X263910640Y-77670414D01*
X263760856Y-77308803D01*
X263543403Y-76983361D01*
X263266639Y-76706597D01*
X262941197Y-76489144D01*
X262579586Y-76339360D01*
X262195702Y-76263000D01*
X261804298Y-76263000D01*
X261420414Y-76339360D01*
X261058803Y-76489144D01*
X260733361Y-76706597D01*
X260456597Y-76983361D01*
X260239144Y-77308803D01*
X260089360Y-77670414D01*
X260040310Y-77917001D01*
X258462940Y-77917001D01*
X258562709Y-77718875D01*
X258667164Y-77341666D01*
X258696021Y-76951326D01*
X258648173Y-76562857D01*
X258525456Y-76191187D01*
X258386672Y-75931541D01*
X258086264Y-75793344D01*
X258201189Y-75678419D01*
X258182770Y-75660000D01*
X269340000Y-75660000D01*
X269340001Y-98340000D01*
X266687004Y-98340000D01*
X266700812Y-98294482D01*
X266713072Y-98170000D01*
X266713072Y-94740000D01*
X266700812Y-94615518D01*
X266664502Y-94495820D01*
X266605537Y-94385506D01*
X266526185Y-94288815D01*
X266429494Y-94209463D01*
X266319180Y-94150498D01*
X266199482Y-94114188D01*
X266075000Y-94101928D01*
X264425000Y-94101928D01*
X264300518Y-94114188D01*
X264180820Y-94150498D01*
X264070506Y-94209463D01*
X263973815Y-94288815D01*
X263894463Y-94385506D01*
X263835498Y-94495820D01*
X263799188Y-94615518D01*
X263786928Y-94740000D01*
X263786928Y-98170000D01*
X263799188Y-98294482D01*
X263812996Y-98340000D01*
X222075793Y-98340000D01*
X222214175Y-98201618D01*
X222420466Y-97892882D01*
X222562561Y-97549834D01*
X222635000Y-97185656D01*
X222635000Y-96814344D01*
X222562561Y-96450166D01*
X222420466Y-96107118D01*
X222214175Y-95798382D01*
X222175793Y-95760000D01*
X222385179Y-95760000D01*
X223661191Y-97036013D01*
X223684989Y-97065011D01*
X223800714Y-97159984D01*
X223932743Y-97230556D01*
X224076004Y-97274013D01*
X224187657Y-97285010D01*
X224187667Y-97285010D01*
X224224990Y-97288686D01*
X224262313Y-97285010D01*
X238937668Y-97285010D01*
X238974990Y-97288686D01*
X239012312Y-97285010D01*
X239012323Y-97285010D01*
X239123976Y-97274013D01*
X239267237Y-97230556D01*
X239399266Y-97159984D01*
X239514991Y-97065011D01*
X239538794Y-97036008D01*
X239736729Y-96838072D01*
X240350001Y-96838072D01*
X240523255Y-96821008D01*
X240689851Y-96770472D01*
X240843387Y-96688405D01*
X240908849Y-96634682D01*
X240935998Y-96724180D01*
X240994963Y-96834494D01*
X241074315Y-96931185D01*
X241171006Y-97010537D01*
X241281320Y-97069502D01*
X241401018Y-97105812D01*
X241525500Y-97118072D01*
X241908476Y-97118072D01*
X241986102Y-97150226D01*
X242186061Y-97190000D01*
X242389939Y-97190000D01*
X242589898Y-97150226D01*
X242667524Y-97118072D01*
X243050500Y-97118072D01*
X243174982Y-97105812D01*
X243294680Y-97069502D01*
X243404994Y-97010537D01*
X243501685Y-96931185D01*
X243581037Y-96834494D01*
X243640002Y-96724180D01*
X243676312Y-96604482D01*
X243688572Y-96480000D01*
X243688572Y-95830000D01*
X243676312Y-95705518D01*
X243640002Y-95585820D01*
X243604820Y-95520000D01*
X243640002Y-95454180D01*
X243676312Y-95334482D01*
X243688572Y-95210000D01*
X243688572Y-94560000D01*
X243676312Y-94435518D01*
X243640002Y-94315820D01*
X243604820Y-94250000D01*
X243640002Y-94184180D01*
X243676312Y-94064482D01*
X243688572Y-93940000D01*
X243688572Y-93290000D01*
X243676312Y-93165518D01*
X243640002Y-93045820D01*
X243604820Y-92980000D01*
X243640002Y-92914180D01*
X243676312Y-92794482D01*
X243688572Y-92670000D01*
X243688572Y-92020000D01*
X246311428Y-92020000D01*
X246311428Y-92670000D01*
X246323688Y-92794482D01*
X246359998Y-92914180D01*
X246395180Y-92980000D01*
X246359998Y-93045820D01*
X246323688Y-93165518D01*
X246311428Y-93290000D01*
X246311428Y-93940000D01*
X246323688Y-94064482D01*
X246359998Y-94184180D01*
X246395180Y-94250000D01*
X246359998Y-94315820D01*
X246323688Y-94435518D01*
X246311428Y-94560000D01*
X246311428Y-95210000D01*
X246323688Y-95334482D01*
X246359998Y-95454180D01*
X246395180Y-95520000D01*
X246359998Y-95585820D01*
X246323688Y-95705518D01*
X246311428Y-95830000D01*
X246311428Y-96480000D01*
X246323688Y-96604482D01*
X246359998Y-96724180D01*
X246418963Y-96834494D01*
X246498315Y-96931185D01*
X246595006Y-97010537D01*
X246705320Y-97069502D01*
X246825018Y-97105812D01*
X246949500Y-97118072D01*
X248474500Y-97118072D01*
X248598982Y-97105812D01*
X248718680Y-97069502D01*
X248828994Y-97010537D01*
X248925685Y-96931185D01*
X248938968Y-96915000D01*
X249307678Y-96915000D01*
X249345000Y-96918676D01*
X249382322Y-96915000D01*
X249382333Y-96915000D01*
X249493986Y-96904003D01*
X249637247Y-96860546D01*
X249679292Y-96838072D01*
X250263270Y-96838072D01*
X250686201Y-97261003D01*
X250709999Y-97290001D01*
X250738997Y-97313799D01*
X250825723Y-97384974D01*
X250957753Y-97455546D01*
X251101014Y-97499003D01*
X251212667Y-97510000D01*
X251212677Y-97510000D01*
X251250000Y-97513676D01*
X251287323Y-97510000D01*
X253046289Y-97510000D01*
X253090226Y-97553937D01*
X253259744Y-97667205D01*
X253448102Y-97745226D01*
X253648061Y-97785000D01*
X253851939Y-97785000D01*
X254051898Y-97745226D01*
X254240256Y-97667205D01*
X254409774Y-97553937D01*
X254553937Y-97409774D01*
X254667205Y-97240256D01*
X254745226Y-97051898D01*
X254785000Y-96851939D01*
X254785000Y-96648061D01*
X254745226Y-96448102D01*
X254667205Y-96259744D01*
X254577172Y-96125000D01*
X254667205Y-95990256D01*
X254745226Y-95801898D01*
X254785000Y-95601939D01*
X254785000Y-95398061D01*
X254745226Y-95198102D01*
X254667205Y-95009744D01*
X254553937Y-94840226D01*
X254463711Y-94750000D01*
X254553937Y-94659774D01*
X254667205Y-94490256D01*
X254745226Y-94301898D01*
X254785000Y-94101939D01*
X254785000Y-93898061D01*
X254760055Y-93772653D01*
X255058942Y-93772653D01*
X255102879Y-93816590D01*
X255272397Y-93929858D01*
X255460755Y-94007879D01*
X255660714Y-94047653D01*
X255864592Y-94047653D01*
X256064551Y-94007879D01*
X256252909Y-93929858D01*
X256422427Y-93816590D01*
X256566590Y-93672427D01*
X256679858Y-93502909D01*
X256757879Y-93314551D01*
X256797653Y-93114592D01*
X256797653Y-92910714D01*
X256757879Y-92710755D01*
X256679858Y-92522397D01*
X256566590Y-92352879D01*
X256422427Y-92208716D01*
X256252909Y-92095448D01*
X256064551Y-92017427D01*
X255864592Y-91977653D01*
X255660714Y-91977653D01*
X255460755Y-92017427D01*
X255272397Y-92095448D01*
X255102879Y-92208716D01*
X255058942Y-92252653D01*
X253183365Y-92252653D01*
X253170472Y-92210149D01*
X253088405Y-92056613D01*
X252977962Y-91922038D01*
X252843387Y-91811595D01*
X252689851Y-91729528D01*
X252523255Y-91678992D01*
X252350001Y-91661928D01*
X251736729Y-91661928D01*
X251538794Y-91463992D01*
X251514991Y-91434989D01*
X251399266Y-91340016D01*
X251267237Y-91269444D01*
X251123976Y-91225987D01*
X251012323Y-91214990D01*
X251012312Y-91214990D01*
X250974990Y-91211314D01*
X250937668Y-91214990D01*
X248119332Y-91214990D01*
X248082009Y-91211314D01*
X248044686Y-91214990D01*
X248044677Y-91214990D01*
X247933024Y-91225987D01*
X247789763Y-91269444D01*
X247657734Y-91340016D01*
X247606664Y-91381928D01*
X246949500Y-91381928D01*
X246825018Y-91394188D01*
X246705320Y-91430498D01*
X246595006Y-91489463D01*
X246498315Y-91568815D01*
X246418963Y-91665506D01*
X246359998Y-91775820D01*
X246323688Y-91895518D01*
X246311428Y-92020000D01*
X243688572Y-92020000D01*
X243676312Y-91895518D01*
X243640002Y-91775820D01*
X243581037Y-91665506D01*
X243501685Y-91568815D01*
X243404994Y-91489463D01*
X243294680Y-91430498D01*
X243174982Y-91394188D01*
X243050500Y-91381928D01*
X242667524Y-91381928D01*
X242589898Y-91349774D01*
X242389939Y-91310000D01*
X242186061Y-91310000D01*
X242066842Y-91333714D01*
X242037500Y-91330824D01*
X241888515Y-91345498D01*
X241768417Y-91381928D01*
X241525500Y-91381928D01*
X241401018Y-91394188D01*
X241281320Y-91430498D01*
X241171006Y-91489463D01*
X241074315Y-91568815D01*
X240994963Y-91665506D01*
X240935998Y-91775820D01*
X240908849Y-91865318D01*
X240843387Y-91811595D01*
X240689851Y-91729528D01*
X240523255Y-91678992D01*
X240350001Y-91661928D01*
X239649999Y-91661928D01*
X239476745Y-91678992D01*
X239310149Y-91729528D01*
X239156613Y-91811595D01*
X239022038Y-91922038D01*
X239000000Y-91948891D01*
X238977962Y-91922038D01*
X238843387Y-91811595D01*
X238689851Y-91729528D01*
X238523255Y-91678992D01*
X238350001Y-91661928D01*
X237649999Y-91661928D01*
X237476745Y-91678992D01*
X237310149Y-91729528D01*
X237156613Y-91811595D01*
X237022038Y-91922038D01*
X236911595Y-92056613D01*
X236829528Y-92210149D01*
X236820473Y-92240000D01*
X229064802Y-92240000D01*
X227760000Y-90935199D01*
X227760000Y-90285000D01*
X227851939Y-90285000D01*
X228051898Y-90245226D01*
X228240256Y-90167205D01*
X228409774Y-90053937D01*
X228453711Y-90010000D01*
X234570473Y-90010000D01*
X234579528Y-90039851D01*
X234661595Y-90193387D01*
X234772038Y-90327962D01*
X234906613Y-90438405D01*
X235060149Y-90520472D01*
X235226745Y-90571008D01*
X235399999Y-90588072D01*
X236100001Y-90588072D01*
X236273255Y-90571008D01*
X236439851Y-90520472D01*
X236593387Y-90438405D01*
X236727962Y-90327962D01*
X236750000Y-90301109D01*
X236772038Y-90327962D01*
X236906613Y-90438405D01*
X237060149Y-90520472D01*
X237226745Y-90571008D01*
X237399999Y-90588072D01*
X238100001Y-90588072D01*
X238273255Y-90571008D01*
X238439851Y-90520472D01*
X238593387Y-90438405D01*
X238727962Y-90327962D01*
X238838405Y-90193387D01*
X238855819Y-90160808D01*
X238886595Y-90218386D01*
X238997038Y-90352962D01*
X239131614Y-90463405D01*
X239285150Y-90545472D01*
X239451746Y-90596008D01*
X239625000Y-90613072D01*
X240250769Y-90613072D01*
X240448715Y-90811018D01*
X240472509Y-90840011D01*
X240501502Y-90863805D01*
X240501506Y-90863809D01*
X240536775Y-90892753D01*
X240588234Y-90934984D01*
X240720263Y-91005556D01*
X240863524Y-91049013D01*
X240975177Y-91060010D01*
X240975186Y-91060010D01*
X241012509Y-91063686D01*
X241049832Y-91060010D01*
X257005209Y-91060010D01*
X257753771Y-91808572D01*
X257720498Y-91870820D01*
X257684188Y-91990518D01*
X257671928Y-92115000D01*
X257671928Y-93385000D01*
X257684188Y-93509482D01*
X257720498Y-93629180D01*
X257779463Y-93739494D01*
X257858815Y-93836185D01*
X257955506Y-93915537D01*
X258065820Y-93974502D01*
X258185518Y-94010812D01*
X258310000Y-94023072D01*
X261230000Y-94023072D01*
X261354482Y-94010812D01*
X261474180Y-93974502D01*
X261584494Y-93915537D01*
X261681185Y-93836185D01*
X261760537Y-93739494D01*
X261819502Y-93629180D01*
X261855812Y-93509482D01*
X261868072Y-93385000D01*
X261868072Y-92115000D01*
X261855812Y-91990518D01*
X261819502Y-91870820D01*
X261760537Y-91760506D01*
X261681185Y-91663815D01*
X261584494Y-91584463D01*
X261474180Y-91525498D01*
X261354482Y-91489188D01*
X261230000Y-91476928D01*
X259571730Y-91476928D01*
X259117874Y-91023072D01*
X261230000Y-91023072D01*
X261354482Y-91010812D01*
X261474180Y-90974502D01*
X261584494Y-90915537D01*
X261681185Y-90836185D01*
X261760537Y-90739494D01*
X261819502Y-90629180D01*
X261855812Y-90509482D01*
X261868072Y-90385000D01*
X261868072Y-89115000D01*
X261855812Y-88990518D01*
X261819502Y-88870820D01*
X261760537Y-88760506D01*
X261681185Y-88663815D01*
X261584494Y-88584463D01*
X261474180Y-88525498D01*
X261354482Y-88489188D01*
X261230000Y-88476928D01*
X259571730Y-88476928D01*
X259117873Y-88023072D01*
X261230000Y-88023072D01*
X261354482Y-88010812D01*
X261474180Y-87974502D01*
X261584494Y-87915537D01*
X261681185Y-87836185D01*
X261760537Y-87739494D01*
X261819502Y-87629180D01*
X261855812Y-87509482D01*
X261868072Y-87385000D01*
X261868072Y-86115000D01*
X261855812Y-85990518D01*
X261819502Y-85870820D01*
X261760537Y-85760506D01*
X261681185Y-85663815D01*
X261584494Y-85584463D01*
X261474180Y-85525498D01*
X261354482Y-85489188D01*
X261230000Y-85476928D01*
X259571729Y-85476928D01*
X259383814Y-85289012D01*
X259360011Y-85260009D01*
X259244286Y-85165036D01*
X259112257Y-85094464D01*
X258968996Y-85051007D01*
X258857343Y-85040010D01*
X258857332Y-85040010D01*
X258820010Y-85036334D01*
X258782688Y-85040010D01*
X243225572Y-85040010D01*
X243225572Y-84275000D01*
X243208508Y-84101746D01*
X243157972Y-83935150D01*
X243075905Y-83781614D01*
X242965462Y-83647038D01*
X242830886Y-83536595D01*
X242677350Y-83454528D01*
X242510754Y-83403992D01*
X242337500Y-83386928D01*
X241662500Y-83386928D01*
X241489246Y-83403992D01*
X241322650Y-83454528D01*
X241169114Y-83536595D01*
X241034538Y-83647038D01*
X240962500Y-83734817D01*
X240890462Y-83647038D01*
X240755886Y-83536595D01*
X240602350Y-83454528D01*
X240435754Y-83403992D01*
X240262500Y-83386928D01*
X239587500Y-83386928D01*
X239414246Y-83403992D01*
X239247650Y-83454528D01*
X239094114Y-83536595D01*
X238959538Y-83647038D01*
X238849095Y-83781614D01*
X238836787Y-83804641D01*
X238727962Y-83672038D01*
X238593387Y-83561595D01*
X238439851Y-83479528D01*
X238273255Y-83428992D01*
X238100001Y-83411928D01*
X237399999Y-83411928D01*
X237226745Y-83428992D01*
X237060149Y-83479528D01*
X236906613Y-83561595D01*
X236772038Y-83672038D01*
X236750000Y-83698891D01*
X236727962Y-83672038D01*
X236593387Y-83561595D01*
X236439851Y-83479528D01*
X236273255Y-83428992D01*
X236100001Y-83411928D01*
X235399999Y-83411928D01*
X235226745Y-83428992D01*
X235060149Y-83479528D01*
X234906613Y-83561595D01*
X234772038Y-83672038D01*
X234661595Y-83806613D01*
X234579528Y-83960149D01*
X234570473Y-83990000D01*
X228787323Y-83990000D01*
X228750000Y-83986324D01*
X228712677Y-83990000D01*
X228712667Y-83990000D01*
X228601014Y-84000997D01*
X228461218Y-84043403D01*
X228457753Y-84044454D01*
X228325723Y-84115026D01*
X228311444Y-84126745D01*
X228209999Y-84209999D01*
X228186201Y-84238997D01*
X227460199Y-84965000D01*
X227398061Y-84965000D01*
X227198102Y-85004774D01*
X227009744Y-85082795D01*
X226840226Y-85196063D01*
X226760649Y-85275640D01*
X226745226Y-85198102D01*
X226667205Y-85009744D01*
X226553937Y-84840226D01*
X226409774Y-84696063D01*
X226240256Y-84582795D01*
X226051898Y-84504774D01*
X225851939Y-84465000D01*
X225648061Y-84465000D01*
X225448102Y-84504774D01*
X225259744Y-84582795D01*
X225090226Y-84696063D01*
X225019044Y-84767245D01*
X224290800Y-84039001D01*
X224266997Y-84009997D01*
X224151272Y-83915024D01*
X224019243Y-83844452D01*
X223875982Y-83800995D01*
X223764329Y-83789998D01*
X223764318Y-83789998D01*
X223726996Y-83786322D01*
X223689674Y-83789998D01*
X220391711Y-83789998D01*
X220347774Y-83746061D01*
X220178256Y-83632793D01*
X219989898Y-83554772D01*
X219789939Y-83514998D01*
X219586061Y-83514998D01*
X219386102Y-83554772D01*
X219197744Y-83632793D01*
X219028226Y-83746061D01*
X218884063Y-83890224D01*
X218816771Y-83990934D01*
X218724274Y-83915024D01*
X218592245Y-83844452D01*
X218448984Y-83800995D01*
X218337331Y-83789998D01*
X218337320Y-83789998D01*
X218299998Y-83786322D01*
X218262676Y-83789998D01*
X214515711Y-83789998D01*
X214471774Y-83746061D01*
X214302256Y-83632793D01*
X214113898Y-83554772D01*
X213913939Y-83514998D01*
X213710061Y-83514998D01*
X213510102Y-83554772D01*
X213321744Y-83632793D01*
X213152226Y-83746061D01*
X213008063Y-83890224D01*
X212894795Y-84059742D01*
X212816774Y-84248100D01*
X212777000Y-84448059D01*
X212777000Y-84651937D01*
X212816774Y-84851896D01*
X212894795Y-85040254D01*
X213008063Y-85209772D01*
X213152226Y-85353935D01*
X213321744Y-85467203D01*
X213510102Y-85545224D01*
X213710061Y-85584998D01*
X213913939Y-85584998D01*
X214113898Y-85545224D01*
X214215000Y-85503346D01*
X214215000Y-85601939D01*
X214254774Y-85801898D01*
X214332795Y-85990256D01*
X214446063Y-86159774D01*
X214590226Y-86303937D01*
X214759744Y-86417205D01*
X214948102Y-86495226D01*
X215078585Y-86521180D01*
X214966515Y-86596063D01*
X214922578Y-86640000D01*
X212567150Y-86640000D01*
X212667205Y-86490256D01*
X212745226Y-86301898D01*
X212785000Y-86101939D01*
X212785000Y-85898061D01*
X212745226Y-85698102D01*
X212667205Y-85509744D01*
X212553937Y-85340226D01*
X212510000Y-85296289D01*
X212510000Y-83314801D01*
X213520503Y-82304298D01*
X254713000Y-82304298D01*
X254713000Y-82695702D01*
X254789360Y-83079586D01*
X254939144Y-83441197D01*
X255156597Y-83766639D01*
X255433361Y-84043403D01*
X255758803Y-84260856D01*
X256120414Y-84410640D01*
X256504298Y-84487000D01*
X256895702Y-84487000D01*
X257279586Y-84410640D01*
X257641197Y-84260856D01*
X257966639Y-84043403D01*
X258243403Y-83766639D01*
X258460856Y-83441197D01*
X258610640Y-83079586D01*
X258687000Y-82695702D01*
X258687000Y-82304298D01*
X258610640Y-81920414D01*
X258460856Y-81558803D01*
X258307975Y-81330000D01*
X263786928Y-81330000D01*
X263786928Y-84760000D01*
X263799188Y-84884482D01*
X263835498Y-85004180D01*
X263894463Y-85114494D01*
X263973815Y-85211185D01*
X264070506Y-85290537D01*
X264180820Y-85349502D01*
X264300518Y-85385812D01*
X264425000Y-85398072D01*
X266075000Y-85398072D01*
X266199482Y-85385812D01*
X266319180Y-85349502D01*
X266429494Y-85290537D01*
X266526185Y-85211185D01*
X266605537Y-85114494D01*
X266664502Y-85004180D01*
X266700812Y-84884482D01*
X266713072Y-84760000D01*
X266713072Y-81330000D01*
X266700812Y-81205518D01*
X266664502Y-81085820D01*
X266605537Y-80975506D01*
X266526185Y-80878815D01*
X266463968Y-80827755D01*
X266637624Y-80755824D01*
X266823520Y-80631612D01*
X266981612Y-80473520D01*
X267105824Y-80287624D01*
X267191383Y-80081067D01*
X267235000Y-79861788D01*
X267235000Y-79638212D01*
X267191383Y-79418933D01*
X267105824Y-79212376D01*
X266981612Y-79026480D01*
X266823520Y-78868388D01*
X266637624Y-78744176D01*
X266431067Y-78658617D01*
X266211788Y-78615000D01*
X265988212Y-78615000D01*
X265768933Y-78658617D01*
X265562376Y-78744176D01*
X265376480Y-78868388D01*
X265218388Y-79026480D01*
X265094176Y-79212376D01*
X265008617Y-79418933D01*
X264965000Y-79638212D01*
X264965000Y-79861788D01*
X265008617Y-80081067D01*
X265094176Y-80287624D01*
X265218388Y-80473520D01*
X265376480Y-80631612D01*
X265466749Y-80691928D01*
X264425000Y-80691928D01*
X264300518Y-80704188D01*
X264180820Y-80740498D01*
X264070506Y-80799463D01*
X263973815Y-80878815D01*
X263894463Y-80975506D01*
X263835498Y-81085820D01*
X263799188Y-81205518D01*
X263786928Y-81330000D01*
X258307975Y-81330000D01*
X258243403Y-81233361D01*
X257966639Y-80956597D01*
X257641197Y-80739144D01*
X257279586Y-80589360D01*
X256895702Y-80513000D01*
X256504298Y-80513000D01*
X256120414Y-80589360D01*
X255758803Y-80739144D01*
X255433361Y-80956597D01*
X255156597Y-81233361D01*
X254939144Y-81558803D01*
X254789360Y-81920414D01*
X254713000Y-82304298D01*
X213520503Y-82304298D01*
X214564802Y-81260000D01*
X221046289Y-81260000D01*
X221090226Y-81303937D01*
X221259744Y-81417205D01*
X221448102Y-81495226D01*
X221648061Y-81535000D01*
X221851939Y-81535000D01*
X222051898Y-81495226D01*
X222240256Y-81417205D01*
X222409774Y-81303937D01*
X222553937Y-81159774D01*
X222667205Y-80990256D01*
X222745226Y-80801898D01*
X222785000Y-80601939D01*
X222785000Y-80398061D01*
X222745226Y-80198102D01*
X222667205Y-80009744D01*
X222553937Y-79840226D01*
X222409774Y-79696063D01*
X222240256Y-79582795D01*
X222051898Y-79504774D01*
X221851939Y-79465000D01*
X221648061Y-79465000D01*
X221448102Y-79504774D01*
X221259744Y-79582795D01*
X221090226Y-79696063D01*
X221046289Y-79740000D01*
X214287323Y-79740000D01*
X214250000Y-79736324D01*
X214212677Y-79740000D01*
X211404802Y-79740000D01*
X210563072Y-78898271D01*
X210563072Y-77460000D01*
X210550812Y-77335518D01*
X210514502Y-77215820D01*
X210455537Y-77105506D01*
X210376185Y-77008815D01*
X210279494Y-76929463D01*
X210169180Y-76870498D01*
X210049482Y-76834188D01*
X209925000Y-76821928D01*
X208486729Y-76821928D01*
X208053794Y-76388993D01*
X208029991Y-76359989D01*
X207914266Y-76265016D01*
X207782237Y-76194444D01*
X207638976Y-76150987D01*
X207527323Y-76139990D01*
X207527312Y-76139990D01*
X207489990Y-76136314D01*
X207452668Y-76139990D01*
X196637343Y-76139990D01*
X196600010Y-76136313D01*
X196562677Y-76139990D01*
X196451024Y-76150987D01*
X196307763Y-76194444D01*
X196175734Y-76265016D01*
X196060009Y-76359989D01*
X196036211Y-76388987D01*
X193210199Y-79215000D01*
X193148061Y-79215000D01*
X192948102Y-79254774D01*
X192759744Y-79332795D01*
X192590226Y-79446063D01*
X192446063Y-79590226D01*
X192332795Y-79759744D01*
X192254774Y-79948102D01*
X192215000Y-80148061D01*
X192215000Y-80351939D01*
X192254774Y-80551898D01*
X192332795Y-80740256D01*
X192446063Y-80909774D01*
X192490001Y-80953712D01*
X192490000Y-93046289D01*
X192446063Y-93090226D01*
X192332795Y-93259744D01*
X192254774Y-93448102D01*
X192215000Y-93648061D01*
X192215000Y-93851939D01*
X192254774Y-94051898D01*
X192332795Y-94240256D01*
X192446063Y-94409774D01*
X192590226Y-94553937D01*
X192759744Y-94667205D01*
X192948102Y-94745226D01*
X193148061Y-94785000D01*
X193351939Y-94785000D01*
X193551898Y-94745226D01*
X193740256Y-94667205D01*
X193909774Y-94553937D01*
X194053937Y-94409774D01*
X194167205Y-94240256D01*
X194245226Y-94051898D01*
X194285000Y-93851939D01*
X194285000Y-93648061D01*
X194245226Y-93448102D01*
X194167205Y-93259744D01*
X194053937Y-93090226D01*
X194010000Y-93046289D01*
X194010000Y-80953711D01*
X194053937Y-80909774D01*
X194167205Y-80740256D01*
X194245226Y-80551898D01*
X194285000Y-80351939D01*
X194285000Y-80289801D01*
X196914812Y-77659990D01*
X196936928Y-77659990D01*
X196936928Y-79460000D01*
X196949188Y-79584482D01*
X196985498Y-79704180D01*
X196999299Y-79730000D01*
X196985498Y-79755820D01*
X196949188Y-79875518D01*
X196936928Y-80000000D01*
X196936928Y-82000000D01*
X196949188Y-82124482D01*
X196985498Y-82244180D01*
X196999299Y-82270000D01*
X196985498Y-82295820D01*
X196949188Y-82415518D01*
X196936928Y-82540000D01*
X196936928Y-84540000D01*
X196949188Y-84664482D01*
X196985498Y-84784180D01*
X197044463Y-84894494D01*
X197123815Y-84991185D01*
X197220506Y-85070537D01*
X197330820Y-85129502D01*
X197450518Y-85165812D01*
X197575000Y-85178072D01*
X199240000Y-85178072D01*
X199240000Y-85462677D01*
X199236324Y-85500000D01*
X199240000Y-85537322D01*
X199240000Y-85537332D01*
X199250997Y-85648985D01*
X199275429Y-85729528D01*
X199294454Y-85792246D01*
X199365026Y-85924276D01*
X199397139Y-85963405D01*
X199459999Y-86040001D01*
X199489003Y-86063804D01*
X200630198Y-87205000D01*
X199013271Y-88821928D01*
X197575000Y-88821928D01*
X197450518Y-88834188D01*
X197330820Y-88870498D01*
X197220506Y-88929463D01*
X197123815Y-89008815D01*
X197044463Y-89105506D01*
X196985498Y-89215820D01*
X196949188Y-89335518D01*
X196936928Y-89460000D01*
X196936928Y-91460000D01*
X196949188Y-91584482D01*
X196985498Y-91704180D01*
X196999299Y-91730000D01*
X196985498Y-91755820D01*
X196949188Y-91875518D01*
X196936928Y-92000000D01*
X196936928Y-94000000D01*
X196949188Y-94124482D01*
X196985498Y-94244180D01*
X196999299Y-94270000D01*
X196985498Y-94295820D01*
X196949188Y-94415518D01*
X196936928Y-94540000D01*
X196936928Y-96540000D01*
X196949188Y-96664482D01*
X196985498Y-96784180D01*
X197044463Y-96894494D01*
X197123815Y-96991185D01*
X197220506Y-97070537D01*
X197330820Y-97129502D01*
X197450518Y-97165812D01*
X197575000Y-97178072D01*
X199325000Y-97178072D01*
X199449482Y-97165812D01*
X199569180Y-97129502D01*
X199679494Y-97070537D01*
X199776185Y-96991185D01*
X199854513Y-96895742D01*
X199887290Y-97003793D01*
X199948575Y-97118450D01*
X199997506Y-97178072D01*
X200031052Y-97218948D01*
X200131550Y-97301425D01*
X200246207Y-97362710D01*
X200370617Y-97400450D01*
X200500000Y-97413193D01*
X200532419Y-97410000D01*
X206967581Y-97410000D01*
X207000000Y-97413193D01*
X207032419Y-97410000D01*
X207129383Y-97400450D01*
X207253793Y-97362710D01*
X207368450Y-97301425D01*
X207468948Y-97218948D01*
X207551425Y-97118450D01*
X207612710Y-97003793D01*
X207645487Y-96895742D01*
X207723815Y-96991185D01*
X207820506Y-97070537D01*
X207930820Y-97129502D01*
X208050518Y-97165812D01*
X208175000Y-97178072D01*
X209925000Y-97178072D01*
X210049482Y-97165812D01*
X210169180Y-97129502D01*
X210279494Y-97070537D01*
X210376185Y-96991185D01*
X210455537Y-96894494D01*
X210514502Y-96784180D01*
X210550812Y-96664482D01*
X210563072Y-96540000D01*
X210563072Y-94540000D01*
X210550812Y-94415518D01*
X210514502Y-94295820D01*
X210500701Y-94270000D01*
X210514502Y-94244180D01*
X210550812Y-94124482D01*
X210563072Y-94000000D01*
X210563072Y-93047874D01*
X211990000Y-94474802D01*
X211990000Y-95111928D01*
X211500000Y-95111928D01*
X211375518Y-95124188D01*
X211255820Y-95160498D01*
X211145506Y-95219463D01*
X211048815Y-95298815D01*
X210969463Y-95395506D01*
X210910498Y-95505820D01*
X210874188Y-95625518D01*
X210861928Y-95750000D01*
X210861928Y-98250000D01*
X210870792Y-98340000D01*
X163410000Y-98340000D01*
X163410000Y-89875000D01*
X177236928Y-89875000D01*
X177236928Y-92125000D01*
X177249188Y-92249482D01*
X177285498Y-92369180D01*
X177344463Y-92479494D01*
X177423815Y-92576185D01*
X177520506Y-92655537D01*
X177630820Y-92714502D01*
X177750518Y-92750812D01*
X177875000Y-92763072D01*
X180125000Y-92763072D01*
X180249482Y-92750812D01*
X180369180Y-92714502D01*
X180479494Y-92655537D01*
X180576185Y-92576185D01*
X180655537Y-92479494D01*
X180714502Y-92369180D01*
X180750812Y-92249482D01*
X180763072Y-92125000D01*
X180763072Y-89875000D01*
X180750812Y-89750518D01*
X180714502Y-89630820D01*
X180655537Y-89520506D01*
X180576185Y-89423815D01*
X180479494Y-89344463D01*
X180369180Y-89285498D01*
X180249482Y-89249188D01*
X180125000Y-89236928D01*
X177875000Y-89236928D01*
X177750518Y-89249188D01*
X177630820Y-89285498D01*
X177520506Y-89344463D01*
X177423815Y-89423815D01*
X177344463Y-89520506D01*
X177285498Y-89630820D01*
X177249188Y-89750518D01*
X177236928Y-89875000D01*
X163410000Y-89875000D01*
X163410000Y-86788013D01*
X166090000Y-86788013D01*
X166090000Y-87311987D01*
X166192222Y-87825893D01*
X166392738Y-88309983D01*
X166683843Y-88745651D01*
X167054349Y-89116157D01*
X167490017Y-89407262D01*
X167974107Y-89607778D01*
X168488013Y-89710000D01*
X169011987Y-89710000D01*
X169525893Y-89607778D01*
X170009983Y-89407262D01*
X170445651Y-89116157D01*
X170816157Y-88745651D01*
X171107262Y-88309983D01*
X171307778Y-87825893D01*
X171410000Y-87311987D01*
X171410000Y-86788013D01*
X171307778Y-86274107D01*
X171107262Y-85790017D01*
X170816157Y-85354349D01*
X170445651Y-84983843D01*
X170009983Y-84692738D01*
X169525893Y-84492222D01*
X169011987Y-84390000D01*
X168488013Y-84390000D01*
X167974107Y-84492222D01*
X167490017Y-84692738D01*
X167054349Y-84983843D01*
X166683843Y-85354349D01*
X166392738Y-85790017D01*
X166192222Y-86274107D01*
X166090000Y-86788013D01*
X163410000Y-86788013D01*
X163410000Y-82926655D01*
X177240000Y-82926655D01*
X177240000Y-83273345D01*
X177307636Y-83613373D01*
X177440308Y-83933673D01*
X177632919Y-84221935D01*
X177878065Y-84467081D01*
X178166327Y-84659692D01*
X178486627Y-84792364D01*
X178826655Y-84860000D01*
X179173345Y-84860000D01*
X179513373Y-84792364D01*
X179833673Y-84659692D01*
X180121935Y-84467081D01*
X180367081Y-84221935D01*
X180559692Y-83933673D01*
X180692364Y-83613373D01*
X180760000Y-83273345D01*
X180760000Y-82926655D01*
X180692364Y-82586627D01*
X180559692Y-82266327D01*
X180367081Y-81978065D01*
X180121935Y-81732919D01*
X179833673Y-81540308D01*
X179513373Y-81407636D01*
X179173345Y-81340000D01*
X178826655Y-81340000D01*
X178486627Y-81407636D01*
X178166327Y-81540308D01*
X177878065Y-81732919D01*
X177632919Y-81978065D01*
X177440308Y-82266327D01*
X177307636Y-82586627D01*
X177240000Y-82926655D01*
X163410000Y-82926655D01*
X163410000Y-75660000D01*
X211424207Y-75660000D01*
X211285825Y-75798382D01*
G37*
%TD.AperFunction*%
D22*
X218436200Y-89761002D02*
X218459999Y-89790001D01*
X218575724Y-89884974D01*
X218707753Y-89955546D01*
X218851014Y-89999003D01*
X218962667Y-90010000D01*
X218962677Y-90010000D01*
X219000000Y-90013676D01*
X219037323Y-90010000D01*
X224821289Y-90010000D01*
X224865226Y-90053937D01*
X225034744Y-90167205D01*
X225223102Y-90245226D01*
X225423061Y-90285000D01*
X225490001Y-90285000D01*
X225490000Y-93462677D01*
X225486324Y-93500000D01*
X225490000Y-93537322D01*
X225490000Y-93537332D01*
X225500997Y-93648985D01*
X225544454Y-93792246D01*
X225615026Y-93924276D01*
X225636546Y-93950498D01*
X225709999Y-94040001D01*
X225739003Y-94063804D01*
X227440208Y-95765010D01*
X224539792Y-95765010D01*
X223263784Y-94489003D01*
X223239981Y-94459999D01*
X223124256Y-94365026D01*
X222992227Y-94294454D01*
X222848966Y-94250997D01*
X222737313Y-94240000D01*
X222737302Y-94240000D01*
X222699980Y-94236324D01*
X222662658Y-94240000D01*
X218787322Y-94240000D01*
X218749999Y-94236324D01*
X218712676Y-94240000D01*
X218712667Y-94240000D01*
X218601014Y-94250997D01*
X218476343Y-94288815D01*
X218457753Y-94294454D01*
X218325723Y-94365026D01*
X218242083Y-94433668D01*
X218209999Y-94459999D01*
X218186201Y-94488997D01*
X217432717Y-95242481D01*
X217299834Y-95187439D01*
X216935656Y-95115000D01*
X216564344Y-95115000D01*
X216200166Y-95187439D01*
X215857118Y-95329534D01*
X215548382Y-95535825D01*
X215285825Y-95798382D01*
X215079534Y-96107118D01*
X214937439Y-96450166D01*
X214865000Y-96814344D01*
X214865000Y-97185656D01*
X214937439Y-97549834D01*
X215079534Y-97892882D01*
X215285825Y-98201618D01*
X215424207Y-98340000D01*
X214629208Y-98340000D01*
X214638072Y-98250000D01*
X214638072Y-95750000D01*
X214625812Y-95625518D01*
X214589502Y-95505820D01*
X214530537Y-95395506D01*
X214451185Y-95298815D01*
X214354494Y-95219463D01*
X214244180Y-95160498D01*
X214124482Y-95124188D01*
X214000000Y-95111928D01*
X213510000Y-95111928D01*
X213510000Y-94197322D01*
X213513676Y-94159999D01*
X213510000Y-94122676D01*
X213510000Y-94122667D01*
X213499003Y-94011014D01*
X213455546Y-93867753D01*
X213384974Y-93735724D01*
X213290001Y-93619999D01*
X213261004Y-93596202D01*
X210563072Y-90898271D01*
X210563072Y-90072873D01*
X211715000Y-91224802D01*
X211715000Y-91286939D01*
X211754774Y-91486898D01*
X211832795Y-91675256D01*
X211946063Y-91844774D01*
X212090226Y-91988937D01*
X212259744Y-92102205D01*
X212448102Y-92180226D01*
X212648061Y-92220000D01*
X212851939Y-92220000D01*
X213051898Y-92180226D01*
X213240256Y-92102205D01*
X213409774Y-91988937D01*
X213553937Y-91844774D01*
X213667205Y-91675256D01*
X213745226Y-91486898D01*
X213785000Y-91286939D01*
X213785000Y-91083061D01*
X213745226Y-90883102D01*
X213667205Y-90694744D01*
X213553937Y-90525226D01*
X213409774Y-90381063D01*
X213240256Y-90267795D01*
X213051898Y-90189774D01*
X212851939Y-90150000D01*
X212789802Y-90150000D01*
X211534999Y-88895198D01*
X211534999Y-88285000D01*
X211601939Y-88285000D01*
X211801898Y-88245226D01*
X211990256Y-88167205D01*
X212001039Y-88160000D01*
X214922578Y-88160000D01*
X214966515Y-88203937D01*
X215136033Y-88317205D01*
X215324391Y-88395226D01*
X215524350Y-88435000D01*
X215728228Y-88435000D01*
X215928187Y-88395226D01*
X216116545Y-88317205D01*
X216286063Y-88203937D01*
X216430226Y-88059774D01*
X216543494Y-87890256D01*
X216549926Y-87874728D01*
X218436200Y-89761002D01*
%TA.AperFunction,Conductor*%
D23*
G36*
X218436200Y-89761002D02*
G01*
X218459999Y-89790001D01*
X218575724Y-89884974D01*
X218707753Y-89955546D01*
X218851014Y-89999003D01*
X218962667Y-90010000D01*
X218962677Y-90010000D01*
X219000000Y-90013676D01*
X219037323Y-90010000D01*
X224821289Y-90010000D01*
X224865226Y-90053937D01*
X225034744Y-90167205D01*
X225223102Y-90245226D01*
X225423061Y-90285000D01*
X225490001Y-90285000D01*
X225490000Y-93462677D01*
X225486324Y-93500000D01*
X225490000Y-93537322D01*
X225490000Y-93537332D01*
X225500997Y-93648985D01*
X225544454Y-93792246D01*
X225615026Y-93924276D01*
X225636546Y-93950498D01*
X225709999Y-94040001D01*
X225739003Y-94063804D01*
X227440208Y-95765010D01*
X224539792Y-95765010D01*
X223263784Y-94489003D01*
X223239981Y-94459999D01*
X223124256Y-94365026D01*
X222992227Y-94294454D01*
X222848966Y-94250997D01*
X222737313Y-94240000D01*
X222737302Y-94240000D01*
X222699980Y-94236324D01*
X222662658Y-94240000D01*
X218787322Y-94240000D01*
X218749999Y-94236324D01*
X218712676Y-94240000D01*
X218712667Y-94240000D01*
X218601014Y-94250997D01*
X218476343Y-94288815D01*
X218457753Y-94294454D01*
X218325723Y-94365026D01*
X218242083Y-94433668D01*
X218209999Y-94459999D01*
X218186201Y-94488997D01*
X217432717Y-95242481D01*
X217299834Y-95187439D01*
X216935656Y-95115000D01*
X216564344Y-95115000D01*
X216200166Y-95187439D01*
X215857118Y-95329534D01*
X215548382Y-95535825D01*
X215285825Y-95798382D01*
X215079534Y-96107118D01*
X214937439Y-96450166D01*
X214865000Y-96814344D01*
X214865000Y-97185656D01*
X214937439Y-97549834D01*
X215079534Y-97892882D01*
X215285825Y-98201618D01*
X215424207Y-98340000D01*
X214629208Y-98340000D01*
X214638072Y-98250000D01*
X214638072Y-95750000D01*
X214625812Y-95625518D01*
X214589502Y-95505820D01*
X214530537Y-95395506D01*
X214451185Y-95298815D01*
X214354494Y-95219463D01*
X214244180Y-95160498D01*
X214124482Y-95124188D01*
X214000000Y-95111928D01*
X213510000Y-95111928D01*
X213510000Y-94197322D01*
X213513676Y-94159999D01*
X213510000Y-94122676D01*
X213510000Y-94122667D01*
X213499003Y-94011014D01*
X213455546Y-93867753D01*
X213384974Y-93735724D01*
X213290001Y-93619999D01*
X213261004Y-93596202D01*
X210563072Y-90898271D01*
X210563072Y-90072873D01*
X211715000Y-91224802D01*
X211715000Y-91286939D01*
X211754774Y-91486898D01*
X211832795Y-91675256D01*
X211946063Y-91844774D01*
X212090226Y-91988937D01*
X212259744Y-92102205D01*
X212448102Y-92180226D01*
X212648061Y-92220000D01*
X212851939Y-92220000D01*
X213051898Y-92180226D01*
X213240256Y-92102205D01*
X213409774Y-91988937D01*
X213553937Y-91844774D01*
X213667205Y-91675256D01*
X213745226Y-91486898D01*
X213785000Y-91286939D01*
X213785000Y-91083061D01*
X213745226Y-90883102D01*
X213667205Y-90694744D01*
X213553937Y-90525226D01*
X213409774Y-90381063D01*
X213240256Y-90267795D01*
X213051898Y-90189774D01*
X212851939Y-90150000D01*
X212789802Y-90150000D01*
X211534999Y-88895198D01*
X211534999Y-88285000D01*
X211601939Y-88285000D01*
X211801898Y-88245226D01*
X211990256Y-88167205D01*
X212001039Y-88160000D01*
X214922578Y-88160000D01*
X214966515Y-88203937D01*
X215136033Y-88317205D01*
X215324391Y-88395226D01*
X215524350Y-88435000D01*
X215728228Y-88435000D01*
X215928187Y-88395226D01*
X216116545Y-88317205D01*
X216286063Y-88203937D01*
X216430226Y-88059774D01*
X216543494Y-87890256D01*
X216549926Y-87874728D01*
X218436200Y-89761002D01*
G37*
%TD.AperFunction*%
D22*
X257720498Y-88870820D02*
X257684188Y-88990518D01*
X257671928Y-89115000D01*
X257671928Y-89626359D01*
X257612257Y-89594464D01*
X257468996Y-89551007D01*
X257357343Y-89540010D01*
X257357332Y-89540010D01*
X257320010Y-89536334D01*
X257282688Y-89540010D01*
X243263072Y-89540010D01*
X243263072Y-88810010D01*
X257753002Y-88810010D01*
X257720498Y-88870820D01*
%TA.AperFunction,Conductor*%
D23*
G36*
X257720498Y-88870820D02*
G01*
X257684188Y-88990518D01*
X257671928Y-89115000D01*
X257671928Y-89626359D01*
X257612257Y-89594464D01*
X257468996Y-89551007D01*
X257357343Y-89540010D01*
X257357332Y-89540010D01*
X257320010Y-89536334D01*
X257282688Y-89540010D01*
X243263072Y-89540010D01*
X243263072Y-88810010D01*
X257753002Y-88810010D01*
X257720498Y-88870820D01*
G37*
%TD.AperFunction*%
D22*
X220235355Y-87560157D02*
X220259153Y-87589155D01*
X220374878Y-87684128D01*
X220506907Y-87754700D01*
X220650168Y-87798157D01*
X220761821Y-87809154D01*
X220761830Y-87809154D01*
X220799153Y-87812830D01*
X220836476Y-87809154D01*
X224497135Y-87809154D01*
X224541072Y-87853091D01*
X224710590Y-87966359D01*
X224898948Y-88044380D01*
X225098907Y-88084154D01*
X225302785Y-88084154D01*
X225490001Y-88046915D01*
X225490001Y-88215000D01*
X225423061Y-88215000D01*
X225223102Y-88254774D01*
X225034744Y-88332795D01*
X224865226Y-88446063D01*
X224821289Y-88490000D01*
X219314802Y-88490000D01*
X216285000Y-85460199D01*
X216285000Y-85398061D01*
X216267483Y-85309998D01*
X217985197Y-85309998D01*
X220235355Y-87560157D01*
%TA.AperFunction,Conductor*%
D23*
G36*
X220235355Y-87560157D02*
G01*
X220259153Y-87589155D01*
X220374878Y-87684128D01*
X220506907Y-87754700D01*
X220650168Y-87798157D01*
X220761821Y-87809154D01*
X220761830Y-87809154D01*
X220799153Y-87812830D01*
X220836476Y-87809154D01*
X224497135Y-87809154D01*
X224541072Y-87853091D01*
X224710590Y-87966359D01*
X224898948Y-88044380D01*
X225098907Y-88084154D01*
X225302785Y-88084154D01*
X225490001Y-88046915D01*
X225490001Y-88215000D01*
X225423061Y-88215000D01*
X225223102Y-88254774D01*
X225034744Y-88332795D01*
X224865226Y-88446063D01*
X224821289Y-88490000D01*
X219314802Y-88490000D01*
X216285000Y-85460199D01*
X216285000Y-85398061D01*
X216267483Y-85309998D01*
X217985197Y-85309998D01*
X220235355Y-87560157D01*
G37*
%TD.AperFunction*%
D22*
X257671928Y-87290010D02*
X243263072Y-87290010D01*
X243263072Y-86560010D01*
X257671928Y-86560010D01*
X257671928Y-87290010D01*
%TA.AperFunction,Conductor*%
D23*
G36*
X257671928Y-87290010D02*
G01*
X243263072Y-87290010D01*
X243263072Y-86560010D01*
X257671928Y-86560010D01*
X257671928Y-87290010D01*
G37*
%TD.AperFunction*%
D22*
X207723815Y-84991185D02*
X207820506Y-85070537D01*
X207930820Y-85129502D01*
X208050518Y-85165812D01*
X208175000Y-85178072D01*
X209925000Y-85178072D01*
X210014999Y-85169208D01*
X210014999Y-86215000D01*
X209898061Y-86215000D01*
X209698102Y-86254774D01*
X209509744Y-86332795D01*
X209340226Y-86446063D01*
X209296289Y-86490000D01*
X202064802Y-86490000D01*
X200984801Y-85410000D01*
X206967581Y-85410000D01*
X207000000Y-85413193D01*
X207032419Y-85410000D01*
X207129383Y-85400450D01*
X207253793Y-85362710D01*
X207368450Y-85301425D01*
X207468948Y-85218948D01*
X207551425Y-85118450D01*
X207612710Y-85003793D01*
X207645487Y-84895742D01*
X207723815Y-84991185D01*
%TA.AperFunction,Conductor*%
D23*
G36*
X207723815Y-84991185D02*
G01*
X207820506Y-85070537D01*
X207930820Y-85129502D01*
X208050518Y-85165812D01*
X208175000Y-85178072D01*
X209925000Y-85178072D01*
X210014999Y-85169208D01*
X210014999Y-86215000D01*
X209898061Y-86215000D01*
X209698102Y-86254774D01*
X209509744Y-86332795D01*
X209340226Y-86446063D01*
X209296289Y-86490000D01*
X202064802Y-86490000D01*
X200984801Y-85410000D01*
X206967581Y-85410000D01*
X207000000Y-85413193D01*
X207032419Y-85410000D01*
X207129383Y-85400450D01*
X207253793Y-85362710D01*
X207368450Y-85301425D01*
X207468948Y-85218948D01*
X207551425Y-85118450D01*
X207612710Y-85003793D01*
X207645487Y-84895742D01*
X207723815Y-84991185D01*
G37*
%TD.AperFunction*%
D22*
X255198811Y-75678419D02*
X255313736Y-75793344D01*
X255013328Y-75931541D01*
X254837291Y-76281125D01*
X254732836Y-76658334D01*
X254703979Y-77048674D01*
X254751827Y-77437143D01*
X254874544Y-77808813D01*
X254932372Y-77917001D01*
X236090803Y-77917001D01*
X235480000Y-77306199D01*
X235480000Y-77244061D01*
X235440226Y-77044102D01*
X235362205Y-76855744D01*
X235248937Y-76686226D01*
X235104774Y-76542063D01*
X234935256Y-76428795D01*
X234746898Y-76350774D01*
X234546939Y-76311000D01*
X234343061Y-76311000D01*
X234143102Y-76350774D01*
X233954744Y-76428795D01*
X233785226Y-76542063D01*
X233741289Y-76586000D01*
X222589580Y-76586000D01*
X222562561Y-76450166D01*
X222420466Y-76107118D01*
X222214175Y-75798382D01*
X222075793Y-75660000D01*
X255217230Y-75660000D01*
X255198811Y-75678419D01*
%TA.AperFunction,Conductor*%
D23*
G36*
X255198811Y-75678419D02*
G01*
X255313736Y-75793344D01*
X255013328Y-75931541D01*
X254837291Y-76281125D01*
X254732836Y-76658334D01*
X254703979Y-77048674D01*
X254751827Y-77437143D01*
X254874544Y-77808813D01*
X254932372Y-77917001D01*
X236090803Y-77917001D01*
X235480000Y-77306199D01*
X235480000Y-77244061D01*
X235440226Y-77044102D01*
X235362205Y-76855744D01*
X235248937Y-76686226D01*
X235104774Y-76542063D01*
X234935256Y-76428795D01*
X234746898Y-76350774D01*
X234546939Y-76311000D01*
X234343061Y-76311000D01*
X234143102Y-76350774D01*
X233954744Y-76428795D01*
X233785226Y-76542063D01*
X233741289Y-76586000D01*
X222589580Y-76586000D01*
X222562561Y-76450166D01*
X222420466Y-76107118D01*
X222214175Y-75798382D01*
X222075793Y-75660000D01*
X255217230Y-75660000D01*
X255198811Y-75678419D01*
G37*
%TD.AperFunction*%
D22*
X256893748Y-76985858D02*
X256879605Y-77000000D01*
X256893748Y-77014143D01*
X256714143Y-77193748D01*
X256700000Y-77179605D01*
X256685858Y-77193748D01*
X256506253Y-77014143D01*
X256520395Y-77000000D01*
X256506253Y-76985858D01*
X256685858Y-76806253D01*
X256700000Y-76820395D01*
X256714143Y-76806253D01*
X256893748Y-76985858D01*
%TA.AperFunction,Conductor*%
D23*
G36*
X256893748Y-76985858D02*
G01*
X256879605Y-77000000D01*
X256893748Y-77014143D01*
X256714143Y-77193748D01*
X256700000Y-77179605D01*
X256685858Y-77193748D01*
X256506253Y-77014143D01*
X256520395Y-77000000D01*
X256506253Y-76985858D01*
X256685858Y-76806253D01*
X256700000Y-76820395D01*
X256714143Y-76806253D01*
X256893748Y-76985858D01*
G37*
%TD.AperFunction*%
%TD*%
M02*
