%TF.GenerationSoftware,KiCad,Pcbnew,(5.1.12)-1*%
%TF.CreationDate,2023-03-06T23:23:30+01:00*%
%TF.ProjectId,DualPressure_V2,4475616c-5072-4657-9373-7572655f5632,rev?*%
%TF.SameCoordinates,Original*%
%TF.FileFunction,Copper,L1,Top*%
%TF.FilePolarity,Positive*%
%FSLAX46Y46*%
G04 Gerber Fmt 4.6, Leading zero omitted, Abs format (unit mm)*
G04 Created by KiCad (PCBNEW (5.1.12)-1) date 2023-03-06 23:23:30*
%MOMM*%
%LPD*%
G01*
G04 APERTURE LIST*
%TA.AperFunction,SMDPad,CuDef*%
%ADD10R,1.670000X1.820000*%
%TD*%
%TA.AperFunction,SMDPad,CuDef*%
%ADD11R,2.100000X1.500000*%
%TD*%
%TA.AperFunction,ComponentPad*%
%ADD12R,2.500000X2.500000*%
%TD*%
%TA.AperFunction,SMDPad,CuDef*%
%ADD13R,1.475000X0.450000*%
%TD*%
%TA.AperFunction,ComponentPad*%
%ADD14C,2.704000*%
%TD*%
%TA.AperFunction,SMDPad,CuDef*%
%ADD15R,1.000000X0.550000*%
%TD*%
%TA.AperFunction,SMDPad,CuDef*%
%ADD16R,1.300000X1.260000*%
%TD*%
%TA.AperFunction,ComponentPad*%
%ADD17C,2.500000*%
%TD*%
%TA.AperFunction,SMDPad,CuDef*%
%ADD18R,3.050000X1.016000*%
%TD*%
%TA.AperFunction,SMDPad,CuDef*%
%ADD19R,8.380000X10.660000*%
%TD*%
%TA.AperFunction,SMDPad,CuDef*%
%ADD20R,1.050000X0.650000*%
%TD*%
%TA.AperFunction,ComponentPad*%
%ADD21R,2.250000X2.250000*%
%TD*%
%TA.AperFunction,ComponentPad*%
%ADD22C,2.250000*%
%TD*%
%TA.AperFunction,ComponentPad*%
%ADD23C,4.050000*%
%TD*%
%TA.AperFunction,ViaPad*%
%ADD24C,0.800000*%
%TD*%
%TA.AperFunction,Conductor*%
%ADD25C,0.250000*%
%TD*%
%TA.AperFunction,Conductor*%
%ADD26C,0.254000*%
%TD*%
%TA.AperFunction,Conductor*%
%ADD27C,0.100000*%
%TD*%
G04 APERTURE END LIST*
%TO.P,C0,1*%
%TO.N,/POWER*%
%TA.AperFunction,SMDPad,CuDef*%
G36*
G01*
X252500000Y-97100000D02*
X250500000Y-97100000D01*
G75*
G02*
X250250000Y-96850000I0J250000D01*
G01*
X250250000Y-92950000D01*
G75*
G02*
X250500000Y-92700000I250000J0D01*
G01*
X252500000Y-92700000D01*
G75*
G02*
X252750000Y-92950000I0J-250000D01*
G01*
X252750000Y-96850000D01*
G75*
G02*
X252500000Y-97100000I-250000J0D01*
G01*
G37*
%TD.AperFunction*%
%TO.P,C0,2*%
%TO.N,GND*%
%TA.AperFunction,SMDPad,CuDef*%
G36*
G01*
X252500000Y-89700000D02*
X250500000Y-89700000D01*
G75*
G02*
X250250000Y-89450000I0J250000D01*
G01*
X250250000Y-85550000D01*
G75*
G02*
X250500000Y-85300000I250000J0D01*
G01*
X252500000Y-85300000D01*
G75*
G02*
X252750000Y-85550000I0J-250000D01*
G01*
X252750000Y-89450000D01*
G75*
G02*
X252500000Y-89700000I-250000J0D01*
G01*
G37*
%TD.AperFunction*%
%TD*%
%TO.P,C1,1*%
%TO.N,/5V*%
%TA.AperFunction,SMDPad,CuDef*%
G36*
G01*
X238500000Y-98600000D02*
X236500000Y-98600000D01*
G75*
G02*
X236250000Y-98350000I0J250000D01*
G01*
X236250000Y-94450000D01*
G75*
G02*
X236500000Y-94200000I250000J0D01*
G01*
X238500000Y-94200000D01*
G75*
G02*
X238750000Y-94450000I0J-250000D01*
G01*
X238750000Y-98350000D01*
G75*
G02*
X238500000Y-98600000I-250000J0D01*
G01*
G37*
%TD.AperFunction*%
%TO.P,C1,2*%
%TO.N,GND*%
%TA.AperFunction,SMDPad,CuDef*%
G36*
G01*
X238500000Y-90200000D02*
X236500000Y-90200000D01*
G75*
G02*
X236250000Y-89950000I0J250000D01*
G01*
X236250000Y-86050000D01*
G75*
G02*
X236500000Y-85800000I250000J0D01*
G01*
X238500000Y-85800000D01*
G75*
G02*
X238750000Y-86050000I0J-250000D01*
G01*
X238750000Y-89950000D01*
G75*
G02*
X238500000Y-90200000I-250000J0D01*
G01*
G37*
%TD.AperFunction*%
%TD*%
%TO.P,C2,1*%
%TO.N,/3.3V*%
%TA.AperFunction,SMDPad,CuDef*%
G36*
G01*
X228600000Y-87987500D02*
X228600000Y-87512500D01*
G75*
G02*
X228837500Y-87275000I237500J0D01*
G01*
X229437500Y-87275000D01*
G75*
G02*
X229675000Y-87512500I0J-237500D01*
G01*
X229675000Y-87987500D01*
G75*
G02*
X229437500Y-88225000I-237500J0D01*
G01*
X228837500Y-88225000D01*
G75*
G02*
X228600000Y-87987500I0J237500D01*
G01*
G37*
%TD.AperFunction*%
%TO.P,C2,2*%
%TO.N,GND*%
%TA.AperFunction,SMDPad,CuDef*%
G36*
G01*
X230325000Y-87987500D02*
X230325000Y-87512500D01*
G75*
G02*
X230562500Y-87275000I237500J0D01*
G01*
X231162500Y-87275000D01*
G75*
G02*
X231400000Y-87512500I0J-237500D01*
G01*
X231400000Y-87987500D01*
G75*
G02*
X231162500Y-88225000I-237500J0D01*
G01*
X230562500Y-88225000D01*
G75*
G02*
X230325000Y-87987500I0J237500D01*
G01*
G37*
%TD.AperFunction*%
%TD*%
%TO.P,C6,2*%
%TO.N,/AIN2*%
%TA.AperFunction,SMDPad,CuDef*%
G36*
G01*
X193900001Y-91350000D02*
X192599999Y-91350000D01*
G75*
G02*
X192350000Y-91100001I0J249999D01*
G01*
X192350000Y-90274999D01*
G75*
G02*
X192599999Y-90025000I249999J0D01*
G01*
X193900001Y-90025000D01*
G75*
G02*
X194150000Y-90274999I0J-249999D01*
G01*
X194150000Y-91100001D01*
G75*
G02*
X193900001Y-91350000I-249999J0D01*
G01*
G37*
%TD.AperFunction*%
%TO.P,C6,1*%
%TO.N,GND*%
%TA.AperFunction,SMDPad,CuDef*%
G36*
G01*
X193900001Y-94475000D02*
X192599999Y-94475000D01*
G75*
G02*
X192350000Y-94225001I0J249999D01*
G01*
X192350000Y-93399999D01*
G75*
G02*
X192599999Y-93150000I249999J0D01*
G01*
X193900001Y-93150000D01*
G75*
G02*
X194150000Y-93399999I0J-249999D01*
G01*
X194150000Y-94225001D01*
G75*
G02*
X193900001Y-94475000I-249999J0D01*
G01*
G37*
%TD.AperFunction*%
%TD*%
%TO.P,C7,1*%
%TO.N,/AIN3*%
%TA.AperFunction,SMDPad,CuDef*%
G36*
G01*
X193900001Y-83975000D02*
X192599999Y-83975000D01*
G75*
G02*
X192350000Y-83725001I0J249999D01*
G01*
X192350000Y-82899999D01*
G75*
G02*
X192599999Y-82650000I249999J0D01*
G01*
X193900001Y-82650000D01*
G75*
G02*
X194150000Y-82899999I0J-249999D01*
G01*
X194150000Y-83725001D01*
G75*
G02*
X193900001Y-83975000I-249999J0D01*
G01*
G37*
%TD.AperFunction*%
%TO.P,C7,2*%
%TO.N,GND*%
%TA.AperFunction,SMDPad,CuDef*%
G36*
G01*
X193900001Y-80850000D02*
X192599999Y-80850000D01*
G75*
G02*
X192350000Y-80600001I0J249999D01*
G01*
X192350000Y-79774999D01*
G75*
G02*
X192599999Y-79525000I249999J0D01*
G01*
X193900001Y-79525000D01*
G75*
G02*
X194150000Y-79774999I0J-249999D01*
G01*
X194150000Y-80600001D01*
G75*
G02*
X193900001Y-80850000I-249999J0D01*
G01*
G37*
%TD.AperFunction*%
%TD*%
%TO.P,C8,1*%
%TO.N,/AIN2*%
%TA.AperFunction,SMDPad,CuDef*%
G36*
G01*
X193900001Y-89225000D02*
X192599999Y-89225000D01*
G75*
G02*
X192350000Y-88975001I0J249999D01*
G01*
X192350000Y-88149999D01*
G75*
G02*
X192599999Y-87900000I249999J0D01*
G01*
X193900001Y-87900000D01*
G75*
G02*
X194150000Y-88149999I0J-249999D01*
G01*
X194150000Y-88975001D01*
G75*
G02*
X193900001Y-89225000I-249999J0D01*
G01*
G37*
%TD.AperFunction*%
%TO.P,C8,2*%
%TO.N,/AIN3*%
%TA.AperFunction,SMDPad,CuDef*%
G36*
G01*
X193900001Y-86100000D02*
X192599999Y-86100000D01*
G75*
G02*
X192350000Y-85850001I0J249999D01*
G01*
X192350000Y-85024999D01*
G75*
G02*
X192599999Y-84775000I249999J0D01*
G01*
X193900001Y-84775000D01*
G75*
G02*
X194150000Y-85024999I0J-249999D01*
G01*
X194150000Y-85850001D01*
G75*
G02*
X193900001Y-86100000I-249999J0D01*
G01*
G37*
%TD.AperFunction*%
%TD*%
D10*
%TO.P,D0,1*%
%TO.N,Net-(D0-Pad1)*%
X251750000Y-82600000D03*
%TO.P,D0,2*%
%TO.N,GND*%
X251750000Y-78400000D03*
%TD*%
D11*
%TO.P,D1,1*%
%TO.N,Net-(D1-Pad1)*%
X228850000Y-77000000D03*
%TO.P,D1,2*%
%TO.N,GND*%
X224650000Y-77000000D03*
%TD*%
D12*
%TO.P,GD0,1*%
%TO.N,GND*%
X212750000Y-97000000D03*
%TD*%
D13*
%TO.P,IC1,1*%
%TO.N,Net-(IC1-Pad1)*%
X213812000Y-84725000D03*
%TO.P,IC1,2*%
%TO.N,Net-(IC1-Pad2)*%
X213812000Y-85375000D03*
%TO.P,IC1,3*%
%TO.N,/3.3V*%
X213812000Y-86025000D03*
%TO.P,IC1,4*%
%TO.N,GND*%
X213812000Y-86675000D03*
%TO.P,IC1,5*%
X213812000Y-87325000D03*
%TO.P,IC1,6*%
%TO.N,/AIN3*%
X213812000Y-87975000D03*
%TO.P,IC1,7*%
%TO.N,/AIN2*%
X213812000Y-88625000D03*
%TO.P,IC1,8*%
%TO.N,GND*%
X213812000Y-89275000D03*
%TO.P,IC1,9*%
%TO.N,/5V*%
X219688000Y-89275000D03*
%TO.P,IC1,10*%
%TO.N,/AIN1*%
X219688000Y-88625000D03*
%TO.P,IC1,11*%
%TO.N,/AIN0*%
X219688000Y-87975000D03*
%TO.P,IC1,12*%
%TO.N,/5V*%
X219688000Y-87325000D03*
%TO.P,IC1,13*%
%TO.N,/3.3V*%
X219688000Y-86675000D03*
%TO.P,IC1,14*%
%TO.N,Net-(IC1-Pad14)*%
X219688000Y-86025000D03*
%TO.P,IC1,15*%
%TO.N,Net-(IC1-Pad15)*%
X219688000Y-85375000D03*
%TO.P,IC1,16*%
%TO.N,Net-(IC1-Pad16)*%
X219688000Y-84725000D03*
%TD*%
D14*
%TO.P,J0,1*%
%TO.N,/POWER*%
X262000000Y-78250000D03*
%TO.P,J0,2*%
%TO.N,Net-(D0-Pad1)*%
X256700000Y-82500000D03*
%TO.P,J0,3*%
%TO.N,/SHIELD*%
X256700000Y-77000000D03*
%TD*%
D15*
%TO.P,J1,1*%
%TO.N,Net-(IC0-Pad8)*%
X265000000Y-95000000D03*
%TO.P,J1,2*%
%TO.N,Net-(IC0-Pad7)*%
X265000000Y-94000000D03*
%TO.P,J1,3*%
%TO.N,Net-(IC0-Pad5)*%
X265000000Y-93000000D03*
%TO.P,J1,4*%
%TO.N,Net-(IC0-Pad6)*%
X265000000Y-92000000D03*
D16*
%TO.P,J1,5*%
%TO.N,N/C*%
X267990000Y-97375000D03*
%TO.P,J1,6*%
X267990000Y-89625000D03*
%TD*%
%TO.P,L0,1*%
%TO.N,/5V*%
%TA.AperFunction,SMDPad,CuDef*%
G36*
G01*
X229700001Y-82350000D02*
X228799999Y-82350000D01*
G75*
G02*
X228550000Y-82100001I0J249999D01*
G01*
X228550000Y-81449999D01*
G75*
G02*
X228799999Y-81200000I249999J0D01*
G01*
X229700001Y-81200000D01*
G75*
G02*
X229950000Y-81449999I0J-249999D01*
G01*
X229950000Y-82100001D01*
G75*
G02*
X229700001Y-82350000I-249999J0D01*
G01*
G37*
%TD.AperFunction*%
%TO.P,L0,2*%
%TO.N,Net-(D1-Pad1)*%
%TA.AperFunction,SMDPad,CuDef*%
G36*
G01*
X229700001Y-80300000D02*
X228799999Y-80300000D01*
G75*
G02*
X228550000Y-80050001I0J249999D01*
G01*
X228550000Y-79399999D01*
G75*
G02*
X228799999Y-79150000I249999J0D01*
G01*
X229700001Y-79150000D01*
G75*
G02*
X229950000Y-79399999I0J-249999D01*
G01*
X229950000Y-80050001D01*
G75*
G02*
X229700001Y-80300000I-249999J0D01*
G01*
G37*
%TD.AperFunction*%
%TD*%
D17*
%TO.P,P5,1*%
%TO.N,/5V*%
X216750000Y-77000000D03*
%TD*%
%TO.P,P33,1*%
%TO.N,/3.3V*%
X212750000Y-77000000D03*
%TD*%
%TO.P,PW0,1*%
%TO.N,/POWER*%
X220750000Y-77000000D03*
%TD*%
%TO.P,R6,2*%
%TO.N,Net-(R6-Pad2)*%
%TA.AperFunction,SMDPad,CuDef*%
G36*
G01*
X189100000Y-90299999D02*
X189100000Y-91200001D01*
G75*
G02*
X188850001Y-91450000I-249999J0D01*
G01*
X188149999Y-91450000D01*
G75*
G02*
X187900000Y-91200001I0J249999D01*
G01*
X187900000Y-90299999D01*
G75*
G02*
X188149999Y-90050000I249999J0D01*
G01*
X188850001Y-90050000D01*
G75*
G02*
X189100000Y-90299999I0J-249999D01*
G01*
G37*
%TD.AperFunction*%
%TO.P,R6,1*%
%TO.N,/5V*%
%TA.AperFunction,SMDPad,CuDef*%
G36*
G01*
X191100000Y-90299999D02*
X191100000Y-91200001D01*
G75*
G02*
X190850001Y-91450000I-249999J0D01*
G01*
X190149999Y-91450000D01*
G75*
G02*
X189900000Y-91200001I0J249999D01*
G01*
X189900000Y-90299999D01*
G75*
G02*
X190149999Y-90050000I249999J0D01*
G01*
X190850001Y-90050000D01*
G75*
G02*
X191100000Y-90299999I0J-249999D01*
G01*
G37*
%TD.AperFunction*%
%TD*%
%TO.P,R7,1*%
%TO.N,Net-(R7-Pad1)*%
%TA.AperFunction,SMDPad,CuDef*%
G36*
G01*
X187900000Y-83700001D02*
X187900000Y-82799999D01*
G75*
G02*
X188149999Y-82550000I249999J0D01*
G01*
X188850001Y-82550000D01*
G75*
G02*
X189100000Y-82799999I0J-249999D01*
G01*
X189100000Y-83700001D01*
G75*
G02*
X188850001Y-83950000I-249999J0D01*
G01*
X188149999Y-83950000D01*
G75*
G02*
X187900000Y-83700001I0J249999D01*
G01*
G37*
%TD.AperFunction*%
%TO.P,R7,2*%
%TO.N,GND*%
%TA.AperFunction,SMDPad,CuDef*%
G36*
G01*
X189900000Y-83700001D02*
X189900000Y-82799999D01*
G75*
G02*
X190149999Y-82550000I249999J0D01*
G01*
X190850001Y-82550000D01*
G75*
G02*
X191100000Y-82799999I0J-249999D01*
G01*
X191100000Y-83700001D01*
G75*
G02*
X190850001Y-83950000I-249999J0D01*
G01*
X190149999Y-83950000D01*
G75*
G02*
X189900000Y-83700001I0J249999D01*
G01*
G37*
%TD.AperFunction*%
%TD*%
%TO.P,R8,1*%
%TO.N,/AIN2*%
%TA.AperFunction,SMDPad,CuDef*%
G36*
G01*
X191100000Y-88049999D02*
X191100000Y-88950001D01*
G75*
G02*
X190850001Y-89200000I-249999J0D01*
G01*
X190149999Y-89200000D01*
G75*
G02*
X189900000Y-88950001I0J249999D01*
G01*
X189900000Y-88049999D01*
G75*
G02*
X190149999Y-87800000I249999J0D01*
G01*
X190850001Y-87800000D01*
G75*
G02*
X191100000Y-88049999I0J-249999D01*
G01*
G37*
%TD.AperFunction*%
%TO.P,R8,2*%
%TO.N,Net-(R6-Pad2)*%
%TA.AperFunction,SMDPad,CuDef*%
G36*
G01*
X189100000Y-88049999D02*
X189100000Y-88950001D01*
G75*
G02*
X188850001Y-89200000I-249999J0D01*
G01*
X188149999Y-89200000D01*
G75*
G02*
X187900000Y-88950001I0J249999D01*
G01*
X187900000Y-88049999D01*
G75*
G02*
X188149999Y-87800000I249999J0D01*
G01*
X188850001Y-87800000D01*
G75*
G02*
X189100000Y-88049999I0J-249999D01*
G01*
G37*
%TD.AperFunction*%
%TD*%
%TO.P,R9,2*%
%TO.N,Net-(R7-Pad1)*%
%TA.AperFunction,SMDPad,CuDef*%
G36*
G01*
X189100000Y-85049999D02*
X189100000Y-85950001D01*
G75*
G02*
X188850001Y-86200000I-249999J0D01*
G01*
X188149999Y-86200000D01*
G75*
G02*
X187900000Y-85950001I0J249999D01*
G01*
X187900000Y-85049999D01*
G75*
G02*
X188149999Y-84800000I249999J0D01*
G01*
X188850001Y-84800000D01*
G75*
G02*
X189100000Y-85049999I0J-249999D01*
G01*
G37*
%TD.AperFunction*%
%TO.P,R9,1*%
%TO.N,/AIN3*%
%TA.AperFunction,SMDPad,CuDef*%
G36*
G01*
X191100000Y-85049999D02*
X191100000Y-85950001D01*
G75*
G02*
X190850001Y-86200000I-249999J0D01*
G01*
X190149999Y-86200000D01*
G75*
G02*
X189900000Y-85950001I0J249999D01*
G01*
X189900000Y-85049999D01*
G75*
G02*
X190149999Y-84800000I249999J0D01*
G01*
X190850001Y-84800000D01*
G75*
G02*
X191100000Y-85049999I0J-249999D01*
G01*
G37*
%TD.AperFunction*%
%TD*%
D18*
%TO.P,REG0,1*%
%TO.N,/POWER*%
X234445000Y-77346000D03*
%TO.P,REG0,2*%
%TO.N,Net-(D1-Pad1)*%
X234445000Y-79048000D03*
%TO.P,REG0,3*%
%TO.N,GND*%
X234445000Y-80750000D03*
%TO.P,REG0,4*%
%TO.N,/5V*%
X234445000Y-82452000D03*
%TO.P,REG0,5*%
%TO.N,GND*%
X234445000Y-84154000D03*
D19*
%TO.P,REG0,6*%
X244750000Y-80750000D03*
%TD*%
D20*
%TO.P,REG1,1*%
%TO.N,/5V*%
X229150000Y-83790000D03*
%TO.P,REG1,2*%
%TO.N,/3.3V*%
X229150000Y-85710000D03*
%TO.P,REG1,3*%
%TO.N,GND*%
X231350000Y-84750000D03*
%TD*%
D17*
%TO.P,RX0,1*%
%TO.N,Net-(IC0-Pad2)*%
X216750000Y-97000000D03*
%TD*%
%TO.P,TX0,1*%
%TO.N,Net-(IC0-Pad3)*%
X220750000Y-97000000D03*
%TD*%
D21*
%TO.P,U0,1*%
%TO.N,Net-(R6-Pad2)*%
X179000000Y-91000000D03*
D22*
%TO.P,U0,2*%
%TO.N,Net-(R7-Pad1)*%
X179000000Y-83100000D03*
D23*
%TO.P,U0,MH1*%
%TO.N,Net-(U0-PadMH1)*%
X168750000Y-87050000D03*
%TD*%
D24*
%TO.N,/5V*%
X215626289Y-87400000D03*
X211500000Y-87250000D03*
X210000000Y-87250000D03*
X198450000Y-90460000D03*
%TO.N,GND*%
X193250000Y-93750000D03*
X193250000Y-80250000D03*
X242000000Y-84750000D03*
X242037500Y-87000000D03*
X242037500Y-89250000D03*
X242288000Y-92345000D03*
X221750000Y-80500000D03*
X209050000Y-90460000D03*
X211750000Y-86000000D03*
%TO.N,/AIN0*%
X212750000Y-91185000D03*
%TO.N,/AIN1*%
X209050000Y-95540000D03*
%TO.N,/POWER*%
X234445000Y-77346000D03*
%TO.N,/3.3V*%
X229150000Y-87737500D03*
X232750000Y-88500000D03*
X242288000Y-96155000D03*
%TO.N,Net-(IC0-Pad3)*%
X228512653Y-94737347D03*
%TO.N,Net-(IC0-Pad5)*%
X255762653Y-93012653D03*
%TO.N,Net-(IC0-Pad6)*%
X253750000Y-94000000D03*
%TO.N,Net-(IC0-Pad7)*%
X253750000Y-95500000D03*
%TO.N,Net-(IC0-Pad8)*%
X253750000Y-96750000D03*
%TO.N,Net-(IC1-Pad1)*%
X227750000Y-87000000D03*
X225200846Y-87049154D03*
X213812000Y-84549998D03*
%TO.N,Net-(IC1-Pad2)*%
X227750000Y-89250000D03*
X225525000Y-89250000D03*
X215250000Y-85500000D03*
%TO.N,Net-(IC1-Pad14)*%
X227500000Y-86000000D03*
%TO.N,Net-(IC1-Pad15)*%
X225750000Y-85500000D03*
%TO.N,Net-(IC1-Pad16)*%
X219688000Y-84549998D03*
%TO.N,/SHIELD*%
X259500000Y-77000000D03*
X254000000Y-77000000D03*
X228750000Y-91000000D03*
X216750000Y-82500000D03*
X223750000Y-80750000D03*
X216750000Y-93750000D03*
X203750000Y-86250000D03*
X254750000Y-89250000D03*
X254750000Y-87000000D03*
X223000000Y-88250000D03*
X229500000Y-97750000D03*
X238250000Y-82500000D03*
X238250000Y-77250000D03*
X231250000Y-80750000D03*
X216750000Y-89000000D03*
X261250000Y-96500000D03*
%TD*%
D25*
%TO.N,/5V*%
X229927000Y-82452000D02*
X229250000Y-81775000D01*
X234445000Y-82452000D02*
X229927000Y-82452000D01*
X229150000Y-81875000D02*
X229250000Y-81775000D01*
X229150000Y-83790000D02*
X229150000Y-81875000D01*
X218790498Y-87325000D02*
X219688000Y-87325000D01*
X218625499Y-87489999D02*
X218790498Y-87325000D01*
X218625499Y-89199999D02*
X218625499Y-87489999D01*
X218700500Y-89275000D02*
X218625499Y-89199999D01*
X219688000Y-89275000D02*
X218700500Y-89275000D01*
X230000000Y-84640000D02*
X229150000Y-83790000D01*
X229670500Y-88550010D02*
X230000000Y-88220510D01*
X228604500Y-88550010D02*
X229670500Y-88550010D01*
X228554490Y-88500000D02*
X228604500Y-88550010D01*
X224942280Y-88500000D02*
X228554490Y-88500000D01*
X223767280Y-87325000D02*
X224942280Y-88500000D01*
X219688000Y-87325000D02*
X223767280Y-87325000D01*
X230000000Y-87250000D02*
X230000000Y-84640000D01*
X230000000Y-88220510D02*
X230000000Y-87250000D01*
X237500000Y-96400000D02*
X231900000Y-96400000D01*
X230000000Y-94500000D02*
X230000000Y-88500000D01*
X231900000Y-96400000D02*
X230000000Y-94500000D01*
X230000000Y-88500000D02*
X230000000Y-87250000D01*
X221525000Y-81775000D02*
X216750000Y-77000000D01*
X229250000Y-81775000D02*
X221525000Y-81775000D01*
X215701289Y-87325000D02*
X215626289Y-87400000D01*
X219688000Y-87325000D02*
X215701289Y-87325000D01*
X211500000Y-87250000D02*
X210000000Y-87250000D01*
X190500000Y-91450000D02*
X191300000Y-92250000D01*
X190500000Y-90750000D02*
X190500000Y-91450000D01*
X196660000Y-92250000D02*
X198450000Y-90460000D01*
X191300000Y-92250000D02*
X196660000Y-92250000D01*
%TO.N,GND*%
X242000000Y-86962500D02*
X242037500Y-87000000D01*
X242000000Y-84750000D02*
X242000000Y-86962500D01*
X242037500Y-87000000D02*
X242037500Y-89250000D01*
X242037500Y-92094500D02*
X242288000Y-92345000D01*
X242037500Y-89250000D02*
X242037500Y-92094500D01*
X247100000Y-78400000D02*
X244750000Y-80750000D01*
X251750000Y-78400000D02*
X247100000Y-78400000D01*
X251500000Y-87500000D02*
X244750000Y-80750000D01*
X234445000Y-80750000D02*
X244750000Y-80750000D01*
X241346000Y-84154000D02*
X244750000Y-80750000D01*
X234445000Y-84154000D02*
X241346000Y-84154000D01*
X231946000Y-84154000D02*
X231350000Y-84750000D01*
X234445000Y-84154000D02*
X231946000Y-84154000D01*
X230862500Y-85237500D02*
X231350000Y-84750000D01*
X230862500Y-87750000D02*
X230862500Y-85237500D01*
X237500000Y-88000000D02*
X244750000Y-80750000D01*
X213812000Y-86675000D02*
X213812000Y-87325000D01*
X214709502Y-89275000D02*
X213812000Y-89275000D01*
X214874501Y-89110001D02*
X214709502Y-89275000D01*
X214799500Y-87325000D02*
X214874501Y-87400001D01*
X214874501Y-87400001D02*
X214874501Y-89110001D01*
X213812000Y-87325000D02*
X214799500Y-87325000D01*
X239924999Y-75924999D02*
X244750000Y-80750000D01*
X225725001Y-75924999D02*
X239924999Y-75924999D01*
X224650000Y-77000000D02*
X225725001Y-75924999D01*
X211635000Y-97000000D02*
X212750000Y-97000000D01*
X190500000Y-83250000D02*
X190500000Y-81250000D01*
X191562500Y-80187500D02*
X193250000Y-80187500D01*
X190500000Y-81250000D02*
X191562500Y-80187500D01*
X224650000Y-77600000D02*
X221750000Y-80500000D01*
X224650000Y-77000000D02*
X224650000Y-77600000D01*
X210235000Y-89275000D02*
X209050000Y-90460000D01*
X213812000Y-89275000D02*
X210235000Y-89275000D01*
X212425000Y-86675000D02*
X213812000Y-86675000D01*
X211750000Y-86000000D02*
X212425000Y-86675000D01*
%TO.N,/AIN0*%
X219961912Y-91185000D02*
X212750000Y-91185000D01*
X221200510Y-89946402D02*
X219961912Y-91185000D01*
X221200511Y-88500011D02*
X221200510Y-89946402D01*
X220675500Y-87975000D02*
X221200511Y-88500011D01*
X219688000Y-87975000D02*
X220675500Y-87975000D01*
%TO.N,/AIN1*%
X220750501Y-89760001D02*
X220050502Y-90460000D01*
X220750501Y-88700001D02*
X220750501Y-89760001D01*
X220675500Y-88625000D02*
X220750501Y-88700001D01*
X219688000Y-88625000D02*
X220675500Y-88625000D01*
X209050000Y-93811998D02*
X209050000Y-95540000D01*
X212401998Y-90460000D02*
X209050000Y-93811998D01*
X220050502Y-90460000D02*
X212401998Y-90460000D01*
%TO.N,/POWER*%
X251500000Y-97100000D02*
X251500000Y-94900000D01*
X252400000Y-98000000D02*
X251500000Y-97100000D01*
X266750000Y-95750000D02*
X264500000Y-98000000D01*
X266750000Y-83000000D02*
X266750000Y-95750000D01*
X264500000Y-98000000D02*
X252400000Y-98000000D01*
X262000000Y-78250000D02*
X266750000Y-83000000D01*
%TO.N,/3.3V*%
X229150000Y-87737500D02*
X229150000Y-87737500D01*
X229150000Y-85710000D02*
X229150000Y-87737500D01*
X215359502Y-86675000D02*
X219688000Y-86675000D01*
X214709502Y-86025000D02*
X215359502Y-86675000D01*
X213812000Y-86025000D02*
X214709502Y-86025000D01*
X229113345Y-87774155D02*
X229137500Y-87750000D01*
X224852845Y-87774155D02*
X229113345Y-87774155D01*
X223753690Y-86675000D02*
X224852845Y-87774155D01*
X219688000Y-86675000D02*
X223753690Y-86675000D01*
X229150000Y-87737500D02*
X229137500Y-87750000D01*
X242288000Y-96155000D02*
X242288000Y-93538000D01*
X239500000Y-90750000D02*
X235000000Y-90750000D01*
X242288000Y-93538000D02*
X239500000Y-90750000D01*
X232750000Y-88500000D02*
X235000000Y-90750000D01*
X212824500Y-86025000D02*
X212500000Y-85700500D01*
X213812000Y-86025000D02*
X212824500Y-86025000D01*
X212500000Y-77250000D02*
X212750000Y-77000000D01*
X212500000Y-85700500D02*
X212500000Y-77250000D01*
%TO.N,/AIN2*%
X193250000Y-88562500D02*
X193250000Y-90687500D01*
X190562500Y-88562500D02*
X190500000Y-88500000D01*
X193250000Y-88562500D02*
X190562500Y-88562500D01*
X193312500Y-88625000D02*
X193250000Y-88562500D01*
X213812000Y-88625000D02*
X193312500Y-88625000D01*
%TO.N,/AIN3*%
X193250000Y-85437500D02*
X193250000Y-83312500D01*
X190562500Y-85437500D02*
X190500000Y-85500000D01*
X193250000Y-85437500D02*
X190562500Y-85437500D01*
X193250000Y-86686810D02*
X193250000Y-85437500D01*
X194538190Y-87975000D02*
X193250000Y-86686810D01*
X213812000Y-87975000D02*
X194538190Y-87975000D01*
%TO.N,Net-(D0-Pad1)*%
X256600000Y-82600000D02*
X256700000Y-82500000D01*
X251750000Y-82600000D02*
X256600000Y-82600000D01*
%TO.N,Net-(D1-Pad1)*%
X229927000Y-79048000D02*
X229250000Y-79725000D01*
X234445000Y-79048000D02*
X229927000Y-79048000D01*
X228850000Y-79325000D02*
X229250000Y-79725000D01*
X228850000Y-77000000D02*
X228850000Y-79325000D01*
%TO.N,Net-(IC0-Pad3)*%
X226250000Y-97000000D02*
X220750000Y-97000000D01*
X228512653Y-94737347D02*
X226250000Y-97000000D01*
%TO.N,Net-(IC0-Pad5)*%
X255775306Y-93000000D02*
X255762653Y-93012653D01*
X265000000Y-93000000D02*
X255775306Y-93000000D01*
%TO.N,Net-(IC0-Pad6)*%
X255750000Y-92000000D02*
X253750000Y-94000000D01*
X265000000Y-92000000D02*
X255750000Y-92000000D01*
%TO.N,Net-(IC0-Pad7)*%
X255250000Y-94000000D02*
X253750000Y-95500000D01*
X265000000Y-94000000D02*
X255250000Y-94000000D01*
%TO.N,Net-(IC0-Pad8)*%
X255500000Y-95000000D02*
X253750000Y-96750000D01*
X265000000Y-95000000D02*
X255500000Y-95000000D01*
%TO.N,Net-(IC1-Pad1)*%
X225250000Y-87000000D02*
X225200846Y-87049154D01*
X227750000Y-87000000D02*
X225250000Y-87000000D01*
%TO.N,Net-(IC1-Pad2)*%
X227750000Y-89250000D02*
X225525000Y-89250000D01*
X215125000Y-85375000D02*
X213812000Y-85375000D01*
X215250000Y-85500000D02*
X215125000Y-85375000D01*
%TO.N,Net-(IC1-Pad14)*%
X227274999Y-86225001D02*
X227500000Y-86000000D01*
X225401999Y-86225001D02*
X227274999Y-86225001D01*
X225201998Y-86025000D02*
X225401999Y-86225001D01*
X219688000Y-86025000D02*
X225201998Y-86025000D01*
%TO.N,Net-(IC1-Pad15)*%
X225625000Y-85375000D02*
X219688000Y-85375000D01*
X225750000Y-85500000D02*
X225625000Y-85375000D01*
%TO.N,Net-(R6-Pad2)*%
X188500000Y-88500000D02*
X188500000Y-90750000D01*
X188250000Y-91000000D02*
X188500000Y-90750000D01*
X179000000Y-91000000D02*
X188250000Y-91000000D01*
%TO.N,Net-(R7-Pad1)*%
X188500000Y-85500000D02*
X188500000Y-83250000D01*
X188350000Y-83100000D02*
X188500000Y-83250000D01*
X179000000Y-83100000D02*
X188350000Y-83100000D01*
%TD*%
D26*
%TO.N,/SHIELD*%
X231336201Y-96911003D02*
X231359999Y-96940001D01*
X231475724Y-97034974D01*
X231607753Y-97105546D01*
X231751014Y-97149003D01*
X231862667Y-97160000D01*
X231862675Y-97160000D01*
X231900000Y-97163676D01*
X231937325Y-97160000D01*
X235611928Y-97160000D01*
X235611928Y-98340000D01*
X222075793Y-98340000D01*
X222214175Y-98201618D01*
X222420466Y-97892882D01*
X222475507Y-97760000D01*
X226212678Y-97760000D01*
X226250000Y-97763676D01*
X226287322Y-97760000D01*
X226287333Y-97760000D01*
X226398986Y-97749003D01*
X226542247Y-97705546D01*
X226674276Y-97634974D01*
X226790001Y-97540001D01*
X226813804Y-97510997D01*
X228552455Y-95772347D01*
X228614592Y-95772347D01*
X228814551Y-95732573D01*
X229002909Y-95654552D01*
X229172427Y-95541284D01*
X229316590Y-95397121D01*
X229429858Y-95227603D01*
X229495157Y-95069958D01*
X231336201Y-96911003D01*
%TA.AperFunction,Conductor*%
D27*
G36*
X231336201Y-96911003D02*
G01*
X231359999Y-96940001D01*
X231475724Y-97034974D01*
X231607753Y-97105546D01*
X231751014Y-97149003D01*
X231862667Y-97160000D01*
X231862675Y-97160000D01*
X231900000Y-97163676D01*
X231937325Y-97160000D01*
X235611928Y-97160000D01*
X235611928Y-98340000D01*
X222075793Y-98340000D01*
X222214175Y-98201618D01*
X222420466Y-97892882D01*
X222475507Y-97760000D01*
X226212678Y-97760000D01*
X226250000Y-97763676D01*
X226287322Y-97760000D01*
X226287333Y-97760000D01*
X226398986Y-97749003D01*
X226542247Y-97705546D01*
X226674276Y-97634974D01*
X226790001Y-97540001D01*
X226813804Y-97510997D01*
X228552455Y-95772347D01*
X228614592Y-95772347D01*
X228814551Y-95732573D01*
X229002909Y-95654552D01*
X229172427Y-95541284D01*
X229316590Y-95397121D01*
X229429858Y-95227603D01*
X229495157Y-95069958D01*
X231336201Y-96911003D01*
G37*
%TD.AperFunction*%
D26*
X211285825Y-75798382D02*
X211079534Y-76107118D01*
X210937439Y-76450166D01*
X210865000Y-76814344D01*
X210865000Y-77185656D01*
X210937439Y-77549834D01*
X211079534Y-77892882D01*
X211285825Y-78201618D01*
X211548382Y-78464175D01*
X211740001Y-78592211D01*
X211740000Y-84965000D01*
X211648061Y-84965000D01*
X211448102Y-85004774D01*
X211259744Y-85082795D01*
X211090226Y-85196063D01*
X210946063Y-85340226D01*
X210832795Y-85509744D01*
X210754774Y-85698102D01*
X210715000Y-85898061D01*
X210715000Y-86101939D01*
X210754774Y-86301898D01*
X210822028Y-86464261D01*
X210796289Y-86490000D01*
X210703711Y-86490000D01*
X210659774Y-86446063D01*
X210490256Y-86332795D01*
X210301898Y-86254774D01*
X210101939Y-86215000D01*
X209898061Y-86215000D01*
X209698102Y-86254774D01*
X209509744Y-86332795D01*
X209340226Y-86446063D01*
X209196063Y-86590226D01*
X209082795Y-86759744D01*
X209004774Y-86948102D01*
X208965000Y-87148061D01*
X208965000Y-87215000D01*
X194852992Y-87215000D01*
X194284564Y-86646572D01*
X194393387Y-86588405D01*
X194527962Y-86477962D01*
X194638405Y-86343387D01*
X194720472Y-86189851D01*
X194771008Y-86023255D01*
X194788072Y-85850001D01*
X194788072Y-85024999D01*
X194771008Y-84851745D01*
X194720472Y-84685149D01*
X194638405Y-84531613D01*
X194527962Y-84397038D01*
X194501109Y-84375000D01*
X194527962Y-84352962D01*
X194638405Y-84218387D01*
X194720472Y-84064851D01*
X194771008Y-83898255D01*
X194788072Y-83725001D01*
X194788072Y-82899999D01*
X194771008Y-82726745D01*
X194720472Y-82560149D01*
X194638405Y-82406613D01*
X194527962Y-82272038D01*
X194393387Y-82161595D01*
X194239851Y-82079528D01*
X194073255Y-82028992D01*
X193900001Y-82011928D01*
X192599999Y-82011928D01*
X192426745Y-82028992D01*
X192260149Y-82079528D01*
X192106613Y-82161595D01*
X191972038Y-82272038D01*
X191861595Y-82406613D01*
X191779528Y-82560149D01*
X191730400Y-82722103D01*
X191721008Y-82626745D01*
X191670472Y-82460149D01*
X191588405Y-82306613D01*
X191477962Y-82172038D01*
X191343387Y-82061595D01*
X191260000Y-82017024D01*
X191260000Y-81564801D01*
X191816250Y-81008552D01*
X191861595Y-81093387D01*
X191972038Y-81227962D01*
X192106613Y-81338405D01*
X192260149Y-81420472D01*
X192426745Y-81471008D01*
X192599999Y-81488072D01*
X193900001Y-81488072D01*
X194073255Y-81471008D01*
X194239851Y-81420472D01*
X194393387Y-81338405D01*
X194527962Y-81227962D01*
X194638405Y-81093387D01*
X194720472Y-80939851D01*
X194771008Y-80773255D01*
X194788072Y-80600001D01*
X194788072Y-79774999D01*
X194771008Y-79601745D01*
X194720472Y-79435149D01*
X194638405Y-79281613D01*
X194527962Y-79147038D01*
X194393387Y-79036595D01*
X194239851Y-78954528D01*
X194073255Y-78903992D01*
X193900001Y-78886928D01*
X192599999Y-78886928D01*
X192426745Y-78903992D01*
X192260149Y-78954528D01*
X192106613Y-79036595D01*
X191972038Y-79147038D01*
X191861595Y-79281613D01*
X191783616Y-79427500D01*
X191599823Y-79427500D01*
X191562500Y-79423824D01*
X191525177Y-79427500D01*
X191525167Y-79427500D01*
X191413514Y-79438497D01*
X191270253Y-79481954D01*
X191138223Y-79552526D01*
X191092286Y-79590226D01*
X191022499Y-79647499D01*
X190998701Y-79676497D01*
X189988998Y-80686201D01*
X189960000Y-80709999D01*
X189936202Y-80738997D01*
X189936201Y-80738998D01*
X189865026Y-80825724D01*
X189794454Y-80957754D01*
X189773754Y-81025997D01*
X189760572Y-81069454D01*
X189750998Y-81101015D01*
X189736324Y-81250000D01*
X189740001Y-81287332D01*
X189740001Y-82017023D01*
X189656613Y-82061595D01*
X189522038Y-82172038D01*
X189500000Y-82198891D01*
X189477962Y-82172038D01*
X189343387Y-82061595D01*
X189189851Y-81979528D01*
X189023255Y-81928992D01*
X188850001Y-81911928D01*
X188149999Y-81911928D01*
X187976745Y-81928992D01*
X187810149Y-81979528D01*
X187656613Y-82061595D01*
X187522038Y-82172038D01*
X187411595Y-82306613D01*
X187393749Y-82340000D01*
X180590208Y-82340000D01*
X180559692Y-82266327D01*
X180367081Y-81978065D01*
X180121935Y-81732919D01*
X179833673Y-81540308D01*
X179513373Y-81407636D01*
X179173345Y-81340000D01*
X178826655Y-81340000D01*
X178486627Y-81407636D01*
X178166327Y-81540308D01*
X177878065Y-81732919D01*
X177632919Y-81978065D01*
X177440308Y-82266327D01*
X177307636Y-82586627D01*
X177240000Y-82926655D01*
X177240000Y-83273345D01*
X177307636Y-83613373D01*
X177440308Y-83933673D01*
X177632919Y-84221935D01*
X177878065Y-84467081D01*
X178166327Y-84659692D01*
X178486627Y-84792364D01*
X178826655Y-84860000D01*
X179173345Y-84860000D01*
X179513373Y-84792364D01*
X179833673Y-84659692D01*
X180121935Y-84467081D01*
X180367081Y-84221935D01*
X180559692Y-83933673D01*
X180590208Y-83860000D01*
X187277686Y-83860000D01*
X187278992Y-83873255D01*
X187329528Y-84039851D01*
X187411595Y-84193387D01*
X187522038Y-84327962D01*
X187579354Y-84375000D01*
X187522038Y-84422038D01*
X187411595Y-84556613D01*
X187329528Y-84710149D01*
X187278992Y-84876745D01*
X187261928Y-85049999D01*
X187261928Y-85950001D01*
X187278992Y-86123255D01*
X187329528Y-86289851D01*
X187411595Y-86443387D01*
X187522038Y-86577962D01*
X187656613Y-86688405D01*
X187810149Y-86770472D01*
X187976745Y-86821008D01*
X188149999Y-86838072D01*
X188850001Y-86838072D01*
X189023255Y-86821008D01*
X189189851Y-86770472D01*
X189343387Y-86688405D01*
X189477962Y-86577962D01*
X189500000Y-86551109D01*
X189522038Y-86577962D01*
X189656613Y-86688405D01*
X189810149Y-86770472D01*
X189976745Y-86821008D01*
X190149999Y-86838072D01*
X190850001Y-86838072D01*
X191023255Y-86821008D01*
X191189851Y-86770472D01*
X191343387Y-86688405D01*
X191477962Y-86577962D01*
X191588405Y-86443387D01*
X191670472Y-86289851D01*
X191698486Y-86197500D01*
X191783616Y-86197500D01*
X191861595Y-86343387D01*
X191972038Y-86477962D01*
X192106613Y-86588405D01*
X192260149Y-86670472D01*
X192426745Y-86721008D01*
X192490308Y-86727268D01*
X192500997Y-86835795D01*
X192535640Y-86949998D01*
X192544454Y-86979056D01*
X192615026Y-87111086D01*
X192642186Y-87144180D01*
X192709999Y-87226811D01*
X192739003Y-87250614D01*
X192750317Y-87261928D01*
X192599999Y-87261928D01*
X192426745Y-87278992D01*
X192260149Y-87329528D01*
X192106613Y-87411595D01*
X191972038Y-87522038D01*
X191861595Y-87656613D01*
X191783616Y-87802500D01*
X191698486Y-87802500D01*
X191670472Y-87710149D01*
X191588405Y-87556613D01*
X191477962Y-87422038D01*
X191343387Y-87311595D01*
X191189851Y-87229528D01*
X191023255Y-87178992D01*
X190850001Y-87161928D01*
X190149999Y-87161928D01*
X189976745Y-87178992D01*
X189810149Y-87229528D01*
X189656613Y-87311595D01*
X189522038Y-87422038D01*
X189500000Y-87448891D01*
X189477962Y-87422038D01*
X189343387Y-87311595D01*
X189189851Y-87229528D01*
X189023255Y-87178992D01*
X188850001Y-87161928D01*
X188149999Y-87161928D01*
X187976745Y-87178992D01*
X187810149Y-87229528D01*
X187656613Y-87311595D01*
X187522038Y-87422038D01*
X187411595Y-87556613D01*
X187329528Y-87710149D01*
X187278992Y-87876745D01*
X187261928Y-88049999D01*
X187261928Y-88950001D01*
X187278992Y-89123255D01*
X187329528Y-89289851D01*
X187411595Y-89443387D01*
X187522038Y-89577962D01*
X187579354Y-89625000D01*
X187522038Y-89672038D01*
X187411595Y-89806613D01*
X187329528Y-89960149D01*
X187278992Y-90126745D01*
X187267837Y-90240000D01*
X180763072Y-90240000D01*
X180763072Y-89875000D01*
X180750812Y-89750518D01*
X180714502Y-89630820D01*
X180655537Y-89520506D01*
X180576185Y-89423815D01*
X180479494Y-89344463D01*
X180369180Y-89285498D01*
X180249482Y-89249188D01*
X180125000Y-89236928D01*
X177875000Y-89236928D01*
X177750518Y-89249188D01*
X177630820Y-89285498D01*
X177520506Y-89344463D01*
X177423815Y-89423815D01*
X177344463Y-89520506D01*
X177285498Y-89630820D01*
X177249188Y-89750518D01*
X177236928Y-89875000D01*
X177236928Y-92125000D01*
X177249188Y-92249482D01*
X177285498Y-92369180D01*
X177344463Y-92479494D01*
X177423815Y-92576185D01*
X177520506Y-92655537D01*
X177630820Y-92714502D01*
X177750518Y-92750812D01*
X177875000Y-92763072D01*
X180125000Y-92763072D01*
X180249482Y-92750812D01*
X180369180Y-92714502D01*
X180479494Y-92655537D01*
X180576185Y-92576185D01*
X180655537Y-92479494D01*
X180714502Y-92369180D01*
X180750812Y-92249482D01*
X180763072Y-92125000D01*
X180763072Y-91760000D01*
X187466263Y-91760000D01*
X187522038Y-91827962D01*
X187656613Y-91938405D01*
X187810149Y-92020472D01*
X187976745Y-92071008D01*
X188149999Y-92088072D01*
X188850001Y-92088072D01*
X189023255Y-92071008D01*
X189189851Y-92020472D01*
X189343387Y-91938405D01*
X189477962Y-91827962D01*
X189500000Y-91801109D01*
X189522038Y-91827962D01*
X189656613Y-91938405D01*
X189810149Y-92020472D01*
X189976745Y-92071008D01*
X190053796Y-92078597D01*
X190736201Y-92761002D01*
X190759999Y-92790001D01*
X190875724Y-92884974D01*
X191007753Y-92955546D01*
X191151014Y-92999003D01*
X191262667Y-93010000D01*
X191262677Y-93010000D01*
X191300000Y-93013676D01*
X191337323Y-93010000D01*
X191806333Y-93010000D01*
X191779528Y-93060149D01*
X191728992Y-93226745D01*
X191711928Y-93399999D01*
X191711928Y-94225001D01*
X191728992Y-94398255D01*
X191779528Y-94564851D01*
X191861595Y-94718387D01*
X191972038Y-94852962D01*
X192106613Y-94963405D01*
X192260149Y-95045472D01*
X192426745Y-95096008D01*
X192599999Y-95113072D01*
X193900001Y-95113072D01*
X194073255Y-95096008D01*
X194239851Y-95045472D01*
X194393387Y-94963405D01*
X194527962Y-94852962D01*
X194638405Y-94718387D01*
X194720472Y-94564851D01*
X194771008Y-94398255D01*
X194788072Y-94225001D01*
X194788072Y-93399999D01*
X194771008Y-93226745D01*
X194720472Y-93060149D01*
X194693667Y-93010000D01*
X196622678Y-93010000D01*
X196660000Y-93013676D01*
X196697322Y-93010000D01*
X196697333Y-93010000D01*
X196808986Y-92999003D01*
X196952247Y-92955546D01*
X197084276Y-92884974D01*
X197200001Y-92790001D01*
X197223804Y-92760997D01*
X198489802Y-91495000D01*
X198551939Y-91495000D01*
X198751898Y-91455226D01*
X198940256Y-91377205D01*
X199109774Y-91263937D01*
X199253937Y-91119774D01*
X199367205Y-90950256D01*
X199445226Y-90761898D01*
X199485000Y-90561939D01*
X199485000Y-90358061D01*
X199445226Y-90158102D01*
X199367205Y-89969744D01*
X199253937Y-89800226D01*
X199109774Y-89656063D01*
X198940256Y-89542795D01*
X198751898Y-89464774D01*
X198551939Y-89425000D01*
X198348061Y-89425000D01*
X198148102Y-89464774D01*
X197959744Y-89542795D01*
X197790226Y-89656063D01*
X197646063Y-89800226D01*
X197532795Y-89969744D01*
X197454774Y-90158102D01*
X197415000Y-90358061D01*
X197415000Y-90420198D01*
X196345199Y-91490000D01*
X194693667Y-91490000D01*
X194720472Y-91439851D01*
X194771008Y-91273255D01*
X194788072Y-91100001D01*
X194788072Y-90274999D01*
X194771008Y-90101745D01*
X194720472Y-89935149D01*
X194638405Y-89781613D01*
X194527962Y-89647038D01*
X194501109Y-89625000D01*
X194527962Y-89602962D01*
X194638405Y-89468387D01*
X194682976Y-89385000D01*
X199840001Y-89385000D01*
X199840000Y-96717581D01*
X199836807Y-96750000D01*
X199849550Y-96879383D01*
X199887290Y-97003793D01*
X199948575Y-97118450D01*
X200003730Y-97185656D01*
X200031052Y-97218948D01*
X200131550Y-97301425D01*
X200246207Y-97362710D01*
X200370617Y-97400450D01*
X200500000Y-97413193D01*
X200532419Y-97410000D01*
X206967581Y-97410000D01*
X207000000Y-97413193D01*
X207032419Y-97410000D01*
X207129383Y-97400450D01*
X207253793Y-97362710D01*
X207368450Y-97301425D01*
X207468948Y-97218948D01*
X207551425Y-97118450D01*
X207612710Y-97003793D01*
X207650450Y-96879383D01*
X207663193Y-96750000D01*
X207660000Y-96717581D01*
X207660000Y-89385000D01*
X209050199Y-89385000D01*
X209010199Y-89425000D01*
X208948061Y-89425000D01*
X208748102Y-89464774D01*
X208559744Y-89542795D01*
X208390226Y-89656063D01*
X208246063Y-89800226D01*
X208132795Y-89969744D01*
X208054774Y-90158102D01*
X208015000Y-90358061D01*
X208015000Y-90561939D01*
X208054774Y-90761898D01*
X208132795Y-90950256D01*
X208246063Y-91119774D01*
X208390226Y-91263937D01*
X208559744Y-91377205D01*
X208748102Y-91455226D01*
X208948061Y-91495000D01*
X209151939Y-91495000D01*
X209351898Y-91455226D01*
X209540256Y-91377205D01*
X209709774Y-91263937D01*
X209853937Y-91119774D01*
X209967205Y-90950256D01*
X210045226Y-90761898D01*
X210085000Y-90561939D01*
X210085000Y-90499801D01*
X210549802Y-90035000D01*
X211752196Y-90035000D01*
X208539003Y-93248194D01*
X208509999Y-93271997D01*
X208454871Y-93339172D01*
X208415026Y-93387722D01*
X208354655Y-93500667D01*
X208344454Y-93519752D01*
X208300997Y-93663013D01*
X208290000Y-93774666D01*
X208290000Y-93774676D01*
X208286324Y-93811998D01*
X208290000Y-93849321D01*
X208290001Y-94836288D01*
X208246063Y-94880226D01*
X208132795Y-95049744D01*
X208054774Y-95238102D01*
X208015000Y-95438061D01*
X208015000Y-95641939D01*
X208054774Y-95841898D01*
X208132795Y-96030256D01*
X208246063Y-96199774D01*
X208390226Y-96343937D01*
X208559744Y-96457205D01*
X208748102Y-96535226D01*
X208948061Y-96575000D01*
X209151939Y-96575000D01*
X209351898Y-96535226D01*
X209540256Y-96457205D01*
X209709774Y-96343937D01*
X209853937Y-96199774D01*
X209967205Y-96030256D01*
X210045226Y-95841898D01*
X210085000Y-95641939D01*
X210085000Y-95438061D01*
X210045226Y-95238102D01*
X209967205Y-95049744D01*
X209853937Y-94880226D01*
X209810000Y-94836289D01*
X209810000Y-94126799D01*
X212019044Y-91917755D01*
X212090226Y-91988937D01*
X212259744Y-92102205D01*
X212448102Y-92180226D01*
X212648061Y-92220000D01*
X212851939Y-92220000D01*
X213051898Y-92180226D01*
X213240256Y-92102205D01*
X213409774Y-91988937D01*
X213453711Y-91945000D01*
X219924590Y-91945000D01*
X219961912Y-91948676D01*
X219999234Y-91945000D01*
X219999245Y-91945000D01*
X220110898Y-91934003D01*
X220254159Y-91890546D01*
X220386188Y-91819974D01*
X220501913Y-91725001D01*
X220525716Y-91695997D01*
X221711517Y-90510197D01*
X221740510Y-90486403D01*
X221764304Y-90457410D01*
X221764309Y-90457405D01*
X221835484Y-90370679D01*
X221906056Y-90238649D01*
X221949512Y-90095389D01*
X221964186Y-89946403D01*
X221960509Y-89909071D01*
X221960511Y-88537332D01*
X221964187Y-88500011D01*
X221960511Y-88462686D01*
X221960511Y-88462679D01*
X221949514Y-88351026D01*
X221949511Y-88351015D01*
X221906057Y-88207764D01*
X221840437Y-88085000D01*
X223452479Y-88085000D01*
X224378480Y-89011002D01*
X224402279Y-89040001D01*
X224431277Y-89063799D01*
X224496168Y-89117054D01*
X224490000Y-89148061D01*
X224490000Y-89351939D01*
X224529774Y-89551898D01*
X224607795Y-89740256D01*
X224721063Y-89909774D01*
X224865226Y-90053937D01*
X225034744Y-90167205D01*
X225223102Y-90245226D01*
X225423061Y-90285000D01*
X225626939Y-90285000D01*
X225826898Y-90245226D01*
X226015256Y-90167205D01*
X226184774Y-90053937D01*
X226228711Y-90010000D01*
X227046289Y-90010000D01*
X227090226Y-90053937D01*
X227259744Y-90167205D01*
X227448102Y-90245226D01*
X227648061Y-90285000D01*
X227851939Y-90285000D01*
X228051898Y-90245226D01*
X228240256Y-90167205D01*
X228409774Y-90053937D01*
X228553937Y-89909774D01*
X228667205Y-89740256D01*
X228745226Y-89551898D01*
X228785000Y-89351939D01*
X228785000Y-89310010D01*
X229240001Y-89310010D01*
X229240000Y-94000983D01*
X229172427Y-93933410D01*
X229002909Y-93820142D01*
X228814551Y-93742121D01*
X228614592Y-93702347D01*
X228410714Y-93702347D01*
X228210755Y-93742121D01*
X228022397Y-93820142D01*
X227852879Y-93933410D01*
X227708716Y-94077573D01*
X227595448Y-94247091D01*
X227517427Y-94435449D01*
X227477653Y-94635408D01*
X227477653Y-94697545D01*
X225935199Y-96240000D01*
X222475507Y-96240000D01*
X222420466Y-96107118D01*
X222214175Y-95798382D01*
X221951618Y-95535825D01*
X221642882Y-95329534D01*
X221299834Y-95187439D01*
X220935656Y-95115000D01*
X220564344Y-95115000D01*
X220200166Y-95187439D01*
X219857118Y-95329534D01*
X219548382Y-95535825D01*
X219285825Y-95798382D01*
X219079534Y-96107118D01*
X218937439Y-96450166D01*
X218865000Y-96814344D01*
X218865000Y-97185656D01*
X218937439Y-97549834D01*
X219079534Y-97892882D01*
X219285825Y-98201618D01*
X219424207Y-98340000D01*
X218075793Y-98340000D01*
X218214175Y-98201618D01*
X218420466Y-97892882D01*
X218562561Y-97549834D01*
X218635000Y-97185656D01*
X218635000Y-96814344D01*
X218562561Y-96450166D01*
X218420466Y-96107118D01*
X218214175Y-95798382D01*
X217951618Y-95535825D01*
X217642882Y-95329534D01*
X217299834Y-95187439D01*
X216935656Y-95115000D01*
X216564344Y-95115000D01*
X216200166Y-95187439D01*
X215857118Y-95329534D01*
X215548382Y-95535825D01*
X215285825Y-95798382D01*
X215079534Y-96107118D01*
X214937439Y-96450166D01*
X214865000Y-96814344D01*
X214865000Y-97185656D01*
X214937439Y-97549834D01*
X215079534Y-97892882D01*
X215285825Y-98201618D01*
X215424207Y-98340000D01*
X214629208Y-98340000D01*
X214638072Y-98250000D01*
X214638072Y-95750000D01*
X214625812Y-95625518D01*
X214589502Y-95505820D01*
X214530537Y-95395506D01*
X214451185Y-95298815D01*
X214354494Y-95219463D01*
X214244180Y-95160498D01*
X214124482Y-95124188D01*
X214000000Y-95111928D01*
X211500000Y-95111928D01*
X211375518Y-95124188D01*
X211255820Y-95160498D01*
X211145506Y-95219463D01*
X211048815Y-95298815D01*
X210969463Y-95395506D01*
X210910498Y-95505820D01*
X210874188Y-95625518D01*
X210861928Y-95750000D01*
X210861928Y-98250000D01*
X210870792Y-98340000D01*
X163410000Y-98340000D01*
X163410000Y-86788013D01*
X166090000Y-86788013D01*
X166090000Y-87311987D01*
X166192222Y-87825893D01*
X166392738Y-88309983D01*
X166683843Y-88745651D01*
X167054349Y-89116157D01*
X167490017Y-89407262D01*
X167974107Y-89607778D01*
X168488013Y-89710000D01*
X169011987Y-89710000D01*
X169525893Y-89607778D01*
X170009983Y-89407262D01*
X170445651Y-89116157D01*
X170816157Y-88745651D01*
X171107262Y-88309983D01*
X171307778Y-87825893D01*
X171410000Y-87311987D01*
X171410000Y-86788013D01*
X171307778Y-86274107D01*
X171107262Y-85790017D01*
X170816157Y-85354349D01*
X170445651Y-84983843D01*
X170009983Y-84692738D01*
X169525893Y-84492222D01*
X169011987Y-84390000D01*
X168488013Y-84390000D01*
X167974107Y-84492222D01*
X167490017Y-84692738D01*
X167054349Y-84983843D01*
X166683843Y-85354349D01*
X166392738Y-85790017D01*
X166192222Y-86274107D01*
X166090000Y-86788013D01*
X163410000Y-86788013D01*
X163410000Y-77250000D01*
X199836807Y-77250000D01*
X199840001Y-77282429D01*
X199840000Y-84717581D01*
X199836807Y-84750000D01*
X199849550Y-84879383D01*
X199887290Y-85003793D01*
X199948575Y-85118450D01*
X200021865Y-85207754D01*
X200031052Y-85218948D01*
X200131550Y-85301425D01*
X200246207Y-85362710D01*
X200370617Y-85400450D01*
X200500000Y-85413193D01*
X200532419Y-85410000D01*
X206967581Y-85410000D01*
X207000000Y-85413193D01*
X207032419Y-85410000D01*
X207129383Y-85400450D01*
X207253793Y-85362710D01*
X207368450Y-85301425D01*
X207468948Y-85218948D01*
X207551425Y-85118450D01*
X207612710Y-85003793D01*
X207650450Y-84879383D01*
X207663193Y-84750000D01*
X207660000Y-84717581D01*
X207660000Y-77282419D01*
X207663193Y-77250000D01*
X207650450Y-77120617D01*
X207612710Y-76996207D01*
X207551425Y-76881550D01*
X207468948Y-76781052D01*
X207368450Y-76698575D01*
X207253793Y-76637290D01*
X207129383Y-76599550D01*
X207032419Y-76590000D01*
X207000000Y-76586807D01*
X206967581Y-76590000D01*
X200532419Y-76590000D01*
X200500000Y-76586807D01*
X200467581Y-76590000D01*
X200370617Y-76599550D01*
X200246207Y-76637290D01*
X200131550Y-76698575D01*
X200031052Y-76781052D01*
X199948575Y-76881550D01*
X199887290Y-76996207D01*
X199849550Y-77120617D01*
X199836807Y-77250000D01*
X163410000Y-77250000D01*
X163410000Y-75660000D01*
X211424207Y-75660000D01*
X211285825Y-75798382D01*
%TA.AperFunction,Conductor*%
D27*
G36*
X211285825Y-75798382D02*
G01*
X211079534Y-76107118D01*
X210937439Y-76450166D01*
X210865000Y-76814344D01*
X210865000Y-77185656D01*
X210937439Y-77549834D01*
X211079534Y-77892882D01*
X211285825Y-78201618D01*
X211548382Y-78464175D01*
X211740001Y-78592211D01*
X211740000Y-84965000D01*
X211648061Y-84965000D01*
X211448102Y-85004774D01*
X211259744Y-85082795D01*
X211090226Y-85196063D01*
X210946063Y-85340226D01*
X210832795Y-85509744D01*
X210754774Y-85698102D01*
X210715000Y-85898061D01*
X210715000Y-86101939D01*
X210754774Y-86301898D01*
X210822028Y-86464261D01*
X210796289Y-86490000D01*
X210703711Y-86490000D01*
X210659774Y-86446063D01*
X210490256Y-86332795D01*
X210301898Y-86254774D01*
X210101939Y-86215000D01*
X209898061Y-86215000D01*
X209698102Y-86254774D01*
X209509744Y-86332795D01*
X209340226Y-86446063D01*
X209196063Y-86590226D01*
X209082795Y-86759744D01*
X209004774Y-86948102D01*
X208965000Y-87148061D01*
X208965000Y-87215000D01*
X194852992Y-87215000D01*
X194284564Y-86646572D01*
X194393387Y-86588405D01*
X194527962Y-86477962D01*
X194638405Y-86343387D01*
X194720472Y-86189851D01*
X194771008Y-86023255D01*
X194788072Y-85850001D01*
X194788072Y-85024999D01*
X194771008Y-84851745D01*
X194720472Y-84685149D01*
X194638405Y-84531613D01*
X194527962Y-84397038D01*
X194501109Y-84375000D01*
X194527962Y-84352962D01*
X194638405Y-84218387D01*
X194720472Y-84064851D01*
X194771008Y-83898255D01*
X194788072Y-83725001D01*
X194788072Y-82899999D01*
X194771008Y-82726745D01*
X194720472Y-82560149D01*
X194638405Y-82406613D01*
X194527962Y-82272038D01*
X194393387Y-82161595D01*
X194239851Y-82079528D01*
X194073255Y-82028992D01*
X193900001Y-82011928D01*
X192599999Y-82011928D01*
X192426745Y-82028992D01*
X192260149Y-82079528D01*
X192106613Y-82161595D01*
X191972038Y-82272038D01*
X191861595Y-82406613D01*
X191779528Y-82560149D01*
X191730400Y-82722103D01*
X191721008Y-82626745D01*
X191670472Y-82460149D01*
X191588405Y-82306613D01*
X191477962Y-82172038D01*
X191343387Y-82061595D01*
X191260000Y-82017024D01*
X191260000Y-81564801D01*
X191816250Y-81008552D01*
X191861595Y-81093387D01*
X191972038Y-81227962D01*
X192106613Y-81338405D01*
X192260149Y-81420472D01*
X192426745Y-81471008D01*
X192599999Y-81488072D01*
X193900001Y-81488072D01*
X194073255Y-81471008D01*
X194239851Y-81420472D01*
X194393387Y-81338405D01*
X194527962Y-81227962D01*
X194638405Y-81093387D01*
X194720472Y-80939851D01*
X194771008Y-80773255D01*
X194788072Y-80600001D01*
X194788072Y-79774999D01*
X194771008Y-79601745D01*
X194720472Y-79435149D01*
X194638405Y-79281613D01*
X194527962Y-79147038D01*
X194393387Y-79036595D01*
X194239851Y-78954528D01*
X194073255Y-78903992D01*
X193900001Y-78886928D01*
X192599999Y-78886928D01*
X192426745Y-78903992D01*
X192260149Y-78954528D01*
X192106613Y-79036595D01*
X191972038Y-79147038D01*
X191861595Y-79281613D01*
X191783616Y-79427500D01*
X191599823Y-79427500D01*
X191562500Y-79423824D01*
X191525177Y-79427500D01*
X191525167Y-79427500D01*
X191413514Y-79438497D01*
X191270253Y-79481954D01*
X191138223Y-79552526D01*
X191092286Y-79590226D01*
X191022499Y-79647499D01*
X190998701Y-79676497D01*
X189988998Y-80686201D01*
X189960000Y-80709999D01*
X189936202Y-80738997D01*
X189936201Y-80738998D01*
X189865026Y-80825724D01*
X189794454Y-80957754D01*
X189773754Y-81025997D01*
X189760572Y-81069454D01*
X189750998Y-81101015D01*
X189736324Y-81250000D01*
X189740001Y-81287332D01*
X189740001Y-82017023D01*
X189656613Y-82061595D01*
X189522038Y-82172038D01*
X189500000Y-82198891D01*
X189477962Y-82172038D01*
X189343387Y-82061595D01*
X189189851Y-81979528D01*
X189023255Y-81928992D01*
X188850001Y-81911928D01*
X188149999Y-81911928D01*
X187976745Y-81928992D01*
X187810149Y-81979528D01*
X187656613Y-82061595D01*
X187522038Y-82172038D01*
X187411595Y-82306613D01*
X187393749Y-82340000D01*
X180590208Y-82340000D01*
X180559692Y-82266327D01*
X180367081Y-81978065D01*
X180121935Y-81732919D01*
X179833673Y-81540308D01*
X179513373Y-81407636D01*
X179173345Y-81340000D01*
X178826655Y-81340000D01*
X178486627Y-81407636D01*
X178166327Y-81540308D01*
X177878065Y-81732919D01*
X177632919Y-81978065D01*
X177440308Y-82266327D01*
X177307636Y-82586627D01*
X177240000Y-82926655D01*
X177240000Y-83273345D01*
X177307636Y-83613373D01*
X177440308Y-83933673D01*
X177632919Y-84221935D01*
X177878065Y-84467081D01*
X178166327Y-84659692D01*
X178486627Y-84792364D01*
X178826655Y-84860000D01*
X179173345Y-84860000D01*
X179513373Y-84792364D01*
X179833673Y-84659692D01*
X180121935Y-84467081D01*
X180367081Y-84221935D01*
X180559692Y-83933673D01*
X180590208Y-83860000D01*
X187277686Y-83860000D01*
X187278992Y-83873255D01*
X187329528Y-84039851D01*
X187411595Y-84193387D01*
X187522038Y-84327962D01*
X187579354Y-84375000D01*
X187522038Y-84422038D01*
X187411595Y-84556613D01*
X187329528Y-84710149D01*
X187278992Y-84876745D01*
X187261928Y-85049999D01*
X187261928Y-85950001D01*
X187278992Y-86123255D01*
X187329528Y-86289851D01*
X187411595Y-86443387D01*
X187522038Y-86577962D01*
X187656613Y-86688405D01*
X187810149Y-86770472D01*
X187976745Y-86821008D01*
X188149999Y-86838072D01*
X188850001Y-86838072D01*
X189023255Y-86821008D01*
X189189851Y-86770472D01*
X189343387Y-86688405D01*
X189477962Y-86577962D01*
X189500000Y-86551109D01*
X189522038Y-86577962D01*
X189656613Y-86688405D01*
X189810149Y-86770472D01*
X189976745Y-86821008D01*
X190149999Y-86838072D01*
X190850001Y-86838072D01*
X191023255Y-86821008D01*
X191189851Y-86770472D01*
X191343387Y-86688405D01*
X191477962Y-86577962D01*
X191588405Y-86443387D01*
X191670472Y-86289851D01*
X191698486Y-86197500D01*
X191783616Y-86197500D01*
X191861595Y-86343387D01*
X191972038Y-86477962D01*
X192106613Y-86588405D01*
X192260149Y-86670472D01*
X192426745Y-86721008D01*
X192490308Y-86727268D01*
X192500997Y-86835795D01*
X192535640Y-86949998D01*
X192544454Y-86979056D01*
X192615026Y-87111086D01*
X192642186Y-87144180D01*
X192709999Y-87226811D01*
X192739003Y-87250614D01*
X192750317Y-87261928D01*
X192599999Y-87261928D01*
X192426745Y-87278992D01*
X192260149Y-87329528D01*
X192106613Y-87411595D01*
X191972038Y-87522038D01*
X191861595Y-87656613D01*
X191783616Y-87802500D01*
X191698486Y-87802500D01*
X191670472Y-87710149D01*
X191588405Y-87556613D01*
X191477962Y-87422038D01*
X191343387Y-87311595D01*
X191189851Y-87229528D01*
X191023255Y-87178992D01*
X190850001Y-87161928D01*
X190149999Y-87161928D01*
X189976745Y-87178992D01*
X189810149Y-87229528D01*
X189656613Y-87311595D01*
X189522038Y-87422038D01*
X189500000Y-87448891D01*
X189477962Y-87422038D01*
X189343387Y-87311595D01*
X189189851Y-87229528D01*
X189023255Y-87178992D01*
X188850001Y-87161928D01*
X188149999Y-87161928D01*
X187976745Y-87178992D01*
X187810149Y-87229528D01*
X187656613Y-87311595D01*
X187522038Y-87422038D01*
X187411595Y-87556613D01*
X187329528Y-87710149D01*
X187278992Y-87876745D01*
X187261928Y-88049999D01*
X187261928Y-88950001D01*
X187278992Y-89123255D01*
X187329528Y-89289851D01*
X187411595Y-89443387D01*
X187522038Y-89577962D01*
X187579354Y-89625000D01*
X187522038Y-89672038D01*
X187411595Y-89806613D01*
X187329528Y-89960149D01*
X187278992Y-90126745D01*
X187267837Y-90240000D01*
X180763072Y-90240000D01*
X180763072Y-89875000D01*
X180750812Y-89750518D01*
X180714502Y-89630820D01*
X180655537Y-89520506D01*
X180576185Y-89423815D01*
X180479494Y-89344463D01*
X180369180Y-89285498D01*
X180249482Y-89249188D01*
X180125000Y-89236928D01*
X177875000Y-89236928D01*
X177750518Y-89249188D01*
X177630820Y-89285498D01*
X177520506Y-89344463D01*
X177423815Y-89423815D01*
X177344463Y-89520506D01*
X177285498Y-89630820D01*
X177249188Y-89750518D01*
X177236928Y-89875000D01*
X177236928Y-92125000D01*
X177249188Y-92249482D01*
X177285498Y-92369180D01*
X177344463Y-92479494D01*
X177423815Y-92576185D01*
X177520506Y-92655537D01*
X177630820Y-92714502D01*
X177750518Y-92750812D01*
X177875000Y-92763072D01*
X180125000Y-92763072D01*
X180249482Y-92750812D01*
X180369180Y-92714502D01*
X180479494Y-92655537D01*
X180576185Y-92576185D01*
X180655537Y-92479494D01*
X180714502Y-92369180D01*
X180750812Y-92249482D01*
X180763072Y-92125000D01*
X180763072Y-91760000D01*
X187466263Y-91760000D01*
X187522038Y-91827962D01*
X187656613Y-91938405D01*
X187810149Y-92020472D01*
X187976745Y-92071008D01*
X188149999Y-92088072D01*
X188850001Y-92088072D01*
X189023255Y-92071008D01*
X189189851Y-92020472D01*
X189343387Y-91938405D01*
X189477962Y-91827962D01*
X189500000Y-91801109D01*
X189522038Y-91827962D01*
X189656613Y-91938405D01*
X189810149Y-92020472D01*
X189976745Y-92071008D01*
X190053796Y-92078597D01*
X190736201Y-92761002D01*
X190759999Y-92790001D01*
X190875724Y-92884974D01*
X191007753Y-92955546D01*
X191151014Y-92999003D01*
X191262667Y-93010000D01*
X191262677Y-93010000D01*
X191300000Y-93013676D01*
X191337323Y-93010000D01*
X191806333Y-93010000D01*
X191779528Y-93060149D01*
X191728992Y-93226745D01*
X191711928Y-93399999D01*
X191711928Y-94225001D01*
X191728992Y-94398255D01*
X191779528Y-94564851D01*
X191861595Y-94718387D01*
X191972038Y-94852962D01*
X192106613Y-94963405D01*
X192260149Y-95045472D01*
X192426745Y-95096008D01*
X192599999Y-95113072D01*
X193900001Y-95113072D01*
X194073255Y-95096008D01*
X194239851Y-95045472D01*
X194393387Y-94963405D01*
X194527962Y-94852962D01*
X194638405Y-94718387D01*
X194720472Y-94564851D01*
X194771008Y-94398255D01*
X194788072Y-94225001D01*
X194788072Y-93399999D01*
X194771008Y-93226745D01*
X194720472Y-93060149D01*
X194693667Y-93010000D01*
X196622678Y-93010000D01*
X196660000Y-93013676D01*
X196697322Y-93010000D01*
X196697333Y-93010000D01*
X196808986Y-92999003D01*
X196952247Y-92955546D01*
X197084276Y-92884974D01*
X197200001Y-92790001D01*
X197223804Y-92760997D01*
X198489802Y-91495000D01*
X198551939Y-91495000D01*
X198751898Y-91455226D01*
X198940256Y-91377205D01*
X199109774Y-91263937D01*
X199253937Y-91119774D01*
X199367205Y-90950256D01*
X199445226Y-90761898D01*
X199485000Y-90561939D01*
X199485000Y-90358061D01*
X199445226Y-90158102D01*
X199367205Y-89969744D01*
X199253937Y-89800226D01*
X199109774Y-89656063D01*
X198940256Y-89542795D01*
X198751898Y-89464774D01*
X198551939Y-89425000D01*
X198348061Y-89425000D01*
X198148102Y-89464774D01*
X197959744Y-89542795D01*
X197790226Y-89656063D01*
X197646063Y-89800226D01*
X197532795Y-89969744D01*
X197454774Y-90158102D01*
X197415000Y-90358061D01*
X197415000Y-90420198D01*
X196345199Y-91490000D01*
X194693667Y-91490000D01*
X194720472Y-91439851D01*
X194771008Y-91273255D01*
X194788072Y-91100001D01*
X194788072Y-90274999D01*
X194771008Y-90101745D01*
X194720472Y-89935149D01*
X194638405Y-89781613D01*
X194527962Y-89647038D01*
X194501109Y-89625000D01*
X194527962Y-89602962D01*
X194638405Y-89468387D01*
X194682976Y-89385000D01*
X199840001Y-89385000D01*
X199840000Y-96717581D01*
X199836807Y-96750000D01*
X199849550Y-96879383D01*
X199887290Y-97003793D01*
X199948575Y-97118450D01*
X200003730Y-97185656D01*
X200031052Y-97218948D01*
X200131550Y-97301425D01*
X200246207Y-97362710D01*
X200370617Y-97400450D01*
X200500000Y-97413193D01*
X200532419Y-97410000D01*
X206967581Y-97410000D01*
X207000000Y-97413193D01*
X207032419Y-97410000D01*
X207129383Y-97400450D01*
X207253793Y-97362710D01*
X207368450Y-97301425D01*
X207468948Y-97218948D01*
X207551425Y-97118450D01*
X207612710Y-97003793D01*
X207650450Y-96879383D01*
X207663193Y-96750000D01*
X207660000Y-96717581D01*
X207660000Y-89385000D01*
X209050199Y-89385000D01*
X209010199Y-89425000D01*
X208948061Y-89425000D01*
X208748102Y-89464774D01*
X208559744Y-89542795D01*
X208390226Y-89656063D01*
X208246063Y-89800226D01*
X208132795Y-89969744D01*
X208054774Y-90158102D01*
X208015000Y-90358061D01*
X208015000Y-90561939D01*
X208054774Y-90761898D01*
X208132795Y-90950256D01*
X208246063Y-91119774D01*
X208390226Y-91263937D01*
X208559744Y-91377205D01*
X208748102Y-91455226D01*
X208948061Y-91495000D01*
X209151939Y-91495000D01*
X209351898Y-91455226D01*
X209540256Y-91377205D01*
X209709774Y-91263937D01*
X209853937Y-91119774D01*
X209967205Y-90950256D01*
X210045226Y-90761898D01*
X210085000Y-90561939D01*
X210085000Y-90499801D01*
X210549802Y-90035000D01*
X211752196Y-90035000D01*
X208539003Y-93248194D01*
X208509999Y-93271997D01*
X208454871Y-93339172D01*
X208415026Y-93387722D01*
X208354655Y-93500667D01*
X208344454Y-93519752D01*
X208300997Y-93663013D01*
X208290000Y-93774666D01*
X208290000Y-93774676D01*
X208286324Y-93811998D01*
X208290000Y-93849321D01*
X208290001Y-94836288D01*
X208246063Y-94880226D01*
X208132795Y-95049744D01*
X208054774Y-95238102D01*
X208015000Y-95438061D01*
X208015000Y-95641939D01*
X208054774Y-95841898D01*
X208132795Y-96030256D01*
X208246063Y-96199774D01*
X208390226Y-96343937D01*
X208559744Y-96457205D01*
X208748102Y-96535226D01*
X208948061Y-96575000D01*
X209151939Y-96575000D01*
X209351898Y-96535226D01*
X209540256Y-96457205D01*
X209709774Y-96343937D01*
X209853937Y-96199774D01*
X209967205Y-96030256D01*
X210045226Y-95841898D01*
X210085000Y-95641939D01*
X210085000Y-95438061D01*
X210045226Y-95238102D01*
X209967205Y-95049744D01*
X209853937Y-94880226D01*
X209810000Y-94836289D01*
X209810000Y-94126799D01*
X212019044Y-91917755D01*
X212090226Y-91988937D01*
X212259744Y-92102205D01*
X212448102Y-92180226D01*
X212648061Y-92220000D01*
X212851939Y-92220000D01*
X213051898Y-92180226D01*
X213240256Y-92102205D01*
X213409774Y-91988937D01*
X213453711Y-91945000D01*
X219924590Y-91945000D01*
X219961912Y-91948676D01*
X219999234Y-91945000D01*
X219999245Y-91945000D01*
X220110898Y-91934003D01*
X220254159Y-91890546D01*
X220386188Y-91819974D01*
X220501913Y-91725001D01*
X220525716Y-91695997D01*
X221711517Y-90510197D01*
X221740510Y-90486403D01*
X221764304Y-90457410D01*
X221764309Y-90457405D01*
X221835484Y-90370679D01*
X221906056Y-90238649D01*
X221949512Y-90095389D01*
X221964186Y-89946403D01*
X221960509Y-89909071D01*
X221960511Y-88537332D01*
X221964187Y-88500011D01*
X221960511Y-88462686D01*
X221960511Y-88462679D01*
X221949514Y-88351026D01*
X221949511Y-88351015D01*
X221906057Y-88207764D01*
X221840437Y-88085000D01*
X223452479Y-88085000D01*
X224378480Y-89011002D01*
X224402279Y-89040001D01*
X224431277Y-89063799D01*
X224496168Y-89117054D01*
X224490000Y-89148061D01*
X224490000Y-89351939D01*
X224529774Y-89551898D01*
X224607795Y-89740256D01*
X224721063Y-89909774D01*
X224865226Y-90053937D01*
X225034744Y-90167205D01*
X225223102Y-90245226D01*
X225423061Y-90285000D01*
X225626939Y-90285000D01*
X225826898Y-90245226D01*
X226015256Y-90167205D01*
X226184774Y-90053937D01*
X226228711Y-90010000D01*
X227046289Y-90010000D01*
X227090226Y-90053937D01*
X227259744Y-90167205D01*
X227448102Y-90245226D01*
X227648061Y-90285000D01*
X227851939Y-90285000D01*
X228051898Y-90245226D01*
X228240256Y-90167205D01*
X228409774Y-90053937D01*
X228553937Y-89909774D01*
X228667205Y-89740256D01*
X228745226Y-89551898D01*
X228785000Y-89351939D01*
X228785000Y-89310010D01*
X229240001Y-89310010D01*
X229240000Y-94000983D01*
X229172427Y-93933410D01*
X229002909Y-93820142D01*
X228814551Y-93742121D01*
X228614592Y-93702347D01*
X228410714Y-93702347D01*
X228210755Y-93742121D01*
X228022397Y-93820142D01*
X227852879Y-93933410D01*
X227708716Y-94077573D01*
X227595448Y-94247091D01*
X227517427Y-94435449D01*
X227477653Y-94635408D01*
X227477653Y-94697545D01*
X225935199Y-96240000D01*
X222475507Y-96240000D01*
X222420466Y-96107118D01*
X222214175Y-95798382D01*
X221951618Y-95535825D01*
X221642882Y-95329534D01*
X221299834Y-95187439D01*
X220935656Y-95115000D01*
X220564344Y-95115000D01*
X220200166Y-95187439D01*
X219857118Y-95329534D01*
X219548382Y-95535825D01*
X219285825Y-95798382D01*
X219079534Y-96107118D01*
X218937439Y-96450166D01*
X218865000Y-96814344D01*
X218865000Y-97185656D01*
X218937439Y-97549834D01*
X219079534Y-97892882D01*
X219285825Y-98201618D01*
X219424207Y-98340000D01*
X218075793Y-98340000D01*
X218214175Y-98201618D01*
X218420466Y-97892882D01*
X218562561Y-97549834D01*
X218635000Y-97185656D01*
X218635000Y-96814344D01*
X218562561Y-96450166D01*
X218420466Y-96107118D01*
X218214175Y-95798382D01*
X217951618Y-95535825D01*
X217642882Y-95329534D01*
X217299834Y-95187439D01*
X216935656Y-95115000D01*
X216564344Y-95115000D01*
X216200166Y-95187439D01*
X215857118Y-95329534D01*
X215548382Y-95535825D01*
X215285825Y-95798382D01*
X215079534Y-96107118D01*
X214937439Y-96450166D01*
X214865000Y-96814344D01*
X214865000Y-97185656D01*
X214937439Y-97549834D01*
X215079534Y-97892882D01*
X215285825Y-98201618D01*
X215424207Y-98340000D01*
X214629208Y-98340000D01*
X214638072Y-98250000D01*
X214638072Y-95750000D01*
X214625812Y-95625518D01*
X214589502Y-95505820D01*
X214530537Y-95395506D01*
X214451185Y-95298815D01*
X214354494Y-95219463D01*
X214244180Y-95160498D01*
X214124482Y-95124188D01*
X214000000Y-95111928D01*
X211500000Y-95111928D01*
X211375518Y-95124188D01*
X211255820Y-95160498D01*
X211145506Y-95219463D01*
X211048815Y-95298815D01*
X210969463Y-95395506D01*
X210910498Y-95505820D01*
X210874188Y-95625518D01*
X210861928Y-95750000D01*
X210861928Y-98250000D01*
X210870792Y-98340000D01*
X163410000Y-98340000D01*
X163410000Y-86788013D01*
X166090000Y-86788013D01*
X166090000Y-87311987D01*
X166192222Y-87825893D01*
X166392738Y-88309983D01*
X166683843Y-88745651D01*
X167054349Y-89116157D01*
X167490017Y-89407262D01*
X167974107Y-89607778D01*
X168488013Y-89710000D01*
X169011987Y-89710000D01*
X169525893Y-89607778D01*
X170009983Y-89407262D01*
X170445651Y-89116157D01*
X170816157Y-88745651D01*
X171107262Y-88309983D01*
X171307778Y-87825893D01*
X171410000Y-87311987D01*
X171410000Y-86788013D01*
X171307778Y-86274107D01*
X171107262Y-85790017D01*
X170816157Y-85354349D01*
X170445651Y-84983843D01*
X170009983Y-84692738D01*
X169525893Y-84492222D01*
X169011987Y-84390000D01*
X168488013Y-84390000D01*
X167974107Y-84492222D01*
X167490017Y-84692738D01*
X167054349Y-84983843D01*
X166683843Y-85354349D01*
X166392738Y-85790017D01*
X166192222Y-86274107D01*
X166090000Y-86788013D01*
X163410000Y-86788013D01*
X163410000Y-77250000D01*
X199836807Y-77250000D01*
X199840001Y-77282429D01*
X199840000Y-84717581D01*
X199836807Y-84750000D01*
X199849550Y-84879383D01*
X199887290Y-85003793D01*
X199948575Y-85118450D01*
X200021865Y-85207754D01*
X200031052Y-85218948D01*
X200131550Y-85301425D01*
X200246207Y-85362710D01*
X200370617Y-85400450D01*
X200500000Y-85413193D01*
X200532419Y-85410000D01*
X206967581Y-85410000D01*
X207000000Y-85413193D01*
X207032419Y-85410000D01*
X207129383Y-85400450D01*
X207253793Y-85362710D01*
X207368450Y-85301425D01*
X207468948Y-85218948D01*
X207551425Y-85118450D01*
X207612710Y-85003793D01*
X207650450Y-84879383D01*
X207663193Y-84750000D01*
X207660000Y-84717581D01*
X207660000Y-77282419D01*
X207663193Y-77250000D01*
X207650450Y-77120617D01*
X207612710Y-76996207D01*
X207551425Y-76881550D01*
X207468948Y-76781052D01*
X207368450Y-76698575D01*
X207253793Y-76637290D01*
X207129383Y-76599550D01*
X207032419Y-76590000D01*
X207000000Y-76586807D01*
X206967581Y-76590000D01*
X200532419Y-76590000D01*
X200500000Y-76586807D01*
X200467581Y-76590000D01*
X200370617Y-76599550D01*
X200246207Y-76637290D01*
X200131550Y-76698575D01*
X200031052Y-76781052D01*
X199948575Y-76881550D01*
X199887290Y-76996207D01*
X199849550Y-77120617D01*
X199836807Y-77250000D01*
X163410000Y-77250000D01*
X163410000Y-75660000D01*
X211424207Y-75660000D01*
X211285825Y-75798382D01*
G37*
%TD.AperFunction*%
D26*
X255198811Y-75678419D02*
X255313736Y-75793344D01*
X255013328Y-75931541D01*
X254837291Y-76281125D01*
X254732836Y-76658334D01*
X254703979Y-77048674D01*
X254751827Y-77437143D01*
X254874544Y-77808813D01*
X255013328Y-78068459D01*
X255313738Y-78206657D01*
X256520395Y-77000000D01*
X256506253Y-76985858D01*
X256685858Y-76806253D01*
X256700000Y-76820395D01*
X256714143Y-76806253D01*
X256893748Y-76985858D01*
X256879605Y-77000000D01*
X258086262Y-78206657D01*
X258386672Y-78068459D01*
X258562709Y-77718875D01*
X258667164Y-77341666D01*
X258696021Y-76951326D01*
X258648173Y-76562857D01*
X258525456Y-76191187D01*
X258386672Y-75931541D01*
X258086264Y-75793344D01*
X258201189Y-75678419D01*
X258182770Y-75660000D01*
X269340000Y-75660000D01*
X269340001Y-98340000D01*
X269180957Y-98340000D01*
X269229502Y-98249180D01*
X269265812Y-98129482D01*
X269278072Y-98005000D01*
X269278072Y-96745000D01*
X269265812Y-96620518D01*
X269229502Y-96500820D01*
X269170537Y-96390506D01*
X269091185Y-96293815D01*
X268994494Y-96214463D01*
X268884180Y-96155498D01*
X268764482Y-96119188D01*
X268640000Y-96106928D01*
X267420973Y-96106928D01*
X267455546Y-96042247D01*
X267499003Y-95898986D01*
X267510000Y-95787333D01*
X267513677Y-95750000D01*
X267510000Y-95712667D01*
X267510000Y-90893072D01*
X268640000Y-90893072D01*
X268764482Y-90880812D01*
X268884180Y-90844502D01*
X268994494Y-90785537D01*
X269091185Y-90706185D01*
X269170537Y-90609494D01*
X269229502Y-90499180D01*
X269265812Y-90379482D01*
X269278072Y-90255000D01*
X269278072Y-88995000D01*
X269265812Y-88870518D01*
X269229502Y-88750820D01*
X269170537Y-88640506D01*
X269091185Y-88543815D01*
X268994494Y-88464463D01*
X268884180Y-88405498D01*
X268764482Y-88369188D01*
X268640000Y-88356928D01*
X267510000Y-88356928D01*
X267510000Y-83037322D01*
X267513676Y-82999999D01*
X267510000Y-82962676D01*
X267510000Y-82962667D01*
X267499003Y-82851014D01*
X267455546Y-82707753D01*
X267384974Y-82575724D01*
X267362897Y-82548823D01*
X267313799Y-82488996D01*
X267313795Y-82488992D01*
X267290001Y-82459999D01*
X267261009Y-82436206D01*
X265593531Y-80768729D01*
X265768933Y-80841383D01*
X265988212Y-80885000D01*
X266211788Y-80885000D01*
X266431067Y-80841383D01*
X266637624Y-80755824D01*
X266823520Y-80631612D01*
X266981612Y-80473520D01*
X267105824Y-80287624D01*
X267191383Y-80081067D01*
X267235000Y-79861788D01*
X267235000Y-79638212D01*
X267191383Y-79418933D01*
X267105824Y-79212376D01*
X266981612Y-79026480D01*
X266823520Y-78868388D01*
X266637624Y-78744176D01*
X266431067Y-78658617D01*
X266211788Y-78615000D01*
X265988212Y-78615000D01*
X265768933Y-78658617D01*
X265562376Y-78744176D01*
X265376480Y-78868388D01*
X265218388Y-79026480D01*
X265094176Y-79212376D01*
X265008617Y-79418933D01*
X264965000Y-79638212D01*
X264965000Y-79861788D01*
X265008617Y-80081067D01*
X265081271Y-80256469D01*
X263835585Y-79010784D01*
X263910640Y-78829586D01*
X263987000Y-78445702D01*
X263987000Y-78054298D01*
X263910640Y-77670414D01*
X263760856Y-77308803D01*
X263543403Y-76983361D01*
X263266639Y-76706597D01*
X262941197Y-76489144D01*
X262579586Y-76339360D01*
X262195702Y-76263000D01*
X261804298Y-76263000D01*
X261420414Y-76339360D01*
X261058803Y-76489144D01*
X260733361Y-76706597D01*
X260456597Y-76983361D01*
X260239144Y-77308803D01*
X260089360Y-77670414D01*
X260013000Y-78054298D01*
X260013000Y-78445702D01*
X260089360Y-78829586D01*
X260239144Y-79191197D01*
X260456597Y-79516639D01*
X260733361Y-79793403D01*
X261058803Y-80010856D01*
X261420414Y-80160640D01*
X261804298Y-80237000D01*
X262195702Y-80237000D01*
X262579586Y-80160640D01*
X262760784Y-80085585D01*
X265990000Y-83314803D01*
X265990001Y-91321112D01*
X265951185Y-91273815D01*
X265854494Y-91194463D01*
X265744180Y-91135498D01*
X265624482Y-91099188D01*
X265500000Y-91086928D01*
X264500000Y-91086928D01*
X264375518Y-91099188D01*
X264255820Y-91135498D01*
X264145506Y-91194463D01*
X264090019Y-91240000D01*
X255787322Y-91240000D01*
X255749999Y-91236324D01*
X255712676Y-91240000D01*
X255712667Y-91240000D01*
X255601014Y-91250997D01*
X255482527Y-91286939D01*
X255457753Y-91294454D01*
X255325723Y-91365026D01*
X255249240Y-91427795D01*
X255209999Y-91459999D01*
X255186201Y-91488997D01*
X253710199Y-92965000D01*
X253648061Y-92965000D01*
X253448102Y-93004774D01*
X253388072Y-93029639D01*
X253388072Y-92950000D01*
X253371008Y-92776746D01*
X253320472Y-92610150D01*
X253238405Y-92456614D01*
X253127962Y-92322038D01*
X252993386Y-92211595D01*
X252839850Y-92129528D01*
X252673254Y-92078992D01*
X252500000Y-92061928D01*
X250500000Y-92061928D01*
X250326746Y-92078992D01*
X250160150Y-92129528D01*
X250006614Y-92211595D01*
X249872038Y-92322038D01*
X249761595Y-92456614D01*
X249679528Y-92610150D01*
X249628992Y-92776746D01*
X249611928Y-92950000D01*
X249611928Y-96850000D01*
X249628992Y-97023254D01*
X249679528Y-97189850D01*
X249761595Y-97343386D01*
X249872038Y-97477962D01*
X250006614Y-97588405D01*
X250160150Y-97670472D01*
X250326746Y-97721008D01*
X250500000Y-97738072D01*
X251063271Y-97738072D01*
X251665198Y-98340000D01*
X239388072Y-98340000D01*
X239388072Y-94450000D01*
X239371008Y-94276746D01*
X239320472Y-94110150D01*
X239238405Y-93956614D01*
X239127962Y-93822038D01*
X238993386Y-93711595D01*
X238839850Y-93629528D01*
X238673254Y-93578992D01*
X238500000Y-93561928D01*
X236500000Y-93561928D01*
X236326746Y-93578992D01*
X236160150Y-93629528D01*
X236006614Y-93711595D01*
X235872038Y-93822038D01*
X235761595Y-93956614D01*
X235679528Y-94110150D01*
X235628992Y-94276746D01*
X235611928Y-94450000D01*
X235611928Y-95640000D01*
X232214802Y-95640000D01*
X230760000Y-94185199D01*
X230760000Y-88863072D01*
X231162500Y-88863072D01*
X231333316Y-88846248D01*
X231497567Y-88796423D01*
X231648942Y-88715512D01*
X231725150Y-88652969D01*
X231754774Y-88801898D01*
X231832795Y-88990256D01*
X231946063Y-89159774D01*
X232090226Y-89303937D01*
X232259744Y-89417205D01*
X232448102Y-89495226D01*
X232648061Y-89535000D01*
X232710199Y-89535000D01*
X234436200Y-91261002D01*
X234459999Y-91290001D01*
X234509742Y-91330824D01*
X234575724Y-91384974D01*
X234707753Y-91455546D01*
X234851014Y-91499003D01*
X235000000Y-91513677D01*
X235037333Y-91510000D01*
X239185199Y-91510000D01*
X241528001Y-93852804D01*
X241528000Y-95451289D01*
X241484063Y-95495226D01*
X241370795Y-95664744D01*
X241292774Y-95853102D01*
X241253000Y-96053061D01*
X241253000Y-96256939D01*
X241292774Y-96456898D01*
X241370795Y-96645256D01*
X241484063Y-96814774D01*
X241628226Y-96958937D01*
X241797744Y-97072205D01*
X241986102Y-97150226D01*
X242186061Y-97190000D01*
X242389939Y-97190000D01*
X242589898Y-97150226D01*
X242778256Y-97072205D01*
X242947774Y-96958937D01*
X243091937Y-96814774D01*
X243205205Y-96645256D01*
X243283226Y-96456898D01*
X243323000Y-96256939D01*
X243323000Y-96053061D01*
X243283226Y-95853102D01*
X243205205Y-95664744D01*
X243091937Y-95495226D01*
X243048000Y-95451289D01*
X243048000Y-93575322D01*
X243051676Y-93537999D01*
X243048000Y-93500676D01*
X243048000Y-93500667D01*
X243037003Y-93389014D01*
X242993546Y-93245753D01*
X242943369Y-93151880D01*
X242947774Y-93148937D01*
X243091937Y-93004774D01*
X243205205Y-92835256D01*
X243283226Y-92646898D01*
X243323000Y-92446939D01*
X243323000Y-92243061D01*
X243283226Y-92043102D01*
X243205205Y-91854744D01*
X243091937Y-91685226D01*
X242947774Y-91541063D01*
X242797500Y-91440653D01*
X242797500Y-89953711D01*
X242841437Y-89909774D01*
X242954705Y-89740256D01*
X243032726Y-89551898D01*
X243072500Y-89351939D01*
X243072500Y-89148061D01*
X243032726Y-88948102D01*
X242954705Y-88759744D01*
X242841437Y-88590226D01*
X242797500Y-88546289D01*
X242797500Y-87703711D01*
X242841437Y-87659774D01*
X242954705Y-87490256D01*
X243032726Y-87301898D01*
X243072500Y-87101939D01*
X243072500Y-86898061D01*
X243036698Y-86718072D01*
X248940000Y-86718072D01*
X249064482Y-86705812D01*
X249184180Y-86669502D01*
X249294494Y-86610537D01*
X249391185Y-86531185D01*
X249420573Y-86495375D01*
X249611928Y-86686730D01*
X249611928Y-89450000D01*
X249628992Y-89623254D01*
X249679528Y-89789850D01*
X249761595Y-89943386D01*
X249872038Y-90077962D01*
X250006614Y-90188405D01*
X250160150Y-90270472D01*
X250326746Y-90321008D01*
X250500000Y-90338072D01*
X252500000Y-90338072D01*
X252673254Y-90321008D01*
X252839850Y-90270472D01*
X252993386Y-90188405D01*
X253127962Y-90077962D01*
X253238405Y-89943386D01*
X253320472Y-89789850D01*
X253371008Y-89623254D01*
X253388072Y-89450000D01*
X253388072Y-85550000D01*
X253371008Y-85376746D01*
X253320472Y-85210150D01*
X253238405Y-85056614D01*
X253127962Y-84922038D01*
X252993386Y-84811595D01*
X252839850Y-84729528D01*
X252673254Y-84678992D01*
X252500000Y-84661928D01*
X250500000Y-84661928D01*
X250326746Y-84678992D01*
X250160150Y-84729528D01*
X250006614Y-84811595D01*
X249940585Y-84865783D01*
X249578072Y-84503270D01*
X249578072Y-81690000D01*
X250276928Y-81690000D01*
X250276928Y-83510000D01*
X250289188Y-83634482D01*
X250325498Y-83754180D01*
X250384463Y-83864494D01*
X250463815Y-83961185D01*
X250560506Y-84040537D01*
X250670820Y-84099502D01*
X250790518Y-84135812D01*
X250915000Y-84148072D01*
X252585000Y-84148072D01*
X252709482Y-84135812D01*
X252829180Y-84099502D01*
X252939494Y-84040537D01*
X253036185Y-83961185D01*
X253115537Y-83864494D01*
X253174502Y-83754180D01*
X253210812Y-83634482D01*
X253223072Y-83510000D01*
X253223072Y-83360000D01*
X254905511Y-83360000D01*
X254939144Y-83441197D01*
X255156597Y-83766639D01*
X255433361Y-84043403D01*
X255758803Y-84260856D01*
X256120414Y-84410640D01*
X256504298Y-84487000D01*
X256895702Y-84487000D01*
X257279586Y-84410640D01*
X257641197Y-84260856D01*
X257966639Y-84043403D01*
X258243403Y-83766639D01*
X258460856Y-83441197D01*
X258610640Y-83079586D01*
X258687000Y-82695702D01*
X258687000Y-82304298D01*
X258610640Y-81920414D01*
X258460856Y-81558803D01*
X258243403Y-81233361D01*
X257966639Y-80956597D01*
X257641197Y-80739144D01*
X257279586Y-80589360D01*
X256895702Y-80513000D01*
X256504298Y-80513000D01*
X256120414Y-80589360D01*
X255758803Y-80739144D01*
X255433361Y-80956597D01*
X255156597Y-81233361D01*
X254939144Y-81558803D01*
X254822669Y-81840000D01*
X253223072Y-81840000D01*
X253223072Y-81690000D01*
X253210812Y-81565518D01*
X253174502Y-81445820D01*
X253115537Y-81335506D01*
X253036185Y-81238815D01*
X252939494Y-81159463D01*
X252829180Y-81100498D01*
X252709482Y-81064188D01*
X252585000Y-81051928D01*
X250915000Y-81051928D01*
X250790518Y-81064188D01*
X250670820Y-81100498D01*
X250560506Y-81159463D01*
X250463815Y-81238815D01*
X250384463Y-81335506D01*
X250325498Y-81445820D01*
X250289188Y-81565518D01*
X250276928Y-81690000D01*
X249578072Y-81690000D01*
X249578072Y-79160000D01*
X250276928Y-79160000D01*
X250276928Y-79310000D01*
X250289188Y-79434482D01*
X250325498Y-79554180D01*
X250384463Y-79664494D01*
X250463815Y-79761185D01*
X250560506Y-79840537D01*
X250670820Y-79899502D01*
X250790518Y-79935812D01*
X250915000Y-79948072D01*
X252585000Y-79948072D01*
X252709482Y-79935812D01*
X252829180Y-79899502D01*
X252939494Y-79840537D01*
X253036185Y-79761185D01*
X253115537Y-79664494D01*
X253129585Y-79638212D01*
X257465000Y-79638212D01*
X257465000Y-79861788D01*
X257508617Y-80081067D01*
X257594176Y-80287624D01*
X257718388Y-80473520D01*
X257876480Y-80631612D01*
X258062376Y-80755824D01*
X258268933Y-80841383D01*
X258488212Y-80885000D01*
X258711788Y-80885000D01*
X258931067Y-80841383D01*
X259137624Y-80755824D01*
X259323520Y-80631612D01*
X259481612Y-80473520D01*
X259605824Y-80287624D01*
X259691383Y-80081067D01*
X259735000Y-79861788D01*
X259735000Y-79638212D01*
X259691383Y-79418933D01*
X259605824Y-79212376D01*
X259481612Y-79026480D01*
X259323520Y-78868388D01*
X259137624Y-78744176D01*
X258931067Y-78658617D01*
X258711788Y-78615000D01*
X258488212Y-78615000D01*
X258268933Y-78658617D01*
X258062376Y-78744176D01*
X257876480Y-78868388D01*
X257718388Y-79026480D01*
X257594176Y-79212376D01*
X257508617Y-79418933D01*
X257465000Y-79638212D01*
X253129585Y-79638212D01*
X253174502Y-79554180D01*
X253210812Y-79434482D01*
X253223072Y-79310000D01*
X253223072Y-78386262D01*
X255493343Y-78386262D01*
X255631541Y-78686672D01*
X255981125Y-78862709D01*
X256358334Y-78967164D01*
X256748674Y-78996021D01*
X257137143Y-78948173D01*
X257508813Y-78825456D01*
X257768459Y-78686672D01*
X257906657Y-78386262D01*
X256700000Y-77179605D01*
X255493343Y-78386262D01*
X253223072Y-78386262D01*
X253223072Y-77490000D01*
X253210812Y-77365518D01*
X253174502Y-77245820D01*
X253115537Y-77135506D01*
X253036185Y-77038815D01*
X252939494Y-76959463D01*
X252829180Y-76900498D01*
X252709482Y-76864188D01*
X252585000Y-76851928D01*
X250915000Y-76851928D01*
X250790518Y-76864188D01*
X250670820Y-76900498D01*
X250560506Y-76959463D01*
X250463815Y-77038815D01*
X250384463Y-77135506D01*
X250325498Y-77245820D01*
X250289188Y-77365518D01*
X250276928Y-77490000D01*
X250276928Y-77640000D01*
X249578072Y-77640000D01*
X249578072Y-75660000D01*
X255217230Y-75660000D01*
X255198811Y-75678419D01*
%TA.AperFunction,Conductor*%
D27*
G36*
X255198811Y-75678419D02*
G01*
X255313736Y-75793344D01*
X255013328Y-75931541D01*
X254837291Y-76281125D01*
X254732836Y-76658334D01*
X254703979Y-77048674D01*
X254751827Y-77437143D01*
X254874544Y-77808813D01*
X255013328Y-78068459D01*
X255313738Y-78206657D01*
X256520395Y-77000000D01*
X256506253Y-76985858D01*
X256685858Y-76806253D01*
X256700000Y-76820395D01*
X256714143Y-76806253D01*
X256893748Y-76985858D01*
X256879605Y-77000000D01*
X258086262Y-78206657D01*
X258386672Y-78068459D01*
X258562709Y-77718875D01*
X258667164Y-77341666D01*
X258696021Y-76951326D01*
X258648173Y-76562857D01*
X258525456Y-76191187D01*
X258386672Y-75931541D01*
X258086264Y-75793344D01*
X258201189Y-75678419D01*
X258182770Y-75660000D01*
X269340000Y-75660000D01*
X269340001Y-98340000D01*
X269180957Y-98340000D01*
X269229502Y-98249180D01*
X269265812Y-98129482D01*
X269278072Y-98005000D01*
X269278072Y-96745000D01*
X269265812Y-96620518D01*
X269229502Y-96500820D01*
X269170537Y-96390506D01*
X269091185Y-96293815D01*
X268994494Y-96214463D01*
X268884180Y-96155498D01*
X268764482Y-96119188D01*
X268640000Y-96106928D01*
X267420973Y-96106928D01*
X267455546Y-96042247D01*
X267499003Y-95898986D01*
X267510000Y-95787333D01*
X267513677Y-95750000D01*
X267510000Y-95712667D01*
X267510000Y-90893072D01*
X268640000Y-90893072D01*
X268764482Y-90880812D01*
X268884180Y-90844502D01*
X268994494Y-90785537D01*
X269091185Y-90706185D01*
X269170537Y-90609494D01*
X269229502Y-90499180D01*
X269265812Y-90379482D01*
X269278072Y-90255000D01*
X269278072Y-88995000D01*
X269265812Y-88870518D01*
X269229502Y-88750820D01*
X269170537Y-88640506D01*
X269091185Y-88543815D01*
X268994494Y-88464463D01*
X268884180Y-88405498D01*
X268764482Y-88369188D01*
X268640000Y-88356928D01*
X267510000Y-88356928D01*
X267510000Y-83037322D01*
X267513676Y-82999999D01*
X267510000Y-82962676D01*
X267510000Y-82962667D01*
X267499003Y-82851014D01*
X267455546Y-82707753D01*
X267384974Y-82575724D01*
X267362897Y-82548823D01*
X267313799Y-82488996D01*
X267313795Y-82488992D01*
X267290001Y-82459999D01*
X267261009Y-82436206D01*
X265593531Y-80768729D01*
X265768933Y-80841383D01*
X265988212Y-80885000D01*
X266211788Y-80885000D01*
X266431067Y-80841383D01*
X266637624Y-80755824D01*
X266823520Y-80631612D01*
X266981612Y-80473520D01*
X267105824Y-80287624D01*
X267191383Y-80081067D01*
X267235000Y-79861788D01*
X267235000Y-79638212D01*
X267191383Y-79418933D01*
X267105824Y-79212376D01*
X266981612Y-79026480D01*
X266823520Y-78868388D01*
X266637624Y-78744176D01*
X266431067Y-78658617D01*
X266211788Y-78615000D01*
X265988212Y-78615000D01*
X265768933Y-78658617D01*
X265562376Y-78744176D01*
X265376480Y-78868388D01*
X265218388Y-79026480D01*
X265094176Y-79212376D01*
X265008617Y-79418933D01*
X264965000Y-79638212D01*
X264965000Y-79861788D01*
X265008617Y-80081067D01*
X265081271Y-80256469D01*
X263835585Y-79010784D01*
X263910640Y-78829586D01*
X263987000Y-78445702D01*
X263987000Y-78054298D01*
X263910640Y-77670414D01*
X263760856Y-77308803D01*
X263543403Y-76983361D01*
X263266639Y-76706597D01*
X262941197Y-76489144D01*
X262579586Y-76339360D01*
X262195702Y-76263000D01*
X261804298Y-76263000D01*
X261420414Y-76339360D01*
X261058803Y-76489144D01*
X260733361Y-76706597D01*
X260456597Y-76983361D01*
X260239144Y-77308803D01*
X260089360Y-77670414D01*
X260013000Y-78054298D01*
X260013000Y-78445702D01*
X260089360Y-78829586D01*
X260239144Y-79191197D01*
X260456597Y-79516639D01*
X260733361Y-79793403D01*
X261058803Y-80010856D01*
X261420414Y-80160640D01*
X261804298Y-80237000D01*
X262195702Y-80237000D01*
X262579586Y-80160640D01*
X262760784Y-80085585D01*
X265990000Y-83314803D01*
X265990001Y-91321112D01*
X265951185Y-91273815D01*
X265854494Y-91194463D01*
X265744180Y-91135498D01*
X265624482Y-91099188D01*
X265500000Y-91086928D01*
X264500000Y-91086928D01*
X264375518Y-91099188D01*
X264255820Y-91135498D01*
X264145506Y-91194463D01*
X264090019Y-91240000D01*
X255787322Y-91240000D01*
X255749999Y-91236324D01*
X255712676Y-91240000D01*
X255712667Y-91240000D01*
X255601014Y-91250997D01*
X255482527Y-91286939D01*
X255457753Y-91294454D01*
X255325723Y-91365026D01*
X255249240Y-91427795D01*
X255209999Y-91459999D01*
X255186201Y-91488997D01*
X253710199Y-92965000D01*
X253648061Y-92965000D01*
X253448102Y-93004774D01*
X253388072Y-93029639D01*
X253388072Y-92950000D01*
X253371008Y-92776746D01*
X253320472Y-92610150D01*
X253238405Y-92456614D01*
X253127962Y-92322038D01*
X252993386Y-92211595D01*
X252839850Y-92129528D01*
X252673254Y-92078992D01*
X252500000Y-92061928D01*
X250500000Y-92061928D01*
X250326746Y-92078992D01*
X250160150Y-92129528D01*
X250006614Y-92211595D01*
X249872038Y-92322038D01*
X249761595Y-92456614D01*
X249679528Y-92610150D01*
X249628992Y-92776746D01*
X249611928Y-92950000D01*
X249611928Y-96850000D01*
X249628992Y-97023254D01*
X249679528Y-97189850D01*
X249761595Y-97343386D01*
X249872038Y-97477962D01*
X250006614Y-97588405D01*
X250160150Y-97670472D01*
X250326746Y-97721008D01*
X250500000Y-97738072D01*
X251063271Y-97738072D01*
X251665198Y-98340000D01*
X239388072Y-98340000D01*
X239388072Y-94450000D01*
X239371008Y-94276746D01*
X239320472Y-94110150D01*
X239238405Y-93956614D01*
X239127962Y-93822038D01*
X238993386Y-93711595D01*
X238839850Y-93629528D01*
X238673254Y-93578992D01*
X238500000Y-93561928D01*
X236500000Y-93561928D01*
X236326746Y-93578992D01*
X236160150Y-93629528D01*
X236006614Y-93711595D01*
X235872038Y-93822038D01*
X235761595Y-93956614D01*
X235679528Y-94110150D01*
X235628992Y-94276746D01*
X235611928Y-94450000D01*
X235611928Y-95640000D01*
X232214802Y-95640000D01*
X230760000Y-94185199D01*
X230760000Y-88863072D01*
X231162500Y-88863072D01*
X231333316Y-88846248D01*
X231497567Y-88796423D01*
X231648942Y-88715512D01*
X231725150Y-88652969D01*
X231754774Y-88801898D01*
X231832795Y-88990256D01*
X231946063Y-89159774D01*
X232090226Y-89303937D01*
X232259744Y-89417205D01*
X232448102Y-89495226D01*
X232648061Y-89535000D01*
X232710199Y-89535000D01*
X234436200Y-91261002D01*
X234459999Y-91290001D01*
X234509742Y-91330824D01*
X234575724Y-91384974D01*
X234707753Y-91455546D01*
X234851014Y-91499003D01*
X235000000Y-91513677D01*
X235037333Y-91510000D01*
X239185199Y-91510000D01*
X241528001Y-93852804D01*
X241528000Y-95451289D01*
X241484063Y-95495226D01*
X241370795Y-95664744D01*
X241292774Y-95853102D01*
X241253000Y-96053061D01*
X241253000Y-96256939D01*
X241292774Y-96456898D01*
X241370795Y-96645256D01*
X241484063Y-96814774D01*
X241628226Y-96958937D01*
X241797744Y-97072205D01*
X241986102Y-97150226D01*
X242186061Y-97190000D01*
X242389939Y-97190000D01*
X242589898Y-97150226D01*
X242778256Y-97072205D01*
X242947774Y-96958937D01*
X243091937Y-96814774D01*
X243205205Y-96645256D01*
X243283226Y-96456898D01*
X243323000Y-96256939D01*
X243323000Y-96053061D01*
X243283226Y-95853102D01*
X243205205Y-95664744D01*
X243091937Y-95495226D01*
X243048000Y-95451289D01*
X243048000Y-93575322D01*
X243051676Y-93537999D01*
X243048000Y-93500676D01*
X243048000Y-93500667D01*
X243037003Y-93389014D01*
X242993546Y-93245753D01*
X242943369Y-93151880D01*
X242947774Y-93148937D01*
X243091937Y-93004774D01*
X243205205Y-92835256D01*
X243283226Y-92646898D01*
X243323000Y-92446939D01*
X243323000Y-92243061D01*
X243283226Y-92043102D01*
X243205205Y-91854744D01*
X243091937Y-91685226D01*
X242947774Y-91541063D01*
X242797500Y-91440653D01*
X242797500Y-89953711D01*
X242841437Y-89909774D01*
X242954705Y-89740256D01*
X243032726Y-89551898D01*
X243072500Y-89351939D01*
X243072500Y-89148061D01*
X243032726Y-88948102D01*
X242954705Y-88759744D01*
X242841437Y-88590226D01*
X242797500Y-88546289D01*
X242797500Y-87703711D01*
X242841437Y-87659774D01*
X242954705Y-87490256D01*
X243032726Y-87301898D01*
X243072500Y-87101939D01*
X243072500Y-86898061D01*
X243036698Y-86718072D01*
X248940000Y-86718072D01*
X249064482Y-86705812D01*
X249184180Y-86669502D01*
X249294494Y-86610537D01*
X249391185Y-86531185D01*
X249420573Y-86495375D01*
X249611928Y-86686730D01*
X249611928Y-89450000D01*
X249628992Y-89623254D01*
X249679528Y-89789850D01*
X249761595Y-89943386D01*
X249872038Y-90077962D01*
X250006614Y-90188405D01*
X250160150Y-90270472D01*
X250326746Y-90321008D01*
X250500000Y-90338072D01*
X252500000Y-90338072D01*
X252673254Y-90321008D01*
X252839850Y-90270472D01*
X252993386Y-90188405D01*
X253127962Y-90077962D01*
X253238405Y-89943386D01*
X253320472Y-89789850D01*
X253371008Y-89623254D01*
X253388072Y-89450000D01*
X253388072Y-85550000D01*
X253371008Y-85376746D01*
X253320472Y-85210150D01*
X253238405Y-85056614D01*
X253127962Y-84922038D01*
X252993386Y-84811595D01*
X252839850Y-84729528D01*
X252673254Y-84678992D01*
X252500000Y-84661928D01*
X250500000Y-84661928D01*
X250326746Y-84678992D01*
X250160150Y-84729528D01*
X250006614Y-84811595D01*
X249940585Y-84865783D01*
X249578072Y-84503270D01*
X249578072Y-81690000D01*
X250276928Y-81690000D01*
X250276928Y-83510000D01*
X250289188Y-83634482D01*
X250325498Y-83754180D01*
X250384463Y-83864494D01*
X250463815Y-83961185D01*
X250560506Y-84040537D01*
X250670820Y-84099502D01*
X250790518Y-84135812D01*
X250915000Y-84148072D01*
X252585000Y-84148072D01*
X252709482Y-84135812D01*
X252829180Y-84099502D01*
X252939494Y-84040537D01*
X253036185Y-83961185D01*
X253115537Y-83864494D01*
X253174502Y-83754180D01*
X253210812Y-83634482D01*
X253223072Y-83510000D01*
X253223072Y-83360000D01*
X254905511Y-83360000D01*
X254939144Y-83441197D01*
X255156597Y-83766639D01*
X255433361Y-84043403D01*
X255758803Y-84260856D01*
X256120414Y-84410640D01*
X256504298Y-84487000D01*
X256895702Y-84487000D01*
X257279586Y-84410640D01*
X257641197Y-84260856D01*
X257966639Y-84043403D01*
X258243403Y-83766639D01*
X258460856Y-83441197D01*
X258610640Y-83079586D01*
X258687000Y-82695702D01*
X258687000Y-82304298D01*
X258610640Y-81920414D01*
X258460856Y-81558803D01*
X258243403Y-81233361D01*
X257966639Y-80956597D01*
X257641197Y-80739144D01*
X257279586Y-80589360D01*
X256895702Y-80513000D01*
X256504298Y-80513000D01*
X256120414Y-80589360D01*
X255758803Y-80739144D01*
X255433361Y-80956597D01*
X255156597Y-81233361D01*
X254939144Y-81558803D01*
X254822669Y-81840000D01*
X253223072Y-81840000D01*
X253223072Y-81690000D01*
X253210812Y-81565518D01*
X253174502Y-81445820D01*
X253115537Y-81335506D01*
X253036185Y-81238815D01*
X252939494Y-81159463D01*
X252829180Y-81100498D01*
X252709482Y-81064188D01*
X252585000Y-81051928D01*
X250915000Y-81051928D01*
X250790518Y-81064188D01*
X250670820Y-81100498D01*
X250560506Y-81159463D01*
X250463815Y-81238815D01*
X250384463Y-81335506D01*
X250325498Y-81445820D01*
X250289188Y-81565518D01*
X250276928Y-81690000D01*
X249578072Y-81690000D01*
X249578072Y-79160000D01*
X250276928Y-79160000D01*
X250276928Y-79310000D01*
X250289188Y-79434482D01*
X250325498Y-79554180D01*
X250384463Y-79664494D01*
X250463815Y-79761185D01*
X250560506Y-79840537D01*
X250670820Y-79899502D01*
X250790518Y-79935812D01*
X250915000Y-79948072D01*
X252585000Y-79948072D01*
X252709482Y-79935812D01*
X252829180Y-79899502D01*
X252939494Y-79840537D01*
X253036185Y-79761185D01*
X253115537Y-79664494D01*
X253129585Y-79638212D01*
X257465000Y-79638212D01*
X257465000Y-79861788D01*
X257508617Y-80081067D01*
X257594176Y-80287624D01*
X257718388Y-80473520D01*
X257876480Y-80631612D01*
X258062376Y-80755824D01*
X258268933Y-80841383D01*
X258488212Y-80885000D01*
X258711788Y-80885000D01*
X258931067Y-80841383D01*
X259137624Y-80755824D01*
X259323520Y-80631612D01*
X259481612Y-80473520D01*
X259605824Y-80287624D01*
X259691383Y-80081067D01*
X259735000Y-79861788D01*
X259735000Y-79638212D01*
X259691383Y-79418933D01*
X259605824Y-79212376D01*
X259481612Y-79026480D01*
X259323520Y-78868388D01*
X259137624Y-78744176D01*
X258931067Y-78658617D01*
X258711788Y-78615000D01*
X258488212Y-78615000D01*
X258268933Y-78658617D01*
X258062376Y-78744176D01*
X257876480Y-78868388D01*
X257718388Y-79026480D01*
X257594176Y-79212376D01*
X257508617Y-79418933D01*
X257465000Y-79638212D01*
X253129585Y-79638212D01*
X253174502Y-79554180D01*
X253210812Y-79434482D01*
X253223072Y-79310000D01*
X253223072Y-78386262D01*
X255493343Y-78386262D01*
X255631541Y-78686672D01*
X255981125Y-78862709D01*
X256358334Y-78967164D01*
X256748674Y-78996021D01*
X257137143Y-78948173D01*
X257508813Y-78825456D01*
X257768459Y-78686672D01*
X257906657Y-78386262D01*
X256700000Y-77179605D01*
X255493343Y-78386262D01*
X253223072Y-78386262D01*
X253223072Y-77490000D01*
X253210812Y-77365518D01*
X253174502Y-77245820D01*
X253115537Y-77135506D01*
X253036185Y-77038815D01*
X252939494Y-76959463D01*
X252829180Y-76900498D01*
X252709482Y-76864188D01*
X252585000Y-76851928D01*
X250915000Y-76851928D01*
X250790518Y-76864188D01*
X250670820Y-76900498D01*
X250560506Y-76959463D01*
X250463815Y-77038815D01*
X250384463Y-77135506D01*
X250325498Y-77245820D01*
X250289188Y-77365518D01*
X250276928Y-77490000D01*
X250276928Y-77640000D01*
X249578072Y-77640000D01*
X249578072Y-75660000D01*
X255217230Y-75660000D01*
X255198811Y-75678419D01*
G37*
%TD.AperFunction*%
D26*
X264145506Y-95805537D02*
X264255820Y-95864502D01*
X264375518Y-95900812D01*
X264500000Y-95913072D01*
X265500000Y-95913072D01*
X265513451Y-95911747D01*
X264185199Y-97240000D01*
X254667311Y-97240000D01*
X254745226Y-97051898D01*
X254785000Y-96851939D01*
X254785000Y-96789801D01*
X255814802Y-95760000D01*
X264090019Y-95760000D01*
X264145506Y-95805537D01*
%TA.AperFunction,Conductor*%
D27*
G36*
X264145506Y-95805537D02*
G01*
X264255820Y-95864502D01*
X264375518Y-95900812D01*
X264500000Y-95913072D01*
X265500000Y-95913072D01*
X265513451Y-95911747D01*
X264185199Y-97240000D01*
X254667311Y-97240000D01*
X254745226Y-97051898D01*
X254785000Y-96851939D01*
X254785000Y-96789801D01*
X255814802Y-95760000D01*
X264090019Y-95760000D01*
X264145506Y-95805537D01*
G37*
%TD.AperFunction*%
D26*
X217865499Y-89162676D02*
X217861823Y-89199999D01*
X217865499Y-89237321D01*
X217865499Y-89237331D01*
X217876496Y-89348984D01*
X217908512Y-89454528D01*
X217919953Y-89492245D01*
X217990525Y-89624275D01*
X218011639Y-89650002D01*
X218052671Y-89700000D01*
X215359303Y-89700000D01*
X215385498Y-89673805D01*
X215414502Y-89650002D01*
X215509475Y-89534277D01*
X215580047Y-89402248D01*
X215623504Y-89258987D01*
X215634501Y-89147334D01*
X215634501Y-89147324D01*
X215638177Y-89110001D01*
X215634501Y-89072678D01*
X215634501Y-88435000D01*
X215728228Y-88435000D01*
X215928187Y-88395226D01*
X216116545Y-88317205D01*
X216286063Y-88203937D01*
X216405000Y-88085000D01*
X217865500Y-88085000D01*
X217865499Y-89162676D01*
%TA.AperFunction,Conductor*%
D27*
G36*
X217865499Y-89162676D02*
G01*
X217861823Y-89199999D01*
X217865499Y-89237321D01*
X217865499Y-89237331D01*
X217876496Y-89348984D01*
X217908512Y-89454528D01*
X217919953Y-89492245D01*
X217990525Y-89624275D01*
X218011639Y-89650002D01*
X218052671Y-89700000D01*
X215359303Y-89700000D01*
X215385498Y-89673805D01*
X215414502Y-89650002D01*
X215509475Y-89534277D01*
X215580047Y-89402248D01*
X215623504Y-89258987D01*
X215634501Y-89147334D01*
X215634501Y-89147324D01*
X215638177Y-89110001D01*
X215634501Y-89072678D01*
X215634501Y-88435000D01*
X215728228Y-88435000D01*
X215928187Y-88395226D01*
X216116545Y-88317205D01*
X216286063Y-88203937D01*
X216405000Y-88085000D01*
X217865500Y-88085000D01*
X217865499Y-89162676D01*
G37*
%TD.AperFunction*%
D26*
X215285825Y-75798382D02*
X215079534Y-76107118D01*
X214937439Y-76450166D01*
X214865000Y-76814344D01*
X214865000Y-77185656D01*
X214937439Y-77549834D01*
X215079534Y-77892882D01*
X215285825Y-78201618D01*
X215548382Y-78464175D01*
X215857118Y-78670466D01*
X216200166Y-78812561D01*
X216564344Y-78885000D01*
X216935656Y-78885000D01*
X217299834Y-78812561D01*
X217432718Y-78757519D01*
X220961200Y-82286002D01*
X220984999Y-82315001D01*
X221100724Y-82409974D01*
X221232753Y-82480546D01*
X221376014Y-82524003D01*
X221487667Y-82535000D01*
X221487675Y-82535000D01*
X221525000Y-82538676D01*
X221562325Y-82535000D01*
X228030386Y-82535000D01*
X228061595Y-82593387D01*
X228172038Y-82727962D01*
X228306613Y-82838405D01*
X228378414Y-82876784D01*
X228270506Y-82934463D01*
X228173815Y-83013815D01*
X228094463Y-83110506D01*
X228035498Y-83220820D01*
X227999188Y-83340518D01*
X227986928Y-83465000D01*
X227986928Y-84115000D01*
X227999188Y-84239482D01*
X228035498Y-84359180D01*
X228094463Y-84469494D01*
X228173815Y-84566185D01*
X228270506Y-84645537D01*
X228380820Y-84704502D01*
X228500518Y-84740812D01*
X228593808Y-84750000D01*
X228500518Y-84759188D01*
X228380820Y-84795498D01*
X228270506Y-84854463D01*
X228173815Y-84933815D01*
X228094463Y-85030506D01*
X228046445Y-85120339D01*
X227990256Y-85082795D01*
X227801898Y-85004774D01*
X227601939Y-84965000D01*
X227398061Y-84965000D01*
X227198102Y-85004774D01*
X227009744Y-85082795D01*
X226840226Y-85196063D01*
X226760649Y-85275640D01*
X226745226Y-85198102D01*
X226667205Y-85009744D01*
X226553937Y-84840226D01*
X226409774Y-84696063D01*
X226240256Y-84582795D01*
X226051898Y-84504774D01*
X225851939Y-84465000D01*
X225648061Y-84465000D01*
X225448102Y-84504774D01*
X225259744Y-84582795D01*
X225211546Y-84615000D01*
X221063572Y-84615000D01*
X221063572Y-84500000D01*
X221051312Y-84375518D01*
X221015002Y-84255820D01*
X220956037Y-84145506D01*
X220876685Y-84048815D01*
X220779994Y-83969463D01*
X220669680Y-83910498D01*
X220549982Y-83874188D01*
X220467808Y-83866095D01*
X220347774Y-83746061D01*
X220178256Y-83632793D01*
X219989898Y-83554772D01*
X219789939Y-83514998D01*
X219586061Y-83514998D01*
X219386102Y-83554772D01*
X219197744Y-83632793D01*
X219028226Y-83746061D01*
X218908192Y-83866095D01*
X218826018Y-83874188D01*
X218706320Y-83910498D01*
X218596006Y-83969463D01*
X218499315Y-84048815D01*
X218419963Y-84145506D01*
X218360998Y-84255820D01*
X218324688Y-84375518D01*
X218312428Y-84500000D01*
X218312428Y-84950000D01*
X218322277Y-85049999D01*
X218312428Y-85150000D01*
X218312428Y-85600000D01*
X218322277Y-85700000D01*
X218312428Y-85800000D01*
X218312428Y-85915000D01*
X216198377Y-85915000D01*
X216245226Y-85801898D01*
X216285000Y-85601939D01*
X216285000Y-85398061D01*
X216245226Y-85198102D01*
X216167205Y-85009744D01*
X216053937Y-84840226D01*
X215909774Y-84696063D01*
X215740256Y-84582795D01*
X215551898Y-84504774D01*
X215351939Y-84465000D01*
X215184125Y-84465000D01*
X215175312Y-84375518D01*
X215139002Y-84255820D01*
X215080037Y-84145506D01*
X215000685Y-84048815D01*
X214903994Y-83969463D01*
X214793680Y-83910498D01*
X214673982Y-83874188D01*
X214591808Y-83866095D01*
X214471774Y-83746061D01*
X214302256Y-83632793D01*
X214113898Y-83554772D01*
X213913939Y-83514998D01*
X213710061Y-83514998D01*
X213510102Y-83554772D01*
X213321744Y-83632793D01*
X213260000Y-83674049D01*
X213260000Y-78820484D01*
X213299834Y-78812561D01*
X213642882Y-78670466D01*
X213951618Y-78464175D01*
X214214175Y-78201618D01*
X214420466Y-77892882D01*
X214562561Y-77549834D01*
X214635000Y-77185656D01*
X214635000Y-76814344D01*
X214562561Y-76450166D01*
X214420466Y-76107118D01*
X214214175Y-75798382D01*
X214075793Y-75660000D01*
X215424207Y-75660000D01*
X215285825Y-75798382D01*
%TA.AperFunction,Conductor*%
D27*
G36*
X215285825Y-75798382D02*
G01*
X215079534Y-76107118D01*
X214937439Y-76450166D01*
X214865000Y-76814344D01*
X214865000Y-77185656D01*
X214937439Y-77549834D01*
X215079534Y-77892882D01*
X215285825Y-78201618D01*
X215548382Y-78464175D01*
X215857118Y-78670466D01*
X216200166Y-78812561D01*
X216564344Y-78885000D01*
X216935656Y-78885000D01*
X217299834Y-78812561D01*
X217432718Y-78757519D01*
X220961200Y-82286002D01*
X220984999Y-82315001D01*
X221100724Y-82409974D01*
X221232753Y-82480546D01*
X221376014Y-82524003D01*
X221487667Y-82535000D01*
X221487675Y-82535000D01*
X221525000Y-82538676D01*
X221562325Y-82535000D01*
X228030386Y-82535000D01*
X228061595Y-82593387D01*
X228172038Y-82727962D01*
X228306613Y-82838405D01*
X228378414Y-82876784D01*
X228270506Y-82934463D01*
X228173815Y-83013815D01*
X228094463Y-83110506D01*
X228035498Y-83220820D01*
X227999188Y-83340518D01*
X227986928Y-83465000D01*
X227986928Y-84115000D01*
X227999188Y-84239482D01*
X228035498Y-84359180D01*
X228094463Y-84469494D01*
X228173815Y-84566185D01*
X228270506Y-84645537D01*
X228380820Y-84704502D01*
X228500518Y-84740812D01*
X228593808Y-84750000D01*
X228500518Y-84759188D01*
X228380820Y-84795498D01*
X228270506Y-84854463D01*
X228173815Y-84933815D01*
X228094463Y-85030506D01*
X228046445Y-85120339D01*
X227990256Y-85082795D01*
X227801898Y-85004774D01*
X227601939Y-84965000D01*
X227398061Y-84965000D01*
X227198102Y-85004774D01*
X227009744Y-85082795D01*
X226840226Y-85196063D01*
X226760649Y-85275640D01*
X226745226Y-85198102D01*
X226667205Y-85009744D01*
X226553937Y-84840226D01*
X226409774Y-84696063D01*
X226240256Y-84582795D01*
X226051898Y-84504774D01*
X225851939Y-84465000D01*
X225648061Y-84465000D01*
X225448102Y-84504774D01*
X225259744Y-84582795D01*
X225211546Y-84615000D01*
X221063572Y-84615000D01*
X221063572Y-84500000D01*
X221051312Y-84375518D01*
X221015002Y-84255820D01*
X220956037Y-84145506D01*
X220876685Y-84048815D01*
X220779994Y-83969463D01*
X220669680Y-83910498D01*
X220549982Y-83874188D01*
X220467808Y-83866095D01*
X220347774Y-83746061D01*
X220178256Y-83632793D01*
X219989898Y-83554772D01*
X219789939Y-83514998D01*
X219586061Y-83514998D01*
X219386102Y-83554772D01*
X219197744Y-83632793D01*
X219028226Y-83746061D01*
X218908192Y-83866095D01*
X218826018Y-83874188D01*
X218706320Y-83910498D01*
X218596006Y-83969463D01*
X218499315Y-84048815D01*
X218419963Y-84145506D01*
X218360998Y-84255820D01*
X218324688Y-84375518D01*
X218312428Y-84500000D01*
X218312428Y-84950000D01*
X218322277Y-85049999D01*
X218312428Y-85150000D01*
X218312428Y-85600000D01*
X218322277Y-85700000D01*
X218312428Y-85800000D01*
X218312428Y-85915000D01*
X216198377Y-85915000D01*
X216245226Y-85801898D01*
X216285000Y-85601939D01*
X216285000Y-85398061D01*
X216245226Y-85198102D01*
X216167205Y-85009744D01*
X216053937Y-84840226D01*
X215909774Y-84696063D01*
X215740256Y-84582795D01*
X215551898Y-84504774D01*
X215351939Y-84465000D01*
X215184125Y-84465000D01*
X215175312Y-84375518D01*
X215139002Y-84255820D01*
X215080037Y-84145506D01*
X215000685Y-84048815D01*
X214903994Y-83969463D01*
X214793680Y-83910498D01*
X214673982Y-83874188D01*
X214591808Y-83866095D01*
X214471774Y-83746061D01*
X214302256Y-83632793D01*
X214113898Y-83554772D01*
X213913939Y-83514998D01*
X213710061Y-83514998D01*
X213510102Y-83554772D01*
X213321744Y-83632793D01*
X213260000Y-83674049D01*
X213260000Y-78820484D01*
X213299834Y-78812561D01*
X213642882Y-78670466D01*
X213951618Y-78464175D01*
X214214175Y-78201618D01*
X214420466Y-77892882D01*
X214562561Y-77549834D01*
X214635000Y-77185656D01*
X214635000Y-76814344D01*
X214562561Y-76450166D01*
X214420466Y-76107118D01*
X214214175Y-75798382D01*
X214075793Y-75660000D01*
X215424207Y-75660000D01*
X215285825Y-75798382D01*
G37*
%TD.AperFunction*%
D26*
X239921928Y-83394000D02*
X236555322Y-83394000D01*
X236506681Y-83303000D01*
X236559502Y-83204180D01*
X236595812Y-83084482D01*
X236608072Y-82960000D01*
X236608072Y-81944000D01*
X236595812Y-81819518D01*
X236559502Y-81699820D01*
X236506681Y-81601000D01*
X236555322Y-81510000D01*
X239921928Y-81510000D01*
X239921928Y-83394000D01*
%TA.AperFunction,Conductor*%
D27*
G36*
X239921928Y-83394000D02*
G01*
X236555322Y-83394000D01*
X236506681Y-83303000D01*
X236559502Y-83204180D01*
X236595812Y-83084482D01*
X236608072Y-82960000D01*
X236608072Y-81944000D01*
X236595812Y-81819518D01*
X236559502Y-81699820D01*
X236506681Y-81601000D01*
X236555322Y-81510000D01*
X239921928Y-81510000D01*
X239921928Y-83394000D01*
G37*
%TD.AperFunction*%
D26*
X232383319Y-79899000D02*
X232330498Y-79997820D01*
X232294188Y-80117518D01*
X232281928Y-80242000D01*
X232281928Y-81258000D01*
X232294188Y-81382482D01*
X232330498Y-81502180D01*
X232383319Y-81601000D01*
X232334678Y-81692000D01*
X230588072Y-81692000D01*
X230588072Y-81449999D01*
X230571008Y-81276745D01*
X230520472Y-81110149D01*
X230438405Y-80956613D01*
X230327962Y-80822038D01*
X230240184Y-80750000D01*
X230327962Y-80677962D01*
X230438405Y-80543387D01*
X230520472Y-80389851D01*
X230571008Y-80223255D01*
X230588072Y-80050001D01*
X230588072Y-79808000D01*
X232334678Y-79808000D01*
X232383319Y-79899000D01*
%TA.AperFunction,Conductor*%
D27*
G36*
X232383319Y-79899000D02*
G01*
X232330498Y-79997820D01*
X232294188Y-80117518D01*
X232281928Y-80242000D01*
X232281928Y-81258000D01*
X232294188Y-81382482D01*
X232330498Y-81502180D01*
X232383319Y-81601000D01*
X232334678Y-81692000D01*
X230588072Y-81692000D01*
X230588072Y-81449999D01*
X230571008Y-81276745D01*
X230520472Y-81110149D01*
X230438405Y-80956613D01*
X230327962Y-80822038D01*
X230240184Y-80750000D01*
X230327962Y-80677962D01*
X230438405Y-80543387D01*
X230520472Y-80389851D01*
X230571008Y-80223255D01*
X230588072Y-80050001D01*
X230588072Y-79808000D01*
X232334678Y-79808000D01*
X232383319Y-79899000D01*
G37*
%TD.AperFunction*%
D26*
X227161928Y-77750000D02*
X227174188Y-77874482D01*
X227210498Y-77994180D01*
X227269463Y-78104494D01*
X227348815Y-78201185D01*
X227445506Y-78280537D01*
X227555820Y-78339502D01*
X227675518Y-78375812D01*
X227800000Y-78388072D01*
X228090001Y-78388072D01*
X228090001Y-78872000D01*
X228061595Y-78906613D01*
X227979528Y-79060149D01*
X227928992Y-79226745D01*
X227911928Y-79399999D01*
X227911928Y-80050001D01*
X227928992Y-80223255D01*
X227979528Y-80389851D01*
X228061595Y-80543387D01*
X228172038Y-80677962D01*
X228259816Y-80750000D01*
X228172038Y-80822038D01*
X228061595Y-80956613D01*
X228030386Y-81015000D01*
X222650672Y-81015000D01*
X222667205Y-80990256D01*
X222745226Y-80801898D01*
X222785000Y-80601939D01*
X222785000Y-80539801D01*
X224936730Y-78388072D01*
X225700000Y-78388072D01*
X225824482Y-78375812D01*
X225944180Y-78339502D01*
X226054494Y-78280537D01*
X226151185Y-78201185D01*
X226230537Y-78104494D01*
X226289502Y-77994180D01*
X226325812Y-77874482D01*
X226338072Y-77750000D01*
X226338072Y-76684999D01*
X227161928Y-76684999D01*
X227161928Y-77750000D01*
%TA.AperFunction,Conductor*%
D27*
G36*
X227161928Y-77750000D02*
G01*
X227174188Y-77874482D01*
X227210498Y-77994180D01*
X227269463Y-78104494D01*
X227348815Y-78201185D01*
X227445506Y-78280537D01*
X227555820Y-78339502D01*
X227675518Y-78375812D01*
X227800000Y-78388072D01*
X228090001Y-78388072D01*
X228090001Y-78872000D01*
X228061595Y-78906613D01*
X227979528Y-79060149D01*
X227928992Y-79226745D01*
X227911928Y-79399999D01*
X227911928Y-80050001D01*
X227928992Y-80223255D01*
X227979528Y-80389851D01*
X228061595Y-80543387D01*
X228172038Y-80677962D01*
X228259816Y-80750000D01*
X228172038Y-80822038D01*
X228061595Y-80956613D01*
X228030386Y-81015000D01*
X222650672Y-81015000D01*
X222667205Y-80990256D01*
X222745226Y-80801898D01*
X222785000Y-80601939D01*
X222785000Y-80539801D01*
X224936730Y-78388072D01*
X225700000Y-78388072D01*
X225824482Y-78375812D01*
X225944180Y-78339502D01*
X226054494Y-78280537D01*
X226151185Y-78201185D01*
X226230537Y-78104494D01*
X226289502Y-77994180D01*
X226325812Y-77874482D01*
X226338072Y-77750000D01*
X226338072Y-76684999D01*
X227161928Y-76684999D01*
X227161928Y-77750000D01*
G37*
%TD.AperFunction*%
D26*
X239921928Y-76996729D02*
X239921928Y-79990000D01*
X236555322Y-79990000D01*
X236506681Y-79899000D01*
X236559502Y-79800180D01*
X236595812Y-79680482D01*
X236608072Y-79556000D01*
X236608072Y-78540000D01*
X236595812Y-78415518D01*
X236559502Y-78295820D01*
X236506681Y-78197000D01*
X236559502Y-78098180D01*
X236595812Y-77978482D01*
X236608072Y-77854000D01*
X236608072Y-76838000D01*
X236595812Y-76713518D01*
X236587161Y-76684999D01*
X239610198Y-76684999D01*
X239921928Y-76996729D01*
%TA.AperFunction,Conductor*%
D27*
G36*
X239921928Y-76996729D02*
G01*
X239921928Y-79990000D01*
X236555322Y-79990000D01*
X236506681Y-79899000D01*
X236559502Y-79800180D01*
X236595812Y-79680482D01*
X236608072Y-79556000D01*
X236608072Y-78540000D01*
X236595812Y-78415518D01*
X236559502Y-78295820D01*
X236506681Y-78197000D01*
X236559502Y-78098180D01*
X236595812Y-77978482D01*
X236608072Y-77854000D01*
X236608072Y-76838000D01*
X236595812Y-76713518D01*
X236587161Y-76684999D01*
X239610198Y-76684999D01*
X239921928Y-76996729D01*
G37*
%TD.AperFunction*%
%TD*%
M02*
