M48
; DRILL file {KiCad (5.1.12)-1} date 03/06/23 23:23:57
; FORMAT={-:-/ absolute / inch / decimal}
; #@! TF.CreationDate,2023-03-06T23:23:57+01:00
; #@! TF.GenerationSoftware,Kicad,Pcbnew,(5.1.12)-1
; #@! TF.FileFunction,Plated,1,2,PTH
FMAT,2
INCH
T1C0.0157
T2C0.0472
T3C0.0591
T4C0.0710
T5C0.1063
%
G90
G05
T1
X7.6083Y-3.1594
X7.6083Y-3.6909
X7.813Y-3.5614
X8.0217Y-3.3957
X8.2303Y-3.5614
X8.2303Y-3.7614
X8.2677Y-3.435
X8.3268Y-3.435
X8.3366Y-3.3858
X8.376Y-3.59
X8.4178Y-3.3287
X8.4744Y-3.3661
X8.4892Y-3.4409
X8.5335Y-3.248
X8.5335Y-3.5039
X8.5335Y-3.6909
X8.6491Y-3.3287
X8.7303Y-3.1693
X8.7795Y-3.4744
X8.8091Y-3.1791
X8.8662Y-3.4271
X8.8789Y-3.5138
X8.8878Y-3.3661
X8.9567Y-3.3858
X8.9665Y-3.4252
X8.9665Y-3.5138
X8.9966Y-3.7298
X9.0059Y-3.5827
X9.0217Y-3.4542
X9.0354Y-3.8484
X9.1043Y-3.1791
X9.1634Y-3.4843
X9.2301Y-3.0451
X9.3799Y-3.0413
X9.3799Y-3.248
X9.5276Y-3.3366
X9.529Y-3.4252
X9.529Y-3.5138
X9.5389Y-3.6356
X9.5389Y-3.7856
X9.9902Y-3.7008
X9.9902Y-3.7598
X9.9902Y-3.8091
X10.0Y-3.0315
X10.0295Y-3.4252
X10.0295Y-3.5138
X10.0694Y-3.6619
X10.2165Y-3.0315
X10.2854Y-3.7992
T2
X8.376Y-3.0315
X8.376Y-3.8189
X8.5335Y-3.0315
X8.5335Y-3.8189
X8.6909Y-3.0315
X8.6909Y-3.8189
T3
X7.0472Y-3.2717
X7.0472Y-3.5827
T4
X10.1063Y-3.0315
X10.1063Y-3.248
X10.315Y-3.0807
T5
X6.6437Y-3.4272
T0
M30
